<svg id="Polot" xmlns="http://www.w3.org/2000/svg" viewBox="0 0 381.33 242.75"><defs><style>.cls-1,.cls-5{fill:none;stroke-miterlimit:10;stroke-width:2px;}.cls-1{stroke:#353535;}.cls-2{fill:#009fd1;opacity:0.3;}.cls-3{fill:#d63227;opacity:0.7;}.cls-4{fill:#fae889;}.cls-5{stroke:#009fd1;}.cls-6{fill:#fff;}</style></defs><title>burger_icon_svg</title><path class="cls-1" d="M164.16,31a22.91,22.91,0,0,1,22.61-19.23H204A22.91,22.91,0,0,1,226.62,31H237.7A33.73,33.73,0,0,0,204.18,1H186.6a33.73,33.73,0,0,0-33.52,30h11.08Z"/><path class="cls-2" d="M298.17,75.84V36.1H88.68V139.47H316a5.69,5.69,0,0,0,5.69-5.69V75.84H298.17Z"/><path class="cls-1" d="M314.72,76.61v57.18a5.69,5.69,0,0,1-5.69,5.69H86.49a5.69,5.69,0,0,1-5.69-5.69V31.1"/><rect class="cls-3" x="174.02" y="143.45" width="54.19" height="20.9"/><rect class="cls-1" x="170.04" y="139.47" width="54.19" height="20.9"/><polygon class="cls-4" points="347.44 79.47 302.7 79.47 302.7 34.73 347.44 79.47"/><polyline class="cls-1" points="342.81 75.84 298.17 75.84 298.17 31.1"/><line class="cls-1" y1="241.75" x2="381.33" y2="241.75"/><path class="cls-1" d="M341.82,184.74v51.84a5.16,5.16,0,0,1-5.16,5.16H58.87a5.16,5.16,0,0,1-5.16-5.16V36.26a5.16,5.16,0,0,1,5.16-5.16h239.3"/><line class="cls-1" x1="341.82" y1="164.35" x2="341.82" y2="75.84"/><line class="cls-1" x1="85.83" y1="189.41" x2="85.83" y2="241.75"/><polyline class="cls-1" points="99.67 189.41 189.1 189.41 189.1 241.75"/><line class="cls-5" x1="217.33" y1="196.41" x2="307.17" y2="196.41"/><line class="cls-5" x1="217.33" y1="208.74" x2="307.17" y2="208.74"/><line class="cls-5" x1="217.33" y1="221.25" x2="307.17" y2="221.25"/><rect class="cls-6" x="85.83" y="42.24" width="39.75" height="9.25"/></svg>