<svg id="Layer_1" data-name="Layer 1" xmlns="http://www.w3.org/2000/svg" viewBox="0 0 237.42 146.17"><defs><style>.cls-1,.cls-2,.cls-5{fill:none;stroke-miterlimit:10;stroke-width:2px;}.cls-1{stroke:#009fd1;}.cls-1,.cls-4{opacity:0.3;}.cls-2{stroke:#353535;}.cls-3{fill:#fae889;}.cls-4{fill:#009fd1;}.cls-5{stroke:#d63227;}</style></defs><title>burger_icon_svg</title><path class="cls-1" d="M219.87,145.17H21a5.25,5.25,0,0,1-5.25-5.25V103.23"/><circle class="cls-1" cx="15.71" cy="100.43" r="2.8"/><path class="cls-2" d="M215.87,141.17H17a5.25,5.25,0,0,1-5.25-5.25V99.23"/><path class="cls-3" d="M187.08,88.42h19.69a2.84,2.84,0,0,1,2.84,2.84v30.16a2.84,2.84,0,0,1-2.84,2.84H187.08a2.85,2.85,0,0,1-2.85-2.85V91.27A2.84,2.84,0,0,1,187.08,88.42Z" transform="translate(393.84 212.69) rotate(180)"/><path class="cls-4" d="M187.74,44h19.69a2.85,2.85,0,0,1,2.85,2.85V77a2.84,2.84,0,0,1-2.84,2.84H187.74A2.84,2.84,0,0,1,184.9,77V46.82A2.85,2.85,0,0,1,187.74,44Z" transform="translate(395.17 123.81) rotate(180)"/><path class="cls-2" d="M144.36,85.42h59.41a2.84,2.84,0,0,1,2.84,2.84v30.16a2.84,2.84,0,0,1-2.84,2.84H144.36a2.85,2.85,0,0,1-2.85-2.85V88.27A2.84,2.84,0,0,1,144.36,85.42Z" transform="translate(348.12 206.7) rotate(180)"/><path class="cls-2" d="M141.51,94.38h0v17.94h0A7.52,7.52,0,0,1,134,104.8v-2.9A7.52,7.52,0,0,1,141.51,94.38Z"/><rect class="cls-2" x="142.18" y="40.98" width="65.1" height="35.85" rx="2.84" ry="2.84" transform="translate(349.45 117.81) rotate(180)"/><path class="cls-2" d="M134.66,49.93h0a7.52,7.52,0,0,1,7.52,7.52v2.9a7.52,7.52,0,0,1-7.52,7.52h0a0,0,0,0,1,0,0V49.93A0,0,0,0,1,134.66,49.93Z" transform="translate(276.83 117.81) rotate(180)"/><rect class="cls-5" x="37.26" y="13.93" width="21.13" height="67.21" rx="2.82" ry="2.82"/><rect class="cls-5" x="40.65" y="17.48" width="14.35" height="60.11" rx="2.82" ry="2.82"/><circle class="cls-2" cx="50.08" cy="96.43" r="2.8"/><circle class="cls-2" cx="73.25" cy="24.75" r="2.8"/><circle class="cls-2" cx="11.71" cy="96.43" r="2.8"/><circle class="cls-2" cx="121.92" cy="104.54" r="2.8"/><circle class="cls-2" cx="121.92" cy="58.51" r="2.8"/><path class="cls-2" d="M50.08,98.24v2.66a3.65,3.65,0,0,0,3.65,3.65h66"/><path class="cls-2" d="M98.73,104.54V64.31a5.8,5.8,0,0,1,5.8-5.8h14.59"/><line class="cls-2" x1="151.29" y1="54.69" x2="151.29" y2="63.12"/><line class="cls-2" x1="147.08" y1="58.9" x2="155.51" y2="58.9"/><line class="cls-2" x1="151.29" y1="98.86" x2="151.29" y2="107.29"/><line class="cls-2" x1="147.08" y1="103.07" x2="155.51" y2="103.07"/><line class="cls-2" x1="191.62" y1="59.59" x2="201.02" y2="59.59"/><line class="cls-2" x1="192.2" y1="103.46" x2="200.43" y2="103.46"/><path class="cls-2" d="M209.44,53.8V60a1.82,1.82,0,0,0,1.82,1.82h0.55A1.82,1.82,0,0,0,213.63,60V55.62a1.82,1.82,0,0,1,1.82-1.82h0a1.82,1.82,0,0,1,1.82,1.82v4.85a1.82,1.82,0,0,0,1.82,1.82h0.22a1.82,1.82,0,0,0,1.82-1.82V55.62a1.82,1.82,0,0,1,1.82-1.82h0.66a1.82,1.82,0,0,1,1.82,1.82v4.85a1.82,1.82,0,0,0,1.82,1.82h2.7"/><path class="cls-2" d="M209.44,99.11v6.23a1.82,1.82,0,0,0,1.82,1.82h0.55a1.82,1.82,0,0,0,1.82-1.82v-4.41a1.82,1.82,0,0,1,1.82-1.82h0a1.82,1.82,0,0,1,1.82,1.82v4.85a1.82,1.82,0,0,0,1.82,1.82h0.22a1.82,1.82,0,0,0,1.82-1.82v-4.85a1.82,1.82,0,0,1,1.82-1.82h0.66a1.82,1.82,0,0,1,1.82,1.82v4.85a1.82,1.82,0,0,0,1.82,1.82h5.23a4,4,0,0,1,4,4v29.61H222.93"/><line class="cls-2" x1="108.92" y1="24.37" x2="76.19" y2="24.6"/><path class="cls-2" d="M228.84,62.29h3.62a4,4,0,0,0,4-4V7.52A6.52,6.52,0,0,0,229.9,1H181.25a6.52,6.52,0,0,0-6.52,6.52v10A6.52,6.52,0,0,1,168.2,24l-52.63.37"/><line class="cls-2" x1="20.8" y1="95.5" x2="43.21" y2="95.5"/><path class="cls-5" d="M20.8,13.93H3a2,2,0,0,0-2,2V39.31a2,2,0,0,0,2,2H18.84a2,2,0,0,1,2,2v36a2,2,0,0,1-2,2H3a2,2,0,0,1-2-2V63"/><line class="cls-5" x1="3.67" y1="45.16" x2="17.59" y2="45.16"/><polyline class="cls-5" points="4.77 37.1 4.77 17.48 21.1 17.48"/><polyline class="cls-5" points="4.48 63.93 4.48 77.59 17.32 77.59"/><polyline class="cls-2" points="164.1 64.36 181 59.82 174.35 56.72 187.1 54.2"/><polyline class="cls-2" points="163.43 106.47 180.34 101.93 173.68 98.83 186.43 96.31"/><line class="cls-5" x1="24.34" y1="44.43" x2="24.34" y2="75.91"/><path class="cls-2" d="M92,77.54V93.12a4.08,4.08,0,0,1-4.08,4.08H77"/></svg>