<svg id="Layer_1" data-name="Layer 1" xmlns="http://www.w3.org/2000/svg" viewBox="0 0 280.92 155.73"><defs><style>.cls-1,.cls-8{fill:#d63227;}.cls-1,.cls-2,.cls-3{opacity:0.3;}.cls-2,.cls-6{fill:#009fd1;}.cls-3{fill:#b2d235;}.cls-4{fill:none;}.cls-4,.cls-5{stroke:#353535;stroke-miterlimit:10;stroke-width:2px;}.cls-5{fill:#fff;}.cls-7{fill:#ffe36c;}</style></defs><title>burger_icon_svg</title><polygon class="cls-1" points="192.34 20.64 116.04 41.1 116.04 35.68 192.34 15.22 192.34 20.64"/><polygon class="cls-2" points="245.18 139.98 193.31 149.97 193.31 155.19 242.03 155.19 245.18 139.98"/><path class="cls-2" d="M43.09,71.79h69a0,0,0,0,1,0,0V124a0,0,0,0,1,0,0H37.34a0,0,0,0,1,0,0V77.54A5.75,5.75,0,0,1,43.09,71.79Z"/><polygon class="cls-2" points="107.88 109.66 37.4 119.95 37.65 124.02 112.11 124.02 112.11 109.66 107.88 109.66"/><circle class="cls-3" cx="266.68" cy="116.76" r="14.24"/><line class="cls-4" x1="265.04" y1="121.96" x2="265.04" y2="154.22"/><circle class="cls-4" cx="265.04" cy="115.11" r="14.24"/><line class="cls-4" x1="14.09" y1="154.73" x2="272.91" y2="154.73"/><path class="cls-4" d="M112,136.43H30.34L30,73a6.12,6.12,0,0,1,6.12-6.14h76.57V33l76.73-20.72V154.56"/><polyline class="cls-4" points="189.39 79.62 246.37 79.62 234.8 154.22"/><rect class="cls-4" x="137.84" y="112.63" width="14.76" height="30.79"/><rect class="cls-4" x="152.34" y="112.63" width="14.76" height="30.79"/><ellipse class="cls-4" cx="221.69" cy="60.97" rx="4.14" ry="16.06" transform="translate(43.22 205.92) rotate(-54.46)"/><line class="cls-4" x1="220.22" y1="64.03" x2="232.99" y2="44.22"/><line class="cls-4" x1="221.25" y1="70.38" x2="222.72" y2="78.93"/><line class="cls-4" x1="216.46" y1="68.31" x2="210.46" y2="78.93"/><path class="cls-4" d="M208.62,51.63a23.4,23.4,0,0,0,7.71,15.72c7.51,6.56,17.7,3.54,17.7,3.54"/><line class="cls-4" x1="112.71" y1="154.91" x2="112.71" y2="99.99"/><line class="cls-4" x1="152.33" y1="2.61" x2="152.26" y2="22.51"/><line class="cls-4" x1="242.92" y1="98.27" x2="232.21" y2="98.27"/><line class="cls-4" x1="240.2" y1="117.3" x2="229.49" y2="117.3"/><line class="cls-4" x1="237.48" y1="135.31" x2="226.77" y2="135.31"/><line class="cls-4" x1="112.46" y1="86.18" x2="112.46" y2="93.95"/><polygon class="cls-4" points="99.27 149.24 73.67 149.24 77.33 136.7 95.61 136.7 99.27 149.24"/><line class="cls-4" x1="31.04" y1="124.1" x2="112.89" y2="124.1"/><rect class="cls-5" x="61.56" y="149.38" width="118.16" height="5.35"/><rect class="cls-5" x="128.92" y="143.85" width="47.36" height="5.35"/><line class="cls-4" x1="122.73" y1="51.46" x2="183.17" y2="51.46"/><line class="cls-4" x1="122.73" y1="70.72" x2="183.17" y2="70.72"/><line class="cls-4" x1="122.73" y1="89.98" x2="183.17" y2="89.98"/><circle class="cls-6" cx="86.12" cy="130.61" r="3.09"/><path class="cls-7" d="M19.6,64.77a14.12,14.12,0,0,1,10.6-7.62c5.4-.84,9.38,1,14,3a19.74,19.74,0,1,0-34.4,4.6c3.67-.38,6.24-0.58,9.66.31A3.08,3.08,0,0,1,19.6,64.77Z"/><circle class="cls-8" cx="152.3" cy="1.68" r="1.68"/><path class="cls-4" d="M0.57,67.44s10-6.91,20.73-1.6"/><path class="cls-4" d="M44.87,60.16S28,51.47,19.6,64.77"/></svg>