<svg id="Layer_1" data-name="Layer 1" xmlns="http://www.w3.org/2000/svg" viewBox="0 0 278.28 148.01"><defs><style>.cls-1{fill:#d63227;opacity:0.7;}.cls-2{fill:#ffe36c;}.cls-3,.cls-8{fill:none;}.cls-3,.cls-4{stroke:#353535;}.cls-3,.cls-4,.cls-8{stroke-miterlimit:10;stroke-width:2px;}.cls-4{fill:#fae889;}.cls-5,.cls-6{fill:#009fd1;}.cls-5{opacity:0.3;}.cls-7{fill:#fff;}.cls-8{stroke:#fff;}</style></defs><title>burger_icon_svg</title><polygon class="cls-1" points="93.69 129.36 79.81 129.36 79.81 120.8 93.69 129.36"/><polygon class="cls-2" points="133.69 37.88 267.37 136.4 113.84 136.4 110.19 54.05 133.69 37.88"/><polyline class="cls-3" points="278.28 136.4 1 136.4 1 147.01 9.53 147.01"/><line class="cls-4" x1="65.46" y1="129.21" x2="53.2" y2="88.3"/><circle class="cls-3" cx="53.2" cy="80.29" r="8"/><line class="cls-3" x1="53.2" y1="72.29" x2="87.75" y2="26.42"/><rect class="cls-5" x="95.52" y="6.62" width="22.26" height="22.26" transform="translate(60.78 -80.16) rotate(55.45)"/><rect class="cls-6" x="102.55" y="4.43" width="11.07" height="11.07" transform="translate(54.99 -84.71) rotate(55.45)"/><rect class="cls-3" x="90.88" y="5.74" width="22.26" height="22.26" transform="translate(58.05 -76.71) rotate(55.45)"/><polygon class="cls-3" points="101.22 59.75 98.97 32.48 117.68 19.6 142.35 31.43 101.22 59.75"/><path class="cls-7" d="M134.6,41.47L112.47,56.71A13.47,13.47,0,0,0,134.6,41.47Z"/><path class="cls-3" d="M132.85,38L110.72,53.21A13.47,13.47,0,0,0,132.85,38Z"/><rect class="cls-8" x="195.38" y="64.76" width="21.57" height="68.61" rx="2.82" ry="2.82"/><rect class="cls-8" x="161.29" y="64.76" width="21.57" height="68.61" rx="2.82" ry="2.82"/><path class="cls-8" d="M147,133.37V67.13a2.37,2.37,0,0,0-4.41-1.19l-9.11,22.11"/><rect class="cls-3" x="198.38" y="61.76" width="21.57" height="68.61" rx="2.82" ry="2.82"/><rect class="cls-3" x="164.29" y="61.76" width="21.57" height="68.61" rx="2.82" ry="2.82"/><path class="cls-3" d="M150,130.37V64.13a2.37,2.37,0,0,0-4.41-1.19L136.45,85"/><rect class="cls-3" x="43.14" y="129.64" width="64.7" height="6.76"/><polyline class="cls-3" points="77.03 129.64 77.03 124.31 90.29 129.64"/><path class="cls-3" d="M90.6,19.94s-8.57,11.45,4,5.8"/><line class="cls-3" x1="225.6" y1="38.72" x2="218.77" y2="53.38"/><line class="cls-3" x1="230.77" y1="51.61" x2="224.77" y2="56.67"/><line class="cls-3" x1="213.27" y1="42.88" x2="213.27" y2="51.61"/></svg>