<svg width="350" height="361" viewBox="0 0 350 361" fill="none" xmlns="http://www.w3.org/2000/svg">
<g clip-path="url(#clip0_1352_5186)">
<path d="M311.859 15.1128C311.859 15.1128 215.981 9.15405 183.974 9.15405C151.967 9.15405 56.0892 15.1128 56.0892 15.1128L18.6602 66.1358C66.1602 259.698 183.974 360.356 183.974 360.356C183.974 360.356 305.285 259.698 349.288 66.1358L311.859 15.1128Z" fill="white"/>
<path d="M185.388 266.246C186.384 180.558 188.23 94.8821 189.252 9.19334C187.353 9.16715 185.572 9.15405 183.974 9.15405C151.967 9.15405 56.0892 15.1128 56.0892 15.1128L18.6602 66.1358C66.1602 259.698 183.974 360.356 183.974 360.356C183.974 360.356 184.236 360.134 184.747 359.688C184.799 328.532 185.022 297.389 185.388 266.233V266.246Z" fill="#F4F4F4"/>
<path d="M301.593 7.92315C301.593 7.92315 205.703 1.96436 173.708 1.96436C141.701 1.96436 45.8236 7.92315 45.8236 7.92315L8.39453 58.9592C55.8946 252.522 173.708 353.179 173.708 353.179C173.708 353.179 295.019 252.522 339.022 58.9592L301.593 7.93624V7.92315Z" stroke="black" stroke-width="3.92887" stroke-miterlimit="10"/>
<path d="M119.172 131.945C127.567 133.831 133.879 140.012 136.315 147.647C137.036 149.913 139.917 150.555 141.541 148.813C147.015 142.946 155.357 140.052 163.752 141.937C172.147 143.823 178.734 150.267 181.052 158.138C181.72 160.403 184.693 161.071 186.264 159.303C191.725 153.174 200.251 150.123 208.829 152.035C217.224 153.921 223.536 160.102 225.972 167.737C226.692 170.003 229.574 170.644 231.198 168.903C236.672 163.036 245.014 160.141 253.409 162.027C262.301 164.018 268.862 170.841 270.945 179.105C271.063 179.105 270.932 179.105 271.049 179.105C279.235 143.823 238.597 100.553 200.775 92.08C164.184 83.8818 111.59 105.504 100.327 137.118C100.314 137.157 100.353 137.197 100.392 137.17C105.382 134.119 113.004 130.544 119.159 131.932L119.172 131.945Z" fill="white"/>
<path d="M132.333 140.157C143.674 118.116 163.672 100.134 186.276 90.2729C151.571 89.3955 110.135 109.393 100.299 137.027C100.286 137.066 100.326 137.105 100.365 137.079C105.355 134.027 112.977 130.452 119.132 131.84C124.567 133.058 129.124 136.097 132.333 140.157Z" fill="#FFE26D"/>
<path d="M216.005 135.036C211.67 120.355 203.367 107.403 198.43 92.9578C198.024 93.4685 197.46 93.9007 196.701 94.1626C188.62 102.06 186.525 114.999 183.906 125.528C181.692 134.42 179.649 143.405 178.562 152.48C179.623 154.209 180.448 156.082 181.025 158.046C181.692 160.312 184.665 160.98 186.237 159.212C191.698 153.083 200.224 150.031 208.802 151.943C214.04 153.122 218.454 155.964 221.636 159.788C220.287 151.446 218.414 143.195 216.005 135.036Z" fill="#FFE26D"/>
<path d="M211.027 95.1577C223.731 104.417 232.636 119.071 241.777 131.447C249.399 141.767 255.699 152.755 260.02 164.555C265.482 167.737 269.397 172.989 270.916 179.026C271.034 179.026 270.903 179.026 271.021 179.026C278.46 146.94 245.523 108.28 211.04 95.1577H211.027Z" fill="#FFE26D"/>
<path d="M115.02 126.707C123.415 128.592 129.727 134.774 132.163 142.409C132.883 144.675 135.764 145.316 137.388 143.575C142.863 137.707 151.205 134.813 159.6 136.699C168.178 138.624 174.582 145.028 176.9 152.899C177.568 155.165 180.54 155.833 182.112 154.065C187.573 147.936 196.099 144.884 204.677 146.796C213.255 148.708 219.384 154.863 221.82 162.499C222.54 164.764 225.421 165.406 227.045 163.664C232.519 157.797 240.862 154.903 249.256 156.789C258.149 158.779 264.71 165.602 266.792 173.866C266.91 173.866 266.779 173.866 266.897 173.866C275.082 138.585 234.445 95.3148 196.623 86.8416C158.801 78.3683 107.437 100.265 96.1744 131.88C96.1613 131.919 96.2006 131.958 96.2399 131.932C101.23 128.881 108.852 125.305 115.007 126.693L115.02 126.707Z" stroke="black" stroke-width="3.92887" stroke-miterlimit="10"/>
<path d="M196.633 86.8545L198.82 77.0847" stroke="black" stroke-width="3.92887" stroke-miterlimit="10"/>
<path d="M179.338 155.95L158.607 248.41C156.93 255.901 149.492 260.615 142.001 258.939C134.51 257.263 129.795 249.824 131.471 242.333L134.169 230.795" stroke="black" stroke-width="3.92887" stroke-miterlimit="10"/>
<path d="M125.33 40.4678L118.48 55.0832" stroke="#E3736C" stroke-width="3.92887" stroke-miterlimit="10"/>
<path d="M174.963 40.4678L168.113 55.0832" stroke="#E3736C" stroke-width="3.92887" stroke-miterlimit="10"/>
<path d="M277.701 39.0139L270.852 53.6162" stroke="#E3736C" stroke-width="3.92887" stroke-miterlimit="10"/>
<path d="M97.5525 27.3713L90.7031 41.9868" stroke="#E3736C" stroke-width="3.92887" stroke-miterlimit="10"/>
<path d="M148.787 66.6602L141.938 81.2625" stroke="#E3736C" stroke-width="3.92887" stroke-miterlimit="10"/>
<path d="M154.427 19.9326L147.578 34.5349" stroke="#E3736C" stroke-width="3.92887" stroke-miterlimit="10"/>
<path d="M222.896 54.8474L216.047 69.4497" stroke="#E3736C" stroke-width="3.92887" stroke-miterlimit="10"/>
<path d="M203.381 34.3125L196.531 48.9148" stroke="#E3736C" stroke-width="3.92887" stroke-miterlimit="10"/>
<path d="M99.779 66.3196L92.9297 80.935" stroke="#E3736C" stroke-width="3.92887" stroke-miterlimit="10"/>
<path d="M175.305 77.8965L168.469 92.4988" stroke="#E3736C" stroke-width="3.92887" stroke-miterlimit="10"/>
<path d="M251.524 47.5527L244.688 62.155" stroke="#E3736C" stroke-width="3.92887" stroke-miterlimit="10"/>
<path d="M246.338 81.0398L239.488 95.6421" stroke="#E3736C" stroke-width="3.92887" stroke-miterlimit="10"/>
<path d="M237.842 21.9888L230.992 36.5911" stroke="#E3736C" stroke-width="3.92887" stroke-miterlimit="10"/>
<path d="M190.771 12.8738L184.551 25.3021" stroke="#E3736C" stroke-width="3.92887" stroke-miterlimit="10"/>
<path d="M340.948 131.329C340.948 131.329 306.021 218.642 267.609 273.934" stroke="black" stroke-width="3.92887" stroke-miterlimit="10"/>
<path d="M1.89844 96.4016C1.89844 96.4016 15.5709 146.455 43.5183 198.84" stroke="black" stroke-width="3.92887" stroke-miterlimit="10"/>
</g>
<defs>
<clipPath id="clip0_1352_5186">
<rect width="349.29" height="360.369" fill="white"/>
</clipPath>
</defs>
</svg>
