<svg width="301" height="300" viewBox="0 0 301 300" fill="none" xmlns="http://www.w3.org/2000/svg">
<path d="M150.071 0C67.5714 0 0.0714111 67.5 0.0714111 150C0.0714111 232.5 67.5714 300 150.071 300C232.571 300 300.071 232.5 300.071 150C300.071 67.5 232.571 0 150.071 0ZM66.5 233.571C44 211.071 32.2143 181.071 32.2143 152.143L149 267.857C119 266.786 89 256.071 66.5 233.571ZM175.786 264.643L35.4286 124.286C47.2143 71.7857 94.3571 32.1429 150.071 32.1429C189.714 32.1429 224 51.4286 245.429 80.3571L229.357 94.2857C211.143 69.6429 182.214 53.5714 150.071 53.5714C108.286 53.5714 72.9286 80.3571 59 117.857L182.214 241.071C213.286 230.357 236.857 203.571 244.357 171.429H192.929V150H267.929C267.929 205.714 228.286 252.857 175.786 264.643Z" fill="#663399"/>
</svg>
