<svg xmlns="http://www.w3.org/2000/svg" viewBox="0 0 95 67"><defs><style>.cls-1,.cls-2{fill:none;stroke:#fff;stroke-miterlimit:10;}.cls-1{stroke-width:2px;}.cls-2{stroke-width:1.5px;}</style></defs><title>Asset 6</title><g id="Layer_2" data-name="Layer 2"><g id="Layer_1-2" data-name="Layer 1"><polyline class="cls-1" points="24.97 9.63 19.22 11.55 13.47 5.79 5.79 13.47 11.55 19.22 9.63 24.97 1 24.97 1 36.48 9.63 36.48 11.55 42.23 5.79 47.99 13.47 55.66 19.22 49.91 24.97 51.83 24.97 60.45 30.73 60.45 36.48 60.45 36.48 51.83 42.23 49.91 47.99 55.66 55.66 47.99 49.91 42.23 51.83 36.48 60.45 36.48 60.45 24.97 51.83 24.97 49.91 19.22 55.66 13.47 47.99 5.79 42.23 11.55 36.48 9.63 36.48 1 30.73 1 24.97 1"/><path class="cls-1" d="M25,9.63"/><path class="cls-1" d="M25,1"/><circle class="cls-1" cx="30.73" cy="30.73" r="5.75"/><polyline class="cls-2" points="68.32 39.4 65.83 41.81 61.44 40.26 59.37 46.11 63.76 47.66 64.19 51.11 59.74 53.24 62.58 59.18 67.03 57.05 69.44 59.54 67.89 63.93 73.75 66 75.3 61.61 78.74 61.18 80.87 65.63 83.84 64.21 86.81 62.79 84.68 58.34 87.17 55.93 91.57 57.48 93.63 51.63 89.24 50.08 88.81 46.63 93.27 44.5 90.43 38.56 85.97 40.69 83.56 38.2 85.11 33.8 79.26 31.74 77.71 36.13 74.26 36.56 72.13 32.1 69.16 33.52 66.19 34.95"/><path class="cls-2" d="M68.32,39.4"/><path class="cls-2" d="M66.19,34.95"/><circle class="cls-2" cx="76.5" cy="48.87" r="3.29" transform="translate(-13.6 37.79) rotate(-25.56)"/></g></g></svg>
