<?xml version="1.0" encoding="utf-8"?>
<!-- Generator: Adobe Illustrator 19.2.0, SVG Export Plug-In . SVG Version: 6.00 Build 0)  -->
<svg version="1.1" xmlns="http://www.w3.org/2000/svg" xmlns:xlink="http://www.w3.org/1999/xlink" x="0px" y="0px"
	 viewBox="0 0 104 83" style="enable-background:new 0 0 103.8 82.1;" xml:space="preserve">
<style type="text/css">
	.st0{fill:none;stroke:#433F22;stroke-width:2;stroke-miterlimit:10;}
	.st1{fill:#CCECF6;}
	.st2{fill:#F7D4D1;}
	.st3{fill:#FAEB8B;}
	.st4{fill:none;stroke:#353535;stroke-width:2;stroke-miterlimit:10;}
	.st5{fill:none;stroke:#0C9FD2;stroke-width:2;stroke-miterlimit:10;}
	.st6{fill:#FFE36C;}
	.st7{opacity:0.3;fill:#009FD1;}
	.st8{opacity:0.3;}
	.st9{fill:#D63227;}
	.st10{fill:#EEEDED;}
	.st11{fill:#009FD1;}
	.st12{opacity:0.7;fill:#D63227;}
	.st13{fill:none;stroke:#FFFFFF;stroke-width:2;stroke-miterlimit:10;}
	.st14{opacity:0.3;fill:#D63227;}
	.st15{opacity:0.3;fill:#B2D235;}
	.st16{fill:#FFFFFF;stroke:#353535;stroke-width:2;stroke-miterlimit:10;}
</style>
<g id="Layer_1">
</g>
<g id="Layer_2">
	<circle class="st13" cx="52.2" cy="23" r="21.2"/>
	<polyline class="st13" points="38.7,51.5 25.8,56.6 22.9,80.6 81.5,80.6 78.5,56.6 65.6,51.5 	"/>
	<path class="st13" d="M24.9,44.1c-0.5,0-1,0.1-1.5,0.1c-9.1,0-16.5-7.4-16.5-16.5s7.4-16.5,16.5-16.5"/>
	<polyline class="st13" points="14,53.3 3.9,57.2 1.6,75.5 15.9,75.5 	"/>
	<path class="st13" d="M79.1,44.1c0.5,0,1,0.1,1.5,0.1c9.1,0,16.5-7.4,16.5-16.5s-7.4-16.5-16.5-16.5"/>
	<polyline class="st13" points="90,53.3 100,57.2 102.3,75.5 88,75.5 	"/>
</g>
</svg>
