<svg xmlns="http://www.w3.org/2000/svg" viewBox="0 0 476 498"><defs><style>.cls-1{fill:#684c46;}.cls-2{fill:#f5dcba;}.cls-3{fill:#0788bf;}.cls-4{fill:#46b8e3;}.cls-5{fill:#ffd14f;}.cls-6{fill:#122030;}.cls-7{fill:#fff;}.cls-8{fill:#eabe8d;}.cls-9{fill:#9c7356;}</style></defs><title>Asset 1</title><g id="Layer_2" data-name="Layer 2"><g id="Layer_1-2" data-name="Layer 1"><path class="cls-1" d="M468.42,355.86C468,357.13,431.37,498,287.34,498c-124.51,0-183.53-108.26-183.53-108.26a64.52,64.52,0,0,1-25.91-3.9c-36.53-13.42-54.06-55.21-41.45-90.27L16.37,280.21C-61.4,221,158.91-50.14,236.82,11.21l18.6,15C283.39,9.18,311.1,0,333.61,0,349.61,0,363,4.63,372,14.38c20.22,21.89,13,63.7-14.66,106,5.94,5.64,10.86,13.3,14.37,20.91,8.78,6.77,14.47,17.07,17.29,31.29,3.15,15.81,3.8,38.34,5.78,48,7.45,3.36,4.27,1.81,12.21,5.77,8.28,4.14,18.36,9.17,29.5,19.89,19.8,5,27.36,26,15.78,40.38-.31.39-1.71,2-3.16,3.69A74.49,74.49,0,0,1,456,310a26.16,26.16,0,0,1,18.17,14.32C480.09,338.61,468.42,355.86,468.42,355.86Z"/><path class="cls-2" d="M133.19,302.84h0a123.34,123.34,0,0,0,4.72-14.52,91.78,91.78,0,0,1,4.71,34.2h0c3-4,6.17-11.42,6.17-11.42,5.54,32.6-18.25,62.44-49.6,62.44-27.83,0-50.39-23.75-50.39-53s22.56-53,50.39-53a48.08,48.08,0,0,1,20.28,4.47S130.18,277.32,133.19,302.84Zm274.19,115c39.06-30.69,45.89-67.66,46.54-68.93,9.61-11.53,7-22.88-5.7-22.89a23.72,23.72,0,0,0-7.09,1.07s0-16.82-7.73-29.92c-6,6.75-22.65,20.11-44.5,30.48-20.49,9.73-47.82,18.24-81.7,19.37h0c-9.49.41-15.35-1.13-18.66,9.93-1.05,3.91-.6,9.71.19,11.39,2.67,9.16,9.65,13.2,18.84,15.33a80,80,0,0,0,14.37,1.78c68.71,1.93,123.88-51.66,124.54-52.1a10.51,10.51,0,0,0,1.17-1.14l-.68,1.58c-9.92,22.32-67.38,62.79-124.57,61.63l-.19.07c-13.26-.05-29.38-3.46-37.76-13.85-13.26-16.44-6.38-43.77,14.75-44.41l7-.17c52.31-1.61,99.24-20.83,132.85-61,4.62-5.74-.54-13.63-10.56-13.87a.33.33,0,0,1-.23-.1c-11.87-12.71-22.31-17.21-31.6-21.93-19.47-9.92-17.64-1.35-22.16-49.46-1.22-13-3.68-30.66-15.07-37.44a18.52,18.52,0,0,0-9.64-2.54,17.89,17.89,0,0,0-5.64.83c-6.24,1.38-9.79,4.92-14.23,9-21,19.37-37.8,14.11-62.86,13.89-23.54-.21-44.32,16.21-48.29,41.42h0c-1.93,13.2-.68,26.61,1.39,32.64,0,0-6.39-4.25-9.43-8,3.68,23,24.7,38.09,24.7,38.09a34.24,34.24,0,0,1-8.07.45s12,9.49,22.39,12.79c-2.71,1.69-16.41,15.2-23.47,33.81-6.61,17.42-3.92,38.32-3.92,38.32l5.74-8.56s-3.75,19.07,3.51,37.55c2.41-5.5,7.67-15.3,7.67-15.3s-.83,20.48,9,37.26c.25-3.87,1.73-13.73,1.73-13.73s5.66,17.49,18.73,29.72C293.27,452.64,358.07,456.56,407.38,417.81Z"/><path class="cls-3" d="M44,280.63c-.2-.05-19-13.82-21.63-18.36C6.58,235.64,34,180.92,53.59,149.82,101.88,73,182.28,12.29,218.79,21l37.5,19.35a303.28,303.28,0,0,0-37.08,26.08l-8,6.69s-23.3,15.69-34.89,25.58c-46.45,39.64-92.19,101-109.16,160.24A64.31,64.31,0,0,0,44,280.63Z"/><path class="cls-4" d="M218.79,21h0c-36.51-8.66-116.9,52-165.2,128.86l0,.07.2,0,38.48,30.3c42.26-67.08,95.36-101.66,96.86-102.68L183,36.47,194.42,31l22.94,7.43-1.76-7.66L218.79,21Z"/><path class="cls-5" d="M256.29,40.31,219.21,66.39l-2.59,2L183.74,41.55,183,36.47,194.42,31l22.94,7.43.38-14.24L218.79,21l10-3.85Z"/><path class="cls-6" d="M329.45,14.73c-24.52,0-52,12.9-73.16,25.57-3,1.74-5.9,3.57-8.78,5.43l-11-9.26,4,13.95Q238.19,52,236,53.53l-22.83-7L228.3,59.21c-3.45,2.61-6.53,5.06-9.09,7.18L183,36.47l1.92,13.41,26.33,23.2s-23.3,15.69-34.89,25.58c-46.45,39.64-92.19,101-109.16,160.24l1-.54.39-.2,1.41-.73.91-.45c.49-.23,1-.45,1.46-.66l.86-.38c.53-.22,1.05-.42,1.58-.62l.73-.28c.77-.27,1.53-.53,2.29-.76,11.53-3.44,27.22-5.65,45.59,2.15,9.22-23.26,20.24-46.93,37.61-69.67,14.08-18.44,27.61-34.9,43.86-44,30.76-28.89,113.66-59.53,140.22-33,6.28-10.27,11.73-20,16.22-32.19C372.36,48.3,372.56,14.73,329.45,14.73Z"/><polygon class="cls-6" points="224.21 40.65 218.79 20.95 215.6 30.77 217.51 38.48 224.21 40.65"/><path class="cls-7" d="M441.13,327s0-16.82-7.73-29.92c-6,6.75-22.65,20.11-44.5,30.48-20.49,9.73-47.82,18.24-81.7,19.37h0c-9.49.41-15.35-1.13-18.66,9.93A18.1,18.1,0,0,0,288,360v.11h0c0,.35-.05.71-.06,1.06,0,1,0,1.9,0,2.68v.23c0,.49.07,1,.12,1.39v.14a10.09,10.09,0,0,0,.61,2.67h0l0,.15c2.7,9.06,9.66,13.06,18.8,15.19a80,80,0,0,0,14.37,1.78C378,387,425.06,351.59,440.84,338.26A96.77,96.77,0,0,0,441.13,327Zm-161-299.45c13.39-6.17,27.75-11.05,41.51-12.46-13.67,3.08-30.33,10.17-50.07,22.24-.48.28-46.71,31.48-75,59.49-15.39,15.27-77.2,89.38-77.15,89.32,11.3-21.38,18.74-31.87,36.62-54.36,10.11-12.72,20.9-25.09,32-36.51q5.57-5.76,11.21-11.17h0C200.64,82.77,232.94,49.7,280.09,27.59Z"/><path class="cls-8" d="M407.38,417.81a136.69,136.69,0,0,1-20.83,13.5C370,425,359.92,411.67,359.92,411.67s14.15-3.35,33.07-13c23-11.69,44.5-28.58,60.94-49.83C453.27,350.15,446.44,387.11,407.38,417.81ZM362.46,239.63c-8-5.68-21.21-1.16-24.12,8.24,4.62.23,9.52,3.73,9.22,8.2A17.7,17.7,0,0,1,360,251.21C357.8,247.72,358.9,241.7,362.46,239.63ZM278.7,354.29c2.51-9.36,9.62-16.77,20.5-17.11l7-.17c52.31-1.61,99.24-20.83,132.85-61,4.62-5.74-.54-13.63-10.56-13.87h-.14c-1.69,1.79-2,5.06-4.8,10-10.22,17.76-24.36,25.88-43.21,35.3-57.8,28.78-87.78,15.39-99.8,33-3.5,5.19-3.56,11-1.88,13.84ZM383.29,233.6c-5.53-4-5.73-10.89-8.74-42.89-1-10.21-2.69-23.34-8.94-31.77a8.5,8.5,0,0,0-5.72-2.43c-3.95-.17-8.41,3.91-10.94,6.71-7.18,10.36-14,17-26.17,22.81a78.82,78.82,0,0,1-36.06,7.19c-8.87-.28-16.63-1.74-24.24-1.84-14.1-.22-26.32,4.35-35.23,15.6-6.11,7.71-8.56,15.87-9.34,25.58,0,1.17.08,2.27.15,3.31.11,1.54.25,3,.42,4.4a40.69,40.69,0,0,0,1.51,7.47.38.38,0,0,1,0,.11c.07.24.15.47.22.69,0,0-6.39-4.25-9.43-8,3.07,19.2,18.19,32.86,23.13,36.87l.86.67.06.06.64.48a34.23,34.23,0,0,1-8.07.45s12,9.49,22.39,12.79c13.79-11.65,29.42-16.13,42.25-17.51,7.78-4.83,16.14-9.57,25.12-14.14-2.72-16.93,12.3-34,31.19-35.62,14.26-1,21.19,5.35,26.19,12.19,2.71-.87,5.77-1.81,9.18-2.82A2.88,2.88,0,0,1,383.29,233.6Zm6.82,114a2.79,2.79,0,0,0-.53.09C383.88,349,325.14,371.8,288,360.14c-.17,2-.11,6.3.72,8.16h0a108.67,108.67,0,0,0,21,1.85C358.57,370.15,393.79,347.93,390.11,347.64Zm-273.36-4.56,0,0a14.18,14.18,0,0,0,3.52-11.94c-1.1-6.15-8.07-7.39-12.67-12.17l-.22-.23-.23-.25v0a10.3,10.3,0,0,1-2.62-7.51c.36-6.29,6-8.06,8.86-6.9a11.65,11.65,0,0,1,6.12,4.54h0c-.41-1.23-.32-3.21-2.41-6.17-3.42-4.85-11.29-9.79-22.44-7.42h0a22.16,22.16,0,0,0-2.94.76,7.7,7.7,0,0,0-.86.28c-.64.3-1.23.5-1.8.81h0a25.11,25.11,0,0,0-4,2.44C72.55,315.43,93.78,344.77,116.75,343.08Z"/><path class="cls-9" d="M301.56,243.49c1.06,1.55,1.34,2.72.91,3.2-.85,1-3.9-.35-8.39-2.1-11.51-4.29-20-4.95-35,.73-3.8,1.45-6.49,2.57-7.78,2.37-2.1-.31-.07-4.17,4.53-7.9,9.26-7.38,22-9.68,32.83-5.63C293.43,235.91,298.77,239.4,301.56,243.49Zm-2.28,11.77c-3.16-2.41-9-4-15-3a32.42,32.42,0,0,0-3.59.89,8.3,8.3,0,0,0-1.22.42,20.73,20.73,0,0,0-6.75,4.19c-2.4,2.32-3.09,4.48-2.39,5s2.35-.26,4.92-1.3a41.23,41.23,0,0,1,20.52-3.27c2.8.19,4.68.36,5.11-.41C301.19,257.27,300.64,256.29,299.28,255.26ZM113.8,299.43h0a16.9,16.9,0,0,1,3.31,3.47c2.65,3.75,1.81,5.94,2.89,7a1.36,1.36,0,0,0,1.51.28c1.5-.62,2.24-3,2.38-4.68h0c.38-4-1.74-8.51-4.55-11.71h0a24.62,24.62,0,0,0-6.67-5.35,27.8,27.8,0,0,0-9.26-3.17A34.83,34.83,0,0,0,90,286h0c-.84.24-1.88.46-2.77.81-9.69,3.78-16.07,10.71-18.9,19.9h0a34.88,34.88,0,0,0-.67,17.41h0c.82,3.75,2.5,8,5.11,10.74h0c3.27,3.54,6.86,2.86,5.33-.43a28.49,28.49,0,0,1-2.61-11.38,33.26,33.26,0,0,1,2.05-13.19,24.8,24.8,0,0,1,3.72-6.45,23.67,23.67,0,0,1,7.81-6.1h0c.57-.3,1.16-.51,1.8-.81a7.58,7.58,0,0,1,.86-.28,22.19,22.19,0,0,1,2.94-.76h0C102.42,293.84,109.09,295.64,113.8,299.43Zm-1.65,15a4.65,4.65,0,0,1-1.86-2.69c-.44-2-.21-3.21,1.53-4.43,1.34-.91,2.41-1.36,2.41-1.93.06-1.09-4.41-2.21-7.53.87-2.59,2.76-3.41,8.53.73,13,4.61,5,11.77,6.15,12.89,12.4a11.89,11.89,0,0,1,.18,2.85,15.07,15.07,0,0,1-.38,2.83c-1.39,6-7.12,11.8-16.57,10.33-1.74-.25-2.87-.47-3.21,0-.73,1,3.32,5.65,10.74,5.48,7.25-.15,14.45-5.58,16.76-13.75a20.78,20.78,0,0,0,.76-4.49,18.64,18.64,0,0,0-.27-4.77C126.43,319.65,116,317.49,112.14,314.4ZM365,239.57c-2.87-.45-5.69,2.38-6.3,6.31s1.21,7.48,4.08,7.93,5.69-2.38,6.3-6.31S367.82,240,365,239.57ZM333.46,251c-1.58,2.87.34,7,4.29,9.12s8.42,1.58,10-1.29-.34-7-4.29-9.12S335,248.16,333.46,251Zm-115.4-116.3c54.24-35.16,108.42-39.2,127-24.93h0c0-.09-.33-.92-.45-1.14h0c-4.71-10-15.71-17-25.51-19.8a38.23,38.23,0,0,1,5.21,7,78,78,0,0,0-27.47-11.68s1.22.88,1.43,1.07c2,1.9,4.76,4.91,5.88,7.49-9.8-3.93-22.19-6.14-32.79-4.1L270,89s1.38.34,1.69.43c3.52,1,8.54,3.19,10.75,6.12-17.6-3.1-37,.33-47.41,6.17a24.2,24.2,0,0,1,2.47,0c3.84.1,11.58.62,14.83,2.69-11.1,2.26-27.17,7.23-35.82,14.66,1.53-.18,10.2-1.28,13.74-.71C182.64,145.54,161,186.73,161,186.73h0C175,168.44,193.22,150.83,218.06,134.74Z"/><path class="cls-1" d="M346,211.55c-.07-3.74.52-9.91,4-11.06h0c6-2.09,14,13.32,14.35,27a30.15,30.15,0,0,0-16.08-2.89A46.31,46.31,0,0,1,346,211.55Z"/></g></g></svg>
