<svg xmlns="http://www.w3.org/2000/svg" viewBox="0 0 29 34.56"><g id="Layer_1" data-name="Layer 1"><path d="M27.12,34.56H1.88A1.88,1.88,0,0,1,0,32.68V1.88A1.88,1.88,0,0,1,1.88,0H21.29L29,7.79V32.68A1.88,1.88,0,0,1,27.12,34.56ZM1.88,1A.87.87,0,0,0,1,1.88v30.8a.88.88,0,0,0,.88.88H27.12a.88.88,0,0,0,.88-.88V8.21L20.87,1Z" style="fill:#443f23"/><polygon points="28.5 8.42 20.5 8.42 20.5 2.5 21.5 2.5 21.5 7.42 28.5 7.42 28.5 8.42" style="fill:#443f23"/><rect x="13.67" y="11.42" width="1" height="11.08" style="fill:#443f23"/><polygon points="20.83 22.58 19.83 22.58 19.83 17.58 8.33 17.58 8.33 22.58 7.33 22.58 7.33 16.58 20.83 16.58 20.83 22.58" style="fill:#443f23"/><circle cx="14.17" cy="10.97" r="1.31" style="fill:#443f23"/><circle cx="14.17" cy="23.08" r="1.31" style="fill:#443f23"/><circle cx="7.92" cy="23.08" r="1.31" style="fill:#443f23"/><circle cx="20.39" cy="23.08" r="1.31" style="fill:#443f23"/></g></svg>