<svg xmlns="http://www.w3.org/2000/svg" width="15.625" height="10.03" viewBox="0 0 16 11">
  <metadata><?xpacket begin="﻿" id="W5M0MpCehiHzreSzNTczkc9d"?>
<x:xmpmeta xmlns:x="adobe:ns:meta/" x:xmptk="Adobe XMP Core 5.6-c138 79.159824, 2016/09/14-01:09:01        ">
   <rdf:RDF xmlns:rdf="http://www.w3.org/1999/02/22-rdf-syntax-ns#">
      <rdf:Description rdf:about=""/>
   </rdf:RDF>
</x:xmpmeta>





















<?xpacket end="w"?></metadata>
<defs>
    <style>
      .cls-1 {
        fill: #353535;
        fill-rule: evenodd;
      }
    </style>
  </defs>
  <path id="fa-eye" class="cls-1" d="M951.282,1800.99a7.338,7.338,0,0,1-7.565,0,9.064,9.064,0,0,1-2.9-2.85,8.554,8.554,0,0,1,3.317-3.07,3.806,3.806,0,0,0-.531,1.96,3.9,3.9,0,0,0,7.8,0,3.806,3.806,0,0,0-.531-1.96,8.56,8.56,0,0,1,3.317,3.07A9.057,9.057,0,0,1,951.282,1800.99Zm-3.782-5.77a1.76,1.76,0,0,0-1.28.53,1.737,1.737,0,0,0-.531,1.28,0.439,0.439,0,0,1-.122.3,0.425,0.425,0,0,1-.592,0,0.439,0.439,0,0,1-.122-0.3,2.663,2.663,0,0,1,2.647-2.65,0.406,0.406,0,0,1,.3.12,0.421,0.421,0,0,1,.122.3,0.413,0.413,0,0,1-.418.42h0Zm7.626,2.32a9.307,9.307,0,0,0-3.278-3.2,8.417,8.417,0,0,0-8.7,0,9.3,9.3,0,0,0-3.278,3.2,1.244,1.244,0,0,0-.174.6,1.187,1.187,0,0,0,.174.6,9.326,9.326,0,0,0,3.278,3.21,8.51,8.51,0,0,0,4.348,1.21,8.417,8.417,0,0,0,4.348-1.21,9.169,9.169,0,0,0,3.278-3.21,1.187,1.187,0,0,0,.174-0.6,1.244,1.244,0,0,0-.174-0.6h0Z" transform="translate(-939.688 -1793.13)"/>
</svg>
