<svg width="25" height="32" viewBox="0 0 25 32" fill="none" xmlns="http://www.w3.org/2000/svg">
<path d="M17.0702 26.47L12.4102 30.03L7.92016 26.46C3.79016 23.18 1.41016 18.37 1.41016 13.31V5.75C1.41016 3.42 6.43016 1.23999 12.6302 1.23999C18.8302 1.23999 23.8502 3.34 23.8502 5.75V13.11C23.8502 18.29 21.3602 23.19 17.0702 26.47Z" stroke="black" stroke-width="2" stroke-miterlimit="10"/>
<path d="M10.1094 22.58V7.22998" stroke="black" stroke-width="2" stroke-miterlimit="10"/>
<path d="M13.6106 10.49L10.1206 6.54004L6.64062 10.49" stroke="black" stroke-width="2" stroke-miterlimit="10"/>
<path d="M15.4492 18.5802L19.7092 15.2401L15.4492 11.9001" stroke="black" stroke-width="2" stroke-miterlimit="10"/>
<path d="M10.1094 21.84V20.82C10.1094 18.01 12.2194 15.61 15.1094 15.14L18.5294 15.05" stroke="black" stroke-width="2" stroke-miterlimit="10"/>
</svg>
