<svg xmlns="http://www.w3.org/2000/svg" viewBox="0 0 35 35"><defs><style>.cls-1{fill:#fff;}</style></defs><title>service-wordpress-white</title><g id="Layer_2" data-name="Layer 2"><g id="Layer_1-2" data-name="Layer 1"><path class="cls-1" d="M32.4,17.55a15,15,0,0,0-.67-4.44L25.08,30.37A14.88,14.88,0,0,0,32.4,17.55h0Z"/><path class="cls-1" d="M12.8,31.67a14.94,14.94,0,0,0,9.63-.07L17.89,19.82,12.8,31.67h0Z"/><path class="cls-1" d="M3.23,13.34a14.88,14.88,0,0,0,7,17.19l-7-17.1v-.09h0Z"/><path class="cls-1" d="M10.82,12.38h-.64a1.22,1.22,0,0,0-1.24,1.43l4.95,12.41,3.33-8L15.36,13.5a3.2,3.2,0,0,0-2.56-1.24V11.6H23.21v.73l-1.08.07A1,1,0,0,0,21,13.68l4.52,12.06,1.29-3.34c2.3-5.21.88-9.06.88-9.06-2.3-4.73.61-5.41.61-5.41h.53a14.89,14.89,0,0,0-25,3.79l7-.07v.76h0Z"/><path class="cls-1" d="M34.23,17.5A16.73,16.73,0,1,1,17.5.77,16.73,16.73,0,0,1,34.23,17.5ZM17.5,0A17.5,17.5,0,1,0,35,17.5,17.5,17.5,0,0,0,17.5,0Z"/></g></g></svg>