<svg xmlns="http://www.w3.org/2000/svg" viewBox="0 0 39.56 39.5"><g id="Layer_1" data-name="Layer 1"><path d="M19.62,39.5a17.81,17.81,0,0,1-7-1.38A19.66,19.66,0,0,1,.27,22.47a15.87,15.87,0,0,1,.24-6.91l0-.18A19.77,19.77,0,0,1,17,.18,23.23,23.23,0,0,1,21.31.06a23.65,23.65,0,0,1,3.17.49A19.76,19.76,0,0,1,20,39.5ZM20,1a27.79,27.79,0,0,0-2.87.18A18.73,18.73,0,0,0,1.53,15.59l0,.18a15,15,0,0,0-.23,6.53A18.47,18.47,0,0,0,13,37.2a16.85,16.85,0,0,0,7,1.3,18.76,18.76,0,0,0,4.28-37,24.87,24.87,0,0,0-3-.47C20.84,1,20.44,1,20,1Zm.62,34.51-1.23,0a15.42,15.42,0,0,1-9.7-3.64C5.34,28.26,3.8,22.74,4.14,20.13l.13-1ZM5.12,21.39a14.81,14.81,0,0,0,5.23,9.69,14.52,14.52,0,0,0,7.78,3.33Zm18.3,13.66a1.32,1.32,0,0,1-1-.43l-6.08-6.08L4.91,17.05a1.5,1.5,0,0,1-.33-1.32C6.46,9.31,10.63,5.45,17,4.25c6-1.12,11.07.79,15.2,5.66a1.25,1.25,0,0,1,.37.95,1.23,1.23,0,0,1-.55.81c-.36.27-.7.57-1,.87l-.5.45-.11.09-.53.12L29.54,13l-.27-.33c-.18-.23-.37-.48-.58-.7a11.31,11.31,0,0,0-9.21-4A11.54,11.54,0,0,0,8.93,15.12c-.1.22-.1.25.09.44Q15.77,22.28,22.5,29L24,30.51a1.05,1.05,0,0,0,.22.2,11.69,11.69,0,0,0,6.87-7.45H25.72a1.1,1.1,0,0,1-.79-.26,1.06,1.06,0,0,1-.26-.77c0-.8,0-1.41,0-2a1,1,0,0,1,.26-.81,1.08,1.08,0,0,1,.86-.28h4.44q2.06,0,4.11-.06a1.07,1.07,0,0,1,1.25,1.27A15.9,15.9,0,0,1,23.91,35,1.87,1.87,0,0,1,23.42,35.05ZM20.17,5a15.9,15.9,0,0,0-3,.29C11.22,6.35,7.31,10,5.54,16a.57.57,0,0,0,.08.34L17.08,27.83l6.08,6.08c.14.15.22.18.48.1a14.54,14.54,0,0,0,6.16-3.4,14.77,14.77,0,0,0,4.79-10.29.55.55,0,0,0,0-.21h-.21l-4.13.06H25.67v0c0,.59,0,1.21,0,2h6.56l-.07.7a1.07,1.07,0,0,1,0,.25,12.78,12.78,0,0,1-7.49,8.39,1.1,1.1,0,0,1-1.33-.34L21.8,29.74Q15.05,23,8.31,16.27A1.25,1.25,0,0,1,8,14.7,12.49,12.49,0,0,1,19.44,6.94a12.24,12.24,0,0,1,10,4.33c.22.24.43.49.62.74l.24-.21c.36-.32.72-.64,1.1-.93a.9.9,0,0,0,.16-.14s-.05-.07-.14-.17C28.25,6.83,24.48,5,20.17,5Z" style="fill:#443f23"/></g></svg>