<svg id="Layer_3" data-name="Layer 3" xmlns="http://www.w3.org/2000/svg" viewBox="0 0 34 36"><defs><style>.cls-1{fill:#433f22;}</style></defs><title>small_icons_2</title><path class="cls-1" d="M25.29,8.71c0.5,0.67,1,1.34,1.51,2a6.29,6.29,0,0,1,.87,3.55,1.86,1.86,0,0,0,1.24,1.93,15.39,15.39,0,0,1,2.61,1.62A1.65,1.65,0,0,1,32,20.11,1.58,1.58,0,0,0,32.51,22a1.57,1.57,0,0,1,.88,2.07c-1,3-2.33,5.78-4.79,7.89a13.32,13.32,0,0,1-15.26,1.08A17,17,0,0,1,7.92,28,1.43,1.43,0,0,0,7,27.44a4.87,4.87,0,0,1-4.28-5.93,0.85,0.85,0,0,0-.33-1C0.32,18.91-.06,17.75.67,15.2A23.16,23.16,0,0,1,5.57,6.78a21,21,0,0,1,5.72-5A13.59,13.59,0,0,1,14.66.53a2.87,2.87,0,0,1,2.72,1A1.12,1.12,0,0,0,19,1.7,9,9,0,0,1,23.81.34,3.12,3.12,0,0,1,27,4.19a11.61,11.61,0,0,1-.63,2.3C26.1,7.23,25.69,7.92,25.29,8.71Zm6,15a1.32,1.32,0,0,1-.07.28,2.43,2.43,0,0,1-.24.3,11.15,11.15,0,0,1-7.47,3.43,6.88,6.88,0,0,1-2.69-.46,1.89,1.89,0,0,1-1-2.3c0.19-.81.73-1.15,1.81-1.23a21.51,21.51,0,0,0,2.91-.35,11.38,11.38,0,0,0,6.24-3.64c0.3-.34.55-0.71,0.06-1a19.11,19.11,0,0,0-3-1.77,1.94,1.94,0,0,1-1.25-1.9,18.53,18.53,0,0,0-.39-2.9c-0.38-1.5-1.6-1.85-2.74-.81a3.91,3.91,0,0,1-3,1.11c-0.54,0-1.08,0-1.62,0a3.26,3.26,0,0,0-3.19,2.73,20.88,20.88,0,0,0-.13,2.18l-0.59-.06,1.65,2.52-0.17.09,1.25,0.77a5.74,5.74,0,0,0-1.82,4.8l0.29-.07,0.24,2.11,0.17,0,0.39-.61,0.61,2.23,0.35-.64a4.34,4.34,0,0,0,3.91,2.89,9.31,9.31,0,0,0,6.95-2A9.92,9.92,0,0,0,32,24.65c0.49-1.39.5-1.53-.84-1.73l-0.51-1.78c-1.26.75-2.39,1.52-3.61,2.11a12.79,12.79,0,0,1-5.47,1.19,0.94,0.94,0,0,0-1.15,1,7.3,7.3,0,0,0,3.37.07c1.1-.21,2.18-0.48,3.28-0.73a11.9,11.9,0,0,1-6.6,1.36,2.39,2.39,0,0,0,1.15.86,9.2,9.2,0,0,0,2.6.1A13.69,13.69,0,0,0,31.24,23.75Zm-27.83-4c0.42-.39.85-0.76,1.24-1.16a2.34,2.34,0,0,0,.56-0.78A24.91,24.91,0,0,1,13.57,6.46a5.73,5.73,0,0,1,.54-0.34,32.83,32.83,0,0,0-4.94,6.46c3.55-4.31,7.22-8.47,12.4-11a4.76,4.76,0,0,0-1.7.61,2,2,0,0,1-3.12-.39,0.84,0.84,0,0,0-.57-0.31,9.46,9.46,0,0,0-5.26,1.9,24.91,24.91,0,0,0-7.5,8.51,21.33,21.33,0,0,0-1.71,4.43C1.24,18,1.81,18.94,3.41,19.76ZM9.64,21.2C9.33,19.71,9,19.2,8.06,19a3.47,3.47,0,0,0-3.81,1.71,3.81,3.81,0,0,0,.45,4.45,3.39,3.39,0,0,0,4,.85,3.67,3.67,0,0,0,2-3.84l-0.33.24-0.36-2Zm6.5-12.57a13.27,13.27,0,0,0-4,3.86c0.75-.63,1.43-1.34,2.21-1.92,3-2.18,6.09-3.8,10-3a3.39,3.39,0,0,0-1.35-1,20.82,20.82,0,0,0-3-.23,2.76,2.76,0,0,0-.53.08l0.36,0.27L17,7.09V7.27L17.62,7.5l-2.19.93Z"/><path class="cls-1" d="M15.59,4.9l-2.47-2c0.15,1.4,1.31,1.69,1.93,2.49Z"/><path class="cls-1" d="M21.34,17.4a3.77,3.77,0,0,0-3.4.14,1.62,1.62,0,0,1,1.52-1.06A1.81,1.81,0,0,1,21.34,17.4Z"/><path class="cls-1" d="M25.81,16c-1.19-.11-1.54-0.54-1.28-1.35,0.14-.44.43-0.48,0.64-0.13A11,11,0,0,1,25.81,16Z"/><path class="cls-1" d="M24.82,18.22a1.7,1.7,0,0,1-.7.19,2.63,2.63,0,0,1-.51-0.56,1,1,0,0,1,.47-0.23A3.72,3.72,0,0,1,24.82,18.22Z"/><path class="cls-1" d="M21.14,18.12l-1.85.33A1.21,1.21,0,0,1,21.14,18.12Z"/><path class="cls-1" d="M15.59,4.9l-0.54.47c-0.62-.8-1.78-1.09-1.93-2.49Z"/><path class="cls-1" d="M5.76,23.71a1.84,1.84,0,0,1-.52-2.34,2.19,2.19,0,0,1,2.59-1.16,1.4,1.4,0,0,1,1,1.7A1.59,1.59,0,0,0,6.56,21C5.42,21.55,5.5,22.62,5.76,23.71Z"/><path class="cls-1" d="M7.89,21.63a8.38,8.38,0,0,0,.84.86,1.24,1.24,0,0,1,.39,1.69,1.14,1.14,0,0,1-1.69.41,1.23,1.23,0,0,0,.45-0.09,2.17,2.17,0,0,0,.83-0.78,1.22,1.22,0,0,0-.46-0.91C7.57,22.21,7.5,22,7.89,21.63Z"/></svg>
