<svg id="Layer_3" data-name="Layer 3" xmlns="http://www.w3.org/2000/svg" viewBox="0 0 32 33"><defs><style>.cls-1{fill:none;stroke:#433f22;stroke-miterlimit:10;stroke-width:1.2px;}</style></defs><title>small_icons_5</title><path class="cls-1" d="M27.2,12.55V7.3l-7-6.63H2.2A1.54,1.54,0,0,0,.66,2.2V30.73A1.54,1.54,0,0,0,2.2,32.27h25"/><polyline class="cls-1" points="27.2 7.3 20.25 7.3 20.25 2.99"/><path class="cls-1" d="M13.67,14.47v9.17a2.3,2.3,0,0,1-2.3,2.3H8.8"/><line class="cls-1" x1="30.32" y1="14.33" x2="24.03" y2="26.58"/><line class="cls-1" x1="24.03" y1="14.33" x2="30.32" y2="26.58"/><path class="cls-1" d="M21.79,14.91H19.7a2.78,2.78,0,0,0-2.78,2.78h0a2.78,2.78,0,0,0,2,2.67l0.44,0.13a2.78,2.78,0,0,1,2,2.67h0a2.78,2.78,0,0,1-2.78,2.78H16.51"/></svg>
