<svg xmlns="http://www.w3.org/2000/svg" width="12.18" height="12.81" viewBox="0 0 13 13">
  <metadata><?xpacket begin="﻿" id="W5M0MpCehiHzreSzNTczkc9d"?>
<x:xmpmeta xmlns:x="adobe:ns:meta/" x:xmptk="Adobe XMP Core 5.6-c138 79.159824, 2016/09/14-01:09:01        ">
   <rdf:RDF xmlns:rdf="http://www.w3.org/1999/02/22-rdf-syntax-ns#">
      <rdf:Description rdf:about=""/>
   </rdf:RDF>
</x:xmpmeta>





















<?xpacket end="w"?></metadata>
<defs>
    <style>
      .cls-1 {
        fill: #353535;
        fill-rule: evenodd;
      }
    </style>
  </defs>
  <path id="fa-google-plus" class="cls-1" d="M1243.02,1347.5a2.907,2.907,0,0,1,.46-0.47,6.32,6.32,0,0,0,.53-0.51,2.355,2.355,0,0,0,.46-0.71,2.659,2.659,0,0,0,.19-1,2.6,2.6,0,0,0-.29-1.23,3.882,3.882,0,0,0-.87-1.03h1.01l1.06-.67h-3.21a5.882,5.882,0,0,0-1.68.24,4,4,0,0,0-1.41.76,3.058,3.058,0,0,0-.76,1.01,2.89,2.89,0,0,0-.27,1.22,2.474,2.474,0,0,0,.78,1.88,2.664,2.664,0,0,0,1.92.75c0.11,0,.29-0.01.52-0.03a1.657,1.657,0,0,0-.16.65,1.247,1.247,0,0,0,.12.56,2.852,2.852,0,0,0,.37.57,7.03,7.03,0,0,0-3.12.77,2.868,2.868,0,0,0-.91.89,2.062,2.062,0,0,0-.34,1.15,1.876,1.876,0,0,0,.28,1.01,2.454,2.454,0,0,0,1.32,1.06,5.655,5.655,0,0,0,1.9.32,6.076,6.076,0,0,0,2.3-.44,3.339,3.339,0,0,0,1.62-1.38,2.607,2.607,0,0,0,.37-1.34,2.455,2.455,0,0,0-.24-1.09,2.662,2.662,0,0,0-.6-0.8c-0.23-.21-0.46-0.39-0.69-0.57a3.507,3.507,0,0,1-.6-0.52,0.788,0.788,0,0,1-.25-0.54A0.848,0.848,0,0,1,1243.02,1347.5Zm-2.05-.43a1.936,1.936,0,0,1-.58-0.52,3.262,3.262,0,0,1-.4-0.71,5.131,5.131,0,0,1-.25-0.79,4.132,4.132,0,0,1-.07-0.76,1.955,1.955,0,0,1,.36-1.23,1.407,1.407,0,0,1,.5-0.4,1.464,1.464,0,0,1,.64-0.15,1.426,1.426,0,0,1,.9.31,2.414,2.414,0,0,1,.65.8,4.452,4.452,0,0,1,.37,1,3.776,3.776,0,0,1,.14.96,1.773,1.773,0,0,1-.41,1.23,1.662,1.662,0,0,1-.51.33,1.513,1.513,0,0,1-.6.13A1.439,1.439,0,0,1,1240.97,1347.07Zm-0.23,6.81a4.149,4.149,0,0,1-.91-0.34,1.821,1.821,0,0,1-.71-0.64,1.68,1.68,0,0,1-.27-0.95,1.578,1.578,0,0,1,.21-0.81,1.74,1.74,0,0,1,.53-0.58,2.983,2.983,0,0,1,.74-0.35,4.48,4.48,0,0,1,.83-0.19,5.52,5.52,0,0,1,.81-0.06,0.64,0.64,0,0,1,.65.22c0.17,0.12.28,0.2,0.32,0.23s0.14,0.11.28,0.22a2.33,2.33,0,0,1,.3.27c0.05,0.06.13,0.15,0.23,0.27a1.346,1.346,0,0,1,.2.32,1.984,1.984,0,0,1,.11.32,1.209,1.209,0,0,1,.06.38,1.637,1.637,0,0,1-.21.84,1.461,1.461,0,0,1-.57.56,3.013,3.013,0,0,1-.76.3,3.435,3.435,0,0,1-.86.1A4.6,4.6,0,0,1,1240.74,1353.88Zm7.22-8.31h-0.81v1.67h-1.63v0.84h1.63v1.68h0.81v-1.68h1.64v-0.84h-1.64v-1.67Z" transform="translate(-1237.41 -1341.88)"/>
</svg>
