<svg id="icon" xmlns="http://www.w3.org/2000/svg" viewBox="0 0 55.82 68.9"><title>1</title><path d="M17.15,9.33H3.39A2.39,2.39,0,0,0,1,11.72V65.51A2.39,2.39,0,0,0,3.39,67.9H43.82a2.39,2.39,0,0,0,2.39-2.39V52.42" style="fill:none;stroke:#353535;stroke-miterlimit:10;stroke-width:2px"/><path d="M46.21,22.58V11.72a2.39,2.39,0,0,0-2.39-2.39H30.36" style="fill:none;stroke:#353535;stroke-miterlimit:10;stroke-width:2px"/><path d="M8.11,28.08h2.58a1.63,1.63,0,0,1,1.63,1.63v2.58a1.62,1.62,0,0,1-1.62,1.62H8.11a1.62,1.62,0,0,1-1.62-1.62V29.71a1.62,1.62,0,0,1,1.62-1.62Z" style="fill:none;stroke:#353535;stroke-miterlimit:10;stroke-width:2px"/><path d="M8.11,39.83h2.58a1.63,1.63,0,0,1,1.63,1.63V44a1.62,1.62,0,0,1-1.62,1.62H8.11A1.62,1.62,0,0,1,6.48,44V41.46a1.62,1.62,0,0,1,1.62-1.62Z" style="fill:none;stroke:#353535;stroke-miterlimit:10;stroke-width:2px"/><path d="M8.11,50.83h2.58a1.63,1.63,0,0,1,1.63,1.63V55a1.62,1.62,0,0,1-1.62,1.62H8.11A1.62,1.62,0,0,1,6.48,55V52.46a1.62,1.62,0,0,1,1.62-1.62Z" style="fill:none;stroke:#353535;stroke-miterlimit:10;stroke-width:2px"/><circle cx="37.9" cy="37.83" r="16.92" style="fill:none;stroke:#353535;stroke-miterlimit:10;stroke-width:2px"/><polyline points="29.15 35.75 36.73 44.88 47.61 30.13" style="fill:none;stroke:#009fd1;stroke-miterlimit:10;stroke-width:3px"/><polygon points="28.06 5.08 26.66 5.08 26.66 1.5 20.55 1.5 20.55 5.08 19.15 5.08 15.89 12.83 31.32 12.83 28.06 5.08" style="fill:none;stroke:#d63227;stroke-miterlimit:10;stroke-width:3px"/></svg>