<?xml version="1.0" encoding="utf-8"?>
<!-- Generator: Adobe Illustrator 19.2.0, SVG Export Plug-In . SVG Version: 6.00 Build 0)  -->
<svg version="1.1" xmlns="http://www.w3.org/2000/svg" xmlns:xlink="http://www.w3.org/1999/xlink" x="0px" y="0px"
	 viewBox="0 0 80 107" style="enable-background:new 0 0 79.6 106.4;" xml:space="preserve">
<style type="text/css">
	.st0{fill:none;stroke:#433F22;stroke-width:2;stroke-miterlimit:10;}
	.st1{fill:#CCECF6;}
	.st2{fill:#F7D4D1;}
	.st3{fill:#FAEB8B;}
	.st4{fill:none;stroke:#353535;stroke-width:2;stroke-miterlimit:10;}
	.st5{fill:none;stroke:#0C9FD2;stroke-width:2;stroke-miterlimit:10;}
	.st6{fill:#FFE36C;}
	.st7{opacity:0.3;fill:#009FD1;}
	.st8{opacity:0.3;}
	.st9{fill:#D63227;}
	.st10{fill:#EEEDED;}
	.st11{fill:#009FD1;}
	.st12{opacity:0.7;fill:#D63227;}
	.st13{fill:none;stroke:#FFFFFF;stroke-width:2;stroke-miterlimit:10;}
	.st14{opacity:0.3;fill:#D63227;}
	.st15{opacity:0.3;fill:#B2D235;}
	.st16{fill:#FFFFFF;stroke:#353535;stroke-width:2;stroke-miterlimit:10;}
</style>
<g id="Layer_1">
</g>
<g id="Layer_2">
	<circle class="st13" cx="39.5" cy="35.8" r="25.5"/>
	<path class="st13" d="M11.9,24.9C16,11.3,26.8,1.6,39.5,1.6c13.2,0,23.7,9.1,27.5,23.5"/>
	<polyline class="st13" points="58.9,69.9 74.4,76.1 77.9,104.8 1.7,104.8 5.2,76.1 20.7,69.9 	"/>
	<path class="st13" d="M62.3,24.3c5.4-0.2,10,4,10.2,9.4c0.2,5.4-4,10-9.4,10.2"/>
	<path class="st13" d="M16.2,24.3c-5.4-0.2-9.9,4.1-10.1,9.5s4.1,9.9,9.5,10.1"/>
	<path class="st13" d="M34.1,38.6H22.8c-0.7,0-1.3-0.6-1.3-1.3v-7.6c0-0.7,0.6-1.3,1.3-1.3h11.3c0.7,0,1.3,0.6,1.3,1.3v7.6
		C35.4,38.1,34.8,38.6,34.1,38.6z"/>
	<path class="st13" d="M55.2,38.6H43.9c-0.7,0-1.3-0.6-1.3-1.3v-7.6c0-0.7,0.6-1.3,1.3-1.3h11.3c0.7,0,1.3,0.6,1.3,1.3v7.6
		C56.4,38.1,55.9,38.6,55.2,38.6z"/>
	<line class="st13" x1="34.8" y1="33.7" x2="43" y2="33.7"/>
</g>
</svg>
