<svg id="Layer_1" data-name="Layer 1" xmlns="http://www.w3.org/2000/svg" viewBox="0 0 33.46 34.77"><title>BigCommerce</title><path d="M18.32,34.77l-.57-1.05c1.28-.83,1.24-1.69.92-4l-.11-.79c-.38-3.06,2.69-4.66,2.82-4.73l.55,1.07c-.1.05-2.46,1.3-2.18,3.51l.11.77A10.64,10.64,0,0,1,20,32.38c2-1.41,4.54-3.87,3.8-7L25,25.15C26.36,31,18.65,34.62,18.32,34.77Z" style="fill:#433f22"/><polygon points="18.5 34.55 0 31.15 3.36 8.74 19.99 3.63 24.66 5.32 30.26 5.7 24.78 18.98 23.27 22.27 24.7 22.93 32.33 1.68 33.46 2.08 25.39 24.57 21.68 22.86 23.68 18.5 28.52 6.79 24.33 6.47 19.96 4.89 4.43 9.67 1.36 30.18 18.72 33.37 18.5 34.55" style="fill:#433f22"/><path d="M7.31,8.45,6.13,8.23c0-.29,1.35-6.92,5.13-8.07a2.86,2.86,0,0,1,2.53.31c1.9,1.28,2.25,4.81,2.27,5l-1.2.11c-.08-.86-.55-3.28-1.74-4.07a1.68,1.68,0,0,0-1.51-.16C8.52,2.25,7.32,8.39,7.31,8.45Z" style="fill:#433f22"/><path d="M11.49,7.14,10.3,7c0-.18.7-4.54,3.93-5.52,2.72-.82,4.43,1.61,4.94,3l-1.12.41c-.05-.12-1.16-3-3.47-2.28C12.08,3.36,11.5,7.11,11.49,7.14Z" style="fill:#433f22"/><path d="M13.38,28.15a5.67,5.67,0,0,1-.91-.07c-1.17-.18-2.29-.37-3.35-.55S6.87,27.15,5.83,27c-1.23-.18-1.08-1.26-1-1.66C5.11,23.27,6.32,14,6.56,12.21l.05-.43,5.05-1c2.63-.5,3.38-.33,4.22,0a3.42,3.42,0,0,1,2.24,2.86A4.89,4.89,0,0,1,16,18.19a5.44,5.44,0,0,1,2.11,3.33,6,6,0,0,1-1,4.73A4.35,4.35,0,0,1,13.38,28.15ZM6,25.8H6c1,.15,2.15.34,3.32.54s2.17.37,3.34.55a3.28,3.28,0,0,0,3.44-1.35,4.76,4.76,0,0,0,.78-3.78A4.13,4.13,0,0,0,15,19l-.28-.19-.89-.62,1.39-1a3.74,3.74,0,0,0,1.69-3.4,2.24,2.24,0,0,0-1.47-1.89c-.56-.21-1.08-.41-3.58.07l-4.19.8C7.36,15.33,6.28,23.56,6,25.5A2.63,2.63,0,0,0,6,25.8Z" style="fill:#433f22"/><path d="M12,24.31a25.23,25.23,0,0,1-2.52-.16l-.58,0a.87.87,0,0,1-.75-1c0-.68.12-1.34.2-2l.05-.51a.76.76,0,0,1,.74-.7h.81c.77,0,1.53,0,2.33,0A2,2,0,0,1,14.08,22a2.48,2.48,0,0,1-.6,1.79,1.73,1.73,0,0,1-1.23.52ZM9.35,22.94l.22,0a23,23,0,0,0,2.66.14.5.5,0,0,0,.39-.16,1.34,1.34,0,0,0,.26-.93c0-.51-.29-.89-.66-.91-.78,0-1.53,0-2.28,0h-.4l0,.14C9.46,21.8,9.4,22.37,9.35,22.94ZM9,22.9Zm.14-1.81h0Z" style="fill:#433f22"/><path d="M9.52,17.43a.81.81,0,0,1-.62-.24,1,1,0,0,1-.23-.86l.16-1.52a1,1,0,0,1,1-1q.36,0,.72-.09l.74-.1.87-.11a1.76,1.76,0,0,1,1.42.42,1.69,1.69,0,0,1,.5,1.34,2.08,2.08,0,0,1-2,2L11,17.33l-1.31.1ZM10,15,9.89,16.2l1-.06L12,16.06a.88.88,0,0,0,.88-.87.54.54,0,0,0-.12-.42.61.61,0,0,0-.48-.1l-.83.11-.72.1Z" style="fill:#433f22"/></svg>