<svg id="Home" xmlns="http://www.w3.org/2000/svg" viewBox="0 0 103 84"><defs><style>.cls-1{fill:none;stroke:#353535;stroke-miterlimit:10;stroke-width:2px;}.cls-2{fill:#d63227;}.cls-3{fill:#009fd1;}</style></defs><title>burger_icon_svg</title><line class="cls-1" x1="73.8" y1="37.53" x2="84.14" y2="40.75"/><path class="cls-2" d="M83.74,40.48h16.45a2.76,2.76,0,0,1,2.76,2.76v0.5a2.76,2.76,0,0,1-2.76,2.76H83.74a0,0,0,0,1,0,0v-6a0,0,0,0,1,0,0Z" transform="matrix(0.95, 0.3, -0.3, 0.95, 17.11, -25.74)"/><line class="cls-1" x1="73.8" y1="57.91" x2="84.14" y2="61.12"/><path class="cls-3" d="M83.74,60.85h16.45a2.76,2.76,0,0,1,2.76,2.76v0.5a2.76,2.76,0,0,1-2.76,2.76H83.74a0,0,0,0,1,0,0v-6a0,0,0,0,1,0,0Z" transform="matrix(0.95, 0.3, -0.3, 0.95, 23.15, -24.82)"/><line class="cls-1" x1="28.92" y1="37.53" x2="18.57" y2="40.75"/><path class="cls-2" d="M-0.23,40.48H16.22A2.76,2.76,0,0,1,19,43.24v0.5a2.76,2.76,0,0,1-2.76,2.76H-0.23a0,0,0,0,1,0,0v-6A0,0,0,0,1-.23,40.48Z" transform="translate(31.22 82.23) rotate(162.74)"/><line class="cls-1" x1="28.92" y1="57.91" x2="18.57" y2="61.12"/><path class="cls-3" d="M-0.23,60.85H16.22A2.76,2.76,0,0,1,19,63.61v0.5a2.76,2.76,0,0,1-2.76,2.76H-0.23a0,0,0,0,1,0,0v-6A0,0,0,0,1-.23,60.85Z" transform="translate(37.27 122.06) rotate(162.74)"/><path class="cls-1" d="M65.19,11.61L56.67,3.17A7.59,7.59,0,0,0,46,3.17l-8.52,8.44c-5.53,5.48-8.6,8.32-8.6,15.74V77.79A2.54,2.54,0,0,0,31,80.18h0a90,90,0,0,0,40.76,0h0a2.54,2.54,0,0,0,2.06-2.4V27.36C73.8,19.93,70.73,17.1,65.19,11.61Z"/><rect class="cls-1" x="34.71" y="37.05" width="33.29" height="20.23"/><path class="cls-1" d="M36.75,75.45a84.92,84.92,0,0,0,29.21,0A2.49,2.49,0,0,0,68,73V27.36c0-5.88-2.45-7.23-6.89-11.63h0L54.66,9.33a4.72,4.72,0,0,0-6.61,0L41.6,15.73c-4.44,4.4-6.89,5.75-6.89,11.63V73A2.49,2.49,0,0,0,36.75,75.45Z"/><rect class="cls-1" x="34.71" y="37.05" width="33.29" height="20.23"/></svg>
