<svg id="Layer_1" data-name="Layer 1" xmlns="http://www.w3.org/2000/svg" xmlns:xlink="http://www.w3.org/1999/xlink" viewBox="0 0 72 71"><defs><style>.cls-1,.cls-4,.cls-5,.cls-6,.cls-7,.cls-8{fill:none;}.cls-2{clip-path:url(#clip-path);}.cls-3{fill:#fff;}.cls-4,.cls-6,.cls-7{stroke:#000;}.cls-4,.cls-5,.cls-6,.cls-7,.cls-8{stroke-miterlimit:10;}.cls-4,.cls-5,.cls-8{stroke-width:2px;}.cls-5{stroke:#d73227;}.cls-6,.cls-7{stroke-width:1.5px;}.cls-7{stroke-linecap:round;}.cls-8{stroke:#00a0d2;}</style><clipPath id="clip-path" transform="translate(0 0)"><rect class="cls-1" width="71.61" height="70.88"/></clipPath></defs><title>psd-to-woo-6</title><g class="cls-2"><path class="cls-3" d="M62.07,68.08a6.68,6.68,0,0,0,3.66-1.85c3.64-3.59,4.25-6.13.59-9.78l-7.51-7.52" transform="translate(0 0)"/><path class="cls-4" d="M62.07,68.08a6.68,6.68,0,0,0,3.66-1.85c3.64-3.59,4.25-6.13.59-9.78l-7.51-7.52" transform="translate(0 0)"/><path class="cls-5" d="M6.54,29.83a19,19,0,0,0,18.31,4.9L47,56.89" transform="translate(0 0)"/><path class="cls-4" d="M56.09,46.23l-3-3L34.73,24.86A18.94,18.94,0,0,0,11.51,1.64L20.92,11a7.77,7.77,0,0,1,0,11.09c-3.61,3.34-7.43,1.23-11-2.38L1.64,11.51A19,19,0,0,0,3.21,25.34" transform="translate(0 0)"/><circle class="cls-6" cx="58.3" cy="58.62" r="2.5" transform="translate(-24.37 58.4) rotate(-45)"/><line class="cls-7" x1="41.54" y1="41.54" x2="52.23" y2="52.23"/><line class="cls-7" x1="34.14" y1="34.14" x2="38.25" y2="38.25"/><path class="cls-8" d="M41.23,22.44l0.11-.11L58.06,5.62a3.56,3.56,0,0,1,5,0l6.49,6.49a3.56,3.56,0,0,1,0,5L53.75,32.95" transform="translate(0 0)"/><path class="cls-4" d="M34.46,52.24L25.2,61.5c-1.38,1.38-19,7.74-19,7.74S12.31,51.36,13.69,50l8.67-8.67" transform="translate(0 0)"/><line class="cls-3" x1="63.03" y1="15.44" x2="49.76" y2="29.17"/><line class="cls-7" x1="63.03" y1="15.44" x2="49.76" y2="29.17"/><line class="cls-3" x1="53.49" y1="18.41" x2="46.44" y2="25.46"/><line class="cls-7" x1="53.49" y1="18.41" x2="46.44" y2="25.46"/><line class="cls-3" x1="59.74" y1="12.15" x2="56.4" y2="15.5"/><line class="cls-7" x1="59.74" y1="12.15" x2="56.4" y2="15.5"/><line class="cls-7" x1="13.7" y1="50.1" x2="21.26" y2="57.66"/></g></svg>
