<svg xmlns="http://www.w3.org/2000/svg" width="13" height="11" viewBox="0 0 13 11">
  <metadata><?xpacket begin="﻿" id="W5M0MpCehiHzreSzNTczkc9d"?>
<x:xmpmeta xmlns:x="adobe:ns:meta/" x:xmptk="Adobe XMP Core 5.6-c138 79.159824, 2016/09/14-01:09:01        ">
   <rdf:RDF xmlns:rdf="http://www.w3.org/1999/02/22-rdf-syntax-ns#">
      <rdf:Description rdf:about=""/>
   </rdf:RDF>
</x:xmpmeta>





















<?xpacket end="w"?></metadata>
<defs>
    <style>
      .cls-1 {
        fill-rule: evenodd;
      }
    </style>
  </defs>
  <path id="fa-twitter" class="cls-1" d="M1345.11,917.547a2.626,2.626,0,0,0,1.19-1.49,5.289,5.289,0,0,1-1.71.653,2.626,2.626,0,0,0-1.98-.854,2.7,2.7,0,0,0-2.7,2.7,3.333,3.333,0,0,0,.06.619,7.557,7.557,0,0,1-3.11-.833,7.676,7.676,0,0,1-2.46-2,2.707,2.707,0,0,0,.84,3.616,2.7,2.7,0,0,1-1.23-.343v0.033a2.615,2.615,0,0,0,.62,1.72,2.672,2.672,0,0,0,1.55.934,2.777,2.777,0,0,1-.71.092,3.325,3.325,0,0,1-.51-0.042,2.7,2.7,0,0,0,2.53,1.875,5.31,5.31,0,0,1-3.36,1.155,5.748,5.748,0,0,1-.65-0.033,7.5,7.5,0,0,0,4.15,1.213,7.874,7.874,0,0,0,2.7-.456,6.71,6.71,0,0,0,2.16-1.222,8.341,8.341,0,0,0,1.55-1.762,7.834,7.834,0,0,0,.96-2.08,7.412,7.412,0,0,0,.32-2.172,3.3,3.3,0,0,0-.01-0.352,5.613,5.613,0,0,0,1.36-1.4,5.389,5.389,0,0,1-1.56.419h0Z" transform="translate(-1333.47 -915.844)"/>
</svg>
