<svg width="34" height="34" viewBox="0 0 34 34" fill="none" xmlns="http://www.w3.org/2000/svg">
<path d="M16.9987 0.333336C7.81536 0.333336 0.332031 7.81667 0.332031 17C0.332031 26.1833 7.81536 33.6667 16.9987 33.6667C26.182 33.6667 33.6654 26.1833 33.6654 17C33.6654 7.81667 26.182 0.333336 16.9987 0.333336ZM2.01536 17C2.01536 14.8333 2.48203 12.7667 3.31536 10.9L10.4654 30.4833C5.46536 28.05 2.01536 22.9333 2.01536 17ZM16.9987 31.9833C15.532 31.9833 14.1154 31.7667 12.7654 31.3667L17.2654 18.3L21.8654 30.9167C21.8987 30.9833 21.932 31.0667 21.9654 31.1167C20.4154 31.6833 18.7487 31.9833 16.9987 31.9833ZM19.0654 9.96667C19.9654 9.91667 20.782 9.81667 20.782 9.81667C21.582 9.71667 21.4987 8.53334 20.682 8.58333C20.682 8.58333 18.2487 8.76667 16.682 8.76667C15.2154 8.76667 12.732 8.58333 12.732 8.58333C11.932 8.55 11.832 9.78334 12.6487 9.83333C12.6487 9.83333 13.4154 9.93334 14.2154 9.98334L16.5487 16.3833L13.2654 26.2167L7.81536 9.96667C8.71536 9.93334 9.53203 9.83333 9.53203 9.83333C10.332 9.73334 10.2487 8.55 9.43203 8.6C9.43203 8.6 6.9987 8.78334 5.43203 8.78334C5.1487 8.78334 4.81536 8.78334 4.46536 8.76667C7.16536 4.7 11.7654 2.01667 16.9987 2.01667C20.8987 2.01667 24.4487 3.5 27.1154 5.95C27.0487 5.95 26.982 5.93334 26.9154 5.93334C25.4487 5.93334 24.3987 7.21667 24.3987 8.6C24.3987 9.83334 25.1154 10.8833 25.8654 12.1167C26.432 13.1167 27.0987 14.4 27.0987 16.25C27.0987 17.5333 26.5987 19.0167 25.9654 21.1L24.4654 26.1L19.0654 9.96667ZM30.1487 9.81667C32.0207 13.2427 32.4812 17.2643 31.4321 21.0248C30.383 24.7854 27.9072 27.9878 24.532 29.95L29.1154 16.7167C29.9654 14.5833 30.2487 12.8667 30.2487 11.35C30.2487 10.8 30.2154 10.2833 30.1487 9.81667Z" fill="white"/>
</svg>
