<svg xmlns="http://www.w3.org/2000/svg" width="37" height="38.97" viewBox="0 0 37 38.97">
<defs>
    <style>
      .cls-1 {
        fill: #353535;
        fill-rule: evenodd;
      }
    </style>
</defs>
<path data-name="“"  d="M617.756,4418c4.215,0,6.244-2.05,6.244-6.3v-10.08a4.455,4.455,0,0,0-4.527-4.57h-1.249c0.156-2.36,1.4-6.3,3.747-11.66l0.78-1.73c0.937-1.89.469-3.15-1.249-3.94l-1.248-.47c-1.562-.63-2.967,0-4.059,1.89l-1.874,3.15c-4.371,6.93-5.776,10.71-5.776,19.37v8.04c0,4.25,2.03,6.3,6.245,6.3h2.966Zm-21.544,0c4.215,0,6.245-2.05,6.245-6.3v-10.08a4.455,4.455,0,0,0-4.527-4.57h-1.249c0.156-2.36,1.4-6.3,3.746-11.66l0.781-1.73c0.937-1.89.468-3.15-1.249-3.94l-1.249-.47c-1.561-.63-2.966,0-4.059,1.89l-1.873,3.15c-4.371,6.93-5.776,10.71-5.776,19.37v8.04c0,4.25,2.029,6.3,6.244,6.3h2.966Z" transform="translate(-587 -4379.03)"/>
</svg>
