<svg id="Layer_1" data-name="Layer 1" xmlns="http://www.w3.org/2000/svg" viewBox="0 0 100 100">
	<title>quote</title>
	<path fill="#00a0d2" d="M140.71,19.4a50,50,0,1,0,50,50A50,50,0,0,0,140.71,19.4Zm-4.14,62.83c0,4.86-2,6.84-6.84,6.84h-0.54c-4.5,0-6.66-2.16-6.66-6.66V74.85a41.46,41.46,0,0,1,.72-9.54A39.22,39.22,0,0,1,127,56.67l3.06-5.4a2.54,2.54,0,0,1,3.24-1.44L133.87,50c2,0.72,2.7,2,1.8,4L134.41,57a38.68,38.68,0,0,0-2.7,10.44H133a3.23,3.23,0,0,1,3.6,3.6V82.23Zm22.32,0c0,4.86-2,6.84-6.84,6.84h-0.54c-4.5,0-6.66-2.16-6.66-6.66V74.85a41.39,41.39,0,0,1,.72-9.54,39.12,39.12,0,0,1,3.78-8.64l3.06-5.4a2.54,2.54,0,0,1,3.24-1.44L156.19,50c2,0.72,2.7,2,1.8,4L156.73,57A38.68,38.68,0,0,0,154,67.47h1.26a3.23,3.23,0,0,1,3.6,3.6V82.23Z" transform="translate(-90.71 -19.4)"/>
</svg>
