<svg xmlns="http://www.w3.org/2000/svg" viewBox="0 0 52 49.66"><defs><style>.cls-1{fill:none;stroke:#353535;stroke-miterlimit:10;stroke-width:2px;}</style></defs><title>1</title><g id="Layer_2" data-name="Layer 2"><g id="Layer_2-2" data-name="Layer 2"><path class="cls-1" d="M27,1.72l5.19,16a1,1,0,0,0,1,.72H50a1,1,0,0,1,.61,1.88L37,30.16a1,1,0,0,0-.38,1.16l5.19,16a1,1,0,0,1-1.6,1.16L26.61,38.58a1,1,0,0,0-1.22,0L11.81,48.45a1,1,0,0,1-1.6-1.16l5.19-16A1,1,0,0,0,15,30.16L1.43,20.29A1,1,0,0,1,2,18.41H18.83a1,1,0,0,0,1-.72L25,1.72A1,1,0,0,1,27,1.72Z"/></g></g></svg>