<svg id="Layer_3" data-name="Layer 3" xmlns="http://www.w3.org/2000/svg" viewBox="0 0 26 35"><defs><style>.cls-1{fill:none;stroke:#433f22;stroke-miterlimit:10;stroke-width:1.2px;}</style></defs><title>small_icons_1</title><path class="cls-1" d="M4.66,14V9.42a7.83,7.83,0,0,1,7.83-7.83h0a7.83,7.83,0,0,1,7.83,7.83V14"/><path class="cls-1" d="M6.38,28.95a14.79,14.79,0,0,0,6.1,4.68s10.24-3.47,10.24-18c0,0-2.26-3.2-10.24-3.2s-10.24,3.2-10.24,3.2A23.31,23.31,0,0,0,4,25"/><path class="cls-1" d="M14.67,20.53a2.18,2.18,0,1,0-3,2v3.25a0.86,0.86,0,0,0,.86.86h0a0.86,0.86,0,0,0,.86-0.86V22.53A2.18,2.18,0,0,0,14.67,20.53Z"/></svg>
