<svg id="Home" xmlns="http://www.w3.org/2000/svg" viewBox="0 0 97 84"><defs><style>.cls-1{fill:none;stroke:#353535;stroke-miterlimit:10;stroke-width:2px;}.cls-2{fill:#d63227;}.cls-3{fill:#009fd1;}</style></defs><title>burger_icon_svg</title><rect class="cls-1" x="7.72" y="14.83" width="81.28" height="53.61" rx="2.84" ry="2.84" transform="translate(6.72 90) rotate(-90)"/><line class="cls-1" x1="21.55" y1="41.64" x2="75.16" y2="41.64"/><path class="cls-1" d="M44.9-7.2H55a0,0,0,0,1,0,0V22.19a0,0,0,0,1,0,0H44.9a2.84,2.84,0,0,1-2.84-2.84V-4.36A2.84,2.84,0,0,1,44.9-7.2Z" transform="translate(41.05 56.04) rotate(-90)"/><path class="cls-1" d="M41.56,60.6H52.68a2.84,2.84,0,0,1,2.84,2.84v23.7A2.84,2.84,0,0,1,52.68,90H41.56a0,0,0,0,1,0,0V60.6A0,0,0,0,1,41.56,60.6Z" transform="translate(-26.75 123.84) rotate(-90)"/><circle class="cls-1" cx="48.61" cy="41.58" r="11.15"/><line class="cls-1" x1="74.41" y1="10.75" x2="82.17" y2="10.75"/><path class="cls-2" d="M96.59,10.82h0a2.29,2.29,0,0,1-2.29,2.29H80.78V8.53H94.3A2.29,2.29,0,0,1,96.59,10.82Z"/><line class="cls-1" x1="17.67" y1="10.75" x2="21.55" y2="10.75"/><line class="cls-1" x1="74.41" y1="35.97" x2="82.17" y2="35.97"/><path class="cls-2" d="M96.59,36h0a2.29,2.29,0,0,1-2.29,2.29H80.78V33.75H94.3A2.29,2.29,0,0,1,96.59,36Z"/><line class="cls-1" x1="17.67" y1="35.97" x2="21.55" y2="35.97"/><line class="cls-1" x1="74.41" y1="62.95" x2="82.17" y2="62.95"/><path class="cls-2" d="M96.59,63h0a2.29,2.29,0,0,1-2.29,2.29H80.78V60.74H94.3A2.29,2.29,0,0,1,96.59,63Z"/><line class="cls-1" x1="17.67" y1="62.95" x2="21.55" y2="62.95"/><line class="cls-1" x1="22.18" y1="72.76" x2="14.42" y2="72.76"/><path class="cls-3" d="M0,72.69H0A2.29,2.29,0,0,1,2.29,70.4H15.8V75H2.29A2.29,2.29,0,0,1,0,72.69Z"/><line class="cls-1" x1="78.91" y1="72.76" x2="75.03" y2="72.76"/><line class="cls-1" x1="22.18" y1="25.89" x2="14.42" y2="25.89"/><path class="cls-3" d="M0,25.82H0a2.29,2.29,0,0,1,2.29-2.29H15.8v4.57H2.29A2.29,2.29,0,0,1,0,25.82Z"/><line class="cls-1" x1="78.91" y1="25.89" x2="75.03" y2="25.89"/><line class="cls-1" x1="22.18" y1="50.51" x2="14.42" y2="50.51"/><path class="cls-3" d="M0,50.44H0a2.29,2.29,0,0,1,2.29-2.29H15.8v4.57H2.29A2.29,2.29,0,0,1,0,50.44Z"/><line class="cls-1" x1="78.91" y1="50.51" x2="75.03" y2="50.51"/></svg>
