<?xml version="1.0" encoding="utf-8"?>
<!-- Generator: Adobe Illustrator 24.0.0, SVG Export Plug-In . SVG Version: 6.00 Build 0)  -->
<svg version="1.1" xmlns="http://www.w3.org/2000/svg" xmlns:xlink="http://www.w3.org/1999/xlink" x="0px" y="0px"
	 viewBox="0 0 70.82 68.06" style="enable-background:new 0 0 70.82 68.06;" xml:space="preserve">
<style type="text/css">
	.st0{display:none;}
	.st1{display:inline;fill:#E4422B;}
	.st2{fill:#444023;}
	.st3{fill:#D93127;}
	.st4{fill:#099CD1;}
	.st5{fill:#FFFFFF;}
	.st6{fill:#E85343;}
	.st7{fill:#242528;}
</style>
<g id="Layer_2" class="st0">
	
		<image style="display:inline;overflow:visible;" width="1920" height="9407" xlink:href="36574DD2.html"  transform="matrix(1 0 0 1 -426.1426 -2258.9163)">
	</image>
</g>
<g id="Layer_1">
	<g>
		<g>
			<g>
				<path class="st3" d="M1.8,55.08H0V34.98c0-6.84,5.56-12.4,12.4-12.4c6.84,0,12.4,5.56,12.4,12.4v5.11h-1.8v-5.11
					c0-5.85-4.76-10.6-10.6-10.6S1.8,29.13,1.8,34.98V55.08z"/>
			</g>
			<g>
				<path class="st3" d="M12.4,17.23c-4.75,0-8.61-3.86-8.61-8.61S7.65,0,12.4,0c4.75,0,8.61,3.86,8.61,8.61S17.15,17.23,12.4,17.23
					z M12.4,1.8c-3.76,0-6.81,3.06-6.81,6.81c0,3.76,3.06,6.81,6.81,6.81s6.81-3.06,6.81-6.81C19.22,4.86,16.16,1.8,12.4,1.8z"/>
			</g>
		</g>
		<g>
			<g>
				<path class="st3" d="M70.82,55.08h-1.8V34.98c0-5.85-4.76-10.6-10.6-10.6s-10.6,4.76-10.6,10.6v5.11h-1.8v-5.11
					c0-6.84,5.56-12.4,12.4-12.4s12.4,5.56,12.4,12.4V55.08z"/>
			</g>
			<g>
				<path class="st3" d="M58.42,17.23c-4.75,0-8.61-3.86-8.61-8.61S53.67,0,58.42,0s8.61,3.86,8.61,8.61S63.17,17.23,58.42,17.23z
					 M58.42,1.8c-3.76,0-6.81,3.06-6.81,6.81c0,3.76,3.06,6.81,6.81,6.81s6.81-3.06,6.81-6.81C65.23,4.86,62.17,1.8,58.42,1.8z"/>
			</g>
		</g>
		<g>
			<path d="M46,68.06L36.36,63l-9.64,5.07l1.84-10.73l-7.8-7.6l10.78-1.57l4.82-9.76l4.82,9.76l10.78,1.57l-7.8,7.6L46,68.06z
				 M36.36,60.96l7.25,3.81l-1.38-8.07l5.86-5.72l-8.1-1.18l-3.62-7.34l-3.62,7.34l-8.1,1.18l5.86,5.72l-1.38,8.07L36.36,60.96z"/>
		</g>
		<g>
			<g>
				<path class="st4" d="M47.81,40.08h-1.8v-5.11c0-5.85-4.76-10.6-10.6-10.6s-10.6,4.76-10.6,10.6v5.11h-1.8v-5.11
					c0-6.84,5.56-12.4,12.4-12.4s12.4,5.56,12.4,12.4V40.08z"/>
			</g>
			<g>
				<path class="st4" d="M35.41,17.23c-4.75,0-8.61-3.86-8.61-8.61S30.66,0,35.41,0s8.61,3.86,8.61,8.61S40.16,17.23,35.41,17.23z
					 M35.41,1.8c-3.76,0-6.81,3.06-6.81,6.81c0,3.76,3.06,6.81,6.81,6.81s6.81-3.06,6.81-6.81C42.22,4.86,39.17,1.8,35.41,1.8z"/>
			</g>
		</g>
	</g>
</g>
</svg>
