<svg width="32" height="27" viewBox="0 0 32 27" fill="none" xmlns="http://www.w3.org/2000/svg">
<path d="M16.4981 12.84C19.7677 12.84 22.4181 10.1895 22.4181 6.92C22.4181 3.65047 19.7677 1 16.4981 1C13.2286 1 10.5781 3.65047 10.5781 6.92C10.5781 10.1895 13.2286 12.84 16.4981 12.84Z" stroke="black" stroke-width="2" stroke-miterlimit="10"/>
<path d="M23.5719 26.89V22.06C23.5719 18.65 20.8119 15.89 17.4019 15.89H15.5919C12.1819 15.89 9.42188 18.65 9.42188 22.06V26.89" stroke="black" stroke-width="2" stroke-miterlimit="10"/>
<path d="M11.7214 10.39C11.7214 13.09 9.53141 15.28 6.83141 15.28C4.13141 15.28 1.94141 13.09 1.94141 10.39C1.94141 7.69 4.13141 5.5 6.83141 5.5C8.27141 5.5 9.57141 6.12 10.4614 7.12" stroke="black" stroke-width="2" stroke-miterlimit="10"/>
<path d="M10.57 18.77C9.73 18.16 8.7 17.8 7.58 17.8H6.09C3.28 17.8 1 20.08 1 22.89V26.88" stroke="black" stroke-width="2" stroke-miterlimit="10"/>
<path d="M21.1602 10.39C21.1602 13.09 23.3502 15.28 26.0502 15.28C28.7502 15.28 30.9402 13.09 30.9402 10.39C30.9402 7.69 28.7502 5.5 26.0502 5.5C24.6102 5.5 23.3102 6.12 22.4202 7.12" stroke="black" stroke-width="2" stroke-miterlimit="10"/>
<path d="M22.3086 18.77C23.1486 18.16 24.1786 17.8 25.2986 17.8H26.7886C29.5986 17.8 31.8786 20.08 31.8786 22.89V26.88" stroke="black" stroke-width="2" stroke-miterlimit="10"/>
<path d="M17.0586 21.22H20.8086" stroke="black" stroke-width="2" stroke-miterlimit="10"/>
</svg>
