<svg xmlns="http://www.w3.org/2000/svg" width="18" height="25" viewBox="0 0 18 25">
  <metadata><?xpacket begin="﻿" id="W5M0MpCehiHzreSzNTczkc9d"?>
<x:xmpmeta xmlns:x="adobe:ns:meta/" x:xmptk="Adobe XMP Core 5.6-c138 79.159824, 2016/09/14-01:09:01        ">
   <rdf:RDF xmlns:rdf="http://www.w3.org/1999/02/22-rdf-syntax-ns#">
      <rdf:Description rdf:about=""/>
   </rdf:RDF>
</x:xmpmeta>





















<?xpacket end="w"?></metadata>
<defs>
    <style>
      .cls-1 {
        fill: #353535;
        fill-rule: evenodd;
        opacity: 0.8;
      }
    </style>
  </defs>
  <path id="_" data-name="" class="cls-1" d="M1292,733a11.759,11.759,0,0,0,.94,4.219,26.432,26.432,0,0,0,2.11,4.306q1.17,1.9,2.66,3.926c1,1.348,1.69,2.256,2.08,2.725s0.71,0.82.94,1.054l0.94-1c0.58-.7,1.31-1.649,2.17-2.841s1.71-2.461,2.57-3.809a23.935,23.935,0,0,0,2.2-4.395,11.851,11.851,0,0,0,.91-4.189,8.368,8.368,0,0,0-2.58-6.182,8.518,8.518,0,0,0-6.21-2.548A8.7,8.7,0,0,0,1292,733h0Zm5.63,0a3.087,3.087,0,0,1,3.1-3.105,3.108,3.108,0,0,1,2.23.908,3.06,3.06,0,0,1,0,4.394,3.1,3.1,0,0,1-2.23.908A3.087,3.087,0,0,1,1297.63,733Z" transform="translate(-1292 -724.281)"/>
</svg>
