<svg width="26" height="28" viewBox="0 0 26 28" fill="none" xmlns="http://www.w3.org/2000/svg">
<path d="M12.9998 18.6664C11.7621 18.6664 10.5751 18.1747 9.69995 17.2996C8.82479 16.4244 8.33312 15.2374 8.33312 13.9997C8.33312 12.7621 8.82479 11.5751 9.69995 10.6999C10.5751 9.82474 11.7621 9.33307 12.9998 9.33307C14.2375 9.33307 15.4244 9.82474 16.2996 10.6999C17.1748 11.5751 17.6665 12.7621 17.6665 13.9997C17.6665 15.2374 17.1748 16.4244 16.2996 17.2996C15.4244 18.1747 14.2375 18.6664 12.9998 18.6664ZM22.9065 15.2931C22.9598 14.8664 22.9998 14.4397 22.9998 13.9997C22.9998 13.5597 22.9598 13.1197 22.9065 12.6664L25.7198 10.4931C25.9731 10.2931 26.0398 9.93307 25.8798 9.63974L23.2131 5.02641C23.0531 4.73307 22.6931 4.61307 22.3998 4.73307L19.0798 6.06641C18.3865 5.54641 17.6665 5.09307 16.8265 4.75974L16.3331 1.22641C16.306 1.06936 16.2242 0.926976 16.1022 0.824476C15.9802 0.721975 15.8258 0.665978 15.6665 0.666407H10.3331C9.99979 0.666407 9.71979 0.906407 9.66645 1.22641L9.17312 4.75974C8.33312 5.09307 7.61312 5.54641 6.91979 6.06641L3.59979 4.73307C3.30645 4.61307 2.94645 4.73307 2.78645 5.02641L0.119786 9.63974C-0.0535475 9.93307 0.0264527 10.2931 0.279786 10.4931L3.09312 12.6664C3.03979 13.1197 2.99979 13.5597 2.99979 13.9997C2.99979 14.4397 3.03979 14.8664 3.09312 15.2931L0.279786 17.5064C0.0264527 17.7064 -0.0535475 18.0664 0.119786 18.3597L2.78645 22.9731C2.94645 23.2664 3.30645 23.3731 3.59979 23.2664L6.91979 21.9197C7.61312 22.4531 8.33312 22.9064 9.17312 23.2397L9.66645 26.7731C9.71979 27.0931 9.99979 27.3331 10.3331 27.3331H15.6665C15.9998 27.3331 16.2798 27.0931 16.3331 26.7731L16.8265 23.2397C17.6665 22.8931 18.3865 22.4531 19.0798 21.9197L22.3998 23.2664C22.6931 23.3731 23.0531 23.2664 23.2131 22.9731L25.8798 18.3597C26.0398 18.0664 25.9731 17.7064 25.7198 17.5064L22.9065 15.2931Z" fill="black"/>
</svg>
