<svg width="37" height="36" viewBox="0 0 37 36" fill="none" xmlns="http://www.w3.org/2000/svg">
<path d="M15.6453 6.75H7.25V19.2234L0.514063 14.2383C0.626563 12.9656 1.28047 11.7844 2.32109 11.018L3.875 9.86484V6.75C3.875 4.88672 5.38672 3.375 7.25 3.375H12.6359L16.1445 0.780469C16.8266 0.274219 17.6492 0 18.5 0C19.3508 0 20.1734 0.274219 20.8555 0.773438L24.3641 3.375H29.75C31.6133 3.375 33.125 4.88672 33.125 6.75V9.86484L34.6789 11.018C35.7195 11.7844 36.3734 12.9656 36.4859 14.2383L29.75 19.2234V6.75H15.6453ZM0.5 31.5V17.0227L15.8 28.357C16.5805 28.9336 17.5297 29.25 18.5 29.25C19.4703 29.25 20.4195 28.9406 21.2 28.357L36.5 17.0227V31.5C36.5 33.982 34.482 36 32 36H5C2.51797 36 0.5 33.982 0.5 31.5ZM12.875 11.25H24.125C24.7437 11.25 25.25 11.7563 25.25 12.375C25.25 12.9937 24.7437 13.5 24.125 13.5H12.875C12.2563 13.5 11.75 12.9937 11.75 12.375C11.75 11.7563 12.2563 11.25 12.875 11.25ZM12.875 15.75H24.125C24.7437 15.75 25.25 16.2563 25.25 16.875C25.25 17.4937 24.7437 18 24.125 18H12.875C12.2563 18 11.75 17.4937 11.75 16.875C11.75 16.2563 12.2563 15.75 12.875 15.75Z" fill="white"/>
</svg>
