<svg xmlns="http://www.w3.org/2000/svg" viewBox="0 0 54.32 72.31"><defs><style>.cls-1{fill:none;stroke:#353535;stroke-miterlimit:10;stroke-width:2px;}</style></defs><title>3</title><g id="Layer_2" data-name="Layer 2"><g id="Layer_2-2" data-name="Layer 2"><path class="cls-1" d="M19.77,47,10.85,58.09l6.59-1.16L15.5,69.38l8.8-9,3,6L30.9,52.67A13,13,0,0,0,42,45.49c2.55-5.1,6.79-31.81,8.45-42.72a1.53,1.53,0,0,0-2.61-1.31c-7.74,7.85-26.6,27.25-29.15,32.35A13,13,0,0,0,24.49,51.3"/><circle class="cls-1" cx="32.64" cy="35.27" r="5.5" transform="translate(-13.51 48.65) rotate(-63.39)"/><polyline class="cls-1" points="25.02 25.62 2.61 33.06 12.13 37.84"/><polyline class="cls-1" points="45.15 35.7 52.61 58.11 43.08 53.34"/></g></g></svg>