<svg id="icon" xmlns="http://www.w3.org/2000/svg" viewBox="0 0 37.26 29.95"><title>1</title><path d="M3.66,3.6h33a0,0,0,0,1,0,0V25.53a3.81,3.81,0,0,1-3.81,3.81H7.47a3.81,3.81,0,0,1-3.81-3.81V3.6a0,0,0,0,1,0,0Z" transform="translate(40.32 32.94) rotate(180)" style="fill:none;stroke:#433f22;stroke-miterlimit:10;stroke-width:1.2000000000000002px"/><line x1="36.66" y1="9.85" x2="3.66" y2="9.85" style="fill:none;stroke:#433f22;stroke-miterlimit:10;stroke-width:1.2000000000000002px"/><circle cx="15.55" cy="6.72" r="0.86" style="fill:#433f22"/><circle cx="11.55" cy="6.72" r="0.86" style="fill:#433f22"/><circle cx="7.55" cy="6.72" r="0.86" style="fill:#433f22"/><path d="M14.68,19.15a5.76,5.76,0,1,1,1.16,3.47" style="fill:none;stroke:#433f22;stroke-miterlimit:10;stroke-width:1.2000000000000002px"/><polyline points="15.23 25.04 15.44 22.1 18.39 22.3" style="fill:none;stroke:#433f22;stroke-miterlimit:10;stroke-width:1.2000000000000002px"/><path d="M29.89,3.43v0A2.79,2.79,0,0,0,27.1.6H3.39A2.79,2.79,0,0,0,.6,3.39V27H3.35" style="fill:none;stroke:#433f22;stroke-miterlimit:10;stroke-width:1.2000000000000002px"/></svg>