<svg id="Layer_3" data-name="Layer 3" xmlns="http://www.w3.org/2000/svg" viewBox="0 0 33 31"><defs><style>.cls-1{fill:none;stroke:#433f22;stroke-miterlimit:10;stroke-width:1.2px;}.cls-2{fill:#433f22;}</style></defs><title>burger_all_small_icons</title><rect class="cls-1" x="5.57" y="3.82" width="25.67" height="6.42" transform="translate(1.61 -3.28) rotate(10.64)"/><rect class="cls-1" x="4.38" y="10.13" width="25.67" height="6.42" transform="translate(2.76 -2.95) rotate(10.64)"/><rect class="cls-1" x="3.2" y="16.44" width="25.67" height="6.42" transform="translate(3.9 -2.62) rotate(10.64)"/><rect class="cls-1" x="-1.87" y="8.35" width="19.25" height="6.42" transform="translate(-5.04 17.05) rotate(-79.36)"/><rect class="cls-1" x="4.44" y="9.54" width="19.25" height="6.42" transform="translate(-1.06 24.21) rotate(-79.36)"/><rect class="cls-1" x="10.74" y="10.72" width="19.25" height="6.42" transform="translate(2.92 31.38) rotate(-79.36)"/><rect class="cls-1" x="17.05" y="11.91" width="19.25" height="6.42" transform="translate(6.9 38.54) rotate(-79.36)"/><rect class="cls-2" x="22.17" y="18.13" width="6.54" height="6.49" transform="translate(4.38 -4.33) rotate(10.64)"/><rect class="cls-2" x="9.62" y="15.77" width="6.54" height="6.49" transform="translate(3.73 -2.05) rotate(10.64)"/><rect class="cls-2" x="17.07" y="10.68" width="6.54" height="6.49" transform="translate(2.92 -3.52) rotate(10.64)"/><rect class="cls-2" x="4.52" y="8.32" width="6.54" height="6.49" transform="translate(2.27 -1.24) rotate(10.64)"/><rect class="cls-2" x="24.4" y="5.67" width="6.54" height="6.49" transform="translate(2.12 -4.95) rotate(10.64)"/><rect class="cls-2" x="11.85" y="3.31" width="6.54" height="6.49" transform="translate(1.47 -2.68) rotate(10.64)"/><path class="cls-1" d="M6.38,1.51L1,29.7"/></svg>
