<svg width="26" height="29" viewBox="0 0 26 29" fill="none" xmlns="http://www.w3.org/2000/svg">
<path d="M17.4789 3.66747C17.4789 3.66747 17.1678 3.7608 16.6389 3.93191C16.5456 3.65192 16.4212 3.29415 16.2345 2.95194C15.6434 1.81641 14.7723 1.22531 13.7146 1.20976C13.6368 1.20976 13.5746 1.20976 13.4968 1.22531C13.4657 1.1942 13.4346 1.14754 13.4035 1.11643C12.9524 0.618663 12.3613 0.385335 11.6613 0.40089C10.308 0.447556 8.95468 1.42753 7.85026 3.16971C7.0725 4.39856 6.49696 5.93852 6.32586 7.12072C4.77034 7.60293 3.68148 7.94514 3.65037 7.94514C2.85706 8.19402 2.8415 8.22513 2.73262 8.95622C2.65484 9.51621 0.601562 25.4447 0.601562 25.4447L17.6811 28.4002V3.63636C17.6033 3.63636 17.5256 3.65192 17.4789 3.66747ZM13.5279 4.89633C12.6257 5.17632 11.6302 5.48742 10.6502 5.78297C10.9302 4.70967 11.4591 3.65192 12.1124 2.95194C12.3613 2.6875 12.6879 2.4075 13.0923 2.2364C13.4657 3.02971 13.5434 4.13413 13.5279 4.89633ZM11.6768 1.30309C11.9879 1.30309 12.2679 1.36531 12.5013 1.52086C12.1279 1.70752 11.7857 1.98752 11.4435 2.34528C10.588 3.26304 9.9191 4.70967 9.65466 6.09408C8.83024 6.34296 8.03692 6.59184 7.29028 6.82517C7.75693 4.63189 9.59244 1.36531 11.6768 1.30309ZM9.03245 13.7317C9.12578 15.1783 12.9524 15.5049 13.1701 18.9115C13.3412 21.587 11.7546 23.4225 9.45244 23.5625C6.71474 23.7336 5.19033 22.1159 5.19033 22.1159L5.76587 19.6426C5.76587 19.6426 7.29028 20.7937 8.50358 20.7159C9.29689 20.6693 9.57688 20.0159 9.56133 19.5648C9.43689 17.6671 6.32586 17.776 6.1392 14.665C5.96809 12.0361 7.69471 9.39177 11.4902 9.14288C12.9679 9.04955 13.7146 9.42288 13.7146 9.42288L12.8435 12.6739C12.8435 12.6739 11.879 12.2384 10.728 12.3006C9.04801 12.4095 9.0169 13.4672 9.03245 13.7317ZM14.4301 4.61634C14.4145 3.93191 14.3368 2.96749 14.0101 2.14307C15.0367 2.34528 15.5501 3.49637 15.7678 4.19635C15.379 4.32079 14.9279 4.46078 14.4301 4.61634ZM18.2411 28.3379L25.3343 26.5802C25.3343 26.5802 22.2854 5.95408 22.2699 5.81408C22.2543 5.67409 22.1299 5.59631 22.021 5.58076C21.9121 5.5652 19.9211 5.53409 19.9211 5.53409C19.9211 5.53409 18.7078 4.3519 18.2411 3.9008V28.3379Z" fill="black"/>
</svg>
