<svg xmlns="http://www.w3.org/2000/svg" viewBox="0 0 67 67"><defs><style>.cls-1{fill:none;stroke:#fff;stroke-miterlimit:10;stroke-width:2px;}</style></defs><title>Asset 5</title><g id="Layer_2" data-name="Layer 2"><g id="Layer_1-2" data-name="Layer 1"><polyline class="cls-1" points="27.21 10.44 20.92 12.53 14.63 6.24 6.24 14.63 12.53 20.92 10.44 27.21 1 27.21 1 39.79 10.44 39.79 12.53 46.08 6.24 52.37 14.63 60.76 20.92 54.47 27.21 56.56 27.21 66 33.5 66 39.79 66 39.79 56.56 46.08 54.47 52.37 60.76 60.76 52.37 54.47 46.08 56.56 39.79 66 39.79 66 27.21 56.56 27.21 54.47 20.92 60.76 14.63 52.37 6.24 46.08 12.53 39.79 10.44 39.79 1 33.5 1 27.21 1"/><path class="cls-1" d="M27.21,10.44"/><path class="cls-1" d="M27.21,1"/><circle class="cls-1" cx="33.5" cy="33.5" r="6.29"/></g></g></svg>
