<svg xmlns="http://www.w3.org/2000/svg" xmlns:xlink="http://www.w3.org/1999/xlink" viewBox="0 0 53 60"><defs><style>.cls-1,.cls-2,.cls-4{fill:none;}.cls-2,.cls-4{stroke:#fff;stroke-miterlimit:10;}.cls-2{stroke-width:2px;}.cls-3{clip-path:url(#clip-path);}.cls-4{stroke-width:1.5px;}</style><clipPath id="clip-path" transform="translate(-19 -22)"><path class="cls-1" d="M2,10,73,0a2,2,0,0,1,2,2L70,49a2,2,0,0,1-2,2H45.25a1.18,1.18,0,0,0-.67.21l-2.77,3.58a1.18,1.18,0,0,1-.67.21H27c-1.1,0-22,9.1-22,8L0,12A2,2,0,0,1,2,10Z"/></clipPath></defs><title>Asset 4</title><g id="Layer_2" data-name="Layer 2"><g id="Layer_1-2" data-name="Layer 1"><path class="cls-2" d="M69,81H22a2,2,0,0,1-2-2V57a2,2,0,0,1,2-2H42.75a1.18,1.18,0,0,0,.67-.21l2.77-3.58a1.18,1.18,0,0,1,.67-.21H69a2,2,0,0,1,2,2V79A2,2,0,0,1,69,81Z" transform="translate(-19 -22)"/><g class="cls-3"><rect class="cls-2" x="9" y="1" width="36" height="45" rx="2" ry="2"/><path class="cls-2" d="M27,56" transform="translate(-19 -22)"/><path class="cls-2" d="M23,50" transform="translate(-19 -22)"/><path class="cls-4" d="M31,23" transform="translate(-19 -22)"/><path class="cls-4" d="M62,51V62c0,1.1,4.1,2,3,2H33a2,2,0,0,1-2-2" transform="translate(-19 -22)"/><path class="cls-4" d="M31,23" transform="translate(-19 -22)"/><line class="cls-4" x1="16" y1="10" x2="38" y2="10"/><line class="cls-4" x1="19" y1="13" x2="35" y2="13"/><line class="cls-4" x1="25" y1="20" x2="30" y2="20"/></g><line class="cls-4" x1="42" y1="52" x2="47" y2="52"/><path class="cls-4" d="M66,70" transform="translate(-19 -22)"/><path class="cls-4" d="M61,70" transform="translate(-19 -22)"/></g></g></svg>
