<svg xmlns="http://www.w3.org/2000/svg" width="13" height="13" viewBox="0 0 13 13">
  <metadata><?xpacket begin="﻿" id="W5M0MpCehiHzreSzNTczkc9d"?>
<x:xmpmeta xmlns:x="adobe:ns:meta/" x:xmptk="Adobe XMP Core 5.6-c138 79.159824, 2016/09/14-01:09:01        ">
   <rdf:RDF xmlns:rdf="http://www.w3.org/1999/02/22-rdf-syntax-ns#">
      <rdf:Description rdf:about=""/>
   </rdf:RDF>
</x:xmpmeta>





















<?xpacket end="w"?></metadata>
<defs>
    <style>
      .cls-1 {
        fill-rule: evenodd;
      }
    </style>
  </defs>
  <path id="fa-instagram" class="cls-1" d="M1315.46,926.018a0.5,0.5,0,0,1-.36.146h-8.94a0.506,0.506,0,0,1-.37-0.146,0.481,0.481,0,0,1-.14-0.365v-5.424h1.18a3.366,3.366,0,0,0-.17,1.1,3.678,3.678,0,0,0,1.17,2.741,3.906,3.906,0,0,0,2.82,1.134,4.028,4.028,0,0,0,3.47-1.929,3.77,3.77,0,0,0,.53-1.946,3.65,3.65,0,0,0-.16-1.1h1.13v5.424A0.464,0.464,0,0,1,1315.46,926.018Zm-4.81-2.323a2.528,2.528,0,0,1-1.82-.733,2.441,2.441,0,0,1,0-3.54,2.638,2.638,0,0,1,3.65,0,2.441,2.441,0,0,1,0,3.54,2.518,2.518,0,0,1-1.83.733h0Zm4.8-5.106a0.56,0.56,0,0,1-.41.167h-1.46a0.56,0.56,0,0,1-.41-0.167,0.568,0.568,0,0,1-.17-0.41V916.8a0.573,0.573,0,0,1,.17-0.406,0.552,0.552,0,0,1,.41-0.171h1.46a0.552,0.552,0,0,1,.41.171,0.573,0.573,0,0,1,.17.406v1.382A0.568,0.568,0,0,1,1315.45,918.589Zm1.14-3.315a1.6,1.6,0,0,0-1.17-.485h-9.56a1.575,1.575,0,0,0-1.16.485,1.605,1.605,0,0,0-.49,1.163V926a1.605,1.605,0,0,0,.49,1.163,1.576,1.576,0,0,0,1.16.486h9.56a1.649,1.649,0,0,0,1.65-1.649v-9.56A1.6,1.6,0,0,0,1316.59,915.274Z" transform="translate(-1304.22 -914.781)"/>
</svg>
