<svg width="34" height="34" viewBox="0 0 34 34" fill="none" xmlns="http://www.w3.org/2000/svg">
<path d="M17.0007 22.833C15.4536 22.833 13.9699 22.2184 12.8759 21.1245C11.782 20.0305 11.1674 18.5468 11.1674 16.9997C11.1674 15.4526 11.782 13.9689 12.8759 12.8749C13.9699 11.7809 15.4536 11.1663 17.0007 11.1663C18.5478 11.1663 20.0315 11.7809 21.1255 12.8749C22.2195 13.9689 22.834 15.4526 22.834 16.9997C22.834 18.5468 22.2195 20.0305 21.1255 21.1245C20.0315 22.2184 18.5478 22.833 17.0007 22.833ZM29.384 18.6163C29.4507 18.083 29.5007 17.5497 29.5007 16.9997C29.5007 16.4497 29.4507 15.8997 29.384 15.333L32.9007 12.6163C33.2174 12.3663 33.3007 11.9163 33.1007 11.5497L29.7674 5.78301C29.5674 5.41634 29.1174 5.26634 28.7507 5.41634L24.6007 7.08301C23.734 6.43301 22.834 5.86634 21.784 5.44968L21.1674 1.03301C21.1335 0.836706 21.0313 0.658722 20.8787 0.530597C20.7262 0.402471 20.5332 0.332475 20.334 0.333011H13.6674C13.2507 0.333011 12.9007 0.633011 12.834 1.03301L12.2174 5.44968C11.1674 5.86634 10.2674 6.43301 9.40071 7.08301L5.25071 5.41634C4.88404 5.26634 4.43404 5.41634 4.23404 5.78301L0.900709 11.5497C0.684042 11.9163 0.784042 12.3663 1.10071 12.6163L4.61738 15.333C4.55071 15.8997 4.50071 16.4497 4.50071 16.9997C4.50071 17.5497 4.55071 18.083 4.61738 18.6163L1.10071 21.383C0.784042 21.633 0.684042 22.083 0.900709 22.4497L4.23404 28.2163C4.43404 28.583 4.88404 28.7163 5.25071 28.583L9.40071 26.8997C10.2674 27.5663 11.1674 28.133 12.2174 28.5497L12.834 32.9663C12.9007 33.3663 13.2507 33.6663 13.6674 33.6663H20.334C20.7507 33.6663 21.1007 33.3663 21.1674 32.9663L21.784 28.5497C22.834 28.1163 23.734 27.5663 24.6007 26.8997L28.7507 28.583C29.1174 28.7163 29.5674 28.583 29.7674 28.2163L33.1007 22.4497C33.3007 22.083 33.2174 21.633 32.9007 21.383L29.384 18.6163Z" fill="white"/>
</svg>
