<svg id="Layer_3" data-name="Layer 3" xmlns="http://www.w3.org/2000/svg" viewBox="0 0 38 30"><defs><style>.cls-1{fill:none;stroke:#433f22;stroke-miterlimit:10;stroke-width:1.2px;}</style></defs><title>small_icons_1</title><path class="cls-1" d="M7.84,24.37A4.44,4.44,0,0,1,3.4,28.81H2A1.18,1.18,0,0,1,.84,27.62V2A1.18,1.18,0,0,1,2,.84H35.16A1.18,1.18,0,0,1,36.34,2v25.6a1.18,1.18,0,0,1-1.18,1.18h-24"/><path class="cls-1" d="M14.46,16.11a4.61,4.61,0,0,0,4.61,4.61l6.85,0.07V8l-6.85-.07a4.61,4.61,0,0,0-4.61,4.61v1.81H12.28a4.44,4.44,0,0,0-4.44,4.44v0.43"/><rect class="cls-1" x="25.92" y="10.49" width="5.51" height="2.07"/><rect class="cls-1" x="25.92" y="16.19" width="5.51" height="2.07"/><line class="cls-1" x1="23.11" y1="10.49" x2="23.11" y2="18.26"/><line class="cls-1" x1="18.91" y1="10.49" x2="18.91" y2="18.26"/><line class="cls-1" x1="7.84" y1="20.22" x2="7.84" y2="23.21"/></svg>
