<?xml version="1.0" encoding="utf-8"?>
<!-- Generator: Adobe Illustrator 19.2.0, SVG Export Plug-In . SVG Version: 6.00 Build 0)  -->
<svg version="1.1" xmlns="http://www.w3.org/2000/svg" xmlns:xlink="http://www.w3.org/1999/xlink" x="0px" y="0px"
	 viewBox="0 0 47 79" style="enable-background:new 0 0 46.3 78.5;" xml:space="preserve">
<style type="text/css">
	.st0{fill:none;stroke:#353535;stroke-width:2;stroke-miterlimit:10;}
	.st1{fill:#CCECF6;}
	.st2{fill:#F7D4D1;}
	.st3{fill:#FAEB8B;}
	.st4{fill:none;stroke:#353535;stroke-width:2;stroke-miterlimit:10;}
	.st5{fill:none;stroke:#0C9FD2;stroke-width:2;stroke-miterlimit:10;}
	.st6{fill:#FFE36C;}
	.st7{opacity:0.3;fill:#009FD1;}
	.st8{opacity:0.3;}
	.st9{fill:#D63227;}
	.st10{fill:#EEEDED;}
	.st11{fill:#009FD1;}
	.st12{opacity:0.7;fill:#D63227;}
	.st13{fill:none;stroke:#FFFFFF;stroke-width:2;stroke-miterlimit:10;}
	.st14{opacity:0.3;fill:#D63227;}
	.st15{opacity:0.3;fill:#B2D235;}
	.st16{fill:#FFFFFF;stroke:#353535;stroke-width:2;stroke-miterlimit:10;}
</style>
<g id="Layer_1">
	<path class="st0" d="M23,5.1v28.8c3.5,0,6.3,2.8,6.3,6.3c0,3.5-2.8,6.3-6.3,6.3s-6.3-2.8-6.3-6.3c0-2.6,1.5-4.8,3.8-5.8"/>
	<path class="st0" d="M37.5,48.2c0,8-6.5,14.5-14.5,14.5S8.6,56.2,8.6,48.2S23,3.5,23,3.5S37.5,40.2,37.5,48.2z"/>
	<path class="st0" d="M36.7,43.4c0,0,14.2,8,4.6,24.8c-0.4,0.6-1.3,0.5-1.6-0.2l-4-13"/>
	<path class="st0" d="M9.3,43.4c0,0-14.2,8-4.6,24.8c0.4,0.6,1.3,0.5,1.6-0.2l4-13"/>
	<path class="st0" d="M27.9,61.8l2.3,5.8c0.2,0.6-0.2,1.2-0.8,1.2H17.6c-0.6,0-1-0.6-0.8-1.2l2.3-5.8"/>
	<g>
		<line class="st0" x1="27.9" y1="71.3" x2="27.9" y2="77.9"/>
		<line class="st0" x1="23.9" y1="71.3" x2="23.9" y2="77.9"/>
		<line class="st0" x1="19.9" y1="71.3" x2="19.9" y2="77.9"/>
	</g>
</g>
<g id="Layer_2">
</g>
</svg>
