<svg id="Layer_3" data-name="Layer 3" xmlns="http://www.w3.org/2000/svg" viewBox="0 0 35 31"><defs><style>.cls-1{fill:none;stroke:#433f22;stroke-miterlimit:10;stroke-width:1.2px;}.cls-2{fill:#433f22;}</style></defs><title>small_icons_3</title><path class="cls-1" d="M27.28,24.79A6.36,6.36,0,0,0,33.69,19a6.22,6.22,0,0,0-4.18-6.32A5.06,5.06,0,0,0,30,9.52a5.13,5.13,0,0,0-4-4.09,5,5,0,0,0-2.7.22A9.08,9.08,0,0,0,6.07,9.78c0,0.15,0,.29,0,0.44A6.52,6.52,0,0,0,.93,16.59a7.79,7.79,0,0,0,1.61,4.82,8.86,8.86,0,0,0,7.09,3.38"/><path class="cls-2" d="M17.81,19.55L9.62,28.22a0.77,0.77,0,0,0,.56,1.29H26.56a0.77,0.77,0,0,0,.56-1.29l-8.2-8.67A0.77,0.77,0,0,0,17.81,19.55Z"/></svg>
