<?xml version="1.0" encoding="utf-8"?>
<!-- Generator: Adobe Illustrator 24.0.0, SVG Export Plug-In . SVG Version: 6.00 Build 0)  -->
<svg version="1.1" xmlns="http://www.w3.org/2000/svg" xmlns:xlink="http://www.w3.org/1999/xlink" x="0px" y="0px"
	 viewBox="0 0 78.56 74.31" style="enable-background:new 0 0 78.56 74.31;" xml:space="preserve">
<style type="text/css">
	.st0{display:none;}
	.st1{display:inline;fill:#E4422B;}
	.st2{fill:#444023;}
	.st3{fill:#D93127;}
	.st4{fill:#099CD1;}
	.st5{fill:#FFFFFF;}
	.st6{fill:#E85343;}
	.st7{fill:#242528;}
</style>
<g id="Layer_2" class="st0">
	
		<image style="display:inline;overflow:visible;" width="1920" height="9407" xlink:href="C3CC8DAB.jpg"  transform="matrix(1 0 0 1 -914.9971 -1955.5923)">
	</image>
</g>
<g id="Layer_1">
	<g>
		<g>
			<path class="st3" d="M9.4,64.31c-5.18,0-9.4-4.22-9.4-9.4c0-5.18,4.22-9.4,9.4-9.4s9.4,4.22,9.4,9.4
				C18.8,60.09,14.58,64.31,9.4,64.31z M9.4,47.31c-4.19,0-7.6,3.41-7.6,7.6s3.41,7.6,7.6,7.6s7.6-3.41,7.6-7.6
				S13.59,47.31,9.4,47.31z"/>
		</g>
		<g>
			<path class="st3" d="M69.16,74.31c-5.18,0-9.4-4.22-9.4-9.4c0-5.18,4.22-9.4,9.4-9.4s9.4,4.22,9.4,9.4
				C78.56,70.09,74.34,74.31,69.16,74.31z M69.16,57.31c-4.19,0-7.6,3.41-7.6,7.6s3.41,7.6,7.6,7.6s7.6-3.41,7.6-7.6
				S73.35,57.31,69.16,57.31z"/>
		</g>
		<g>
			<path class="st3" d="M39.28,69.31c-5.18,0-9.4-4.22-9.4-9.4s4.22-9.4,9.4-9.4s9.4,4.22,9.4,9.4S44.46,69.31,39.28,69.31z
				 M39.28,52.31c-4.19,0-7.6,3.41-7.6,7.6s3.41,7.6,7.6,7.6s7.6-3.41,7.6-7.6S43.47,52.31,39.28,52.31z"/>
		</g>
		<g>
			<path class="st4" d="M52.92,18.79H25.65c-3.09,0-5.6-2.51-5.6-5.6V0h38.47v13.2C58.51,16.28,56,18.79,52.92,18.79z M21.85,1.8
				v11.4c0,2.09,1.7,3.8,3.8,3.8h27.27c2.09,0,3.8-1.7,3.8-3.8V1.8H21.85z"/>
		</g>
		<g>
			<rect x="38.38" y="22.3" width="1.8" height="25.12"/>
		</g>
		<g>
			<path d="M70.06,52.41h-1.8V33.7c0-0.89-0.72-1.61-1.61-1.61H39.28v-1.8h27.37c1.88,0,3.41,1.53,3.41,3.41V52.41z"/>
		</g>
		<g>
			<path d="M9.97,42.41h-1.8V33.7c0-1.88,1.53-3.41,3.41-3.41h27.37v1.8H11.58c-0.89,0-1.61,0.72-1.61,1.61V42.41z"/>
		</g>
	</g>
</g>
</svg>
