<svg id="Layer_1" data-name="Layer 1" xmlns="http://www.w3.org/2000/svg" viewBox="0 0 83 61"><defs><style>.cls-1,.cls-2,.cls-3{fill:none;stroke-miterlimit:10;}.cls-1{stroke:#353535;stroke-width:1px;}.cls-2{stroke:#009fd1;}.cls-2,.cls-3{stroke-width:1px;}.cls-3{stroke:#d63227;}</style></defs><title>burger_icon_svg</title><path class="cls-1" d="M11.27,0V1.83a2.79,2.79,0,0,0,2.79,2.79h8.21a2.79,2.79,0,0,1,2.79,2.79V9.24A2.79,2.79,0,0,1,22.27,12H9.21a2.79,2.79,0,0,0-2.79,2.79V21"/><rect class="cls-1" x="1" y="21.03" width="80.24" height="38.73" rx="2.24" ry="2.24"/><line class="cls-2" x1="27.7" y1="50.44" x2="54.54" y2="50.44"/><line class="cls-1" x1="17.87" y1="30.64" x2="25.06" y2="30.64"/><line class="cls-1" x1="8.04" y1="30.64" x2="15.23" y2="30.64"/><line class="cls-1" x1="37.53" y1="30.64" x2="44.71" y2="30.64"/><line class="cls-1" x1="27.7" y1="30.64" x2="34.88" y2="30.64"/><line class="cls-1" x1="57.18" y1="30.64" x2="64.37" y2="30.64"/><line class="cls-1" x1="67.01" y1="30.64" x2="74.2" y2="30.64"/><line class="cls-1" x1="47.35" y1="30.64" x2="54.54" y2="30.64"/><line class="cls-1" x1="20.51" y1="41.05" x2="27.7" y2="41.05"/><line class="cls-1" x1="10.68" y1="41.05" x2="17.87" y2="41.05"/><line class="cls-1" x1="40.17" y1="41.05" x2="47.35" y2="41.05"/><line class="cls-1" x1="30.34" y1="41.05" x2="37.53" y2="41.05"/><line class="cls-1" x1="59.82" y1="41.05" x2="67.01" y2="41.05"/><line class="cls-3" x1="69.65" y1="41.05" x2="76.84" y2="41.05"/><line class="cls-1" x1="49.99" y1="41.05" x2="57.18" y2="41.05"/></svg>
