<svg id="icon" xmlns="http://www.w3.org/2000/svg" viewBox="0 0 94.7 60.66"><title>1</title><path d="M83.93,38.82l4.84,0.65a3.35,3.35,0,0,0,3.77-2.87l1.13-8.36a3.35,3.35,0,0,0-2.87-3.77l-4.84-.65" style="fill:none;stroke:#353535;stroke-miterlimit:10;stroke-width:2px"/><path d="M72.35,6.39l6.94-5.09a1.62,1.62,0,0,1,2.49,1.8L79,11.86" style="fill:none;stroke:#353535;stroke-miterlimit:10;stroke-width:2px"/><circle cx="75.22" cy="22.01" r="3.08" style="fill:none;stroke:#009fd1;stroke-miterlimit:10;stroke-width:3px"/><path d="M63.66,11.57a39.38,39.38,0,0,0-24.34,0l-1-3.15a42.69,42.69,0,0,1,26.38,0Z" style="fill:none;stroke:#353535;stroke-miterlimit:10;stroke-width:2px"/><path d="M1.77,11.76s-1.71,8.45,3.55,9.41c6.17,1.12,7.57-6.32,3.36-6.89S3.17,22.7,15,25.13" style="fill:none;stroke:#d63227;stroke-miterlimit:10;stroke-width:3px"/><path d="M86.26,28.87C86.26,13.5,70.78,1,51.68,1S17.09,13.5,17.09,28.87c0,7.41,3.61,14.14,9.47,19.13L24.32,59.66h8l1.35-7,35.91,0,1.35,7h8L76.75,48C82.64,43,86.26,36.3,86.26,28.87Z" style="fill:none;stroke:#353535;stroke-miterlimit:10;stroke-width:2px"/></svg>