<?xml version="1.0" encoding="utf-8"?>
<!-- Generator: Adobe Illustrator 24.3.0, SVG Export Plug-In . SVG Version: 6.00 Build 0)  -->
<svg version="1.0" id="Layer_1" xmlns="http://www.w3.org/2000/svg" xmlns:xlink="http://www.w3.org/1999/xlink" x="0px" y="0px"
	 viewBox="0 0 67.5 58.3" style="enable-background:new 0 0 67.5 58.3;" xml:space="preserve">
<style type="text/css">
	.st0{fill:#FEE78B;}
	.st1{clip-path:url(#SVGID_2_);}
	.st2{fill:none;stroke:#4B4B4B;stroke-width:3;stroke-linecap:round;}
	.st3{clip-path:url(#SVGID_4_);}
	.st4{fill:#4B4B4B;}
	.st5{fill:none;stroke:#353635;stroke-width:2;stroke-miterlimit:10;}
	.st6{fill:none;stroke:#009FD1;stroke-width:3;stroke-miterlimit:10;}
	.st7{fill:#009FD1;}
	.st8{fill:none;stroke:#D63427;stroke-width:3;stroke-miterlimit:10;}
	.st9{fill:#353635;}
	.st10{fill:#D63427;}
	.st11{clip-path:url(#SVGID_6_);}
	.st12{clip-path:url(#SVGID_8_);}
</style>
<g>
	<g>
		<polygon class="st9" points="32.9,58.3 10.8,45.5 10.8,35.6 12.8,35.6 12.8,44.4 32.9,56 53,44.4 53,32.8 55,32.8 55,45.5 		"/>
	</g>
	<g>
		<polygon class="st9" points="53.6,22.3 32.9,9.5 12.3,21.4 11.3,19.7 32.9,7.2 54,19.8 		"/>
	</g>
	<g>
		<polygon class="st10" points="57.9,21.2 55.9,18.9 62,14.7 43.8,3.6 37.9,8.1 35.4,6.1 43.7,0 67.5,14.6 		"/>
	</g>
	<g>
		<rect x="31.9" y="41.2" class="st9" width="2" height="15.9"/>
	</g>
	<g>
		<path class="st9" d="M39.7,42.3l-7.4-8.5l-21-12.3L0.5,16.3L25,2.6l8.4,4.9l-1,1.7L25,4.9L4.9,16.1l7.4,3.5L33,31.9l21-12.1l8,9.1
			L39.7,42.3z M34.5,33.3l5.6,6.4l18.8-11.3l-5.3-6.1L34.5,33.3z"/>
	</g>
	<g>
		<polygon class="st7" points="24.1,44.5 0,29.9 9.8,22.3 12.2,24.1 5.3,29.5 23.8,40.8 31,34.1 33,36.3 		"/>
	</g>
</g>
</svg>
