<svg id="Layer_1" data-name="Layer 1" xmlns="http://www.w3.org/2000/svg" xmlns:xlink="http://www.w3.org/1999/xlink" viewBox="0 0 81 84"><defs><style>.cls-1,.cls-3,.cls-4,.cls-5,.cls-6{fill:none;}.cls-2{clip-path:url(#clip-path);}.cls-3{stroke:#231f20;stroke-width:2px;}.cls-3,.cls-4,.cls-5,.cls-6{stroke-linecap:round;stroke-linejoin:round;}.cls-4{stroke:#d73327;}.cls-5,.cls-6{stroke:#00a0d2;}.cls-5{stroke-width:0.7px;}.cls-6{stroke-width:0.5px;}</style><clipPath id="clip-path" transform="translate(0 0)"><rect class="cls-1" width="80.75" height="83.2"/></clipPath></defs><title>psd-to-email-5</title><g class="cls-2"><polyline class="cls-3" points="55.76 40.6 76.53 40.6 54.66 56.49 63.01 82.2 41.14 66.31 19.27 82.2 27.63 56.49 5.75 40.6 32.79 40.6 41.14 14.89 51.6 47.07"/><polyline class="cls-4" points="6.05 15.87 0.5 15.87 6.35 20.12 4.11 27 9.96 22.75 15.81 27 13.58 20.12 19.43 15.87 12.2 15.87 9.96 9 7.17 17.6"/><polyline class="cls-5" points="64.3 5.21 60.38 5.21 64.51 8.21 62.93 13.07 67.07 10.07 71.2 13.07 69.62 8.21 73.76 5.21 68.64 5.21 67.07 0.35 65.09 6.43"/><polyline class="cls-6" points="74.89 63.88 72.56 63.88 75.01 65.66 74.08 68.55 76.53 66.77 78.98 68.55 78.05 65.66 80.5 63.88 77.47 63.88 76.53 60.99 75.36 64.61"/></g></svg>
