<?xml version="1.0" encoding="utf-8"?>
<!-- Generator: Adobe Illustrator 19.2.0, SVG Export Plug-In . SVG Version: 6.00 Build 0)  -->
<svg version="1.1" xmlns="http://www.w3.org/2000/svg" xmlns:xlink="http://www.w3.org/1999/xlink" x="0px" y="0px"
	 viewBox="0 0 83 56" style="enable-background:new 0 0 82.5 55.7;" xml:space="preserve">
<style type="text/css">
	.st0{fill:none;stroke:#353535;stroke-width:2;stroke-miterlimit:10;}
	.st1{fill:#CCECF6;}
	.st2{fill:#F7D4D1;}
	.st3{fill:#FAEB8B;}
	.st4{fill:none;stroke:#353535;stroke-width:2;stroke-miterlimit:10;}
	.st5{fill:none;stroke:#0C9FD2;stroke-width:2;stroke-miterlimit:10;}
	.st6{fill:#FFE36C;}
	.st7{opacity:0.3;fill:#009FD1;}
	.st8{opacity:0.3;}
	.st9{fill:#D63227;}
	.st10{fill:#EEEDED;}
	.st11{fill:#009FD1;}
	.st12{opacity:0.7;fill:#D63227;}
	.st13{fill:none;stroke:#FFFFFF;stroke-width:2;stroke-miterlimit:10;}
	.st14{opacity:0.3;fill:#D63227;}
	.st15{opacity:0.3;fill:#B2D235;}
	.st16{fill:#FFFFFF;stroke:#353535;stroke-width:2;stroke-miterlimit:10;}
</style>
<g id="Layer_1">
	<g>
		<path class="st0" d="M44.9,12.7l23.8,21c1.3,1.1,1.4,3.1,0.3,4.3L68,39.1c-1.1,1.3-3.1,1.4-4.3,0.3l-8.5-7.6l8.3,8.3
			c1.3,1.1,1.4,3.1,0.3,4.3l-0.9,1.1c-1.1,1.3-3.1,1.4-4.3,0.3l-8.7-8l6.8,7.5c1.3,1.1,1.4,3.1,0.3,4.3l-1,1.2
			c-1.1,1.3-3.1,1.4-4.3,0.3l-8-7.2l3.8,4.3c1.3,1.1,1.4,3.1,0.3,4.3l-1.1,1.2c-1.1,1.3-3.1,1.4-4.3,0.3l-1-0.9v0l-4.9-4.4"/>
		<path class="st0" d="M10.6,36.5L10.6,36.5c-1.4-1.4-1.4-3.7,0-5.1l7.1-7.3c1.4-1.4,3.7-1.4,5.1,0l0,0c1.4,1.4,1.4,3.7,0,5.1
			l-7.1,7.3C14.3,37.9,12.1,37.9,10.6,36.5z"/>
		<path class="st0" d="M21.9,47.8L21.9,47.8c-1.4-1.4-1.5-3.7,0-5.2l6.1-6.2c1.4-1.4,3.7-1.5,5.2,0l0,0c1.4,1.4,1.5,3.7,0,5.2
			l-6.1,6.2C25.6,49.2,23.3,49.2,21.9,47.8z"/>
		<path class="st0" d="M29.9,50.3L29.9,50.3c-1.3-1.2-1.3-3.3,0-4.5l4-4.1c1.2-1.3,3.3-1.3,4.5,0l0,0c1.3,1.2,1.3,3.3,0,4.5l-4,4.1
			C33.1,51.5,31.1,51.5,29.9,50.3z"/>
		<path class="st0" d="M15,43.2L15,43.2c-1.4-1.4-1.4-3.7,0-5.1l8.6-8.7c1.4-1.4,3.7-1.4,5.1,0l0,0c1.4,1.4,1.4,3.7,0,5.1l-8.6,8.7
			C18.7,44.6,16.4,44.6,15,43.2z"/>
		<path class="st0" d="M74.9,5.3c-2.1-2.6-5.9-3.1-8.6-1l0,0c-2.3,1.8-5.6,1.8-7.8-0.2l0,0c-4.6-4-11.4-4-16-0.1l-4,3.2L36.3,5
			C33,2.2,28.1,2.3,25.1,5.5l0,0c-2.9,3-7.5,3.3-10.8,0.7l0,0C12.5,4.8,10,5,8.6,6.7l-6.8,7.6c-1.1,1.2-0.9,3.1,0.4,4.2L9.6,25"/>
		<path class="st0" d="M40.2,5.9l-6.5,5.5c-1.3,1.1-1.5,3-0.4,4.3l1.3,1.6c1.1,1.3,3,1.5,4.3,0.4l5.9-5L67,32.3L80.4,17
			c1.3-1.1,1.4-3,0.4-4.2"/>
		<path class="st0" d="M42.2,14.9l3.4-2.8c2.5-2.1,6.2-2.2,8.8-0.3l1.7,1.3"/>
	</g>
</g>
<g id="Layer_2">
</g>
</svg>
