<svg id="Layer_3" data-name="Layer 3" xmlns="http://www.w3.org/2000/svg" viewBox="0 0 33 33"><defs><style>.cls-1{fill:none;stroke:#433f22;stroke-miterlimit:10;stroke-width:1.2px;}</style></defs><title>burger_all_small_icons</title><circle class="cls-1" cx="16.2" cy="16.24" r="15.33"/><path class="cls-1" d="M8.14,16.45v4.82c0,0.39.37,0.58,0.59,0.31l4-5a0.52,0.52,0,0,0,0-.61l-4-5c-0.22-.27-0.59-0.08-0.59.31v2.66"/><path class="cls-1" d="M15.7,19.36v1.91c0,0.39.37,0.58,0.59,0.31l4-5a0.52,0.52,0,0,0,0-.61l-4-5c-0.22-.27-0.59-0.08-0.59.31v5.56"/><line class="cls-1" x1="24.26" y1="10.79" x2="24.26" y2="21.7"/></svg>
