<svg id="Layer_1" data-name="Layer 1" xmlns="http://www.w3.org/2000/svg" viewBox="0 0 36 33"><defs><style>.cls-1{fill:#433f22;}.cls-2{fill:none;stroke:#433f22;stroke-miterlimit:10;stroke-width:1.2px;}</style></defs><title>burger_all_small_icons</title><circle class="cls-1" cx="17.82" cy="15.9" r="3.76"/><path class="cls-2" d="M34.49,16.1c0-2.36-2.94-4.45-7.41-5.67,1-4.28.67-7.69-1.31-8.83s-5,.21-8.2,3.19c-3.15-3-6.24-4.32-8.2-3.19S7,6.19,8.08,10.52C3.8,11.76,1,13.79,1,16.1s2.67,4.23,6.77,5.48C6.66,26,7,29.44,9,30.6s5.27-.3,8.55-3.51c3.27,3.21,6.51,4.68,8.55,3.51s2.36-4.6,1.29-8.93C31.69,20.44,34.49,18.4,34.49,16.1Z"/></svg>
