<svg xmlns="http://www.w3.org/2000/svg" viewBox="0 0 76 51"><defs><style>.cls-1{fill:none;stroke:#353535;stroke-miterlimit:10;stroke-width:2px;}</style></defs><title>4</title><g id="Layer_2" data-name="Layer 2"><g id="Layer_2-2" data-name="Layer 2"><path class="cls-1" d="M26,51V36.74a12.5,12.5,0,0,1,12.5-12.5h0A12.5,12.5,0,0,1,51,36.74V51"/><circle class="cls-1" cx="37" cy="9" r="8"/><path class="cls-1" d="M1,51V36.25A12.25,12.25,0,0,1,13.25,24h.49A12.25,12.25,0,0,1,26,36.25V51"/><circle class="cls-1" cx="14" cy="9" r="8"/><path class="cls-1" d="M50,51V36.25A12.25,12.25,0,0,1,62.25,24h.49A12.25,12.25,0,0,1,75,36.25V51"/><circle class="cls-1" cx="62" cy="9" r="8"/><path class="cls-1" d="M46.3,27.3l-5.61,5.61a3.8,3.8,0,0,1-5.37,0L29.7,27.3"/><circle class="cls-1" cx="37" cy="37" r="2"/><path class="cls-1" d="M21.79,27.3l-5.61,5.61a3.8,3.8,0,0,1-5.37,0L5.19,27.3"/><circle class="cls-1" cx="14" cy="37" r="2"/><path class="cls-1" d="M70.81,27.3l-5.61,5.61a3.8,3.8,0,0,1-5.37,0L54.21,27.3"/><circle class="cls-1" cx="62" cy="37" r="2"/></g></g></svg>