<svg id="Layer_1" data-name="Layer 1" xmlns="http://www.w3.org/2000/svg" viewBox="0 0 84 66"><defs><style>.cls-1,.cls-2{fill:none;stroke-miterlimit:10;}.cls-1{stroke:#d63227;stroke-width:3px;}.cls-2{stroke:#353535;stroke-width:2px;}.cls-3{fill:#009fd1;}</style></defs><title>burger_icon_svg</title><circle class="cls-1" cx="31.01" cy="34.81" r="9.36"/><circle class="cls-2" cx="31.01" cy="34.81" r="19.92"/><path class="cls-2" d="M61,34.81A30,30,0,1,1,52.8,14.18"/><path class="cls-3" d="M81.22,19.83L79.78,27l-8.49,1.39S74.22,21,81.22,19.83Z"/><path class="cls-3" d="M83.61,34.45L80,28.07l-8.49,1.39S76.6,35.6,83.61,34.45Z"/><line class="cls-2" x1="83.35" y1="26.89" x2="30.63" y2="35.41"/><path class="cls-3" d="M69.94,0l1.68,7.16-7.16,4.78S64,3.94,69.94,0Z"/><path class="cls-3" d="M78.17,12.32L72.2,8,65,12.81S72.27,16.27,78.17,12.32Z"/><line class="cls-2" x1="74.81" y1="5.54" x2="30.45" y2="35.36"/></svg>
