<svg id="icon" xmlns="http://www.w3.org/2000/svg" viewBox="0 0 70.49 54.8"><title>1</title><path d="M44.1,6.48C57.85,6.48,69,14.87,69,25.22c0,7.31-5.56,13.64-13.66,16.73a13.55,13.55,0,0,0,4.54,10.53,0.47,0.47,0,0,1-.39.82c-3.25-.74-9.75-3-12.08-9.5C46.32,43.9,45.22,44,44.1,44a29.5,29.5,0,0,1-17.37-5.32" style="fill:none;stroke:#d63227;stroke-miterlimit:10;stroke-width:3px"/><path d="M26.39,1.5C12.64,1.5,1.5,9.89,1.5,20.24,1.5,27.55,7.06,33.88,15.16,37A13.55,13.55,0,0,1,10.62,47.5a0.47,0.47,0,0,0,.39.82c3.25-.74,9.75-3,12.08-9.5,1.08,0.11,2.18.17,3.3,0.17,13.75,0,24.89-8.39,24.89-18.74S40.14,1.5,26.39,1.5Z" style="fill:none;stroke:#009fd1;stroke-miterlimit:10;stroke-width:3px"/></svg>