<svg xmlns="http://www.w3.org/2000/svg" xmlns:xlink="http://www.w3.org/1999/xlink" viewBox="0 0 57 64"><defs><style>.cls-1,.cls-2,.cls-4{fill:none;}.cls-2,.cls-4{stroke:#fff;stroke-miterlimit:10;}.cls-2{stroke-width:2px;}.cls-3{clip-path:url(#clip-path);}.cls-4{stroke-width:1.5px;}</style><clipPath id="clip-path" transform="translate(-17 -18.25)"><path class="cls-1" d="M2,10,73,0a2,2,0,0,1,2,2L72,49a2,2,0,0,1-2,2H45.25a1.18,1.18,0,0,0-.67.21l-2.77,3.58a1.18,1.18,0,0,1-.67.21H22c-1.1,0-19,9.1-19,8L0,12A2,2,0,0,1,2,10Z"/></clipPath></defs><title>Asset 3</title><g id="Layer_2" data-name="Layer 2"><g id="Layer_1-2" data-name="Layer 1"><path class="cls-2" d="M71,81H20a2,2,0,0,1-2-2V57a2,2,0,0,1,2-2H42.75a1.18,1.18,0,0,0,.67-.21l2.77-3.58a1.18,1.18,0,0,1,.67-.21H71a2,2,0,0,1,2,2V79A2,2,0,0,1,71,81Z" transform="translate(-17 -18.25)"/><g class="cls-3"><rect class="cls-2" x="10" y="4.75" width="36" height="45" rx="2" ry="2"/><path class="cls-2" d="M22,56" transform="translate(-17 -18.25)"/><path class="cls-2" d="M21,50" transform="translate(-17 -18.25)"/><path class="cls-4" d="M31,23" transform="translate(-17 -18.25)"/><path class="cls-4" d="M67,51V62a2,2,0,0,1-2,2H33a2,2,0,0,1-2-2" transform="translate(-17 -18.25)"/><path class="cls-4" d="M32,19H65a2,2,0,0,1,2,2V51" transform="translate(-17 -18.25)"/><path class="cls-4" d="M31,23" transform="translate(-17 -18.25)"/><rect class="cls-4" x="15" y="10.75" width="26" height="11" rx="2" ry="2"/><line class="cls-4" x1="15" y1="25.75" x2="36" y2="25.75"/><line class="cls-4" x1="15" y1="28.75" x2="30" y2="28.75"/></g><line class="cls-4" x1="46" y1="55.75" x2="51" y2="55.75"/><line class="cls-4" x1="46" y1="51.75" x2="51" y2="51.75"/></g></g></svg>
