<svg xmlns="http://www.w3.org/2000/svg" viewBox="0 0 29 34.56"><g id="Layer_1" data-name="Layer 1"><path d="M27.12,34.56H1.88A1.88,1.88,0,0,1,0,32.68V1.88A1.88,1.88,0,0,1,1.88,0H21.29L29,7.79v7.54H28V8.21L20.87,1h-19A.87.87,0,0,0,1,1.88v30.8a.88.88,0,0,0,.88.88H27.12a.88.88,0,0,0,.88-.88h1A1.88,1.88,0,0,1,27.12,34.56Z" style="fill:#443f23"/><polygon points="28.5 8.65 20.18 8.65 20.18 2.5 21.18 2.5 21.18 7.65 28.5 7.65 28.5 8.65" style="fill:#443f23"/><path d="M4.83,29.79a1.57,1.57,0,0,0,1.23-.43,2.25,2.25,0,0,0,.39-1.5V19.62H7.61v8.25a3.18,3.18,0,0,1-.71,2.25,2.71,2.71,0,0,1-2.07.75Z" style="fill:#443f23"/><path d="M9.77,28.9a2.79,2.79,0,0,1-.78-2h1.17a1.75,1.75,0,0,0,.45,1.25,1.59,1.59,0,0,0,1.18.44A1.57,1.57,0,0,0,13,28.11a1.61,1.61,0,0,0,.4-1.15,1.43,1.43,0,0,0-.24-.81,2.65,2.65,0,0,0-.62-.63c-.25-.18-.59-.39-1-.65A13.47,13.47,0,0,1,10.26,24a3.23,3.23,0,0,1-.78-.89,2.24,2.24,0,0,1-.34-1.26,2.4,2.4,0,0,1,1.26-2.14,2.92,2.92,0,0,1,1.38-.31,2.51,2.51,0,0,1,1.91.74,2.87,2.87,0,0,1,.75,2H13.27A1.74,1.74,0,0,0,12.85,21a1.41,1.41,0,0,0-1.06-.4,1.49,1.49,0,0,0-1.08.37,1.25,1.25,0,0,0-.4,1,1.37,1.37,0,0,0,.24.8,2.32,2.32,0,0,0,.61.6,10.17,10.17,0,0,0,1,.63,13.84,13.84,0,0,1,1.25.81,3.19,3.19,0,0,1,.82.92A2.53,2.53,0,0,1,14.57,27a2.73,2.73,0,0,1-.33,1.33,2.44,2.44,0,0,1-1,1,2.83,2.83,0,0,1-1.48.37A2.75,2.75,0,0,1,9.77,28.9Z" style="fill:#443f23"/><path d="M16.57,28.78a3.47,3.47,0,0,1-.78-2.4V22.7a3.46,3.46,0,0,1,.78-2.39,2.76,2.76,0,0,1,2.15-.87,2.71,2.71,0,0,1,2.14.87,3.46,3.46,0,0,1,.78,2.39v3.68a3.47,3.47,0,0,1-.78,2.4,2.68,2.68,0,0,1-2.14.88A2.73,2.73,0,0,1,16.57,28.78ZM20,28a2.48,2.48,0,0,0,.45-1.6V22.7A2.46,2.46,0,0,0,20,21.12a1.54,1.54,0,0,0-1.29-.56,1.58,1.58,0,0,0-1.3.56A2.46,2.46,0,0,0,17,22.7v3.68a2.48,2.48,0,0,0,.44,1.6,1.58,1.58,0,0,0,1.3.56A1.54,1.54,0,0,0,20,28Z" style="fill:#443f23"/><path d="M23.43,19.62H24.6L27.06,25c.32.68.65,1.44,1,2.3l0,0c-.1-1.26-.15-2.29-.15-3.1V19.62h1.14v9.86H27.91l-2.43-5.3c-.33-.76-.66-1.56-1-2.39h0c.08,1.17.11,2.18.11,3v4.65H23.43Z" style="fill:#443f23"/></g></svg>