<svg xmlns="http://www.w3.org/2000/svg" width="30.821" height="30.993" viewBox="0 0 30.821 30.993">
  <g id="megaphone-icon" transform="matrix(0.966, -0.259, 0.259, 0.966, -250.654, -570.014)">
    <path id="Path_107" data-name="Path 107" d="M103.464,646.983c-1.28-.313-1.773-1.015-2.257-3.158a8.375,8.375,0,0,0-1.28-3.528,2.117,2.117,0,0,0-1.878-.882,1.816,1.816,0,0,1-1.963-1.432,7.677,7.677,0,0,1-.142-3.964,3.515,3.515,0,0,1,1.29-1.593,18.124,18.124,0,0,1,2.39-1.062A27.766,27.766,0,0,0,104.564,629a34.717,34.717,0,0,0,5.216-3.955c.825-.8.863-.844,1.034-1.517a2.755,2.755,0,0,1,.787-1.441,1.043,1.043,0,0,1,.882-.341c.929-.057,1.508.332,2.323,1.546a24.005,24.005,0,0,1,2.854,8.165c.8,4.618.2,9.161-1.271,9.777-.569.237-.863.152-1.991-.578a8.013,8.013,0,0,0-1.138-.578,33.107,33.107,0,0,0-8.819-1.46c-.92,0-1,.009-1.128.2a2.358,2.358,0,0,0,.123,1.84,5.279,5.279,0,0,1,.266.948,1.348,1.348,0,0,0,.446.854,1.086,1.086,0,0,1,.4.986c-.047.266-.009.37.341.835.436.578.484.825.284,1.328a.622.622,0,0,0,.133.778c.228.294.209.531-.066.635a4.183,4.183,0,0,1-1.773-.038Zm9.2-8.914c-1.773-3.537-2.807-8.99-2.285-12.034l.057-.341-.7.7a19.974,19.974,0,0,1-4.334,3.091c-3.177,1.906-3.67,2.456-3.727,4.1-.066,1.868.664,3.385,1.878,3.945a5.661,5.661,0,0,0,2.219.294c.977.047,2.229.152,2.788.237a21.615,21.615,0,0,1,3.983,1.005c.36.142.683.266.711.266a10.333,10.333,0,0,0-.588-1.261Zm.616-1.347a11.6,11.6,0,0,0,.133-3.423,7.152,7.152,0,0,0-2-4.362l-.322-.247.057.569c.123,1.176.512,3.528.768,4.675a17.21,17.21,0,0,0,1.138,3.566,2.468,2.468,0,0,0,.228-.778ZM95.366,639.15c-1.783-.3-2.466-1.024-2.466-2.608a2.827,2.827,0,0,1,.474-1.868c.247-.37.446-.512,1.479-1.072,1.214-.654,1.565-.787,1.309-.493a3.986,3.986,0,0,0-.683,2.627,4.207,4.207,0,0,0,.986,3.091l.36.408-.512-.009a6.858,6.858,0,0,1-.948-.076Zm-.028-.863a6.814,6.814,0,0,1-.522-2.788c-.009-1.109-.085-1.366-.256-.815a6.572,6.572,0,0,0-.085,1.147,4.113,4.113,0,0,0,.275,1.745c.237.721.313.863.465.863s.171-.029.123-.152Zm-1.214-.834a3.588,3.588,0,0,1-.228-1.716c.028-.749.019-.891-.085-.853-.2.076-.284.436-.284,1.2a2.8,2.8,0,0,0,.209,1.233c.484,1.176.759,1.271.389.133Z" transform="translate(0)"/>
  </g>
</svg>
