<svg width="53" height="19" viewBox="0 0 53 19" fill="none" xmlns="http://www.w3.org/2000/svg">
<path d="M6.86139 15.55C9.7167 15.55 12.0314 13.2353 12.0314 10.38C12.0314 7.52466 9.7167 5.20996 6.86139 5.20996C4.00608 5.20996 1.69141 7.52466 1.69141 10.38C1.69141 13.2353 4.00608 15.55 6.86139 15.55Z" stroke="black" stroke-width="2" stroke-miterlimit="10"/>
<path d="M23.7216 16.8201C27.2397 16.8201 30.0916 13.9681 30.0916 10.4501C30.0916 6.93202 27.2397 4.08008 23.7216 4.08008C20.2036 4.08008 17.3516 6.93202 17.3516 10.4501C17.3516 13.9681 20.2036 16.8201 23.7216 16.8201Z" stroke="black" stroke-width="2" stroke-miterlimit="10"/>
<path d="M46.6414 1.43994H41.3014C38.4792 1.43994 36.1914 3.72778 36.1914 6.54996V12.55C36.1914 15.3721 38.4792 17.6599 41.3014 17.6599H46.6414C49.4636 17.6599 51.7514 15.3721 51.7514 12.55V6.54996C51.7514 3.72778 49.4636 1.43994 46.6414 1.43994Z" stroke="black" stroke-width="2" stroke-miterlimit="10"/>
</svg>
