<svg id="icon" xmlns="http://www.w3.org/2000/svg" viewBox="0 0 34.99 39.91"><title>1</title><path d="M25.85,27.21l-7.8-15.9a0.65,0.65,0,0,0-1.13,0L9.25,27.16l3.32,7.13-0.4,2.47H23l-0.4-2.47Z" style="fill:none;stroke:#433f22;stroke-miterlimit:10;stroke-width:1.2000000000000002px"/><line x1="17.55" y1="10.68" x2="17.55" y2="23.79" style="fill:none;stroke:#433f22;stroke-miterlimit:10;stroke-width:1.2000000000000002px"/><circle cx="17.55" cy="26.17" r="2.38" style="fill:none;stroke:#433f22;stroke-miterlimit:10;stroke-width:1.2000000000000002px"/><circle cx="33.05" cy="1.95" r="1.35" style="fill:none;stroke:#433f22;stroke-miterlimit:10;stroke-width:1.2000000000000002px"/><circle cx="1.95" cy="1.95" r="1.35" style="fill:none;stroke:#433f22;stroke-miterlimit:10;stroke-width:1.2000000000000002px"/><path d="M20.08,9.28c7.42-.48,13.08-3,13.08-6" style="fill:none;stroke:#433f22;stroke-miterlimit:10;stroke-width:1.2000000000000002px"/><path d="M1.87,3.24c0,3.06,5.75,5.6,13.25,6.05" style="fill:none;stroke:#433f22;stroke-miterlimit:10;stroke-width:1.2000000000000002px"/><rect x="15.66" y="7.13" width="3.79" height="3.79" style="fill:none;stroke:#433f22;stroke-miterlimit:10;stroke-width:1.2000000000000002px"/><line x1="8.74" y1="36.9" x2="26.36" y2="36.9" style="fill:none;stroke:#433f22;stroke-miterlimit:10;stroke-width:1.2000000000000002px"/><rect x="12.25" y="36.88" width="10.61" height="2.43" style="fill:none;stroke:#433f22;stroke-miterlimit:10;stroke-width:1.2000000000000002px"/></svg>