<svg id="Layer_1" data-name="Layer 1" xmlns="http://www.w3.org/2000/svg" viewBox="0 0 31 34"><defs><style>.cls-1{fill:none;stroke:#fff;stroke-miterlimit:10;stroke-width:1.24px;}</style></defs><title>order-urgent</title><path class="cls-1" d="M44.65,27.73a14.51,14.51,0,1,1-20.52,0A14.5,14.5,0,0,1,44.65,27.73Z" transform="translate(-19.27 -19.75)"/><polyline class="cls-1" points="15.13 3.73 15.13 0.62 18.24 0.62"/><line class="cls-1" x1="12.02" y1="0.62" x2="15.13" y2="0.62"/><line class="cls-1" x1="15.13" y1="32.75" x2="15.13" y2="30.67"/><line class="cls-1" x1="15.13" y1="5.8" x2="15.13" y2="3.73"/><line class="cls-1" x1="0.62" y1="18.24" x2="2.69" y2="18.24"/><line class="cls-1" x1="27.57" y1="18.24" x2="29.64" y2="18.24"/><line class="cls-1" x1="6.1" y1="9.2" x2="7.56" y2="10.67"/><line class="cls-1" x1="22.7" y1="25.81" x2="24.16" y2="27.27"/><line class="cls-1" x1="24.16" y1="9.2" x2="22.7" y2="10.67"/><line class="cls-1" x1="7.56" y1="25.81" x2="6.1" y2="27.27"/><line class="cls-1" x1="15.13" y1="10.98" x2="15.13" y2="17.2"/><circle class="cls-1" cx="15.13" cy="18.24" r="1.55"/></svg>
