<svg xmlns="http://www.w3.org/2000/svg" viewBox="0 0 38.19 44.01"><g id="Layer_1" data-name="Layer 1"><path d="M30.45,41.54h5.14a2,2,0,0,0,2-2V2.6a2,2,0,0,0-2-2H4.05a2,2,0,0,0-2,2V9.79H37.59" style="fill:none;stroke:#444023;stroke-miterlimit:10;stroke-width:1.20000004768372px"/><circle cx="33.34" cy="5.36" r="1.31" style="fill:none;stroke:#444023;stroke-miterlimit:10;stroke-width:1.20000004768372px"/><circle cx="27.96" cy="5.36" r="1.31" style="fill:none;stroke:#444023;stroke-miterlimit:10;stroke-width:1.20000004768372px"/><circle cx="22.19" cy="5.36" r="1.31" style="fill:none;stroke:#444023;stroke-miterlimit:10;stroke-width:1.20000004768372px"/><line x1="2.05" y1="5.12" x2="2.05" y2="12.55" style="fill:none;stroke:#444023;stroke-miterlimit:10;stroke-width:1.20000004768372px"/><path d="M16.32,29.37a3.1,3.1,0,1,0,3.1,3.1A3.1,3.1,0,0,0,16.32,29.37Z" style="fill:#444023"/><path d="M24.34,16.8H2.86A2.85,2.85,0,0,0,0,19.66V41.14A2.86,2.86,0,0,0,2.86,44H24.34a2.88,2.88,0,0,0,2.87-2.87V19.66A2.85,2.85,0,0,0,24.34,16.8Zm-8,21a5.33,5.33,0,0,1-3.18-1.06l-2.07,2.08a1.78,1.78,0,1,1-3-.75,1.79,1.79,0,0,1,1.69-.47l2.13-2.13a5.33,5.33,0,0,1,0-6L5,24.14a2.07,2.07,0,0,1-2.22-.2,2.09,2.09,0,1,1,3.31-1.18l7,5.42a5.27,5.27,0,0,1,2.29-1V24.46a2,2,0,1,1,1.76.05v2.7a5.34,5.34,0,0,1-.89,10.6Z" style="fill:#444023"/></g></svg>