<svg id="Layer_3" data-name="Layer 3" xmlns="http://www.w3.org/2000/svg" viewBox="0 0 34 33"><defs><style>.cls-1{fill:none;stroke:#433f22;stroke-miterlimit:10;stroke-width:1.2px;}</style></defs><title>burger_all_small_icons</title><path class="cls-1" d="M6.34,14.33A11.08,11.08,0,0,1,8,10.2L5,6.92,7.64,4.24,11,7.17a11.08,11.08,0,0,1,4.1-1.75L15.28,1,19,1l0.29,4.43a11.08,11.08,0,0,1,4.13,1.67l3.28-3,2.68,2.63L26.48,10a11.08,11.08,0,0,1,1.75,4.09l4.44,0.2,0,3.76-4.43.29a11.08,11.08,0,0,1-1.67,4.13l3,3.28L27,28.46l-3.34-2.94a11.08,11.08,0,0,1-4.1,1.75l-0.2,4.44-3.76,0-0.29-4.43a11.08,11.08,0,0,1-4.13-1.67l-3.28,3L5.19,26l2.94-3.34a11.08,11.08,0,0,1-1.75-4.1"/><line class="cls-1" x1="0.32" y1="16.67" x2="21.67" y2="16.67"/><polyline class="cls-1" points="15.89 10.09 22.48 16.67 15.89 23.26"/></svg>
