<svg id="Layer_1" data-name="Layer 1" xmlns="http://www.w3.org/2000/svg" xmlns:xlink="http://www.w3.org/1999/xlink" viewBox="0 0 76 75"><defs><style>.cls-1,.cls-3,.cls-4,.cls-5,.cls-6{fill:none;}.cls-2{clip-path:url(#clip-path);}.cls-3,.cls-4{stroke:#000;}.cls-3,.cls-4,.cls-5,.cls-6{stroke-miterlimit:10;}.cls-3,.cls-5,.cls-6{stroke-width:2px;}.cls-4{stroke-width:1.5px;}.cls-5{stroke:#00a0d2;}.cls-6{stroke:#d73227;}</style><clipPath id="clip-path" transform="translate(0 0)"><rect class="cls-1" width="76" height="74.28"/></clipPath></defs><title>psd-to-woo-wp-1</title><g class="cls-2"><path class="cls-3" d="M65,6.72c6.14,4,10,9.8,10,16.2V25H51" transform="translate(0 0)"/><path class="cls-3" d="M25,25H1V20.83C1,9.88,13.34,1,28.57,1h16a40.1,40.1,0,0,1,13.6,2.32" transform="translate(0 0)"/><path class="cls-4" d="M0,30c4.16,0,4.16,4,8.33,4s4.17-4,8.34-4,4.17,4,8.33,4" transform="translate(0 0)"/><path class="cls-4" d="M51,30c4,0,4,4,8,4s4-4,8-4,4,4,8,4" transform="translate(0 0)"/><path class="cls-4" d="M51,39H71.61A3.19,3.19,0,0,1,75,41.92v1.17A3.19,3.19,0,0,1,71.61,46H51" transform="translate(0 0)"/><path class="cls-4" d="M25,46H4.39A3.19,3.19,0,0,1,1,43.08V41.92A3.19,3.19,0,0,1,4.39,39H25" transform="translate(0 0)"/><path class="cls-4" d="M25,51H17v5.58c0,1.42-1.57,2.58-3.5,2.58S10,58,10,56.58V51H6.21C3.34,51,1,52.45,1,54.23v5.54C1,61.55,3.34,63,6.21,63H25" transform="translate(0 0)"/><path class="cls-4" d="M51,63H70.29C72.88,63,75,61.55,75,59.77V54.23C75,52.45,72.88,51,70.29,51H51" transform="translate(0 0)"/><path class="cls-5" d="M41.3,26H35.22a1.63,1.63,0,0,1-1.77-1.41L29.59,14.41A1.63,1.63,0,0,1,31.37,13H44.19A1.63,1.63,0,0,1,46,14.41L43.08,24.59A1.63,1.63,0,0,1,41.3,26Z" transform="translate(0 0)"/><path class="cls-6" d="M41.17,32H35.32c-0.94,0-1.71,1.65-1.71,3.67L29.89,62.18c0,2,7.94,10.62,7.94,10.62s7.83-8.6,7.83-10.62L42.88,35.67C42.88,33.65,42.11,32,41.17,32Z" transform="translate(0 0)"/></g></svg>
