<?xml version="1.0" encoding="utf-8"?>
<!-- Generator: Adobe Illustrator 24.0.0, SVG Export Plug-In . SVG Version: 6.00 Build 0)  -->
<svg version="1.1" xmlns="http://www.w3.org/2000/svg" xmlns:xlink="http://www.w3.org/1999/xlink" x="0px" y="0px"
	 viewBox="0 0 38.19 44.01" style="enable-background:new 0 0 38.19 44.01;" xml:space="preserve">
<style type="text/css">
	.st0{display:none;}
	.st1{display:inline;fill:#E4422B;}
	.st2{fill:#444023;}
	.st3{fill:#D93127;}
	.st4{fill:#099CD1;}
	.st5{fill:#FFFFFF;}
	.st6{fill:#E85343;}
	.st7{fill:#242528;}
</style>
<g id="Layer_2" class="st0">
	
		<image style="display:inline;overflow:visible;" width="1920" height="9407" xlink:href="91847028.html"  transform="matrix(1 0 0 1 -1225.803 -2807.9937)">
	</image>
</g>
<g id="Layer_1">
	<g>
		<g>
			<path class="st2" d="M24.34,16.8H2.86C1.27,16.8,0,18.07,0,19.66v21.48c0,1.59,1.27,2.86,2.86,2.86h21.48
				c1.56,0,2.86-1.27,2.86-2.86V19.66C27.21,18.07,25.94,16.8,24.34,16.8z M13.54,34.56c1.26,0,2.61-0.5,3.92-1.67l1.8,2.07
				c-1.89,1.53-4.05,2.39-6.21,2.39c-4.28,0-6.98-2.84-6.35-6.84s4.28-6.84,8.55-6.84c2.07,0,4.01,0.81,5.36,2.3l-2.52,2.07
				c-0.72-0.95-1.94-1.58-3.29-1.58c-2.57,0-4.55,1.67-4.95,4.05C9.49,32.9,10.93,34.56,13.54,34.56z"/>
		</g>
		<g>
			<path class="st2" d="M35.59,42.14h-5.14v-1.2h5.14c0.77,0,1.4-0.63,1.4-1.4V10.39H1.45V2.6c0-1.43,1.17-2.6,2.6-2.6h31.54
				c1.43,0,2.6,1.17,2.6,2.6v36.95C38.19,40.98,37.02,42.14,35.59,42.14z M2.65,9.19h34.34V2.6c0-0.77-0.63-1.4-1.4-1.4H4.05
				c-0.77,0-1.4,0.63-1.4,1.4V9.19z"/>
		</g>
		<g>
			<path class="st2" d="M33.34,7.27c-1.05,0-1.91-0.86-1.91-1.91s0.86-1.91,1.91-1.91s1.91,0.86,1.91,1.91S34.4,7.27,33.34,7.27z
				 M33.34,4.65c-0.39,0-0.71,0.32-0.71,0.71s0.32,0.71,0.71,0.71s0.71-0.32,0.71-0.71S33.73,4.65,33.34,4.65z"/>
		</g>
		<g>
			<path class="st2" d="M27.96,7.27c-1.05,0-1.91-0.86-1.91-1.91s0.86-1.91,1.91-1.91s1.91,0.86,1.91,1.91S29.01,7.27,27.96,7.27z
				 M27.96,4.65c-0.39,0-0.71,0.32-0.71,0.71s0.32,0.71,0.71,0.71c0.39,0,0.71-0.32,0.71-0.71S28.35,4.65,27.96,4.65z"/>
		</g>
		<g>
			<path class="st2" d="M22.2,7.27c-1.05,0-1.91-0.86-1.91-1.91s0.86-1.91,1.91-1.91s1.91,0.86,1.91,1.91S23.25,7.27,22.2,7.27z
				 M22.2,4.65c-0.39,0-0.71,0.32-0.71,0.71s0.32,0.71,0.71,0.71c0.39,0,0.71-0.32,0.71-0.71S22.59,4.65,22.2,4.65z"/>
		</g>
		<g>
			<rect x="1.45" y="5.12" class="st2" width="1.2" height="7.43"/>
		</g>
	</g>
</g>
</svg>
