<svg id="Layer_3" data-name="Layer 3" xmlns="http://www.w3.org/2000/svg" viewBox="0 0 34 31"><defs><style>.cls-1{fill:none;stroke:#433f22;stroke-miterlimit:10;stroke-width:1.2px;}.cls-2{fill:#433f22;}</style></defs><title>burger_all_small_icons</title><path class="cls-1" d="M3.33,1.08h27.3a2.3,2.3,0,0,1,2.3,2.3V23.08a0,0,0,0,1,0,0H1a0,0,0,0,1,0,0V3.39a2.3,2.3,0,0,1,2.3-2.3Z" transform="translate(33.97 24.16) rotate(180)"/><line class="cls-1" x1="32.94" y1="18.49" x2="1.03" y2="18.49"/><path class="cls-1" d="M23.88,10.38S20.79,14.67,17,14.67s-6.89-4.29-6.89-4.29S13.18,6.1,17,6.1,23.88,10.38,23.88,10.38Z"/><circle class="cls-2" cx="16.99" cy="10.38" r="2.24"/><polyline class="cls-1" points="19.23 29.19 12.09 29.19 13.48 23.08 20.49 23.08 21.96 29.54"/></svg>
