<svg id="Layer_1" data-name="Layer 1" xmlns="http://www.w3.org/2000/svg" viewBox="0 0 35 40"><defs><style>.cls-1{fill:#fff;}.cls-2{fill:#db3021;}</style></defs><title>html</title><polygon class="cls-2" points="3.19 35.73 0 0 35 0 31.81 35.72 17.48 39.69 3.19 35.73"/><polygon class="cls-1" points="17.5 16.17 11.7 16.17 11.3 11.69 17.5 11.69 17.5 7.3 17.48 7.3 6.51 7.3 6.62 8.48 7.7 20.55 17.5 20.55 17.5 16.17"/><polygon class="cls-1" points="17.5 27.55 17.48 27.56 12.6 26.24 12.29 22.74 9.92 22.74 7.89 22.74 8.5 29.62 17.48 32.12 17.5 32.11 17.5 27.55"/><polygon class="cls-1" points="17.48 16.17 17.48 20.55 22.88 20.55 22.37 26.23 17.48 27.55 17.48 32.11 26.47 29.62 26.53 28.88 27.56 17.35 27.67 16.17 26.49 16.17 17.48 16.17"/><polygon class="cls-1" points="17.48 7.3 17.48 10.02 17.48 11.67 17.48 11.69 28.05 11.69 28.05 11.69 28.07 11.69 28.16 10.7 28.36 8.48 28.46 7.3 17.48 7.3"/></svg>
