<svg xmlns="http://www.w3.org/2000/svg" viewBox="0 0 36 40"><defs><style>.cls-1{fill:#fff;}</style></defs><title>service-shopify-white_1</title><g id="Layer_2" data-name="Layer 2"><g id="Layer_1-2" data-name="Layer 1"><path class="cls-1" d="M31.28,7.47l-3.2-.24L25.72,4.89a.58.58,0,0,0-.33-.15L23.67,39.85,36,37.19S31.62,7.94,31.62,7.79a.38.38,0,0,0-.35-.32"/><path class="cls-1" d="M23.85,4.74l-1.19.37c-.71-2-2-3.92-4.17-3.92H18.3A2.68,2.68,0,0,0,16.23,0C11.1,0,8.64,6.42,7.88,9.68L4.29,10.79c-1.11.35-1.15.38-1.29,1.43C2.89,13,0,35.54,0,35.54l22.67,4.24,1.72-35A1.36,1.36,0,0,0,23.85,4.74ZM18.11,6.32a.58.58,0,0,1,0,.22h0l-4,1.23c.76-3,2.2-4.37,3.45-4.91A9.52,9.52,0,0,1,18.11,6.32Zm-2-4.9a1.16,1.16,0,0,1,.66.22c-1.65.77-3.41,2.72-4.15,6.62l-3.14,1C10.33,6.23,12.4,1.42,16.09,1.42ZM17,18.77a7,7,0,0,0-3-.71c-2.39,0-2.51,1.5-2.51,1.88,0,2.06,5.37,2.85,5.37,7.68,0,3.8-2.41,6.24-5.66,6.24a7.87,7.87,0,0,1-5.89-2.43l1-3.45s2,1.76,3.78,1.76a1.52,1.52,0,0,0,1.59-1.45s0-.06,0-.09c0-2.69-4.41-2.81-4.41-7.22,0-3.72,2.67-7.31,8-7.31a6.63,6.63,0,0,1,3.1.59h.1ZM19.49,6.12V5.71A9.42,9.42,0,0,0,19,2.61c1.14.14,1.89,1.43,2.38,2.92Z"/></g></g></svg>
