<svg id="icon" xmlns="http://www.w3.org/2000/svg" viewBox="0 0 39.16 33.26"><title>1</title><path d="M33.6,24.68V4.41A3.81,3.81,0,0,0,29.79.6H4.41A3.81,3.81,0,0,0,.6,4.41V26.35H9.75" style="fill:none;stroke:#433f22;stroke-miterlimit:10;stroke-width:1.2000000000000002px"/><line x1="33.6" y1="6.85" x2="0.6" y2="6.85" style="fill:none;stroke:#433f22;stroke-miterlimit:10;stroke-width:1.2000000000000002px"/><circle cx="12.49" cy="3.73" r="0.86" style="fill:#433f22"/><circle cx="8.49" cy="3.73" r="0.86" style="fill:#433f22"/><circle cx="4.49" cy="3.73" r="0.86" style="fill:#433f22"/><path d="M18.81,28.16S38.62,32.41,38.56,30s-2.5-4.56-2.5-4.56L11.37,20.91,7.81,17,8.5,22.23,7.08,23.85l4.21,1.25" style="fill:none;stroke:#433f22;stroke-miterlimit:10;stroke-width:1.2000000000000002px"/><path d="M23.53,26.82L2.28,32.64a0.45,0.45,0,0,1-.37-0.8L12.81,24.1" style="fill:none;stroke:#433f22;stroke-miterlimit:10;stroke-width:1.2000000000000002px"/><path d="M26.37,23.6L21.76,19a1.11,1.11,0,0,0-1.49,0l-3.18,2.78" style="fill:none;stroke:#433f22;stroke-miterlimit:10;stroke-width:1.2000000000000002px"/><path d="M31.66,27.25s5.12,1.38,5.74,0" style="fill:none;stroke:#433f22;stroke-miterlimit:10;stroke-width:1.2000000000000002px"/></svg>