<svg xmlns="http://www.w3.org/2000/svg" width="20" height="20" viewBox="0 0 20 20">
  <metadata><?xpacket begin="﻿" id="W5M0MpCehiHzreSzNTczkc9d"?>
<x:xmpmeta xmlns:x="adobe:ns:meta/" x:xmptk="Adobe XMP Core 5.6-c138 79.159824, 2016/09/14-01:09:01        ">
   <rdf:RDF xmlns:rdf="http://www.w3.org/1999/02/22-rdf-syntax-ns#">
      <rdf:Description rdf:about=""/>
   </rdf:RDF>
</x:xmpmeta>
                                                                                                    
                                                                                                    
                                                                                                    
                                                                                                    
                                                                                                    
                                                                                                    
                                                                                                    
                                                                                                    
                                                                                                    
                                                                                                    
                                                                                                    
                                                                                                    
                                                                                                    
                                                                                                    
                                                                                                    
                                                                                                    
                                                                                                    
                                                                                                    
                                                                                                    
                                                                                                    
                           
<?xpacket end="w"?></metadata>
<defs>
    <style>
      .cls-1 {
        fill: #353535;
        fill-rule: evenodd;
      }
    </style>
  </defs>
  <path id="fa-github" class="cls-1" d="M577.667,1389.12a10.117,10.117,0,0,0-3.641-3.73,9.89,9.89,0,0,0-10.044,0,10.114,10.114,0,0,0-3.64,3.73,10.514,10.514,0,0,0,.566,11.18,9.8,9.8,0,0,0,4.931,3.7,0.548,0.548,0,0,0,.521-0.09,0.532,0.532,0,0,0,.169-0.4q0-.045-0.006-0.72c0-.46-0.007-0.85-0.007-1.19l-0.3.05a3.724,3.724,0,0,1-.723.05,5.813,5.813,0,0,1-.906-0.09,2.026,2.026,0,0,1-.873-0.4,1.733,1.733,0,0,1-.573-0.82l-0.13-.31a3.268,3.268,0,0,0-.41-0.68,1.6,1.6,0,0,0-.567-0.51l-0.091-.07a0.649,0.649,0,0,1-.169-0.16,0.686,0.686,0,0,1-.118-0.18,0.119,0.119,0,0,1,.065-0.16,0.832,0.832,0,0,1,.378-0.06l0.261,0.04a1.939,1.939,0,0,1,.645.32,2.122,2.122,0,0,1,.631.7,2.355,2.355,0,0,0,.723.83,1.524,1.524,0,0,0,.853.29,3.239,3.239,0,0,0,.743-0.07,2.3,2.3,0,0,0,.586-0.2,2.157,2.157,0,0,1,.639-1.37,10.749,10.749,0,0,1-1.336-.24,5.888,5.888,0,0,1-1.224-.52,3.479,3.479,0,0,1-1.049-.9,4.353,4.353,0,0,1-.684-1.4,6.84,6.84,0,0,1-.267-2,3.932,3.932,0,0,1,1.029-2.75,3.687,3.687,0,0,1,.092-2.73,1.788,1.788,0,0,1,1.12.18,6.882,6.882,0,0,1,1.088.52q0.345,0.21.553,0.36a9.111,9.111,0,0,1,5,0l0.5-.32a6.631,6.631,0,0,1,1.2-.59,1.661,1.661,0,0,1,1.055-.15,3.654,3.654,0,0,1,.1,2.73,3.932,3.932,0,0,1,1.029,2.75,6.958,6.958,0,0,1-.267,2.01,4.177,4.177,0,0,1-.69,1.4,3.7,3.7,0,0,1-1.055.89,5.918,5.918,0,0,1-1.225.52,10.731,10.731,0,0,1-1.335.24,2.4,2.4,0,0,1,.677,1.89v2.82a0.541,0.541,0,0,0,.163.4,0.533,0.533,0,0,0,.515.09,9.805,9.805,0,0,0,4.93-3.7A10.512,10.512,0,0,0,577.667,1389.12Z" transform="translate(-559 -1384.03)"/>
</svg>
