<svg xmlns="http://www.w3.org/2000/svg" viewBox="0 0 45 27"><defs><style>.cls-1{fill:#fff;}</style></defs><title>service-woocommerce-white</title><g id="Layer_2" data-name="Layer 2"><g id="Layer_1-2" data-name="Layer 1"><path class="cls-1" d="M38.18,7.56A1.94,1.94,0,0,0,36.27,8.7a6,6,0,0,0-1,2.19,6.39,6.39,0,0,0-.13,1.34,4.67,4.67,0,0,0,.33,1.67,1.67,1.67,0,0,0,1.09,1.2,1.77,1.77,0,0,0,1.49-.59,4.87,4.87,0,0,0,1.4-2.72,8,8,0,0,0,.13-1.36,4.67,4.67,0,0,0-.33-1.67A1.67,1.67,0,0,0,38.18,7.56Z"/><path class="cls-1" d="M26.69,7.56A1.94,1.94,0,0,0,24.78,8.7a6,6,0,0,0-1,2.19,6.39,6.39,0,0,0-.13,1.34A4.67,4.67,0,0,0,24,13.9a1.67,1.67,0,0,0,1.09,1.2,1.77,1.77,0,0,0,1.49-.59A4.87,4.87,0,0,0,28,11.79a6.45,6.45,0,0,0,.13-1.36,4.67,4.67,0,0,0-.33-1.67A1.67,1.67,0,0,0,26.69,7.56Z"/><path class="cls-1" d="M40.84,0H4.18A4.18,4.18,0,0,0,0,4.18H0v14a4.19,4.19,0,0,0,4.19,4.19H21.54l7.93,4.42-1.8-4.42H40.81A4.19,4.19,0,0,0,45,18.19h0v-14A4.19,4.19,0,0,0,40.84,0ZM18.45,18.42a2.18,2.18,0,0,1-.22,1.21,1.19,1.19,0,0,1-1,.66,1.85,1.85,0,0,1-1.45-.68,18.21,18.21,0,0,1-4.07-7.84q-1.79,3.53-2.65,5.3c-1.09,2.08-2,3.15-2.78,3.2-.5,0-.92-.39-1.29-1.27Q3.58,15.38,2,5a1.64,1.64,0,0,1,.29-1.23A1.48,1.48,0,0,1,3.44,3.2,1.34,1.34,0,0,1,5,4.52q.86,5.77,1.86,9.77l4-7.67a1.75,1.75,0,0,1,1.38-1.1c.81-.06,1.31.46,1.51,1.55a34.37,34.37,0,0,0,1.75,6.29q.72-7,2.43-10.12a1.41,1.41,0,0,1,1.21-.81,1.6,1.6,0,0,1,1.16.37,1.44,1.44,0,0,1,.57,1,1.6,1.6,0,0,1-.18.88,22.27,22.27,0,0,0-1.78,6.64,34.26,34.26,0,0,0-.5,7.09Zm11.3-2.89a4.92,4.92,0,0,1-4.32,2.76,4.85,4.85,0,0,1-1-.11A4.24,4.24,0,0,1,21.49,16a7.12,7.12,0,0,1-.88-3.64A9.75,9.75,0,0,1,22,7.22a5,5,0,0,1,4.32-2.76,4.85,4.85,0,0,1,1,.11A4.27,4.27,0,0,1,30.31,6.7a7,7,0,0,1,.88,3.62,9.86,9.86,0,0,1-1.45,5.21Zm11.54,0A4.92,4.92,0,0,1,37,18.29a4.85,4.85,0,0,1-1-.11A4.24,4.24,0,0,1,33,16a7.12,7.12,0,0,1-.88-3.64,9.75,9.75,0,0,1,1.43-5.19A5,5,0,0,1,37.9,4.46a4.85,4.85,0,0,1,1,.11A4.24,4.24,0,0,1,41.84,6.7a7,7,0,0,1,.88,3.62,9.86,9.86,0,0,1-1.44,5.21Z"/></g></g></svg>
