<svg width="82" height="64" viewBox="0 0 82 64" fill="none" xmlns="http://www.w3.org/2000/svg">
<path d="M14.364 6.89231C15.9954 6.89231 17.3178 5.56983 17.3178 3.93847C17.3178 2.3071 15.9954 0.984619 14.364 0.984619C12.7326 0.984619 11.4102 2.3071 11.4102 3.93847C11.4102 5.56983 12.7326 6.89231 14.364 6.89231Z" stroke="black" stroke-width="2" stroke-miterlimit="10" stroke-linecap="round"/>
<path d="M15.0547 6.99072L24.2116 38.6953" stroke="black" stroke-width="2" stroke-miterlimit="10" stroke-linecap="round"/>
<path d="M3.73047 38.6953L13.5766 6.99072" stroke="black" stroke-width="2" stroke-miterlimit="10" stroke-linecap="round"/>
<path d="M26.9687 39.3846C26.9687 46.3754 21.3564 51.9877 14.3656 51.9877C7.37483 51.9877 1.66406 46.3754 1.66406 39.3846H26.9687Z" stroke="black" stroke-width="2" stroke-linecap="round" stroke-linejoin="round"/>
<path d="M67.5359 6.89231C69.1672 6.89231 70.4897 5.56983 70.4897 3.93847C70.4897 2.3071 69.1672 0.984619 67.5359 0.984619C65.9045 0.984619 64.582 2.3071 64.582 3.93847C64.582 5.56983 65.9045 6.89231 67.5359 6.89231Z" stroke="black" stroke-width="2" stroke-miterlimit="10" stroke-linecap="round"/>
<path d="M68.4219 6.99072L77.5788 38.6953" stroke="black" stroke-width="2" stroke-miterlimit="10" stroke-linecap="round"/>
<path d="M74.1328 17.1323L76.299 24.5169" stroke="black" stroke-miterlimit="10" stroke-linecap="round"/>
<path d="M3.92707 27.5692L1.85938 35.0523" stroke="black" stroke-miterlimit="10" stroke-linecap="round"/>
<path d="M57.0977 38.6953L66.9438 6.99072" stroke="black" stroke-width="2" stroke-miterlimit="10" stroke-linecap="round"/>
<path d="M80.3351 39.3846C80.3351 46.3754 74.7228 51.9877 67.732 51.9877C60.7412 51.9877 55.1289 46.3754 55.1289 39.3846H80.3351Z" stroke="black" stroke-width="2" stroke-linecap="round" stroke-linejoin="round"/>
<path d="M36.0283 0.984619H44.9883C47.1545 0.984619 48.8283 2.75693 48.8283 4.82462V5.02154C48.8283 7.08923 47.1545 8.86154 44.9883 8.86154H35.9298C33.7637 8.86154 32.0898 7.08923 32.0898 5.02154V4.82462C32.0898 2.75693 33.8622 0.984619 36.0283 0.984619Z" stroke="black" stroke-width="2" stroke-miterlimit="10" stroke-linecap="round"/>
<path d="M31.5983 58.0923H51.2906C52.669 58.0923 53.7521 59.1754 53.7521 60.5538C53.7521 61.9323 52.669 63.0154 51.2906 63.0154H31.5983C30.2198 63.0154 29.1367 61.9323 29.1367 60.5538C29.1367 59.1754 30.3183 58.0923 31.5983 58.0923Z" stroke="black" stroke-width="2" stroke-miterlimit="10" stroke-linecap="round"/>
<path d="M49.8125 3.93848H64.5817" stroke="black" stroke-width="2" stroke-miterlimit="10" stroke-linecap="round"/>
<path d="M38.9805 8.86157V58.0923" stroke="black" stroke-width="2" stroke-miterlimit="10" stroke-linecap="round"/>
<path d="M41.9336 8.86157V58.0923" stroke="black" stroke-width="2" stroke-miterlimit="10" stroke-linecap="round"/>
<path d="M17.3203 3.93848H32.0895" stroke="black" stroke-width="2" stroke-miterlimit="10" stroke-linecap="round"/>
</svg>
