<svg id="Layer_1" data-name="Layer 1" xmlns="http://www.w3.org/2000/svg" xmlns:xlink="http://www.w3.org/1999/xlink" viewBox="0 0 83 63"><defs><style>.cls-1,.cls-3,.cls-4,.cls-5{fill:none;}.cls-2{clip-path:url(#clip-path);}.cls-3{stroke:#231f20;}.cls-3,.cls-4,.cls-5{stroke-linecap:round;stroke-miterlimit:10;stroke-width:2px;}.cls-4{stroke:#00a0d2;}.cls-5{stroke:#d73227;}</style><clipPath id="clip-path" transform="translate(0)"><rect class="cls-1" width="82.05" height="62.18"/></clipPath></defs><title>psd-to-email-2</title><g class="cls-2"><circle class="cls-3" cx="73.05" cy="9" r="8"/><path class="cls-4" d="M32.05,56c5.52-3,9.19-4.63,14.73-7.57L36.05,37.25c-1.82-1.9-3.79-4.24-3.31-6.83,0.36-1.92,2-3.31,3.48-4.54,4.58-3.76,9.19-7.47,13.8-11.2a2.8,2.8,0,0,0,.77-0.81c0.76-1.44-1-3.12-1.78-4.19C48.05,8.3,46.81,7,45,7L31.72,6.38a0.55,0.55,0,0,1-.44-0.16,0.55,0.55,0,0,1,0-.41l0.33-2" transform="translate(0)"/><path class="cls-5" d="M28.8,59.29L30,60.72a1,1,0,0,0,1.27.4q9.64-2,19.32-3.75A10.75,10.75,0,0,0,54.78,56a6,6,0,0,0,2.34-3.28c1.25-4.24-2.36-7.5-4.71-10.56-1.62-2.11-3.18-4.27-4.76-6.42a0.6,0.6,0,0,1,.19-1c1.9-1.47,3.79-3,5.69-4.42,0.77-.59,5.76-3.57,5.76-4.38,1.12,2.56,1.93,8.11,5.08,9a5.21,5.21,0,0,0,1.5.14q7.22,0,14.43,0a0.43,0.43,0,0,0,.54-0.52q0-2.5,0-5a0.62,0.62,0,0,0-.08-0.38A0.63,0.63,0,0,0,80.22,29c-3.12.14-6.21,0.46-9.33,0.58a2.94,2.94,0,0,1-1.48-.2,3.14,3.14,0,0,1-1.24-2C65.75,20,60.77,14,56,7.95c-2.14-2.7-4.76-5.22-8.06-6.2-4.25-1.27-9-.38-13.31-0.58" transform="translate(0)"/><path class="cls-3" d="M6.39,57.19q10-6.22,20-12.37a4.33,4.33,0,0,0,1.76-1.6,4.32,4.32,0,0,0,.31-1.81c0.08-3.31.15-6.62,0.32-9.93q-6.69,5.86-13.28,11.81L1.35,56a0.93,0.93,0,0,0-.35.49,0.91,0.91,0,0,0,.08.46c0.3,0.81.58,1.62,0.87,2.43" transform="translate(0)"/><line class="cls-3" x1="39.05" y1="13" x2="19.05" y2="13"/><line class="cls-3" x1="16.05" y1="13" x2="10.05" y2="13"/><line class="cls-3" x1="29.05" y1="22" x2="17.05" y2="22"/><line class="cls-3" x1="14.05" y1="22" x2="8.05" y2="22"/><line class="cls-3" x1="5.05" y1="22" x2="3.05" y2="22"/><line class="cls-3" x1="15.05" y1="31" x2="13.05" y2="31"/></g></svg>
