<svg width="45" height="38" viewBox="0 0 45 38" fill="none" xmlns="http://www.w3.org/2000/svg">
<path d="M41.81 36.7102H5.2C2.88 36.7102 1 34.8302 1 32.5102V5.21021C1 3.13021 2.68 1.4502 4.76 1.4502H39.63C41.71 1.4502 43.39 3.13021 43.39 5.21021V30.4502" stroke="black" stroke-width="2" stroke-miterlimit="10"/>
<path d="M6.05859 7.84033H43.0486" stroke="black" stroke-width="2" stroke-miterlimit="10"/>
<path d="M17.6412 13.1201H10.2013C9.00279 13.1201 8.03125 14.0917 8.03125 15.2901V22.7301C8.03125 23.9286 9.00279 24.9001 10.2013 24.9001H17.6412C18.8397 24.9001 19.8112 23.9286 19.8112 22.7301V15.2901C19.8112 14.0917 18.8397 13.1201 17.6412 13.1201Z" stroke="black" stroke-width="2" stroke-miterlimit="10"/>
<path d="M34.8092 13.1201H27.3692C26.1708 13.1201 25.1992 14.0917 25.1992 15.2901V22.7301C25.1992 23.9286 26.1708 24.9001 27.3692 24.9001H34.8092C36.0077 24.9001 36.9792 23.9286 36.9792 22.7301V15.2901C36.9792 14.0917 36.0077 13.1201 34.8092 13.1201Z" stroke="black" stroke-width="2" stroke-miterlimit="10"/>
<path d="M8.03125 37.2501V31.1301C8.03125 30.1501 9.00125 29.3501 10.2013 29.3501H17.6412C18.8412 29.3501 19.8112 30.1501 19.8112 31.1301V37.2501" stroke="black" stroke-width="2" stroke-miterlimit="10"/>
<path d="M25.1992 37.2501V31.1301C25.1992 30.1501 26.1692 29.3501 27.3692 29.3501H34.8092C36.0092 29.3501 36.9792 30.1501 36.9792 31.1301V37.2501" stroke="black" stroke-width="2" stroke-miterlimit="10"/>
</svg>
