<svg width="30" height="31" viewBox="0 0 30 31" fill="none" xmlns="http://www.w3.org/2000/svg">
<path d="M6.01172 20.04V10.32C6.01172 5.32001 10.0617 1.26001 15.0717 1.26001C20.0717 1.26001 24.1317 5.31001 24.1317 10.32V20.04C24.1317 24.82 20.5717 28.6 15.2417 28.6" stroke="black" stroke-width="2" stroke-miterlimit="10"/>
<path d="M4.72172 11.04H6.01172V20.04H4.72172C2.95172 20.04 1.51172 18.6 1.51172 16.83V14.2501C1.51172 12.4801 2.95172 11.04 4.72172 11.04Z" stroke="black" stroke-width="2" stroke-miterlimit="10"/>
<path d="M25.4111 20.05H24.1211V11.05H25.4111C27.1811 11.05 28.6211 12.49 28.6211 14.26V16.84C28.6211 18.61 27.1811 20.05 25.4111 20.05Z" stroke="black" stroke-width="2" stroke-miterlimit="10"/>
<path d="M17.3758 26.4474L14.1475 27.1318C13.1859 27.3357 12.5715 28.2806 12.7754 29.2423C12.9793 30.204 13.9242 30.8183 14.8859 30.6144L18.1141 29.93C19.0758 29.7261 19.6901 28.7812 19.4863 27.8195C19.2824 26.8578 18.3375 26.2435 17.3758 26.4474Z" fill="black"/>
<path d="M11.7408 13.7101C12.5361 13.7101 13.1808 13.0654 13.1808 12.2701C13.1808 11.4748 12.5361 10.8301 11.7408 10.8301C10.9455 10.8301 10.3008 11.4748 10.3008 12.2701C10.3008 13.0654 10.9455 13.7101 11.7408 13.7101Z" fill="black"/>
<path d="M18.7408 13.7101C19.5361 13.7101 20.1808 13.0654 20.1808 12.2701C20.1808 11.4748 19.5361 10.8301 18.7408 10.8301C17.9455 10.8301 17.3008 11.4748 17.3008 12.2701C17.3008 13.0654 17.9455 13.7101 18.7408 13.7101Z" fill="black"/>
<path d="M11.082 18.99C11.082 18.99 15.082 23.32 18.912 18.99" stroke="black" stroke-width="2" stroke-miterlimit="10"/>
</svg>
