<?xml version="1.0" encoding="utf-8"?>
<!-- Generator: Adobe Illustrator 24.0.0, SVG Export Plug-In . SVG Version: 6.00 Build 0)  -->
<svg version="1.1" xmlns="http://www.w3.org/2000/svg" xmlns:xlink="http://www.w3.org/1999/xlink" x="0px" y="0px"
	 viewBox="0 0 38.37 43.73" style="enable-background:new 0 0 38.37 43.73;" xml:space="preserve">
<style type="text/css">
	.st0{display:none;}
	.st1{display:inline;fill:#E4422B;}
	.st2{fill:#444023;}
	.st3{fill:#D93127;}
	.st4{fill:#099CD1;}
	.st5{fill:#FFFFFF;}
	.st6{fill:#E85343;}
	.st7{fill:#242528;}
</style>
<g id="Layer_2" class="st0">
	
		<image style="display:inline;overflow:visible;" width="1920" height="9407" xlink:href="80870AA2.html"  transform="matrix(1 0 0 1 -260.9253 -2806.7014)">
	</image>
</g>
<g id="Layer_1">
	<g>
		<g>
			<g>
				<path class="st2" d="M20.25,37.18c-3.46,0-6.39-1.19-8.24-3.36c-1.7-1.99-2.38-4.7-1.91-7.64c0.99-6.27,6.65-10.82,13.48-10.82
					c3.3,0,6.4,1.33,8.51,3.66l0.42,0.47l-4.77,3.92l-0.38-0.5c-1.02-1.34-2.69-2.14-4.47-2.14c-3.54,0-6.3,2.25-6.87,5.6
					c-0.23,1.55,0.08,2.88,0.91,3.84c0.88,1.02,2.29,1.56,4.06,1.56c1.88,0,3.78-0.81,5.5-2.36l0.45-0.41l3.52,4.05l-0.48,0.39
					C26.97,35.89,23.61,37.18,20.25,37.18z M23.57,16.57c-6.23,0-11.4,4.12-12.29,9.8c-0.41,2.63,0.15,4.94,1.64,6.68
					c1.62,1.9,4.22,2.94,7.33,2.94c2.9,0,5.83-1.06,8.49-3.08l-1.91-2.19c-1.82,1.49-3.83,2.27-5.84,2.27
					c-2.14,0-3.86-0.69-4.97-1.98c-1.06-1.23-1.47-2.9-1.18-4.81c0.67-3.96,3.91-6.61,8.05-6.61c1.94,0,3.77,0.79,5.03,2.13
					l2.84-2.33C28.88,17.56,26.35,16.57,23.57,16.57z"/>
			</g>
		</g>
		<g>
			<g>
				<path class="st2" d="M38.37,10.66h-22v-1.2h20.8V5.68c0-0.69-0.56-1.25-1.25-1.25H7.76v-1.2h28.15c1.35,0,2.45,1.1,2.45,2.45
					V10.66z"/>
			</g>
			<g>
				<path class="st2" d="M35.92,42.38H7.76v-1.2h28.15c0.69,0,1.25-0.56,1.25-1.25V14.56h1.2v25.37
					C38.37,41.28,37.27,42.38,35.92,42.38z"/>
			</g>
			<g>
				<path class="st2" d="M5.23,43.73H2.67L1.82,15.68h4.26L5.23,43.73z M3.84,42.53h0.23l0.78-25.65H3.06L3.84,42.53z"/>
			</g>
			<g>
				<path class="st2" d="M5.51,14.03L4.89,13l0.31,0.51l-0.31-0.51c0.14-0.09,3.37-2.14,0.89-6.26C5.56,6.39,5.31,6.05,5.05,5.7
					C4.49,4.95,3.88,4.12,3.56,3.03C2.14,5.06-0.35,9.57,2.54,13.14L1.61,13.9C-2.88,8.36,3.44,1.22,3.5,1.14L4.53,0l0.02,1.54
					c0.02,1.49,0.72,2.44,1.47,3.45C6.3,5.37,6.57,5.74,6.81,6.13C9.91,11.28,5.55,14,5.51,14.03z"/>
			</g>
		</g>
	</g>
</g>
</svg>
