<svg id="Layer_1" data-name="Layer 1" xmlns="http://www.w3.org/2000/svg" xmlns:xlink="http://www.w3.org/1999/xlink" viewBox="0 0 62 77"><defs><style>.cls-1,.cls-3,.cls-4,.cls-5{fill:none;}.cls-2{clip-path:url(#clip-path);}.cls-3,.cls-4{stroke:#000;}.cls-3,.cls-4,.cls-5{stroke-linecap:round;}.cls-3,.cls-5{stroke-miterlimit:10;stroke-width:1.5px;}.cls-4{stroke-linejoin:round;stroke-width:2px;}.cls-5{stroke:#d73327;}.cls-6{fill:#00a0d2;}</style><clipPath id="clip-path"><rect class="cls-1" width="62" height="77"/></clipPath></defs><title>psd-to-email-6</title><g class="cls-2"><line class="cls-3" x1="28" y1="12" x2="61" y2="12"/></g><line class="cls-3" x1="28" y1="18" x2="53" y2="18"/><line class="cls-3" x1="28" y1="24" x2="53" y2="24"/><line class="cls-3" x1="8" y1="30" x2="53" y2="30"/><line class="cls-3" x1="8" y1="36" x2="53" y2="36"/><line class="cls-3" x1="8" y1="42" x2="27" y2="42"/><g class="cls-2"><path class="cls-4" d="M61,25V71a5,5,0,0,1-5,5H6a5,5,0,0,1-5-5V6A5,5,0,0,1,6,1H27"/><path class="cls-5" d="M29,54v9a5,5,0,0,1-5,5H14a5,5,0,0,1-5-5V54a5,5,0,0,1,5-5H24"/><path class="cls-5" d="M48,68H38a5,5,0,0,1-5-5V54a5,5,0,0,1,5-5H48a5,5,0,0,1,5,5v9"/><path class="cls-6" d="M18.21,23.29a8.12,8.12,0,0,1-3.62.71,6,6,0,0,1-6.17-6.23,7.31,7.31,0,0,1,7.4-7.54,5.64,5.64,0,0,1,6,5.72c0,2.89-1.62,4.71-3.76,4.71a1.55,1.55,0,0,1-1.7-1.52h0a2.91,2.91,0,0,1-2.55,1.52c-1.29,0-2.22-1-2.22-2.57a4.52,4.52,0,0,1,4.63-4.61,5.55,5.55,0,0,1,2.35.49l-0.59,3.66c-0.2,1.17-.06,1.7.5,1.72,0.85,0,1.92-1.07,1.92-3.34a4.36,4.36,0,0,0-4.73-4.57c-3,0-5.68,2.37-5.68,6.15A4.79,4.79,0,0,0,15,22.77a6.44,6.44,0,0,0,2.87-.63Zm-1.76-8.17A2.46,2.46,0,0,0,15.84,15a2.61,2.61,0,0,0-2.33,2.81,1,1,0,0,0,1,1.23c0.73,0,1.5-.93,1.68-2.08Z"/></g></svg>