<svg id="Layer_1" data-name="Layer 1" xmlns="http://www.w3.org/2000/svg" xmlns:xlink="http://www.w3.org/1999/xlink" viewBox="0 0 64 78"><defs><style>.cls-1,.cls-3,.cls-4,.cls-5,.cls-6{fill:none;}.cls-2{clip-path:url(#clip-path);}.cls-3,.cls-4{stroke:#000;}.cls-3,.cls-5,.cls-6{stroke-linecap:round;stroke-linejoin:bevel;}.cls-3,.cls-4,.cls-5,.cls-6{stroke-width:2px;}.cls-4{stroke-miterlimit:10;}.cls-5{stroke:#00a0d2;}.cls-6{stroke:#d73227;}.cls-7{fill:#00a0d2;}.cls-8{fill:#d73227;}</style><clipPath id="clip-path"><rect class="cls-1" width="64" height="78"/></clipPath></defs><title>psd-to-wp-2</title><g class="cls-2"><path class="cls-3" d="M53,1h5a4.79,4.79,0,0,1,5,4.55V6.46A4.79,4.79,0,0,1,58,11H6A4.79,4.79,0,0,1,1,6.46V5.55A4.79,4.79,0,0,1,6,1H44"/><path class="cls-3" d="M11,77H6a4.79,4.79,0,0,1-5-4.55V71.55A4.79,4.79,0,0,1,6,67H58a4.79,4.79,0,0,1,5,4.55v0.91A4.79,4.79,0,0,1,58,77H20"/><path class="cls-4" d="M58.4,11c0,14.25-22.8,14.25-22.8,28.5S58.4,53.75,58.4,68"/><path class="cls-4" d="M5.6,68c0-14.25,22.8-14.25,22.8-28.5S5.6,25.25,5.6,11"/><path class="cls-5" d="M16,16.51c0.58,1.86,2,3.64,7.42,5.76a14.66,14.66,0,0,1,7.13,6,1.64,1.64,0,0,0,2.8,0,14.42,14.42,0,0,1,7.23-6c5.42-2.13,6.84-3.9,7.42-5.76"/><path class="cls-6" d="M16,62c0.58-1.86,2-3.64,7.42-5.76a14.65,14.65,0,0,0,7.13-6,1.64,1.64,0,0,1,2.8,0,14.42,14.42,0,0,0,7.23,6C46,58.4,47.42,60.18,48,62"/><path class="cls-7" d="M33,37a1,1,0,1,1-1-1,1,1,0,0,1,1,1"/><path class="cls-8" d="M33,43a1,1,0,1,1-1-1,1,1,0,0,1,1,1"/></g></svg>