<svg width="33" height="24" viewBox="0 0 33 24" fill="none" xmlns="http://www.w3.org/2000/svg">
<path d="M8.93049 6.42001L4.50049 8.95001C4.27049 9.08001 4.26049 9.46001 4.50049 9.60001L8.71049 12.21" stroke="black" stroke-width="2" stroke-miterlimit="10"/>
<path d="M14.8086 12.2101L19.2386 9.68005C19.4686 9.55005 19.4786 9.17003 19.2386 9.03003L15.0286 6.42004" stroke="black" stroke-width="2" stroke-miterlimit="10"/>
<path d="M12.9002 4.46002L11.1602 13.88" stroke="black" stroke-width="2" stroke-miterlimit="10"/>
<path d="M22.9102 18.18H31.7102V10.06C31.7102 7.11 29.3202 4.71 26.3702 4.69L22.9102 4.67001V18.18Z" stroke="black" stroke-width="2" stroke-miterlimit="10"/>
<path d="M2.4 1H21.51C22.28 1 22.91 1.62999 22.91 2.39999V18.18H1V2.39999C1 1.62999 1.63 1 2.4 1Z" stroke="black" stroke-width="2" stroke-miterlimit="10"/>
<path d="M6.38078 22.9601C7.6676 22.9601 8.71078 21.9169 8.71078 20.63C8.71078 19.3432 7.6676 18.3 6.38078 18.3C5.09396 18.3 4.05078 19.3432 4.05078 20.63C4.05078 21.9169 5.09396 22.9601 6.38078 22.9601Z" stroke="black" stroke-width="2" stroke-miterlimit="10"/>
<path d="M26.2089 22.9601C27.4957 22.9601 28.5389 21.9169 28.5389 20.63C28.5389 19.3432 27.4957 18.3 26.2089 18.3C24.9221 18.3 23.8789 19.3432 23.8789 20.63C23.8789 21.9169 24.9221 22.9601 26.2089 22.9601Z" stroke="black" stroke-width="2" stroke-miterlimit="10"/>
</svg>
