<svg width="45" height="44" viewBox="0 0 45 44" fill="none" xmlns="http://www.w3.org/2000/svg">
<path d="M17.8389 16.99L10.4789 21.19C10.0989 21.41 10.0889 22.03 10.4589 22.27L17.4589 26.61" stroke="black" stroke-width="2" stroke-miterlimit="10"/>
<path d="M27.6172 26.6097L34.9772 22.4097C35.3572 22.1897 35.3672 21.5697 34.9972 21.3297L27.9972 16.9897" stroke="black" stroke-width="2" stroke-miterlimit="10"/>
<path d="M24.4408 13.73L21.5508 29.4" stroke="black" stroke-width="2" stroke-miterlimit="10"/>
<path d="M43.3088 26.6299V17.5299H38.5387C38.1887 16.3099 37.7087 15.1399 37.1087 14.0499L40.4788 10.6799L34.0387 4.23992L30.6687 7.60992C29.5787 6.99992 28.4187 6.52992 27.1887 6.17992V1.41992H18.0887V6.18992C16.8687 6.53992 15.6988 7.01992 14.6088 7.61992L11.2388 4.24992L4.79875 10.6899L8.16875 14.0599C7.55875 15.1499 7.08875 16.3099 6.73875 17.5399H1.96875V26.6399H6.73875C7.08875 27.8599 7.56875 29.0299 8.16875 30.1199L4.79875 33.4899L11.2388 39.9299L14.6088 36.5599C15.6988 37.1699 16.8587 37.6399 18.0887 37.9899V42.7599H27.1887V37.9899C28.4087 37.6399 29.5787 37.1599 30.6687 36.5599L34.0387 39.9299L40.4788 33.4899L37.1087 30.1199C37.7187 29.0299 38.1887 27.8699 38.5387 26.6399H43.3088V26.6299Z" stroke="black" stroke-width="2" stroke-miterlimit="10" stroke-linecap="round"/>
</svg>
