<svg id="Layer_3" data-name="Layer 3" xmlns="http://www.w3.org/2000/svg" viewBox="0 0 35 25"><defs><style>.cls-1{fill:none;stroke:#433f22;stroke-miterlimit:10;stroke-width:1.2px;}.cls-2{fill:#433f22;}</style></defs><title>small_icons_3</title><line class="cls-1" x1="0.7" y1="5.92" x2="33.53" y2="5.92"/><path class="cls-1" d="M0.7,10.84H33.53V22.06A1.54,1.54,0,0,1,32,23.6H2.24A1.54,1.54,0,0,1,.7,22.06V2.35A1.54,1.54,0,0,1,2.24.81H32a1.54,1.54,0,0,1,1.54,1.54V7.63"/><circle class="cls-1" cx="28.54" cy="18.18" r="2.65"/><path class="cls-2" d="M25.88,18.18a2.64,2.64,0,0,1,.94-2,3.15,3.15,0,1,0,0,4A2.64,2.64,0,0,1,25.88,18.18Z"/></svg>
