<svg xmlns="http://www.w3.org/2000/svg" width="56" height="56" viewBox="0 0 56 56">
  <metadata><?xpacket begin="﻿" id="W5M0MpCehiHzreSzNTczkc9d"?>
<x:xmpmeta xmlns:x="adobe:ns:meta/" x:xmptk="Adobe XMP Core 5.6-c138 79.159824, 2016/09/14-01:09:01        ">
   <rdf:RDF xmlns:rdf="http://www.w3.org/1999/02/22-rdf-syntax-ns#">
      <rdf:Description rdf:about=""/>
   </rdf:RDF>
</x:xmpmeta>
                                                                                                    
                                                                                                    
                                                                                                    
                                                                                                    
                                                                                                    
                                                                                                    
                                                                                                    
                                                                                                    
                                                                                                    
                                                                                                    
                                                                                                    
                                                                                                    
                                                                                                    
                                                                                                    
                                                                                                    
                                                                                                    
                                                                                                    
                                                                                                    
                                                                                                    
                                                                                                    
                           
<?xpacket end="w"?></metadata>
<defs>
    <style>
      .cls-1 {
        fill: #1176e8;
        fill-rule: evenodd;
      }
    </style>
  </defs>
  <path id="fa-wordpress" class="cls-1" d="M622.72,3077.47a24.936,24.936,0,0,0,10.315,9.2l-12.018-32.91a24.839,24.839,0,0,0-2.194,10.25A24.47,24.47,0,0,0,622.72,3077.47Zm36.218-21.68q-0.1-.165-0.459-0.75c-0.24-.4-0.4-0.66-0.474-0.79s-0.213-.36-0.41-0.69a5.7,5.7,0,0,1-.393-0.74c-0.065-.16-0.164-0.39-0.295-0.68a4.035,4.035,0,0,1-.262-0.76c-0.044-.2-0.087-0.44-0.131-0.7a4.8,4.8,0,0,1-.065-0.79,4.46,4.46,0,0,1,1.212-3.12,3.9,3.9,0,0,1,3.012-1.33H661a25.312,25.312,0,0,0-7.81-4.88,25.219,25.219,0,0,0-21.22,1.33,25.066,25.066,0,0,0-8.989,8.3c0.218,0,.5,0,0.851.02s0.6,0.01.753,0.01l6.713-.33a0.978,0.978,0,0,1,.934.45,1.011,1.011,0,0,1,.081,1.01,0.979,0.979,0,0,1-.851.61c-0.917.11-1.878,0.19-2.882,0.26l9.17,27.25,5.5-16.51-3.93-10.74-2.619-.26a1.036,1.036,0,0,1-.639-0.26,0.965,0.965,0,0,1-.295-0.54,1.3,1.3,0,0,1,.049-0.61,0.95,0.95,0,0,1,.377-0.49,1,1,0,0,1,.671-0.17q4.159,0.3,6.615.33l6.713-.33a0.978,0.978,0,0,1,.934.45,1.014,1.014,0,0,1,.082,1.01,0.983,0.983,0,0,1-.852.61c-0.917.11-1.878,0.19-2.882,0.26l9.1,27.05,2.489-8.38c0.087-.29.278-0.92,0.573-1.9s0.485-1.63.573-1.94,0.213-.78.376-1.44a14.26,14.26,0,0,0,.328-1.62,9.872,9.872,0,0,0,.082-1.26,13.62,13.62,0,0,0-2.063-6.94h0ZM636.9,3088.14a24.193,24.193,0,0,0,7.106,1.05,25.189,25.189,0,0,0,8.351-1.44,0.766,0.766,0,0,1-.164-0.36l-7.761-21.19Zm29.374-33.63a28.848,28.848,0,0,1-1.932,9.04l-7.7,22.2a25.05,25.05,0,0,0,9.137-9.12,24.409,24.409,0,0,0,3.4-12.62,24.875,24.875,0,0,0-3.11-12.09,16.409,16.409,0,0,1,.2,2.59h0ZM624.21,3083.8a28.239,28.239,0,0,1-5.977-8.94,27.58,27.58,0,0,1,0-21.71,27.556,27.556,0,0,1,14.917-14.91,27.537,27.537,0,0,1,21.711,0,27.55,27.55,0,0,1,14.916,14.91,27.569,27.569,0,0,1,0,21.71,27.611,27.611,0,0,1-14.916,14.92,27.537,27.537,0,0,1-21.711,0A28.141,28.141,0,0,1,624.21,3083.8Z" transform="translate(-616 -3036)"/>
</svg>
