<svg id="Layer_3" data-name="Layer 3" xmlns="http://www.w3.org/2000/svg" viewBox="0 0 35 36"><defs><style>.cls-1{fill:none;stroke:#433f22;stroke-miterlimit:10;stroke-width:1.2px;}</style></defs><title>small_icons_4</title><path class="cls-1" d="M22.25,24.81s-2.84,1.45-2.5,4.12,0.78,4.21-1.09,5.41c0,0,7.61-3.5,6.32-8.94"/><polyline class="cls-1" points="33.49 2 25.64 23.86 23.07 22.68 24.82 18.87 29.98 6.36 25.13 6.03 20.57 4.37 4.49 9.32 1.27 30.78 19.2 34.07"/><path class="cls-1" d="M14.75,13l-1.08,3.32a2.72,2.72,0,0,0-2.32-.59c-1.62.18-2.11,1.47-.9,2.47s4.23,2.4,3.09,5.82-5.38,4-8.22,1.24L6,22.89a5,5,0,0,0,2.68,1.26c1.47,0.1,1.55-1.74.41-2.5S6,19.3,6.86,16.68,10.29,11.65,14.75,13Z"/><path class="cls-1" d="M7.31,8.45S8.55,1.9,12,.85s4,4.75,4,4.75"/><path class="cls-1" d="M11.49,7.17S12.09,3,15,2.14,19.2,4.79,19.2,4.79"/></svg>
