<?xml version="1.0" encoding="utf-8"?>
<!-- Generator: Adobe Illustrator 19.2.0, SVG Export Plug-In . SVG Version: 6.00 Build 0)  -->
<svg version="1.1" xmlns="http://www.w3.org/2000/svg" xmlns:xlink="http://www.w3.org/1999/xlink" x="0px" y="0px"
	 viewBox="0 0 51 72" style="enable-background:new 0 0 51 71.3;" xml:space="preserve">
<style type="text/css">
	.st0{fill:none;stroke:#353535;stroke-width:2;stroke-miterlimit:10;}
	.st1{fill:#CCECF6;}
	.st2{fill:#F7D4D1;}
	.st3{fill:#FAEB8B;}
	.st4{fill:none;stroke:#353535;stroke-width:2;stroke-miterlimit:10;}
	.st5{fill:none;stroke:#0C9FD2;stroke-width:2;stroke-miterlimit:10;}
	.st6{fill:#FFE36C;}
	.st7{opacity:0.3;fill:#009FD1;}
	.st8{opacity:0.3;}
	.st9{fill:#D63227;}
	.st10{fill:#EEEDED;}
	.st11{fill:#009FD1;}
	.st12{opacity:0.7;fill:#D63227;}
	.st13{fill:none;stroke:#FFFFFF;stroke-width:2;stroke-miterlimit:10;}
	.st14{opacity:0.3;fill:#D63227;}
	.st15{opacity:0.3;fill:#B2D235;}
	.st16{fill:#FFFFFF;stroke:#353535;stroke-width:2;stroke-miterlimit:10;}
</style>
<g id="Layer_1">
	<circle class="st0" cx="25.5" cy="22.1" r="12.9"/>
	<path class="st0" d="M33.5,25.4c-1.3,3.2-4.4,5.4-8,5.4c-4.8,0-8.7-3.9-8.7-8.7s3.9-8.7,8.7-8.7c3.8,0,7,2.4,8.2,5.8"/>
	<g>
		<polyline class="st0" points="38.5,37.5 48.9,65.4 42.9,63.9 39.2,68.9 28.6,41.7 		"/>
		<line class="st0" x1="42.2" y1="62.1" x2="33.8" y2="39.2"/>
	</g>
	<g>
		<path class="st0" d="M20.6,41L20.6,41c2.7,2.7,7.1,2.7,9.8,0l0,0c1.3-1.3,3.1-2,4.9-2h0c3.8,0,6.9-3.1,6.9-6.9v0
			c0-1.8,0.7-3.6,2-4.9l0,0c2.7-2.7,2.7-7.1,0-9.8l0,0c-1.3-1.3-2-3.1-2-4.9v0c0-3.8-3.1-6.9-6.9-6.9h0c-1.8,0-3.6-0.7-4.9-2l0,0
			c-2.7-2.7-7.1-2.7-9.8,0l0,0c-1.3,1.3-3.1,2-4.9,2h0c-3.8,0-6.9,3.1-6.9,6.9v0c0,1.8-0.7,3.6-2,4.9l0,0C4,20,4,24.4,6.7,27.1l0,0
			c1.3,1.3,2,3.1,2,4.9v0c0,2.5,1.4,4.8,3.4,6L2,65.4l6.1-1.5l3.7,5.1l10.6-27.3"/>
		<path class="st0" d="M9.3,61.7l8.8-22.2c0,0,1.2,0.1,2.4,1.4"/>
	</g>
</g>
<g id="Layer_2">
</g>
</svg>
