<svg width="30" height="31" viewBox="0 0 30 31" fill="none" xmlns="http://www.w3.org/2000/svg">
<path d="M5.51172 19.78V10.06C5.51172 5.06 9.56172 1 14.5717 1C19.5717 1 23.6317 5.05 23.6317 10.06V19.78C23.6317 24.56 20.0717 28.34 14.7417 28.34" stroke="black" stroke-width="2" stroke-miterlimit="10"/>
<path d="M4.21 10.78H5.5V19.78H4.21C2.44 19.78 1 18.34 1 16.57V13.99C1 12.22 2.44 10.78 4.21 10.78Z" stroke="black" stroke-width="2" stroke-miterlimit="10"/>
<path d="M24.9111 19.77H23.6211V10.77H24.9111C26.6811 10.77 28.1211 12.21 28.1211 13.98V16.56C28.1211 18.33 26.6811 19.77 24.9111 19.77Z" stroke="black" stroke-width="2" stroke-miterlimit="10"/>
<path d="M16.8758 26.1896L13.6475 26.874C12.6859 27.0779 12.0715 28.0228 12.2754 28.9845C12.4793 29.9462 13.4242 30.5605 14.3859 30.3566L17.6141 29.6722C18.5758 29.4683 19.1901 28.5234 18.9863 27.5617C18.7824 26.6 17.8375 25.9857 16.8758 26.1896Z" fill="black"/>
</svg>
