<svg id="icon" xmlns="http://www.w3.org/2000/svg" viewBox="0 0 41.71 30.75"><title>1</title><path d="M35.84,20.1V1.8A1.15,1.15,0,0,0,34.75.6H1.69A1.15,1.15,0,0,0,.6,1.8V23.9a1.15,1.15,0,0,0,1.09,1.2H30.93" style="fill:none;stroke:#433f22;stroke-miterlimit:10;stroke-width:1.2000000000000002px"/><polygon points="39.09 29.92 40.86 28.28 27.01 13.56 24.72 15.85 39.09 29.92" style="fill:none;stroke:#433f22;stroke-miterlimit:10;stroke-width:1.2000000000000002px"/><line x1="7.33" y1="0.6" x2="7.33" y2="24.66" style="fill:none;stroke:#433f22;stroke-miterlimit:10;stroke-width:1.2000000000000002px"/><circle cx="4.14" cy="12.91" r="1.42" style="fill:none;stroke:#433f22;stroke-miterlimit:10;stroke-width:1.2000000000000002px"/><line x1="2.47" y1="8.02" x2="5.37" y2="8.02" style="fill:none;stroke:#433f22;stroke-miterlimit:10;stroke-width:1.2000000000000002px"/><line x1="2.47" y1="4.52" x2="5.37" y2="4.52" style="fill:none;stroke:#433f22;stroke-miterlimit:10;stroke-width:1.2000000000000002px"/><line x1="2.47" y1="21.21" x2="5.37" y2="21.21" style="fill:none;stroke:#433f22;stroke-miterlimit:10;stroke-width:1.2000000000000002px"/><line x1="2.47" y1="17.71" x2="5.37" y2="17.71" style="fill:none;stroke:#433f22;stroke-miterlimit:10;stroke-width:1.2000000000000002px"/><path d="M26.67,13.64l-3.91-2.59a0.24,0.24,0,0,0-.34.33l2.5,4.11" style="fill:none;stroke:#433f22;stroke-miterlimit:10;stroke-width:1.2000000000000002px"/><path d="M11.25,3.64s6.66-1.37,4.38,1.63-5.28,8,.5,4.91,9.5-3.47,6.69.61" style="fill:none;stroke:#433f22;stroke-miterlimit:10;stroke-width:1.2000000000000002px"/></svg>