<svg id="Layer_3" data-name="Layer 3" xmlns="http://www.w3.org/2000/svg" viewBox="0 0 39 40"><defs><style>.cls-1{fill:none;stroke:#433f22;stroke-miterlimit:10;stroke-width:1.2px;}</style></defs><title>small_icons_1</title><polyline class="cls-1" points="30.62 5.81 22.95 26.55 17.81 14.47"/><path class="cls-1" d="M30,13a13.19,13.19,0,0,1,2,4.9l5.29,0.29V22.7L32,23a13.19,13.19,0,0,1-2,4.9l3.53,3.94L30.35,35l-3.94-3.53a13.19,13.19,0,0,1-4.9,2l-0.29,5.29H16.75l-0.29-5.29a13.19,13.19,0,0,1-4.9-2L7.62,35,4.46,31.83,8,27.89A13.2,13.2,0,0,1,6,23L0.68,22.7V18.23L6,17.94A13.2,13.2,0,0,1,8,13L4.46,9.1,7.62,5.94l3.94,3.53a13.2,13.2,0,0,1,4.9-2l0.29-5.29h4.47l0.29,5.29a13.2,13.2,0,0,1,4.9,2"/><polyline class="cls-1" points="10.51 14.47 15.46 26.18 19.4 18.4"/></svg>
