<svg id="Layer_1" data-name="Layer 1" xmlns="http://www.w3.org/2000/svg" xmlns:xlink="http://www.w3.org/1999/xlink" viewBox="0 0 74 88"><defs><style>.cls-1,.cls-3,.cls-4,.cls-5,.cls-6{fill:none;}.cls-2{clip-path:url(#clip-path);}.cls-3{stroke:#d73227;}.cls-3,.cls-4,.cls-5,.cls-6{stroke-linecap:round;stroke-miterlimit:10;}.cls-3,.cls-4,.cls-5{stroke-width:2px;}.cls-4{stroke:#000;}.cls-5,.cls-6{stroke:#00a0d2;}.cls-6{stroke-width:3px;}</style><clipPath id="clip-path" transform="translate(0 0)"><rect class="cls-1" width="74" height="87.67"/></clipPath></defs><title>psd-to-email-1</title><g class="cls-2"><rect class="cls-3" x="18" y="1" width="22" height="9" rx="2.83" ry="2.83"/><path class="cls-4" d="M43,78H6.6A5.62,5.62,0,0,1,1,72.4V11.6A5.62,5.62,0,0,1,6.6,6H14" transform="translate(0 0)"/><path class="cls-4" d="M46,20h6.4A5.62,5.62,0,0,1,58,25.6V55" transform="translate(0 0)"/><line class="cls-4" x1="18" y1="20" x2="45" y2="20"/><line class="cls-4" x1="18" y1="31" x2="45" y2="31"/><line class="cls-4" x1="9" y1="31" x2="12" y2="31"/><line class="cls-4" x1="9" y1="42" x2="12" y2="42"/><line class="cls-4" x1="9" y1="53" x2="12" y2="53"/><line class="cls-4" x1="9" y1="63" x2="12" y2="63"/><line class="cls-4" x1="9" y1="20" x2="12" y2="20"/><line class="cls-4" x1="18" y1="42" x2="45" y2="42"/><line class="cls-4" x1="18" y1="53" x2="45" y2="53"/><line class="cls-4" x1="18" y1="63" x2="31" y2="63"/><path class="cls-5" d="M73,71.5a15.16,15.16,0,1,1-6.29-12.3" transform="translate(0 0)"/><line class="cls-6" x1="58.61" y1="76.36" x2="72.48" y2="62.48"/><line class="cls-6" x1="58.26" y1="76.12" x2="50.79" y2="68.65"/></g></svg>
