<svg xmlns="http://www.w3.org/2000/svg" width="12" height="11" viewBox="0 0 12 11">
  <metadata><?xpacket begin="﻿" id="W5M0MpCehiHzreSzNTczkc9d"?>
<x:xmpmeta xmlns:x="adobe:ns:meta/" x:xmptk="Adobe XMP Core 5.6-c138 79.159824, 2016/09/14-01:09:01        ">
   <rdf:RDF xmlns:rdf="http://www.w3.org/1999/02/22-rdf-syntax-ns#">
      <rdf:Description rdf:about=""/>
   </rdf:RDF>
</x:xmpmeta>





















<?xpacket end="w"?></metadata>
<defs>
    <style>
      .cls-1 {
        fill-rule: evenodd;
        opacity: 0.6;
      }
    </style>
  </defs>
  <path id="fa-heart" class="cls-1" d="M1383.79,2143.74l4.18-4.02a4.384,4.384,0,0,0,1.53-3.02,3.064,3.064,0,0,0-.85-2.3,3.24,3.24,0,0,0-2.35-.83,2.584,2.584,0,0,0-.85.15,3.267,3.267,0,0,0-.8.38c-0.25.17-.46,0.32-0.64,0.46s-0.35.3-.51,0.46c-0.16-.16-0.33-0.31-0.51-0.46s-0.39-.29-0.64-0.46a3.267,3.267,0,0,0-.8-0.38,2.584,2.584,0,0,0-.85-0.15,3.24,3.24,0,0,0-2.35.83,3.064,3.064,0,0,0-.85,2.3,2.844,2.844,0,0,0,.16.93,3.4,3.4,0,0,0,.36.81,5.406,5.406,0,0,0,.45.65c0.17,0.21.29,0.36,0.37,0.44s0.14,0.14.19,0.18l4.18,4.03a0.41,0.41,0,0,0,.58,0h0Z" transform="translate(-1377.5 -2133.56)"/>
</svg>
