<svg xmlns="http://www.w3.org/2000/svg" data-name="Layer 1" width="100" height="100"><rect id="backgroundrect" width="100%" height="100%" x="0" y="0" fill="none" stroke="none"/><title>mini chat</title><g class="currentLayer"><title>Layer 1</title><path d="M-0.4901960790157318,95.9414143872261 c11.57,0 22.89,0.12000000000000002 34.11,0.1 h0.08000000000000014 c7.55,0 15,-0.09000000000000022 22.54,-0.3000000000000003 c5.65,-0.16000000000000034 11.56,-2 16.8,-4.36 C89.35980392098426,84.1614143872261 98.32980392098426,69.92141438722611 99.10980392098426,55.291414387226105 q0.27,-1.92 0.3600000000000003,-3.8600000000000003 c1.18,-25.51 -21.45,-48 -48,-48 A48,48 0 0 0 10.609803920984268,76.7214143872261 a5.9,5.9 0 0 1 -0.6500000000000012,2.13 C6.739803920984269,84.4614143872261 3.2398039209842686,89.90141438722611 -0.4901960790157318,95.9414143872261 zm72.33,-52 A5.75,5.75 0 1 1 66.06980392098427,49.721414387226105 A5.73,5.73 0 0 1 71.83980392098427,43.971414387226105 zM51.50980392098427,43.971414387226105 A5.75,5.75 0 1 1 45.75980392098427,49.721414387226105 A5.76,5.76 0 0 1 51.50980392098427,43.971414387226105 zm-20.24,0 A5.75,5.75 0 1 1 25.509803920984268,49.721414387226105 A5.74,5.74 0 0 1 31.279803920984264,43.971414387226105 z" id="svg_1" class=""/></g></svg>