<svg width="31" height="32" viewBox="0 0 31 32" fill="none" xmlns="http://www.w3.org/2000/svg">
<path d="M25.2576 2.88382C25.0258 1.84342 23.9945 1.18792 22.9541 1.41972C21.9137 1.65151 21.2582 2.68282 21.49 3.72322L25.4413 21.4584C25.6731 22.4988 26.7044 23.1543 27.7448 22.9225C28.7852 22.6907 29.4407 21.6594 29.2089 20.619L25.2576 2.88382Z" stroke="black" stroke-width="2" stroke-miterlimit="10"/>
<path d="M4.81935 11.3207L7.88421 10.6378C8.9286 10.4052 9.96698 11.0652 10.1997 12.1095L11.661 18.6687C11.8937 19.7131 11.2337 20.7515 10.1893 20.9842L7.12445 21.667C6.08006 21.8997 5.04169 21.2397 4.809 20.1953L3.34766 13.6361C3.11497 12.5917 3.77496 11.5534 4.81935 11.3207Z" stroke="black" stroke-width="2" stroke-miterlimit="10"/>
<path d="M12.2695 18.8708C12.2695 18.8708 21.2795 17.7208 25.4495 21.5608" stroke="black" stroke-width="2" stroke-miterlimit="10"/>
<path d="M10.7617 12.1108C10.7617 12.1108 19.4117 9.33081 21.5517 4.08081" stroke="black" stroke-width="2" stroke-miterlimit="10"/>
<path d="M4.37056 20.0508C2.94056 20.3708 1.47056 19.2508 1.09056 17.5508C0.710563 15.8508 1.56056 14.2108 3.00056 13.8908" stroke="black" stroke-width="2" stroke-miterlimit="10"/>
<path d="M6.94141 22.0508L10.2514 29.2708C10.6414 30.1108 11.5614 30.5708 12.4714 30.3708C13.6914 30.1008 14.3514 28.7708 13.8314 27.6308L10.8314 21.0408" stroke="black" stroke-width="2" stroke-miterlimit="10"/>
</svg>
