<?xml version="1.0" encoding="utf-8"?>
<!-- Generator: Adobe Illustrator 24.0.2, SVG Export Plug-In . SVG Version: 6.00 Build 0)  -->
<svg version="1.1" xmlns="http://www.w3.org/2000/svg" xmlns:xlink="http://www.w3.org/1999/xlink" x="0px" y="0px"
	 viewBox="0 0 250.75 250.75" style="enable-background:new 0 0 250.75 250.75;" xml:space="preserve">
<style type="text/css">
	.st0{display:none;}
	.st1{display:inline;fill:#E4422B;}
	.st2{fill:#E5422B;}
</style>
<g id="Layer_2" class="st0">
	
		<image style="display:inline;overflow:visible;" width="1920" height="9407" xlink:href="49805AE.html"  transform="matrix(1 0 0 1 -1299.7476 -2719.9956)">
	</image>
	
		<image style="display:inline;overflow:visible;" width="1920" height="14468" xlink:href="49805B2.html"  transform="matrix(1 0 0 1 -4501.9141 -2675.9956)">
	</image>
	<rect x="-4193.91" y="310" class="st1" width="1257.33" height="186"/>
</g>
<g id="Layer_1">
	<g>
		<g>
			<g>
				<path class="st2" d="M224.36,0H26.4C11.73,0,0,11.73,0,26.4v197.96c0,14.66,11.73,26.39,26.4,26.39h197.96
					c14.37,0,26.39-11.73,26.39-26.39V26.4C250.75,11.73,239.02,0,224.36,0z M124.84,158.56c10.01,0,20.73-3.93,31.09-13.22
					l14.3,16.44c-15.01,12.15-32.16,18.94-49.31,18.94c-33.95,0-55.39-22.51-50.39-54.32c5-31.8,33.95-54.32,67.9-54.32
					c16.44,0,31.8,6.43,42.52,18.22l-20.01,16.44c-5.72-7.51-15.37-12.51-26.09-12.51c-20.37,0-36.09,13.22-39.31,32.16
					C92.68,145.34,104.12,158.56,124.84,158.56z"/>
			</g>
		</g>
	</g>
</g>
</svg>
