<?xml version="1.0" encoding="utf-8"?>
<!-- Generator: Adobe Illustrator 19.2.0, SVG Export Plug-In . SVG Version: 6.00 Build 0)  -->
<svg version="1.1" xmlns="http://www.w3.org/2000/svg" xmlns:xlink="http://www.w3.org/1999/xlink" x="0px" y="0px"
	 viewBox="0 0 96 31" style="enable-background:new 0 0 95.7 30.4;" xml:space="preserve">
<style type="text/css">
	.st0{fill:none;stroke:#353535;stroke-width:2;stroke-miterlimit:10;}
	.st1{fill:#CCECF6;}
	.st2{fill:#F7D4D1;}
	.st3{fill:#FAEB8B;}
	.st4{fill:none;stroke:#353535;stroke-width:2;stroke-miterlimit:10;}
	.st5{fill:none;stroke:#0C9FD2;stroke-width:2;stroke-miterlimit:10;}
	.st6{fill:#FFE36C;}
	.st7{opacity:0.3;fill:#009FD1;}
	.st8{opacity:0.3;}
	.st9{fill:#D63227;}
	.st10{fill:#EEEDED;}
	.st11{fill:#009FD1;}
	.st12{opacity:0.7;fill:#D63227;}
	.st13{fill:none;stroke:#FFFFFF;stroke-width:2;stroke-miterlimit:10;}
	.st14{opacity:0.3;fill:#D63227;}
	.st15{opacity:0.3;fill:#B2D235;}
	.st16{fill:#FFFFFF;stroke:#353535;stroke-width:2;stroke-miterlimit:10;}
</style>
<g id="Layer_1">
	<g>
		<g>
			<path class="st0" d="M88.1,28.9L64,29c-1.1,0-1.9-0.9-1.9-1.9L62,3.7c0-1.1,0.9-1.9,1.9-1.9L88,1.7L88.1,28.9z"/>
			<path class="st0" d="M62.1,25.3l-20.8,0.1c-1.1,0-1.9-0.9-1.9-1.9l-0.1-16c0-1.1,0.9-1.9,1.9-1.9L62,5.4L62.1,25.3z"/>

				<rect x="11.9" y="10.2" transform="matrix(1 -3.508095e-003 3.508095e-003 1 -5.423786e-002 8.991714e-002)" class="st0" width="27.4" height="10.6"/>
			<path class="st0" d="M12,20.7l-8.8,1.5c-0.9,0.2-1.7-0.5-1.7-1.5l0-10.6c0-0.9,0.8-1.6,1.7-1.5l8.8,1.5L12,20.7z"/>
		</g>
		<path class="st0" d="M88,1.7c0,0,11.9,9.9,2.9,25.4"/>
	</g>
</g>
<g id="Layer_2">
</g>
</svg>
