<svg xmlns="http://www.w3.org/2000/svg" viewBox="0 0 32.01 36"><g id="Layer_1" data-name="Layer 1"><g id="nav"><g id="logo"><path d="M30,36H2.06A2,2,0,0,1,0,33.94V2.06A2,2,0,0,1,2.06,0H30a2,2,0,0,1,2,2.06V33.94A2,2,0,0,1,30,36ZM2.06,1A1,1,0,0,0,1,2.06V33.94A1,1,0,0,0,2.06,35H30A1,1,0,0,0,31,33.94V2.06A1,1,0,0,0,30,1ZM6.81,32.72v-10l5.62,5Zm1-7.77V30.5l3.12-2.78Zm17.3,7.16H20.22V19.94c0-1-.63-1.54-1.93-1.54a23.65,23.65,0,0,0-8.15,2L6.71,22V3.89H11.6V14.78a23.25,23.25,0,0,1,6.79-1.17,6.83,6.83,0,0,1,5,1.9h0A5.72,5.72,0,0,1,25.11,20Zm-3.89-1h2.89l0-11.32a4.9,4.9,0,0,0-1.44-3.58h0a5.86,5.86,0,0,0-4.31-1.6,23,23,0,0,0-7.13,1.33l-.66.24V4.89H7.71V20.42l2-.93a24.21,24.21,0,0,1,8.57-2.09c2.65,0,2.93,1.78,2.93,2.54Zm.8-19.9H16.89l.61-.8A14,14,0,0,0,20.33,4.3l.07-.41h4.88l-.08.56a12.09,12.09,0,0,1-3,6.58Zm-3.14-1h2.68a11.23,11.23,0,0,0,2.57-5.32h-2.9A14.61,14.61,0,0,1,18.88,10.21Z" style="fill:#443f23"/></g></g></g></svg>