<svg id="Layer_3" data-name="Layer 3" xmlns="http://www.w3.org/2000/svg" viewBox="0 0 31 34"><defs><style>.cls-1{fill:none;stroke:#433f22;stroke-miterlimit:10;stroke-width:1.2px;}</style></defs><title>burger_all_small_icons</title><path class="cls-1" d="M18.68,6.15l-0.25-4.5H14.63l-0.25,4.5a11.23,11.23,0,0,0-4.17,1.72l-3.35-3L4.17,7.56l3,3.35a11.22,11.22,0,0,0-1.72,4.17L1,15.32v3.81l4.5,0.25a11.22,11.22,0,0,0,1.72,4.17l-3,3.35,2.69,2.69,3.35-3a11.22,11.22,0,0,0,4.17,1.72l0.25,4.5h3.81l0.25-4.5a11.22,11.22,0,0,0,4.17-1.72l3.35,3,2.69-2.69-3-3.35a8.24,8.24,0,0,0,1.4-3.59c0.6-3.61-2.57-11.06-10.13-10.81-7.72.26-9.85,10.38-5.07,13.51,4,2.65,9.34,1.08,9.9-3.76,0.47-4.07-4.71-6.64-7.34-3.78-1.59,1.73-1.2,4,1.16,4.66"/></svg>
