<svg xmlns="http://www.w3.org/2000/svg" viewBox="0 0 39.94 39.71"><g id="Layer_1" data-name="Layer 1"><path d="M12.46,34.15l-10.56,0A1.9,1.9,0,0,1,0,32.21V1.86A1.84,1.84,0,0,1,1.48,0h14a1.86,1.86,0,0,1,1.5,1.86V4.49H35A1.92,1.92,0,0,1,36.91,6.4V19.82h-1V6.4A.91.91,0,0,0,35,5.49H15.93V1.86A1,1,0,0,0,15.41,1H1.48A1.07,1.07,0,0,0,1,1.86V32.21a.9.9,0,0,0,.91.9l10.56,0Z" style="fill:#443f23"/><path d="M38.06,39.71h0l-24.65,0A1.46,1.46,0,0,1,12,38.23V17.6a1.4,1.4,0,0,1,1.17-1.42H22.6a1.4,1.4,0,0,1,1.17,1.42v1.63H38.49a1.45,1.45,0,0,1,1.45,1.46V37.83a1.87,1.87,0,0,1-.55,1.34A1.89,1.89,0,0,1,38.06,39.71ZM22.53,17.17H13.12a.84.84,0,0,0-.17.42V38.23a.46.46,0,0,0,.45.46l24.65,0a.72.72,0,0,0,.63-.25.88.88,0,0,0,.26-.63V20.69a.46.46,0,0,0-.45-.46H22.77V17.6A.53.53,0,0,0,22.53,17.17Z" style="fill:#443f23"/><path d="M7.13,8.71A1.74,1.74,0,0,1,7.55,10a1.77,1.77,0,0,1-.42,1.27,1.54,1.54,0,0,1-1.19.45H5.21v2H4.58V8.26H5.94A1.54,1.54,0,0,1,7.13,8.71Zm-.46,2.11A1.29,1.29,0,0,0,6.91,10c0-.74-.32-1.11-1-1.11H5.21v2.23h.73A.92.92,0,0,0,6.67,10.82Z" style="fill:#443f23"/><path d="M10.37,12.48H8.81l-.29,1.17H7.86L9.25,8.26h.68l1.39,5.39h-.66Zm-.14-.58-.44-1.83c-.07-.29-.13-.63-.19-1h0c-.06.38-.12.72-.19,1L9,11.9Z" style="fill:#443f23"/><path d="M12.42,13.3A1.73,1.73,0,0,1,12,12.08V9.83a1.69,1.69,0,0,1,.4-1.22,1.44,1.44,0,0,1,1.11-.43,1.49,1.49,0,0,1,1.1.41,1.73,1.73,0,0,1,.43,1.18h-.62c0-.66-.33-1-.91-1a.83.83,0,0,0-.65.26,1.16,1.16,0,0,0-.23.8v2.24a1.17,1.17,0,0,0,.24.79.87.87,0,0,0,.67.27.9.9,0,0,0,.68-.26,1,1,0,0,0,.25-.75v-.82h-.94v-.56h1.55v1.38a1.61,1.61,0,0,1-.42,1.18,1.48,1.48,0,0,1-1.12.43A1.51,1.51,0,0,1,12.42,13.3Z" style="fill:#443f23"/><path d="M18.91,13.06v.59H16.25V8.26h2.58v.59H16.88v1.78h1.81v.58H16.88v1.85Z" style="fill:#443f23"/><rect x="2.11" y="4.49" width="14.31" height="1" style="fill:#443f23"/></g></svg>