<svg width="25" height="32" viewBox="0 0 25 32" fill="none" xmlns="http://www.w3.org/2000/svg">
<path d="M22.6277 14.0467V10.3709C22.6277 10.1128 22.4265 9.90807 22.1728 9.90807H20.5895C20.3971 9.90807 20.2221 9.77456 20.1609 9.58765C20.0297 9.19604 19.881 8.81333 19.6973 8.44842C19.6098 8.27041 19.6361 8.0568 19.776 7.9144L20.8957 6.77516C21.0706 6.59715 21.0706 6.30344 20.8957 6.12544L18.3415 3.52655C18.1665 3.34854 17.8779 3.34854 17.7029 3.52655L16.5832 4.66578C16.4433 4.80819 16.2334 4.83489 16.0584 4.74588C15.6998 4.55898 15.3236 4.40767 14.9387 4.27417C14.7551 4.21187 14.6238 4.04276 14.6238 3.83806V2.2271C14.6238 1.96899 14.4227 1.76428 14.169 1.76428H10.5563C10.3027 1.76428 10.1015 1.96899 10.1015 2.2271V3.83806C10.1015 4.03386 9.97026 4.21187 9.78656 4.27417C9.40168 4.40767 9.02555 4.55898 8.66691 4.74588C8.49196 4.83489 8.28202 4.80819 8.14207 4.66578L7.02241 3.52655C6.84746 3.34854 6.5588 3.34854 6.38385 3.52655L3.82963 6.12544C3.65468 6.30344 3.65468 6.59715 3.82963 6.77516L4.94929 7.9144C5.08925 8.0568 5.11549 8.27041 5.02801 8.44842C4.84432 8.81333 4.69561 9.19604 4.5644 9.58765C4.50317 9.77456 4.33697 9.90807 4.13579 9.90807H2.55252C2.29885 9.90807 2.09766 10.1128 2.09766 10.3709V14.0467C2.09766 14.3048 2.29885 14.5095 2.55252 14.5095H4.13579C4.32823 14.5095 4.50317 14.643 4.5644 14.8299C4.69561 15.2216 4.84432 15.6043 5.02801 15.9692C5.11549 16.1472 5.08925 16.3608 4.94929 16.5032L3.82963 17.6424C3.65468 17.8204 3.65468 18.1141 3.82963 18.2922L6.38385 20.8911C6.5588 21.0691 6.84746 21.0691 7.02241 20.8911L8.14207 19.7518C8.28202 19.6094 8.49196 19.5827 8.66691 19.6717C9.02555 19.8586 9.40168 20.0099 9.78656 20.1434C9.97026 20.2057 10.1015 20.3748 10.1015 20.5795V22.1905C10.1015 22.4486 10.3027 22.6533 10.5563 22.6533H14.169C14.4227 22.6533 14.6238 22.4486 14.6238 22.1905V20.5795C14.6238 20.3837 14.7551 20.2057 14.9387 20.1434C15.3236 20.0099 15.6998 19.8586 16.0584 19.6717C16.2334 19.5827 16.4433 19.6094 16.5832 19.7518L17.7029 20.8911C17.8779 21.0691 18.1665 21.0691 18.3415 20.8911L20.8957 18.2922C21.0706 18.1141 21.0706 17.8204 20.8957 17.6424L19.776 16.5032C19.6361 16.3608 19.6098 16.1472 19.6973 15.9692C19.881 15.6043 20.0297 15.2216 20.1609 14.8299C20.2221 14.643 20.3883 14.5095 20.5895 14.5095H22.1728C22.4265 14.5095 22.6277 14.3048 22.6277 14.0467Z" stroke="black" stroke-width="2" stroke-miterlimit="10" stroke-linecap="round"/>
<path d="M11.37 23.0359L7.68737 29.3818L5.7717 25.973L2.13281 26.1421L5.46555 20.1433" stroke="black" stroke-width="2" stroke-miterlimit="10" stroke-linecap="round"/>
<path d="M13.2148 23.4011L16.8975 29.756L18.8131 26.3471L22.452 26.5163L19.1193 20.5085" stroke="black" stroke-width="2" stroke-miterlimit="10" stroke-linecap="round"/>
</svg>
