<svg xmlns="http://www.w3.org/2000/svg" viewBox="0 0 95 67"><defs><style>.cls-1,.cls-2,.cls-3{fill:none;stroke:#fff;stroke-miterlimit:10;}.cls-1{stroke-width:2px;}.cls-2{stroke-width:1.5px;}</style></defs><title>Asset 7</title><g id="Layer_2" data-name="Layer 2"><g id="Layer_1-2" data-name="Layer 1"><polyline class="cls-1" points="24.97 9.63 19.22 11.55 13.47 5.79 5.79 13.47 11.55 19.22 9.63 24.97 1 24.97 1 36.48 9.63 36.48 11.55 42.23 5.79 47.99 13.47 55.66 19.22 49.91 24.97 51.83 24.97 60.45 30.73 60.45 36.48 60.45 36.48 51.83 42.23 49.91 47.99 55.66 55.66 47.99 49.91 42.23 51.83 36.48 60.45 36.48 60.45 24.97 51.83 24.97 49.91 19.22 55.66 13.47 47.99 5.79 42.23 11.55 36.48 9.63 36.48 1 30.73 1 24.97 1"/><path class="cls-1" d="M25,9.63"/><path class="cls-1" d="M25,1"/><circle class="cls-1" cx="30.73" cy="30.73" r="5.75"/><polyline class="cls-2" points="68.32 39.4 65.83 41.81 61.44 40.26 59.37 46.11 63.76 47.66 64.19 51.11 59.74 53.24 62.58 59.18 67.03 57.05 69.44 59.54 67.89 63.93 73.75 66 75.3 61.61 78.74 61.18 80.87 65.63 83.84 64.21 86.81 62.79 84.68 58.34 87.17 55.93 91.57 57.48 93.63 51.63 89.24 50.08 88.81 46.63 93.27 44.5 90.43 38.56 85.97 40.69 83.56 38.2 85.11 33.8 79.26 31.74 77.71 36.13 74.26 36.56 72.13 32.1 69.16 33.52 66.19 34.95"/><path class="cls-2" d="M68.32,39.4"/><path class="cls-2" d="M66.19,34.95"/><circle class="cls-2" cx="76.5" cy="48.87" r="3.29" transform="translate(-13.6 37.79) rotate(-25.56)"/><polyline class="cls-3" points="75.92 6.35 73.38 5.61 72.74 2.12 68.08 2.97 68.72 6.46 66.6 8.05 63.5 5.91 60.65 10.04 63.75 12.18 63.01 14.72 59.52 15.36 60.37 20.02 63.86 19.38 65.45 21.5 63.3 24.6 65.37 26.02 67.44 27.45 69.58 24.35 72.12 25.09 72.76 28.59 77.41 27.74 76.78 24.24 78.89 22.65 81.99 24.8 84.84 20.66 81.75 18.52 82.49 15.98 85.98 15.35 85.13 10.69 81.64 11.32 80.05 9.21 82.19 6.11 80.12 4.68 78.06 3.25"/><path class="cls-3" d="M75.92,6.35"/><path class="cls-3" d="M78.06,3.26"/><circle class="cls-3" cx="72.75" cy="15.35" r="2.51" transform="translate(18.75 66.46) rotate(-55.34)"/></g></g></svg>
