<svg id="Layer_3" data-name="Layer 3" xmlns="http://www.w3.org/2000/svg" viewBox="0 0 36 36"><defs><style>.cls-1{fill:none;stroke:#433f22;stroke-miterlimit:10;stroke-width:1.2px;}</style></defs><title>small_icons_2</title><path class="cls-1" d="M24.39,7.66A11.85,11.85,0,0,0,20,5.85L19.73,1.1h-4L15.45,5.85a11.85,11.85,0,0,0-4.4,1.82L7.52,4.5,4.68,7.34l3.17,3.54A11.85,11.85,0,0,0,6,15.27l-4.75.26v4L6,19.81a11.85,11.85,0,0,0,1.82,4.4L4.68,27.74l2.84,2.84,3.54-3.17a11.85,11.85,0,0,0,4.4,1.82L15.71,34h4L20,29.23a11.85,11.85,0,0,0,4.4-1.82l3.54,3.17,2.84-2.84L27.6,24.21a11.85,11.85,0,0,0,1.82-4.4l4.75-.26v-4l-4.75-.26a11.85,11.85,0,0,0-1.82-4.4l3.17-3.54-13.69,15L11,15.11"/></svg>
