<svg id="Layer_3" data-name="Layer 3" xmlns="http://www.w3.org/2000/svg" viewBox="0 0 38 33"><defs><style>.cls-1{fill:none;stroke:#433f22;stroke-miterlimit:10;stroke-width:1.2px;}</style></defs><title>small_icons_1</title><path class="cls-1" d="M10.39,27.54H2.64a1.21,1.21,0,0,1-1.21-1.21V2.16A1.21,1.21,0,0,1,2.64.95H22.54a1.21,1.21,0,0,1,1.21,1.21v8.42"/><line class="cls-1" x1="8.09" y1="18.59" x2="29.09" y2="18.59"/><polyline class="cls-1" points="25.55 15.13 29.01 18.59 25.55 22.04"/><polyline class="cls-1" points="9.09 13.53 5.65 10.09 9.09 6.64"/><polyline class="cls-1" points="16.63 6.64 20.07 10.09 16.63 13.53"/><line class="cls-1" x1="14.17" y1="5.53" x2="11.94" y2="14.53"/><polyline class="cls-1" points="23.75 6.64 36.2 6.64 36.2 31.71 14.18 31.71"/></svg>
