<svg id="Layer_3" data-name="Layer 3" xmlns="http://www.w3.org/2000/svg" viewBox="0 0 38 31"><defs><style>.cls-1{fill:none;stroke:#433f22;stroke-miterlimit:10;stroke-width:1.2px;}</style></defs><title>small_icons_2</title><path class="cls-1" d="M4.37,11.56V28a1.15,1.15,0,0,0,1.09,1.2H34.52A1.15,1.15,0,0,0,35.61,28V25.15H23.36"/><path class="cls-1" d="M35.61,22.24V5.86a1.15,1.15,0,0,0-1.09-1.2H8.78"/><polygon class="cls-1" points="1.9 1.24 1.07 2.06 14.8 16.85 16.6 15.05 1.9 1.24"/><path class="cls-1" d="M16,17.92a3.25,3.25,0,0,0,2.3,3c2.3,0.67,3.72.9,3.93,2.54,0,0,.3-6.2-4.62-7.17"/></svg>
