<svg id="icon" xmlns="http://www.w3.org/2000/svg" viewBox="0 0 102.82 47.04"><title>1</title><path d="M54.5,46H24.42A8.42,8.42,0,0,1,16,37.63V12.38H62.92v3.92l24-6.75,5.63-.17V13.5l-5.62.13-24,18.92,0.08,5.08A8.42,8.42,0,0,1,54.5,46Z" style="fill:none;stroke:#353535;stroke-miterlimit:10;stroke-width:2px"/><path d="M16,13.38L14.07,8.14A8.65,8.65,0,0,0,1,15.58H1a8.65,8.65,0,0,0,2.2,5.76L15.5,35.13" style="fill:none;stroke:#353535;stroke-miterlimit:10;stroke-width:2px"/><rect x="29.38" y="1" width="19.25" height="6.25" style="fill:none;stroke:#353535;stroke-miterlimit:10;stroke-width:2px"/><line x1="39.06" y1="7.31" x2="39.06" y2="12.63" style="fill:none;stroke:#353535;stroke-miterlimit:10;stroke-width:2px"/><path d="M101.32,21.59a3.41,3.41,0,1,1-6.82,0c0-1.88,3.41-7.59,3.41-7.59S101.32,19.71,101.32,21.59Z" style="fill:none;stroke:#d63227;stroke-miterlimit:10;stroke-width:3px"/><path d="M92.74,39.34a3.41,3.41,0,1,1-6.82,0c0-1.88,3.41-7.59,3.41-7.59S92.74,37.46,92.74,39.34Z" style="fill:none;stroke:#009fd1;stroke-miterlimit:10;stroke-width:3px"/></svg>