<svg xmlns="http://www.w3.org/2000/svg" xmlns:xlink="http://www.w3.org/1999/xlink" viewBox="0 0 36 36"><defs><style>.cls-1,.cls-3{fill:none;}.cls-2{clip-path:url(#clip-path);}.cls-3{stroke:#fff;stroke-miterlimit:10;stroke-width:1.67px;}</style><clipPath id="clip-path"><rect class="cls-1" width="35" height="35"/></clipPath></defs><title>service-singlepage-white</title><g id="Layer_2" data-name="Layer 2"><g id="Layer_1-2" data-name="Layer 1"><g class="cls-2"><polygon class="cls-3" points="17.5 0.83 14.28 0.83 14.28 5.67 11.05 6.75 7.83 3.52 3.52 7.83 6.75 11.05 5.67 14.28 0.83 14.28 0.83 20.73 5.67 20.73 6.75 23.95 3.52 27.18 7.83 31.48 11.05 28.25 14.28 29.34 14.28 34.17 17.5 34.17 20.73 34.17 20.73 29.34 23.95 28.25 27.18 31.48 31.48 27.18 28.25 23.95 29.34 20.73 34.17 20.73 34.17 14.28 29.34 14.28 28.25 11.05 31.48 7.83 27.18 3.52 23.95 6.75 20.73 5.67 20.73 0.83 17.5 0.83"/><circle class="cls-3" cx="17.5" cy="17.5" r="3.23"/></g></g></g></svg>
