<svg width="648" height="381" viewBox="0 0 648 381" fill="none" xmlns="http://www.w3.org/2000/svg">
<g clip-path="url(#clip0_1352_2235)">
<path d="M202.608 297.442C201.75 296.177 199.78 296.79 199.78 298.309V310.059H13.6523V368.471H199.78V379.442C199.78 380.971 201.75 381.574 202.608 380.309L230.192 339.742C230.553 339.216 230.553 338.525 230.192 338.009L202.608 297.442Z" fill="#00AAFF"/>
<path d="M396.739 323.63L355.24 297.413C353.953 296.595 352.384 297.939 352.988 299.341L357.249 309.115C346.25 311.695 304.684 310.721 304.684 310.721L228.815 310.828L241.325 336.675L224.262 371.294H299.662C299.662 371.294 355.27 372.696 380.602 362.717L385.409 373.738C386.013 375.139 388.07 374.906 388.353 373.407L397.441 325.217C397.558 324.594 397.285 323.961 396.748 323.62L396.739 323.63Z" fill="#00DBFF"/>
<path d="M647.727 338.009L620.143 297.442C619.285 296.177 617.316 296.79 617.316 298.309V310.059H462.819C462.819 310.059 446.896 329.695 434.22 341.699C419.37 355.766 401.234 368.471 401.234 368.471H617.316V379.442C617.316 380.971 619.285 381.574 620.143 380.309L647.727 339.742C648.088 339.216 648.088 338.525 647.727 338.009Z" fill="#0EE2A0"/>
<path d="M390.694 54.6052L384.922 103.291C384.746 104.81 386.628 105.638 387.632 104.489L394.692 96.3598C408.81 109.016 422.724 127.824 429.998 145.211L452.424 123.473L485.898 131.261C474.519 92.9719 453.907 70.7657 433.001 52.22L440.851 43.176C441.855 42.0272 440.753 40.2748 439.281 40.6643L391.825 53.2812C391.211 53.4467 390.762 53.9627 390.684 54.5954L390.694 54.6052Z" fill="#FFE36C"/>
<path d="M206.183 69.7533L250.099 91.6869C251.464 92.3684 252.888 90.8789 252.147 89.5452L246.843 80.0922C265.837 69.4126 287.444 63.7661 309.412 63.7661C329.546 63.7661 353.835 69.0621 373.98 82.9154L377.88 42.2414L403.884 31.6397C375.501 16.0632 338.751 5.35443 309.412 5.35443C277.449 5.35443 245.965 13.5807 218.254 29.1377L212.433 18.7599C211.682 17.4262 209.664 17.8643 209.537 19.383L205.335 68.2346C205.276 68.8674 205.617 69.471 206.183 69.7533Z" fill="#F5BD2C"/>
<g opacity="0.7">
<path d="M138.915 288.554C137.579 289.303 138.018 291.319 139.539 291.445L188.467 295.641C189.101 295.699 189.706 295.359 189.988 294.794L211.956 250.946C212.639 249.583 211.147 248.162 209.811 248.902L199.446 254.694C181.7 220.845 181.681 203.097 181.681 191.298C181.681 159.464 197.447 115.529 226.855 93.9455L192.075 75.4485L191.1 51.4315C143.001 80.6374 123.168 144.88 123.168 191.298C123.168 214.41 126.239 241.562 148.373 283.258L138.896 288.554H138.915Z" fill="#FF221D"/>
</g>
<path d="M494.467 170.348L506.197 168.605C507.708 168.381 508.02 166.347 506.645 165.685L462.398 144.413C461.822 144.141 461.14 144.238 460.672 144.666L424.546 177.873C423.425 178.905 424.312 180.765 425.823 180.541L436.539 178.944C436.929 183.033 437.144 187.171 437.144 191.289C437.144 230.765 419.593 269.492 379.938 296.108L404.967 312.658L401.72 351.599C468.453 308.55 495.647 248.844 495.647 191.289C495.647 184.299 495.247 177.27 494.467 170.338V170.348Z" fill="#B3E2F1"/>
<path d="M62.4033 304.714H0V307.635H62.4033V304.714Z" fill="black"/>
<path d="M83.2109 304.714H71.832V307.635H83.2109V304.714Z" fill="black"/>
<path d="M198.414 378.566C198.121 378.566 197.819 378.527 197.517 378.43C196.24 378.04 195.391 376.882 195.391 375.558V366.047H34.4492V363.126H198.316V375.558C198.316 375.558 198.316 375.626 198.375 375.646C198.433 375.665 198.443 375.646 198.472 375.607L226.057 335.04L198.472 294.375C198.472 294.375 198.433 294.317 198.375 294.337C198.316 294.356 198.316 294.375 198.316 294.424V307.635H89.0521V304.714H195.391V294.424C195.391 293.09 196.249 291.942 197.517 291.552C198.794 291.163 200.15 291.64 200.891 292.74L228.475 333.307C229.177 334.329 229.177 335.663 228.475 336.685L200.891 377.252C200.315 378.099 199.379 378.576 198.404 378.576L198.414 378.566Z" fill="black"/>
<path d="M391.25 350.334L388.364 349.857L393.395 319.794L393.366 319.677L351.868 293.46C351.868 293.46 351.81 293.421 351.761 293.46C351.712 293.499 351.722 293.519 351.741 293.558L356.753 305.055L354.891 305.357C342.829 307.284 303.739 307.07 302.082 307.061H225.082V304.14H302.092C302.482 304.14 338.871 304.344 352.551 302.728L349.06 294.726C348.533 293.509 348.855 292.107 349.859 291.241C350.864 290.374 352.307 290.277 353.428 290.988L394.926 317.205C395.979 317.867 396.506 319.084 396.272 320.301L391.25 350.334Z" fill="black"/>
<path d="M384.217 370.934C383.028 370.934 381.945 370.243 381.458 369.123L377.207 359.378C351.397 368.792 299.797 367.176 297.574 367.098L297.672 364.177C298.218 364.197 352.694 365.91 377.45 356.156L378.767 355.64L384.13 367.955C384.13 367.955 384.159 368.013 384.217 368.003C384.286 368.003 384.286 367.974 384.295 367.935L386.206 357.781L389.083 358.317L387.172 368.471C386.928 369.775 385.875 370.759 384.549 370.905C384.432 370.914 384.315 370.924 384.208 370.924L384.217 370.934Z" fill="black"/>
<path d="M283.418 364.177H224.262V367.098H283.418V364.177Z" fill="black"/>
<path d="M615.95 378.566C615.657 378.566 615.355 378.527 615.053 378.43C613.776 378.04 612.927 376.882 612.927 375.558V366.047H483.626V363.126H615.852V375.558C615.852 375.558 615.852 375.626 615.911 375.646C615.969 375.665 615.979 375.646 616.008 375.607L643.593 335.04L616.008 294.375C616.008 294.375 615.969 294.317 615.911 294.337C615.852 294.356 615.852 294.375 615.852 294.424V307.635H460.117V304.714H612.927V294.424C612.927 293.09 613.785 291.942 615.053 291.552C616.33 291.163 617.686 291.64 618.427 292.74L646.011 333.307C646.713 334.329 646.713 335.663 646.011 336.685L618.427 377.252C617.851 378.099 616.915 378.576 615.94 378.576L615.95 378.566Z" fill="black"/>
<path d="M459.249 363.126H415.801V366.047H459.249V363.126Z" fill="black"/>
<path d="M423.075 138.874C416.103 122.197 405.338 106.903 391.892 94.5588L385.818 101.558C384.95 102.561 383.546 102.873 382.327 102.337C381.108 101.802 380.397 100.556 380.553 99.2317L386.325 50.5358C386.471 49.2995 387.339 48.3065 388.538 47.9852L435.994 35.3683C437.281 35.0275 438.617 35.5532 439.329 36.6825C440.031 37.8118 439.923 39.2429 439.046 40.2457L432.143 48.1994C443.161 58.0515 454.715 69.5878 465.07 86.6343L462.564 88.153C452.073 70.8923 440.294 59.3365 429.12 49.4358L428.038 48.4817L436.833 38.3473C436.833 38.3473 436.872 38.2986 436.833 38.2402C436.803 38.1818 436.784 38.1915 436.735 38.2012L389.279 50.8182L389.211 50.8961L383.439 99.5822C383.439 99.5822 383.439 99.6503 383.487 99.6698C383.546 99.699 383.556 99.6795 383.585 99.6503L391.619 90.4018L392.731 91.3948C407.006 104.197 418.433 120.231 425.766 137.764L423.065 138.893L423.075 138.874Z" fill="black"/>
<path d="M480.72 128.798C477.863 120.114 474.714 112.014 471.34 104.722C469.39 100.507 467.313 96.4377 465.168 92.6117L467.723 91.1807C469.907 95.065 472.023 99.2123 474.002 103.496C477.415 110.885 480.613 119.092 483.499 127.883L480.72 128.798Z" fill="black"/>
<path d="M363.062 74.6501C355.291 70.756 347.14 67.6699 338.852 65.4795L339.602 62.6562C348.085 64.8954 356.422 68.0496 364.378 72.0411L363.062 74.6501Z" fill="black"/>
<path d="M247.878 89.4186C247.42 89.4186 246.962 89.3115 246.523 89.0973L232.297 81.9905L233.603 79.3815L247.829 86.4882C247.829 86.4882 247.888 86.5174 247.937 86.4688C247.985 86.4201 247.976 86.4104 247.946 86.3714L241.93 75.6431L243.198 74.9325C262.416 64.1263 284.306 58.4117 306.489 58.4117V61.3323C285.301 61.3323 264.386 66.6672 245.909 76.7627L250.491 84.9403C251.145 86.0988 250.959 87.5202 250.043 88.484C249.458 89.0973 248.668 89.4186 247.868 89.4186H247.878Z" fill="black"/>
<path d="M216.014 73.8616L202.607 67.1637C201.495 66.6088 200.842 65.4503 200.949 64.2139L205.151 15.3623C205.268 14.0383 206.214 12.9577 207.521 12.6753C208.827 12.393 210.134 12.9869 210.787 14.1454L215.896 23.2479C243.529 8.04134 274.819 0 306.489 0C338.158 0 382.474 11.4584 407.65 32.6911L405.759 34.9205C381.119 14.1356 336.228 2.92058 306.489 2.92058C274.829 2.92058 243.559 11.0788 216.053 26.5189L214.775 27.2393L208.233 15.5862C208.233 15.5862 208.203 15.5278 208.135 15.5472C208.077 15.557 208.067 15.5765 208.067 15.6251L203.864 64.4768L217.32 71.2525L216.014 73.8616Z" fill="black"/>
<path d="M182.314 221.41C177.293 205.57 177.293 195.076 177.293 187.404C177.293 155.2 189.237 124.368 210.932 100.585L213.097 102.551C191.899 125.799 180.218 155.93 180.218 187.404C180.218 194.881 180.218 205.113 185.103 220.524L182.314 221.41Z" fill="black"/>
<path d="M185.678 293.217C185.59 293.217 185.502 293.217 185.414 293.207L136.486 289.011C135.16 288.894 134.078 287.95 133.795 286.646C133.512 285.351 134.107 284.037 135.267 283.384L143.497 278.78C121.802 237.482 118.789 210.457 118.789 187.404C118.789 168.235 122.699 146.38 129.797 125.877L132.567 126.831C125.575 147.042 121.724 168.547 121.724 187.404C121.724 210.321 124.756 237.229 146.763 278.682L147.436 279.938L136.72 285.935C136.72 285.935 136.662 285.964 136.681 286.032C136.691 286.091 136.711 286.1 136.759 286.1L185.687 290.296L207.743 246.4C207.743 246.4 207.772 246.342 207.724 246.303C207.675 246.254 207.665 246.264 207.616 246.293L195.945 252.825L195.243 251.492C191.606 244.55 188.496 237.862 185.999 231.612L188.72 230.531C191.021 236.285 193.849 242.428 197.144 248.805L206.193 243.742C207.353 243.09 208.786 243.275 209.742 244.19C210.697 245.105 210.951 246.527 210.356 247.714L188.388 291.562C187.871 292.594 186.838 293.227 185.697 293.227L185.678 293.217Z" fill="black"/>
<path d="M150.988 88.1238L148.512 86.5661C160.017 68.3903 173.766 54.4105 189.376 44.9965L190.887 47.4984C175.677 56.6788 162.25 70.3471 150.988 88.1335V88.1238Z" fill="black"/>
<path d="M386.073 289.021L384.27 286.724C406.822 269.083 422.326 245.242 429.093 217.769L431.93 218.469C425.007 246.585 409.143 270.982 386.073 289.031V289.021Z" fill="black"/>
<path d="M433.341 212.073L430.465 211.518C431.177 207.809 431.732 204.022 432.113 200.245L435.028 200.537C434.638 204.402 434.073 208.277 433.341 212.073Z" fill="black"/>
<path d="M407.991 345.437L406.285 343.062C463.462 302.203 491.261 251.277 491.261 187.404C491.261 180.531 490.871 173.531 490.091 166.619L489.935 165.218L503.059 163.27C503.059 163.27 503.127 163.27 503.137 163.202C503.147 163.134 503.137 163.134 503.088 163.115L458.84 141.843H458.743L422.617 175.06C422.588 175.089 422.569 175.109 422.598 175.157C422.627 175.216 422.647 175.216 422.686 175.206L434.932 173.385L435.078 174.914C435.478 179.139 435.683 183.335 435.683 187.394H432.758C432.758 183.919 432.602 180.336 432.3 176.725L423.115 178.088C421.798 178.282 420.531 177.611 419.955 176.413C419.38 175.216 419.653 173.804 420.628 172.899L456.754 139.692C457.67 138.854 458.987 138.65 460.098 139.195L504.346 160.467C505.545 161.041 506.218 162.316 506.013 163.631C505.818 164.945 504.795 165.957 503.478 166.152L493.143 167.69C493.835 174.252 494.176 180.882 494.176 187.404C494.176 252.29 465.978 303.984 407.972 345.437H407.991Z" fill="black"/>
<path d="M428.877 152.815C428.282 149.232 425.182 143.839 425.152 143.79L427.687 142.33C427.824 142.573 431.081 148.229 431.763 152.338L428.877 152.815Z" fill="black"/>
<path d="M139.138 110.018L136.477 108.811C139.09 103.058 141.869 98.56 141.986 98.3653L144.472 99.9035C144.472 99.9035 141.674 104.44 139.148 110.009L139.138 110.018Z" fill="black"/>
<path d="M609.155 344.434L599.766 335.059L601.833 332.995L609.009 340.17L621.802 325.606L623.996 327.524L609.155 344.434Z" fill="black"/>
<path d="M479.344 284.222L476.906 282.615C490.001 262.833 493.541 237.745 493.58 237.492L496.476 237.882C496.329 238.933 492.819 263.875 479.344 284.222Z" fill="black"/>
<path d="M121.211 252.202C112.113 234.796 109.715 207.215 109.617 206.057L112.533 205.814C112.552 206.096 114.99 233.978 123.804 250.859L121.211 252.212V252.202Z" fill="black"/>
<path d="M223.746 11.4584L222.176 8.9954C222.41 8.84937 227.929 5.37387 236.519 3.5047L237.143 6.35714C229.099 8.10949 223.804 11.4195 223.746 11.4584Z" fill="black"/>
<path d="M33.9983 337.6H3.89844V340.521H33.9983V337.6Z" fill="black"/>
<path d="M27.8562 349.059L25.7891 346.995L33.5992 339.197L25.7891 331.389L27.8562 329.325L37.7432 339.197L27.8562 349.059Z" fill="black"/>
<path d="M116.208 334.485H113.634C113.585 334.154 113.487 333.852 113.341 333.599C113.195 333.346 113.01 333.112 112.785 332.927C112.561 332.742 112.298 332.606 111.996 332.499C111.703 332.401 111.381 332.353 111.03 332.353C110.406 332.353 109.86 332.508 109.402 332.81C108.944 333.122 108.583 333.56 108.329 334.154C108.076 334.748 107.949 335.449 107.949 336.286C107.949 337.123 108.076 337.863 108.339 338.447C108.593 339.031 108.953 339.469 109.421 339.771C109.88 340.073 110.416 340.219 111.03 340.219C111.372 340.219 111.693 340.17 111.986 340.083C112.278 339.995 112.542 339.859 112.766 339.683C112.99 339.508 113.185 339.294 113.331 339.051C113.478 338.797 113.585 338.515 113.643 338.194H116.218C116.149 338.759 115.984 339.294 115.72 339.8C115.457 340.306 115.096 340.764 114.657 341.173C114.209 341.572 113.682 341.893 113.068 342.127C112.454 342.361 111.762 342.477 110.991 342.477C109.919 342.477 108.953 342.234 108.105 341.747C107.257 341.261 106.594 340.56 106.106 339.635C105.619 338.71 105.375 337.6 105.375 336.286C105.375 334.972 105.619 333.852 106.116 332.937C106.613 332.012 107.286 331.311 108.125 330.834C108.973 330.347 109.928 330.104 110.982 330.104C111.684 330.104 112.327 330.201 112.932 330.396C113.526 330.591 114.063 330.873 114.521 331.253C114.979 331.632 115.36 332.08 115.652 332.625C115.945 333.171 116.13 333.784 116.218 334.485H116.208Z" fill="black"/>
<path d="M129.108 336.286C129.108 337.6 128.864 338.72 128.366 339.635C127.869 340.55 127.196 341.261 126.338 341.738C125.48 342.215 124.525 342.468 123.462 342.468C122.399 342.468 121.434 342.224 120.576 341.738C119.728 341.251 119.055 340.55 118.557 339.625C118.06 338.7 117.816 337.59 117.816 336.276C117.816 334.962 118.06 333.842 118.557 332.927C119.055 332.002 119.728 331.301 120.576 330.824C121.424 330.338 122.389 330.094 123.462 330.094C124.535 330.094 125.48 330.338 126.338 330.824C127.196 331.311 127.869 332.012 128.366 332.927C128.864 333.852 129.108 334.962 129.108 336.276V336.286ZM126.524 336.286C126.524 335.439 126.397 334.718 126.143 334.134C125.89 333.55 125.539 333.112 125.071 332.81C124.613 332.509 124.076 332.363 123.462 332.363C122.848 332.363 122.311 332.518 121.853 332.81C121.395 333.112 121.034 333.55 120.781 334.134C120.527 334.718 120.4 335.439 120.4 336.286C120.4 337.133 120.527 337.853 120.781 338.437C121.034 339.021 121.385 339.46 121.853 339.761C122.311 340.063 122.848 340.209 123.462 340.209C124.076 340.209 124.613 340.063 125.071 339.761C125.529 339.46 125.89 339.021 126.143 338.437C126.397 337.853 126.524 337.133 126.524 336.286Z" fill="black"/>
<path d="M141.082 330.269V342.302H138.878L133.633 334.728H133.545V342.302H131V330.269H133.233L138.44 337.843H138.547V330.269H141.082Z" fill="black"/>
<path d="M153.262 330.269V342.302H151.058L145.812 334.728H145.725V342.302H143.18V330.269H145.413L150.619 337.843H150.727V330.269H153.262Z" fill="black"/>
<path d="M155.367 342.302V330.269H163.489V332.372H157.912V335.244H163.07V337.337H157.912V340.209H163.509V342.312H155.367V342.302Z" fill="black"/>
<path d="M176.153 334.485H173.579C173.53 334.154 173.433 333.852 173.286 333.599C173.14 333.346 172.955 333.112 172.731 332.927C172.506 332.742 172.243 332.606 171.941 332.499C171.648 332.402 171.327 332.353 170.976 332.353C170.352 332.353 169.806 332.509 169.347 332.81C168.889 333.122 168.528 333.56 168.275 334.154C168.021 334.748 167.894 335.449 167.894 336.286C167.894 337.123 168.021 337.863 168.284 338.447C168.538 339.031 168.899 339.469 169.367 339.771C169.825 340.073 170.361 340.219 170.976 340.219C171.317 340.219 171.639 340.17 171.931 340.083C172.224 339.995 172.487 339.859 172.711 339.684C172.935 339.508 173.13 339.294 173.277 339.051C173.423 338.798 173.53 338.515 173.589 338.194H176.163C176.095 338.759 175.929 339.294 175.666 339.8C175.402 340.307 175.042 340.764 174.603 341.173C174.154 341.572 173.628 341.893 173.013 342.127C172.399 342.361 171.707 342.478 170.937 342.478C169.864 342.478 168.899 342.234 168.05 341.747C167.202 341.261 166.539 340.56 166.052 339.635C165.564 338.71 165.32 337.6 165.32 336.286C165.32 334.972 165.564 333.852 166.061 332.937C166.559 332.012 167.231 331.311 168.07 330.834C168.918 330.347 169.874 330.104 170.927 330.104C171.629 330.104 172.272 330.201 172.877 330.396C173.472 330.591 174.008 330.873 174.466 331.253C174.925 331.632 175.305 332.08 175.597 332.625C175.89 333.171 176.075 333.784 176.163 334.485H176.153Z" fill="black"/>
<path d="M177.529 332.363V330.26H187.426V332.363H183.731V342.302H181.215V332.363H177.52H177.529Z" fill="black"/>
<path d="M519.673 342.302H515.402V330.269H519.712C520.921 330.269 521.964 330.513 522.842 330.99C523.719 331.467 524.392 332.158 524.86 333.054C525.328 333.949 525.572 335.02 525.572 336.276C525.572 337.532 525.338 338.603 524.86 339.508C524.383 340.414 523.71 341.105 522.832 341.582C521.955 342.069 520.902 342.302 519.673 342.302ZM517.947 340.122H519.566C520.317 340.122 520.95 339.985 521.467 339.722C521.984 339.45 522.374 339.041 522.637 338.467C522.9 337.892 523.027 337.172 523.027 336.276C523.027 335.38 522.9 334.66 522.637 334.095C522.374 333.531 521.984 333.112 521.477 332.849C520.97 332.586 520.326 332.45 519.576 332.45H517.947V340.122Z" fill="black"/>
<path d="M527.453 342.302V330.269H535.575V332.372H529.998V335.244H535.156V337.337H529.998V340.209H535.595V342.312H527.453V342.302Z" fill="black"/>
<path d="M537.605 342.302V330.269H540.15V340.209H545.318V342.312H537.605V342.302Z" fill="black"/>
<path d="M549.557 330.269V342.302H547.012V330.269H549.557Z" fill="black"/>
<path d="M553.837 330.269L556.753 339.411H556.86L559.775 330.269H562.603L558.449 342.302H555.163L551 330.269H553.828H553.837Z" fill="black"/>
<path d="M564.059 342.302V330.269H572.181V332.372H566.603V335.244H571.762V337.337H566.603V340.209H572.2V342.312H564.059V342.302Z" fill="black"/>
<path d="M574.219 342.302V330.269H578.977C579.884 330.269 580.664 330.435 581.307 330.756C581.951 331.077 582.448 331.535 582.789 332.129C583.131 332.723 583.296 333.414 583.296 334.202C583.296 334.991 583.121 335.692 582.78 336.266C582.438 336.841 581.931 337.279 581.278 337.59C580.625 337.902 579.835 338.048 578.909 338.048H575.72V336.004H578.489C578.977 336.004 579.377 335.935 579.699 335.799C580.02 335.663 580.264 335.468 580.42 335.195C580.576 334.933 580.654 334.602 580.654 334.202C580.654 333.803 580.576 333.463 580.42 333.19C580.264 332.917 580.02 332.703 579.699 332.567C579.377 332.431 578.967 332.353 578.48 332.353H576.764V342.312H574.219V342.302ZM580.732 336.821L583.726 342.302H580.908L577.973 336.821H580.722H580.732Z" fill="black"/>
<path d="M258.985 334.485H256.411C256.362 334.154 256.265 333.852 256.119 333.599C255.972 333.346 255.787 333.112 255.563 332.927C255.338 332.742 255.075 332.606 254.773 332.499C254.48 332.401 254.159 332.353 253.808 332.353C253.184 332.353 252.638 332.508 252.179 332.81C251.721 333.122 251.36 333.56 251.107 334.154C250.853 334.748 250.726 335.449 250.726 336.286C250.726 337.123 250.853 337.863 251.117 338.447C251.37 339.031 251.731 339.469 252.199 339.771C252.657 340.073 253.193 340.219 253.808 340.219C254.149 340.219 254.471 340.17 254.763 340.083C255.056 339.995 255.319 339.859 255.543 339.683C255.767 339.508 255.963 339.294 256.109 339.051C256.255 338.797 256.362 338.515 256.421 338.194H258.995C258.927 338.759 258.761 339.294 258.498 339.8C258.234 340.306 257.874 340.764 257.435 341.173C256.986 341.572 256.46 341.893 255.846 342.127C255.231 342.361 254.539 342.477 253.769 342.477C252.696 342.477 251.731 342.234 250.882 341.747C250.034 341.261 249.371 340.56 248.884 339.635C248.396 338.71 248.152 337.6 248.152 336.286C248.152 334.972 248.396 333.852 248.893 332.937C249.391 332.012 250.063 331.311 250.902 330.834C251.75 330.347 252.706 330.104 253.759 330.104C254.461 330.104 255.104 330.201 255.709 330.396C256.304 330.591 256.84 330.873 257.298 331.253C257.757 331.632 258.137 332.08 258.429 332.625C258.722 333.171 258.907 333.784 258.995 334.485H258.985Z" fill="black"/>
<path d="M271.897 336.286C271.897 337.6 271.653 338.72 271.156 339.635C270.658 340.55 269.985 341.261 269.127 341.738C268.269 342.215 267.314 342.468 266.251 342.468C265.188 342.468 264.223 342.224 263.365 341.738C262.517 341.251 261.844 340.55 261.347 339.625C260.849 338.7 260.605 337.59 260.605 336.276C260.605 334.962 260.849 333.842 261.347 332.927C261.844 332.002 262.517 331.301 263.365 330.824C264.213 330.338 265.178 330.094 266.251 330.094C267.324 330.094 268.269 330.338 269.127 330.824C269.985 331.311 270.658 332.012 271.156 332.927C271.653 333.852 271.897 334.962 271.897 336.276V336.286ZM269.313 336.286C269.313 335.439 269.186 334.718 268.932 334.134C268.679 333.55 268.328 333.112 267.86 332.81C267.402 332.509 266.865 332.363 266.251 332.363C265.637 332.363 265.1 332.518 264.642 332.81C264.184 333.112 263.823 333.55 263.57 334.134C263.316 334.718 263.189 335.439 263.189 336.286C263.189 337.133 263.316 337.853 263.57 338.437C263.823 339.021 264.174 339.46 264.642 339.761C265.1 340.063 265.637 340.209 266.251 340.209C266.865 340.209 267.402 340.063 267.86 339.761C268.318 339.46 268.679 339.021 268.932 338.437C269.186 337.853 269.313 337.133 269.313 336.286Z" fill="black"/>
<path d="M273.777 342.302V330.269H276.322V340.209H281.49V342.312H273.777V342.302Z" fill="black"/>
<path d="M283.188 342.302V330.269H285.732V340.209H290.9V342.312H283.188V342.302Z" fill="black"/>
<path d="M294.965 342.302H292.234L296.398 330.269H299.684L303.837 342.302H301.107L298.085 333.015H297.987L294.965 342.302ZM294.799 337.571H301.254V339.557H294.799V337.571Z" fill="black"/>
<path d="M305.281 342.302V330.269H310.108C310.995 330.269 311.736 330.406 312.331 330.659C312.926 330.922 313.364 331.282 313.667 331.749C313.969 332.216 314.115 332.752 314.115 333.356C314.115 333.823 314.018 334.241 313.832 334.592C313.647 334.942 313.384 335.234 313.062 335.458C312.74 335.682 312.36 335.848 311.941 335.935V336.052C312.399 336.072 312.828 336.198 313.228 336.442C313.628 336.685 313.959 337.016 314.213 337.444C314.466 337.873 314.593 338.389 314.593 338.973C314.593 339.615 314.437 340.18 314.115 340.676C313.803 341.173 313.335 341.572 312.721 341.864C312.107 342.156 311.346 342.302 310.439 342.302H305.291H305.281ZM307.826 335.303H309.718C310.069 335.303 310.381 335.244 310.654 335.118C310.927 334.991 311.141 334.816 311.297 334.592C311.453 334.368 311.531 334.095 311.531 333.774C311.531 333.336 311.375 332.986 311.073 332.723C310.761 332.46 310.332 332.324 309.766 332.324H307.826V335.303ZM307.826 340.219H309.903C310.615 340.219 311.132 340.083 311.453 339.81C311.775 339.537 311.941 339.177 311.941 338.72C311.941 338.389 311.863 338.097 311.697 337.834C311.531 337.571 311.307 337.376 311.015 337.23C310.722 337.084 310.361 337.016 309.962 337.016H307.826V340.209V340.219Z" fill="black"/>
<path d="M327.318 336.286C327.318 337.6 327.075 338.72 326.577 339.635C326.08 340.55 325.407 341.261 324.549 341.738C323.691 342.215 322.736 342.468 321.673 342.468C320.61 342.468 319.645 342.224 318.787 341.738C317.938 341.251 317.266 340.55 316.768 339.625C316.271 338.7 316.027 337.59 316.027 336.276C316.027 334.962 316.271 333.842 316.768 332.927C317.266 332.002 317.938 331.301 318.787 330.824C319.635 330.338 320.6 330.094 321.673 330.094C322.745 330.094 323.691 330.338 324.549 330.824C325.407 331.311 326.08 332.012 326.577 332.927C327.075 333.852 327.318 334.962 327.318 336.276V336.286ZM324.735 336.286C324.735 335.439 324.608 334.718 324.354 334.134C324.101 333.55 323.75 333.112 323.282 332.81C322.823 332.509 322.287 332.363 321.673 332.363C321.059 332.363 320.522 332.518 320.064 332.81C319.606 333.112 319.245 333.55 318.992 334.134C318.738 334.718 318.611 335.439 318.611 336.286C318.611 337.133 318.738 337.853 318.992 338.437C319.245 339.021 319.596 339.46 320.064 339.761C320.522 340.063 321.059 340.209 321.673 340.209C322.287 340.209 322.823 340.063 323.282 339.761C323.74 339.46 324.101 339.021 324.354 338.437C324.608 337.853 324.735 337.133 324.735 336.286Z" fill="black"/>
<path d="M329.199 342.302V330.269H333.957C334.864 330.269 335.644 330.435 336.288 330.756C336.931 331.077 337.429 331.535 337.77 332.129C338.111 332.723 338.277 333.414 338.277 334.202C338.277 334.991 338.101 335.692 337.76 336.266C337.419 336.841 336.912 337.279 336.259 337.59C335.605 337.902 334.816 338.048 333.889 338.048H330.701V336.004H333.47C333.957 336.004 334.357 335.935 334.679 335.799C335.001 335.663 335.245 335.468 335.401 335.195C335.557 334.933 335.635 334.602 335.635 334.202C335.635 333.803 335.557 333.463 335.401 333.19C335.245 332.917 335.001 332.703 334.679 332.567C334.357 332.431 333.948 332.353 333.46 332.353H331.744V342.312H329.199V342.302ZM335.713 336.821L338.706 342.302H335.888L332.953 336.821H335.703H335.713Z" fill="black"/>
<path d="M342.156 342.302H339.426L343.589 330.269H346.875L351.029 342.302H348.299L345.276 333.015H345.179L342.156 342.302ZM341.99 337.571H348.445V339.557H341.99V337.571Z" fill="black"/>
<path d="M350.533 332.363V330.26H360.43V332.363H356.735V342.302H354.219V332.363H350.523H350.533Z" fill="black"/>
<path d="M362.066 342.302V330.269H370.189V332.372H364.611V335.244H369.769V337.337H364.611V340.209H370.208V342.312H362.066V342.302Z" fill="black"/>
<path d="M241.861 51.5386L237.951 53.2618L233.086 42.2512L237.025 40.5183C238.137 40.0315 239.19 39.8271 240.184 39.9147C241.179 40.0023 242.076 40.3625 242.866 40.9856C243.665 41.6184 244.309 42.5043 244.816 43.6433C245.323 44.7921 245.537 45.8727 245.469 46.8852C245.401 47.8976 245.06 48.803 244.445 49.6013C243.831 50.3996 242.963 51.0421 241.852 51.5386H241.861ZM239.404 50.2438L240.886 49.5916C241.579 49.2898 242.105 48.9101 242.466 48.4525C242.827 47.995 243.012 47.4596 243.022 46.8365C243.031 46.2134 242.856 45.493 242.495 44.6753C242.134 43.8575 241.725 43.2539 241.257 42.8353C240.789 42.4264 240.272 42.2025 239.687 42.1636C239.112 42.1246 238.478 42.2609 237.786 42.5627L236.304 43.215L239.404 50.2341V50.2438Z" fill="black"/>
<path d="M248.812 48.5888L244.727 37.2667L252.371 34.5213L253.083 36.4976L247.837 38.3862L248.812 41.0829L253.668 39.3403L254.38 41.3165L249.524 43.0591L250.499 45.7656L255.764 43.8769L256.476 45.8532L248.812 48.6083V48.5888Z" fill="black"/>
<path d="M258.214 45.2691L254.898 33.6938L259.471 32.3893C260.349 32.1362 261.149 32.0875 261.86 32.2432C262.572 32.399 263.177 32.73 263.674 33.2265C264.171 33.723 264.532 34.3558 264.746 35.1249C264.971 35.894 264.99 36.6144 264.834 37.3056C264.678 37.9968 264.317 38.5809 263.791 39.0872C263.255 39.5934 262.543 39.9731 261.656 40.2262L258.74 41.0537L258.175 39.0969L260.69 38.3765C261.158 38.2402 261.529 38.0455 261.792 37.7924C262.055 37.5392 262.221 37.2472 262.289 36.9162C262.358 36.5852 262.338 36.225 262.231 35.8453C262.124 35.4656 261.948 35.1444 261.714 34.901C261.48 34.6576 261.188 34.5018 260.827 34.4239C260.476 34.3558 260.056 34.385 259.579 34.5213L257.921 34.9886L260.661 44.5584L258.214 45.2593V45.2691Z" fill="black"/>
<path d="M268.385 42.4458L265.82 30.6856L268.307 30.1404L270.423 39.8563L275.473 38.7562L275.922 40.8006L268.385 42.4361V42.4458Z" fill="black"/>
<path d="M286.998 33.0221C287.193 34.3169 287.105 35.4657 286.744 36.4489C286.384 37.4322 285.818 38.2208 285.048 38.8243C284.278 39.4279 283.361 39.8076 282.308 39.9634C281.245 40.1191 280.26 40.012 279.344 39.6616C278.427 39.3014 277.667 38.7075 277.043 37.8703C276.419 37.033 276.019 35.9622 275.824 34.6674C275.639 33.3726 275.717 32.2238 276.068 31.2406C276.419 30.2573 276.984 29.4687 277.764 28.8651C278.535 28.2616 279.451 27.8819 280.514 27.7261C281.567 27.5704 282.552 27.6774 283.468 28.0279C284.385 28.3881 285.155 28.982 285.779 29.8192C286.403 30.6564 286.813 31.7273 286.998 33.0221ZM284.443 33.392C284.317 32.5548 284.092 31.8636 283.751 31.3184C283.41 30.7733 283 30.3936 282.503 30.1599C282.006 29.9263 281.45 29.8581 280.836 29.9458C280.231 30.0334 279.714 30.2573 279.305 30.6272C278.895 30.9972 278.603 31.4839 278.437 32.0973C278.271 32.7106 278.252 33.4407 278.369 34.278C278.496 35.1152 278.72 35.8064 279.061 36.3516C279.393 36.8968 279.812 37.2764 280.309 37.5101C280.806 37.7437 281.362 37.8119 281.967 37.7243C282.581 37.6366 283.088 37.4127 283.498 37.0428C283.907 36.6728 284.2 36.1861 284.365 35.5728C284.531 34.9594 284.551 34.2293 284.424 33.392H284.443Z" fill="black"/>
<path d="M287.242 26.9473L290.089 26.7428L293.2 31.7176H293.317L295.696 26.3437L298.543 26.149L294.701 34.2195L295.004 38.4641L292.478 38.6394L292.176 34.3948L287.242 26.9375V26.9473Z" fill="black"/>
<path d="M144.475 195.085L156.477 193.985L156.916 198.717C157.004 199.622 156.916 200.411 156.643 201.082C156.38 201.754 155.97 202.28 155.415 202.679C154.859 203.068 154.186 203.302 153.387 203.38C152.587 203.458 151.885 203.341 151.28 203.049C150.676 202.757 150.188 202.299 149.828 201.676C149.467 201.053 149.243 200.284 149.155 199.359L148.862 196.195L150.9 196.01L151.154 198.765C151.202 199.252 151.3 199.641 151.466 199.953C151.631 200.264 151.846 200.479 152.129 200.615C152.412 200.751 152.743 200.8 153.143 200.761C153.543 200.722 153.874 200.615 154.128 200.43C154.391 200.245 154.576 199.992 154.683 199.651C154.8 199.32 154.83 198.902 154.781 198.415L154.625 196.701L144.699 197.617L144.465 195.085H144.475ZM150.53 201.063L145.342 204.538L145.089 201.744L150.286 198.327L150.539 201.063H150.53Z" fill="black"/>
<path d="M145.615 206.398L157.511 204.451L158.827 212.453L156.75 212.794L155.844 207.303L153.006 207.77L153.845 212.852L151.768 213.193L150.929 208.111L148.092 208.578L148.999 214.098L146.922 214.439L145.605 206.417L145.615 206.398Z" fill="black"/>
<path d="M159.646 216.221L151.436 221.215L151.466 221.322L161.06 221.984L161.733 224.719L149.038 223.542L148.258 220.358L158.983 213.466L159.656 216.211L159.646 216.221Z" fill="black"/>
<path d="M162.913 228.263L151.387 231.797L150.637 229.363L162.162 225.839L162.913 228.273V228.263Z" fill="black"/>
<path d="M152.107 234.163L163.437 230.054L166.207 237.677L164.227 238.388L162.326 233.16L159.625 234.143L161.38 238.982L159.401 239.692L157.646 234.854L154.945 235.837L156.856 241.094L154.877 241.805L152.098 234.163H152.107Z" fill="black"/>
<path d="M156.928 246.789L166.356 238.544L167.546 241.055L160.818 246.419L160.857 246.507L169.369 244.93L170.383 247.081L163.724 252.64L163.773 252.738L172.217 250.966L173.406 253.478L161.033 255.493L159.97 253.254L166.122 247.821L166.083 247.734L157.981 249.019L156.918 246.78L156.928 246.789Z" fill="black"/>
<path d="M410.205 66.7159L411.609 65.1485L418.99 71.7393L417.586 73.3067L414.836 70.8534L408.206 78.2619L406.324 76.5875L412.955 69.1789L410.205 66.7256V66.7159Z" fill="black"/>
<path d="M411.978 81.7374L420.598 73.3261L426.273 79.1283L424.771 80.5984L420.871 76.6166L418.814 78.6221L422.421 82.302L420.92 83.7721L417.312 80.0921L415.255 82.0976L419.165 86.0988L417.663 87.5688L411.969 81.7471L411.978 81.7374Z" fill="black"/>
<path d="M429.678 88.2698C430.009 87.929 430.155 87.5299 430.126 87.0918C430.097 86.6537 429.882 86.1962 429.483 85.7289C429.21 85.4076 428.937 85.1837 428.664 85.0377C428.391 84.8916 428.127 84.8332 427.874 84.8527C427.62 84.8722 427.396 84.9598 427.201 85.135C427.035 85.2713 426.918 85.4271 426.86 85.6023C426.801 85.7873 426.792 85.9722 426.811 86.1864C426.84 86.3909 426.899 86.6148 426.977 86.8484C427.065 87.0821 427.172 87.3157 427.299 87.5494L427.806 88.5424C428.059 89.0194 428.254 89.4867 428.391 89.9442C428.527 90.4018 428.595 90.8496 428.586 91.278C428.586 91.7063 428.478 92.1152 428.303 92.5046C428.127 92.894 427.845 93.2542 427.464 93.5755C426.899 94.0525 426.294 94.3251 425.641 94.3933C424.988 94.4614 424.325 94.3251 423.652 93.9941C422.969 93.6534 422.316 93.1179 421.682 92.3683C421.049 91.6284 420.61 90.8886 420.376 90.1487C420.132 89.4088 420.103 88.6981 420.288 88.0069C420.473 87.3157 420.892 86.6927 421.536 86.1085L423.135 87.9777C422.843 88.26 422.667 88.5716 422.599 88.9026C422.531 89.2336 422.56 89.5743 422.677 89.9248C422.804 90.2752 422.999 90.616 423.291 90.9567C423.574 91.2877 423.866 91.5311 424.169 91.6869C424.471 91.8524 424.763 91.9205 425.046 91.9108C425.329 91.901 425.583 91.8037 425.807 91.609C426.012 91.4337 426.138 91.2293 426.168 90.9859C426.207 90.7425 426.168 90.47 426.07 90.1584C425.973 89.8469 425.817 89.4867 425.612 89.0778L425.007 87.8706C424.539 86.936 424.305 86.0793 424.325 85.2908C424.344 84.5022 424.695 83.8208 425.368 83.2464C425.924 82.7693 426.528 82.5065 427.201 82.4481C427.874 82.3897 428.547 82.526 429.229 82.857C429.912 83.1782 430.536 83.6747 431.111 84.3465C431.696 85.0279 432.086 85.7191 432.291 86.4201C432.496 87.1307 432.505 87.8025 432.34 88.4353C432.164 89.0681 431.813 89.623 431.277 90.1L429.687 88.2406L429.678 88.2698Z" fill="black"/>
<path d="M433.499 90.7231L435.186 89.477L441.075 97.421L439.388 98.6671L437.194 95.7076L429.189 101.617L427.688 99.5919L435.693 93.6826L433.499 90.7231Z" fill="black"/>
<path d="M431.372 290.579L428.545 293.772L419.516 285.799L422.373 282.576C423.172 281.671 424.05 281.048 424.986 280.707C425.922 280.366 426.887 280.318 427.872 280.561C428.857 280.804 429.822 281.34 430.758 282.167C431.694 282.995 432.347 283.891 432.718 284.835C433.088 285.779 433.147 286.753 432.932 287.726C432.708 288.7 432.191 289.654 431.382 290.569L431.372 290.579ZM428.593 290.423L429.666 289.216C430.163 288.651 430.485 288.086 430.621 287.522C430.758 286.957 430.709 286.393 430.456 285.818C430.202 285.244 429.744 284.669 429.071 284.076C428.398 283.491 427.774 283.102 427.18 282.927C426.585 282.752 426.019 282.761 425.473 282.975C424.937 283.18 424.41 283.569 423.913 284.134L422.841 285.351L428.603 290.433L428.593 290.423Z" fill="black"/>
<path d="M436.782 284.28L427.188 276.988L432.112 270.534L433.779 271.809L430.405 276.239L432.687 277.972L435.807 273.873L437.474 275.148L434.354 279.247L436.646 280.989L440.039 276.54L441.716 277.816L436.782 284.29V284.28Z" fill="black"/>
<path d="M434.308 267.35L443.571 269.891L443.63 269.794L437.545 262.366L439.086 260L446.925 270.037L445.131 272.783L432.758 269.706L434.298 267.341L434.308 267.35Z" fill="black"/>
<path d="M450.163 264.819L439.594 259.027L443.504 251.92L445.347 252.932L442.665 257.81L445.181 259.192L447.667 254.675L449.51 255.688L447.024 260.205L449.549 261.587L452.24 256.69L454.083 257.703L450.163 264.829V264.819Z" fill="black"/>
<path d="M455.194 255.473L444.273 250.372L445.356 248.065L454.375 252.27L456.569 247.597L458.47 248.483L455.204 255.464L455.194 255.473Z" fill="black"/>
<path d="M457.542 234.416C458.771 234.883 459.727 235.516 460.409 236.314C461.092 237.103 461.511 237.989 461.657 238.952C461.803 239.926 461.686 240.9 461.306 241.893C460.926 242.895 460.351 243.703 459.59 244.317C458.83 244.94 457.932 245.31 456.889 245.446C455.856 245.572 454.725 245.407 453.496 244.94C452.267 244.472 451.312 243.84 450.629 243.051C449.947 242.262 449.528 241.377 449.381 240.413C449.235 239.449 449.352 238.466 449.732 237.463C450.113 236.47 450.688 235.662 451.439 235.039C452.199 234.416 453.096 234.036 454.13 233.91C455.173 233.773 456.304 233.949 457.533 234.416H457.542ZM456.616 236.82C455.817 236.519 455.105 236.373 454.471 236.402C453.837 236.431 453.291 236.606 452.843 236.918C452.394 237.239 452.063 237.687 451.838 238.261C451.614 238.836 451.565 239.391 451.682 239.926C451.799 240.461 452.082 240.948 452.54 241.396C452.999 241.844 453.623 242.214 454.413 242.516C455.212 242.817 455.924 242.963 456.558 242.934C457.191 242.905 457.737 242.73 458.186 242.418C458.634 242.107 458.966 241.649 459.19 241.075C459.415 240.5 459.463 239.945 459.346 239.41C459.229 238.875 458.947 238.388 458.488 237.94C458.03 237.492 457.406 237.122 456.616 236.811V236.82Z" fill="black"/>
<path d="M463.908 234.221L452.344 230.804L453.689 226.248C453.953 225.372 454.333 224.681 454.85 224.155C455.366 223.639 455.961 223.298 456.653 223.152C457.336 222.996 458.067 223.035 458.838 223.269C459.608 223.493 460.232 223.863 460.719 224.369C461.207 224.875 461.529 225.489 461.665 226.209C461.812 226.929 461.743 227.737 461.48 228.623L460.622 231.525L458.662 230.95L459.403 228.438C459.54 227.971 459.579 227.553 459.501 227.202C459.423 226.852 459.267 226.55 459.023 226.316C458.779 226.082 458.467 225.907 458.087 225.79C457.707 225.674 457.346 225.654 457.014 225.722C456.683 225.79 456.39 225.956 456.137 226.219C455.883 226.482 455.688 226.852 455.552 227.319L455.064 228.964L464.629 231.787L463.908 234.231V234.221Z" fill="black"/>
<path d="M455.311 220.913L455.935 217.837L464.535 216.201L464.564 216.065L457.29 211.197L457.914 208.121L469.722 210.525L469.225 212.94L461.541 211.372L461.522 211.47L468.532 216.075L468.191 217.72L459.913 219.209L459.893 219.307L467.606 220.874L467.109 223.288L455.301 220.884L455.311 220.913Z" fill="black"/>
<path d="M470.052 207.829L458.078 206.427L459.024 198.376L461.111 198.619L460.467 204.149L463.324 204.48L463.928 199.369L466.015 199.612L465.411 204.723L468.267 205.054L468.921 199.505L471.007 199.749L470.062 207.829H470.052Z" fill="black"/>
<path d="M459.618 186.635L471.66 187.141L471.573 189.342L463.772 194.258V194.345L471.348 194.667L471.241 197.208L459.199 196.701L459.297 194.472L467.087 189.595V189.488L459.521 189.166L459.628 186.635H459.618Z" fill="black"/>
<path d="M461.717 185.272L459.621 185.35L459.27 175.469L461.366 175.391L461.493 179.071L471.438 178.72L471.526 181.232L461.58 181.583L461.707 185.262L461.717 185.272Z" fill="black"/>
</g>
<defs>
<clipPath id="clip0_1352_2235">
<rect width="648" height="381" fill="white"/>
</clipPath>
</defs>
</svg>
