<svg id="Layer_1" data-name="Layer 1" xmlns="http://www.w3.org/2000/svg" viewBox="0 0 23 23"><defs><style>.cls-1{fill:none;stroke:#020202;stroke-miterlimit:10;stroke-width:2px;}</style></defs><title>order-search</title><line class="cls-1" x1="13.42" y1="13.45" x2="15.3" y2="15.35"/><path class="cls-1" d="M-4704.8-305.08a6.7,6.7,0,0,1,8.75.65,6.7,6.7,0,0,1,.71,8.6" transform="translate(4708.5 307.41)"/><path class="cls-1" d="M-4697-294.18a6.7,6.7,0,0,1-8.52-.81,6.7,6.7,0,0,1-.59-8.76" transform="translate(4708.5 307.41)"/><path class="cls-1" d="M-4686.85-285.67h0a1.19,1.19,0,0,1-1.68,0l-5.51-5.54,1.69-1.68,5.51,5.54A1.19,1.19,0,0,1-4686.85-285.67Z" transform="translate(4708.5 307.41)"/></svg>
