<svg id="Polot" xmlns="http://www.w3.org/2000/svg" viewBox="0 0 413.67 247.31"><defs><style>.cls-1{fill:#f6e485;}.cls-2,.cls-4{fill:none;stroke-miterlimit:10;stroke-width:2px;}.cls-2{stroke:#029dcf;}.cls-3{fill:#029dcf;opacity:0.3;}.cls-4{stroke:#353535;}.cls-5{fill:#fff;opacity:0.98;}.cls-6{fill:#d53427;opacity:0.7;}</style></defs><title>burger_icon_svg</title><polygon class="cls-1" points="26.17 92.63 59.67 92.63 59.67 59.13 26.17 92.63"/><line class="cls-2" x1="181.67" y1="184.62" x2="231.96" y2="184.62"/><line class="cls-2" x1="181.67" y1="196.95" x2="231.96" y2="196.95"/><line class="cls-2" x1="181.67" y1="208.58" x2="231.96" y2="208.58"/><path class="cls-3" d="M367.67,63.33V16a5.1,5.1,0,0,0-5.1-5.1H121.35a5.1,5.1,0,0,0-5.1,5.1V63.33H367.67Z"/><polyline class="cls-4" points="231.92 152.86 231.92 70.88 129.17 70.88"/><rect class="cls-1" x="251.77" y="172.97" width="115.79" height="50.48"/><rect class="cls-3" x="288.25" y="137.21" width="48.21" height="18.6"/><rect class="cls-4" x="284.71" y="133.67" width="48.21" height="18.6"/><path class="cls-4" d="M378.67,223V8.19A7.19,7.19,0,0,0,371.48,1H112.35a7.19,7.19,0,0,0-7.19,7.19V61.5"/><line class="cls-4" x1="181.67" y1="223" x2="413.67" y2="223"/><line class="cls-4" y1="223" x2="29.17" y2="223"/><polyline class="cls-4" points="43.56 80.39 62.67 61.5 106.17 61.5"/><polyline class="cls-4" points="181.67 146.5 181.67 246.31 29.17 246 29.17 94.63"/><rect class="cls-5" x="111.75" y="21.25" width="47" height="10.46"/><line class="cls-4" x1="41.92" y1="135.14" x2="99.08" y2="135.14"/><line class="cls-4" x1="41.92" y1="147.47" x2="89.08" y2="147.47"/><line class="cls-4" x1="41.92" y1="219.55" x2="129.08" y2="219.55"/><line class="cls-4" x1="41.92" y1="231.22" x2="119.08" y2="231.22"/><line class="cls-4" x1="41.92" y1="208.14" x2="139.08" y2="208.14"/><line class="cls-4" x1="41.92" y1="195.8" x2="129.08" y2="195.8"/><line class="cls-4" x1="41.92" y1="184.14" x2="119.08" y2="184.14"/><line class="cls-4" x1="41.92" y1="171.8" x2="109.08" y2="171.8"/><line class="cls-4" x1="41.92" y1="159.3" x2="99.08" y2="159.3"/><line class="cls-2" x1="251.96" y1="84.25" x2="367.67" y2="84.25"/><line class="cls-2" x1="251.96" y1="96.59" x2="367.67" y2="96.59"/><line class="cls-2" x1="251.96" y1="108.22" x2="367.67" y2="108.22"/><line class="cls-2" x1="251.96" y1="120.55" x2="367.67" y2="120.55"/><polyline class="cls-4" points="62.67 61.13 62.67 94.63 29.17 94.63"/><path class="cls-6" d="M202,105.5L182.18,88.26a0.78,0.78,0,0,0-1,0L161.31,105.5a2.84,2.84,0,0,0-.28,4h0a2.84,2.84,0,0,0,4,.28l12.5-10.87a0.78,0.78,0,0,1,1.28.59v33.59a2.84,2.84,0,0,0,2.84,2.84h0a2.84,2.84,0,0,0,2.84-2.84V99.51a0.78,0.78,0,0,1,1.28-.59l12.5,10.87a2.84,2.84,0,0,0,4-.28h0A2.84,2.84,0,0,0,202,105.5Z"/></svg>