<svg id="Layer_1" data-name="Layer 1" xmlns="http://www.w3.org/2000/svg" viewBox="0 0 260.63 130.22"><defs><style>.cls-1{fill:none;stroke:#353535;stroke-miterlimit:10;stroke-width:2px;}.cls-2{fill:#fae889;}.cls-3{opacity:0.7;}.cls-4,.cls-6{fill:#009fd1;}.cls-5,.cls-6,.cls-9{opacity:0.3;}.cls-7,.cls-9{fill:#d63227;}.cls-8{opacity:0.2;}</style></defs><title>burger_icon_svg</title><polyline class="cls-1" points="233.4 111.5 200.33 111.5 200.33 93.7 221.38 93.7"/><path class="cls-1" d="M209,90h0.43a2.95,2.95,0,0,1,2.95,2.95V93.7a0,0,0,0,1,0,0H206a0,0,0,0,1,0,0V92.92A2.95,2.95,0,0,1,209,90Z"/><path class="cls-1" d="M224.33,90h0.43a2.95,2.95,0,0,1,2.95,2.95V93.7a0,0,0,0,1,0,0h-6.33a0,0,0,0,1,0,0V92.92A2.95,2.95,0,0,1,224.33,90Z"/><line class="cls-1" x1="260.63" y1="129.22" y2="129.22"/><rect class="cls-1" x="101.99" y="93.68" width="32.9" height="17.7"/><path class="cls-1" d="M110.59,90H111a2.95,2.95,0,0,1,2.95,2.95v0.77a0,0,0,0,1,0,0h-6.3a0,0,0,0,1,0,0V92.91A2.95,2.95,0,0,1,110.59,90Z"/><path class="cls-1" d="M125.88,90h0.4a2.95,2.95,0,0,1,2.95,2.95v0.77a0,0,0,0,1,0,0h-6.3a0,0,0,0,1,0,0V92.91A2.95,2.95,0,0,1,125.88,90Z"/><rect class="cls-2" x="101.76" y="60.68" width="15.78" height="17.7" transform="translate(219.3 139.05) rotate(180)"/><path class="cls-2" d="M106.5,57h6.3a0,0,0,0,1,0,0v0.77a2.95,2.95,0,0,1-2.95,2.95h-0.4a2.95,2.95,0,0,1-2.95-2.95V57A0,0,0,0,1,106.5,57Z" transform="translate(219.3 117.64) rotate(180)"/><g class="cls-3"><rect class="cls-4" x="101.76" y="78.62" width="15.78" height="17.7" transform="translate(219.3 174.94) rotate(180)"/><path class="cls-4" d="M106.5,74.91h6.3a0,0,0,0,1,0,0v0.77a2.95,2.95,0,0,1-2.95,2.95h-0.4a2.95,2.95,0,0,1-2.95-2.95V74.91A0,0,0,0,1,106.5,74.91Z" transform="translate(219.3 153.53) rotate(-180)"/></g><g class="cls-5"><rect class="cls-4" x="104.51" y="25.28" width="15.78" height="17.7" transform="translate(224.8 68.26) rotate(180)"/></g><path class="cls-6" d="M114.6,7.34v-1a2.7,2.7,0,0,0-2.7-2.7H111a2.7,2.7,0,0,0-2.7,2.7v1h-9v-1a2.7,2.7,0,0,0-2.7-2.7H95.71A2.7,2.7,0,0,0,93,6.33v1H87.35V25h32.9V7.34H114.6Z"/><g class="cls-5"><rect class="cls-7" x="136.97" y="25.28" width="15.78" height="17.7" transform="translate(289.72 68.26) rotate(180)"/></g><g class="cls-8"><rect class="cls-7" x="169.87" y="7.34" width="15.78" height="17.7" transform="translate(355.52 32.37) rotate(180)"/><path class="cls-7" d="M174.61,3.62h6.3a0,0,0,0,1,0,0V4.39A2.95,2.95,0,0,1,178,7.34h-0.4a2.95,2.95,0,0,1-2.95-2.95V3.62a0,0,0,0,1,0,0Z" transform="translate(355.52 10.96) rotate(-180)"/></g><g class="cls-5"><rect class="cls-4" x="136.97" y="42.98" width="15.78" height="17.7" transform="translate(289.72 103.66) rotate(180)"/></g><g class="cls-5"><rect class="cls-4" x="170.02" y="60.68" width="15.78" height="17.7" transform="translate(355.82 139.05) rotate(180)"/><path class="cls-4" d="M174.76,57h6.3a0,0,0,0,1,0,0v0.77a2.95,2.95,0,0,1-2.95,2.95h-0.4a2.95,2.95,0,0,1-2.95-2.95V57a0,0,0,0,1,0,0Z" transform="translate(355.82 117.64) rotate(-180)"/></g><rect class="cls-4" x="152.9" y="42.98" width="32.9" height="17.7"/><path class="cls-4" d="M161.5,39.26h0.4a2.95,2.95,0,0,1,2.95,2.95V43a0,0,0,0,1,0,0h-6.3a0,0,0,0,1,0,0V42.21A2.95,2.95,0,0,1,161.5,39.26Z"/><path class="cls-4" d="M176.79,39.26h0.4a2.95,2.95,0,0,1,2.95,2.95V43a0,0,0,0,1,0,0h-6.3a0,0,0,0,1,0,0V42.21A2.95,2.95,0,0,1,176.79,39.26Z"/><rect class="cls-9" x="170.02" y="78.62" width="15.78" height="17.7" transform="translate(355.82 174.94) rotate(180)"/><g class="cls-3"><rect class="cls-7" x="136.97" y="78.62" width="32.9" height="17.7"/><path class="cls-7" d="M145.58,74.91H146a2.95,2.95,0,0,1,2.95,2.95v0.77a0,0,0,0,1,0,0h-6.3a0,0,0,0,1,0,0V77.85A2.95,2.95,0,0,1,145.58,74.91Z"/><path class="cls-7" d="M160.87,74.91h0.4a2.95,2.95,0,0,1,2.95,2.95v0.77a0,0,0,0,1,0,0h-6.3a0,0,0,0,1,0,0V77.85A2.95,2.95,0,0,1,160.87,74.91Z"/></g><rect class="cls-7" x="134.35" y="4.72" width="32.9" height="17.7"/><path class="cls-7" d="M143,1h0.4a2.95,2.95,0,0,1,2.95,2.95V4.72a0,0,0,0,1,0,0H140a0,0,0,0,1,0,0V3.95A2.95,2.95,0,0,1,143,1Z"/><path class="cls-7" d="M158.25,1h0.4a2.95,2.95,0,0,1,2.95,2.95V4.72a0,0,0,0,1,0,0h-6.3a0,0,0,0,1,0,0V3.95A2.95,2.95,0,0,1,158.25,1Z"/><rect class="cls-4" x="101.89" y="40.36" width="15.78" height="17.7" transform="translate(219.56 98.41) rotate(180)"/><polyline class="cls-1" points="117.67 72.94 117.67 22.66 101.89 22.66 101.89 40.36 111.12 40.36"/><rect class="cls-1" x="84.73" y="4.72" width="32.9" height="17.7"/><path class="cls-1" d="M93.33,1h0.4a2.95,2.95,0,0,1,2.95,2.95V4.72a0,0,0,0,1,0,0h-6.3a0,0,0,0,1,0,0V3.95A2.95,2.95,0,0,1,93.33,1Z"/><path class="cls-1" d="M108.62,1H109A2.95,2.95,0,0,1,112,3.95V4.72a0,0,0,0,1,0,0h-6.3a0,0,0,0,1,0,0V3.95A2.95,2.95,0,0,1,108.62,1Z"/><polyline class="cls-1" points="134.35 28.32 134.35 40.36 150.13 40.36 150.13 22.66 144.06 22.66"/><rect class="cls-1" x="167.25" y="4.72" width="15.78" height="17.7" transform="translate(350.28 27.13) rotate(180)"/><path class="cls-1" d="M172,1h6.3a0,0,0,0,1,0,0V1.77a2.95,2.95,0,0,1-2.95,2.95h-0.4A2.95,2.95,0,0,1,172,1.77V1A0,0,0,0,1,172,1Z" transform="translate(350.28 5.72) rotate(180)"/><rect class="cls-1" x="134.35" y="40.36" width="15.78" height="17.7" transform="translate(284.48 98.41) rotate(180)"/><polyline class="cls-1" points="171.26 58.05 150.28 58.05 150.28 40.36 183.17 40.36 183.17 53.99"/><path class="cls-1" d="M158.88,36.64h0.4a2.95,2.95,0,0,1,2.95,2.95v0.77a0,0,0,0,1,0,0h-6.3a0,0,0,0,1,0,0V39.59A2.95,2.95,0,0,1,158.88,36.64Z"/><path class="cls-1" d="M174.17,36.64h0.4a2.95,2.95,0,0,1,2.95,2.95v0.77a0,0,0,0,1,0,0h-6.3a0,0,0,0,1,0,0V39.59A2.95,2.95,0,0,1,174.17,36.64Z"/><rect class="cls-1" x="69.09" y="93.68" width="32.9" height="17.7"/><path class="cls-1" d="M93,90h0.4a2.95,2.95,0,0,1,2.95,2.95v0.77a0,0,0,0,1,0,0H90a0,0,0,0,1,0,0V92.91A2.95,2.95,0,0,1,93,90Z"/><rect class="cls-1" x="21" y="111.52" width="32.9" height="17.7"/><path class="cls-1" d="M29.6,107.81H30A2.95,2.95,0,0,1,33,110.76v0.77a0,0,0,0,1,0,0h-6.3a0,0,0,0,1,0,0v-0.77A2.95,2.95,0,0,1,29.6,107.81Z"/><path class="cls-1" d="M44.45,107.81h0.4a2.95,2.95,0,0,1,2.95,2.95v0.77a0,0,0,0,1,0,0H41.5a0,0,0,0,1,0,0v-0.77A2.95,2.95,0,0,1,44.45,107.81Z"/><rect class="cls-1" x="52.64" y="75.81" width="32.9" height="17.7"/><path class="cls-1" d="M61.24,72.1h0.4A2.95,2.95,0,0,1,64.59,75v0.77a0,0,0,0,1,0,0h-6.3a0,0,0,0,1,0,0V75A2.95,2.95,0,0,1,61.24,72.1Z"/><path class="cls-1" d="M76.54,72.1h0.4A2.95,2.95,0,0,1,79.88,75v0.77a0,0,0,0,1,0,0h-6.3a0,0,0,0,1,0,0V75A2.95,2.95,0,0,1,76.54,72.1Z"/><rect class="cls-1" x="167.78" y="93.68" width="32.9" height="17.7"/><path class="cls-1" d="M191.68,90h0.4A2.95,2.95,0,0,1,195,92.91v0.77a0,0,0,0,1,0,0h-6.3a0,0,0,0,1,0,0V92.91A2.95,2.95,0,0,1,191.68,90Z"/><path class="cls-1" d="M56.91,107.79h6.3a0,0,0,0,1,0,0v0.77a2.95,2.95,0,0,1-2.95,2.95h-0.4a2.95,2.95,0,0,1-2.95-2.95v-0.77A0,0,0,0,1,56.91,107.79Z" transform="translate(120.12 219.3) rotate(180)"/><line class="cls-1" x1="131.98" y1="93.67" x2="184.56" y2="93.67"/><line class="cls-1" x1="182.85" y1="111.51" x2="182.85" y2="123.53"/><line class="cls-1" x1="151.31" y1="111.51" x2="151.31" y2="129.18"/><line class="cls-1" x1="118.82" y1="111.51" x2="118.82" y2="129.18"/><polyline class="cls-1" points="85.39 129.19 85.39 111.51 53.9 111.51"/><line class="cls-1" x1="208.86" y1="124.16" x2="208.86" y2="130.13"/><line class="cls-1" x1="148.38" y1="111.51" x2="163.78" y2="111.51"/></svg>