<svg id="Layer_1" data-name="Layer 1" xmlns="http://www.w3.org/2000/svg" viewBox="0 0 299.18 143.51"><defs><style>.cls-1{fill:#009fd1;opacity:0.3;}.cls-2{fill:#d63227;opacity:0.7;}.cls-3{fill:#ffe36c;}.cls-4{fill:none;stroke:#353535;stroke-miterlimit:10;stroke-width:2px;}</style></defs><title>burger_icon_svg</title><polygon class="cls-1" points="250.67 119.95 74.26 138.02 74.26 142.51 250.67 142.51 250.67 119.95"/><circle class="cls-2" cx="93.26" cy="41.05" r="4.63"/><circle class="cls-1" cx="106.84" cy="41.05" r="4.63"/><circle class="cls-3" cx="120.41" cy="41.05" r="4.63"/><rect class="cls-1" x="91.46" y="67.59" width="97.54" height="41"/><path class="cls-4" d="M76.63,27.7h174a0,0,0,0,1,0,0V142.49a0,0,0,0,1,0,0H73.8a0,0,0,0,1,0,0v-112A2.83,2.83,0,0,1,76.63,27.7Z"/><circle class="cls-4" cx="90.01" cy="38.05" r="4.63"/><circle class="cls-4" cx="103.58" cy="38.05" r="4.63"/><circle class="cls-4" cx="117.15" cy="38.05" r="4.63"/><line class="cls-4" x1="73.8" y1="47.81" x2="232.91" y2="47.81"/><line class="cls-4" x1="299.14" y1="142.49" x2="34.14" y2="142.49"/><rect class="cls-4" x="88.46" y="64.59" width="97.54" height="41"/><rect class="cls-3" x="189" y="67.59" width="50" height="41"/><rect class="cls-4" x="186" y="64.59" width="50" height="41"/><path class="cls-4" d="M68.6,114.56H36.47s0.41-10.47,11.61-9c0,0,4.84-9.93,15.06-8.9"/><path class="cls-4" d="M250.93,86.56h47.21s-0.61-17.6-17.06-15c0,0-7.11-16.68-22.13-15"/><path class="cls-4" d="M122.52,15.45l-22.67.26S94.56,5.66,82.93,9.24c0,0-1.41-6.64-12.43-6.64s-15.11,12-15.11,12a10.53,10.53,0,0,0-11.72,4.25"/><line class="cls-4" x1="126.84" y1="15.45" x2="136.35" y2="15.45"/><path class="cls-4" d="M0.81,16.87s4.5-6.17,16.75-6.17,17.5,9.92,18.75,14.42"/><path class="cls-4" d="M33.21,18.81s12.59-4.69,21.59,6.31"/><line class="cls-4" x1="236" y1="27.7" x2="236" y2="15.45"/><ellipse class="cls-4" cx="233.03" cy="12.66" rx="14.75" ry="4.33" transform="translate(73.99 183.45) rotate(-50.15)"/><line class="cls-4" x1="233.03" y1="12.66" x2="219.7" y2="1.91"/><polygon class="cls-4" points="262.89 108.76 256.72 101.51 250.64 108.76 250.64 142.51 262.89 142.51 262.89 108.76"/><polygon class="cls-4" points="275.26 108.76 269.1 101.51 263.01 108.76 263.01 142.51 275.26 142.51 275.26 108.76"/><polygon class="cls-4" points="287.76 108.76 281.6 101.51 275.51 108.76 275.51 142.51 287.76 142.51 287.76 108.76"/></svg>