<svg id="Layer_1" data-name="Layer 1" xmlns="http://www.w3.org/2000/svg" viewBox="0 0 241.84 133.86"><defs><style>.cls-1,.cls-2,.cls-4{fill:#d63227;}.cls-1,.cls-5,.cls-7{opacity:0.3;}.cls-3{fill:none;stroke:#353535;stroke-miterlimit:10;stroke-width:2px;}.cls-4{opacity:0.7;}.cls-5,.cls-8{fill:#009fd1;}.cls-6{fill:#ffe36c;}</style></defs><title>burger_icon_svg</title><rect class="cls-1" x="222.78" y="21.11" width="2.9" height="105.75"/><rect class="cls-2" x="222.78" y="31.02" width="2.9" height="25.93"/><path class="cls-3" d="M11.42,132.84V3.82A2.82,2.82,0,0,1,14.25,1H227.88a2.82,2.82,0,0,1,2.82,2.82v129"/><circle class="cls-4" cx="30.52" cy="11.35" r="4.63"/><circle class="cls-5" cx="44.09" cy="11.35" r="4.63"/><circle class="cls-6" cx="57.67" cy="11.35" r="4.63"/><line class="cls-3" x1="11.42" y1="21.11" x2="225.69" y2="21.11"/><line class="cls-3" x1="241.84" y1="132.84" x2="143.55" y2="132.84"/><g class="cls-7"><path class="cls-8" d="M52,74.18l-7.79-11.7a1.34,1.34,0,0,1,0-1.52L52,49.25a2.26,2.26,0,0,1,2.7-.66h0a1.47,1.47,0,0,1,.81,2.18L48.74,61a1.34,1.34,0,0,0,0,1.52l6.77,10.18a1.47,1.47,0,0,1-.81,2.18h0A2.26,2.26,0,0,1,52,74.18Z"/><path class="cls-8" d="M87,49.25L94.74,61a1.34,1.34,0,0,1,0,1.52L87,74.18a2.26,2.26,0,0,1-2.7.66h0a1.47,1.47,0,0,1-.81-2.18l6.77-10.17a1.34,1.34,0,0,0,0-1.52L83.44,50.78a1.47,1.47,0,0,1,.81-2.18h0A2.26,2.26,0,0,1,87,49.25Z"/><path class="cls-8" d="M76.89,49.76L63.63,75.56a1.92,1.92,0,0,1-2.62.73h0a1.92,1.92,0,0,1-.73-2.62l13.26-25.8a1.92,1.92,0,0,1,2.62-.73h0A1.92,1.92,0,0,1,76.89,49.76Z"/></g><path class="cls-6" d="M162.91,129.13c1.93-1.89,1.9-3,2.18-5.5-5.5,1.42-13.47,5.2-16.66,6.86l-1.14.59-1.13-.63c-5-2.77-12.65-6.53-16.29-7.38H88.44v2.08A8.52,8.52,0,0,0,97,133.66h60.12C159.36,132.71,161.17,130.83,162.91,129.13Z"/><path class="cls-6" d="M163.25,89.91L163,91.58l-2.31-.35a5.69,5.69,0,0,1-4.94-6.83l0.35-2a41.4,41.4,0,0,0-9.6-5.17l1.37,1.8a5.69,5.69,0,0,1-1.2,8.34l-1.89,1.38-1.42-1.86a5.69,5.69,0,0,1,1.2-8.34l1.85-1.35A52,52,0,0,0,139,75a5.08,5.08,0,0,1-.19.84,6.28,6.28,0,0,1-3.06,3.44l-2.09,1-1.09-2.07a6.39,6.39,0,0,1-.54-4.37c-1.92-.19-3.89-0.29-5.89-0.29-0.84,0-1.67,0-2.5.06l-0.14.21a6.3,6.3,0,0,1-3.77,2.64,5.19,5.19,0,0,1-1,.09,6.59,6.59,0,0,1-3.51-1.11l-1-.71a53.52,53.52,0,0,0-5.86,1.55,6.15,6.15,0,0,1-1.71,3.94,6.25,6.25,0,0,1-4.21,1.59h-0.12L100,81.76V80a36.17,36.17,0,0,0-5.25,3.59l0.08,0L97,84.42l-0.8,2.2a6.3,6.3,0,0,1-3.07,3.44,5.44,5.44,0,0,1-2.25.47,6.89,6.89,0,0,1-2-.3,18.36,18.36,0,0,0-2.74,9.49,17,17,0,0,0,.27,3H165.9a17,17,0,0,0,.27-3A18.45,18.45,0,0,0,163.25,89.91Zm-49.16,1.71L113,93.7l-2.1-1a5.69,5.69,0,0,1-2.6-8l1.09-2.07,2.1,1A5.69,5.69,0,0,1,114.09,91.62Zm14.4-4.81a6.09,6.09,0,0,1-.83.05A6,6,0,0,1,124,85.72a6.29,6.29,0,0,1-2.2-4.05l-0.27-2.32,2.32-.33a5.69,5.69,0,0,1,6.68,5.14l0.27,2.32Z"/><path class="cls-3" d="M82.86,117.49V122a10.9,10.9,0,0,0,10.9,10.9h12.07"/><path class="cls-3" d="M165.37,117.49V122a10.9,10.9,0,0,1-10.9,10.9h-26.7"/><path class="cls-3" d="M84.36,106.1s-5.54.27-5.54,4.19-0.23,7,5.54,7h41.08c4.62,0,18.69,5.76,18.69,5.76s15.28-7.43,23.7-7.43"/><path class="cls-3" d="M164.61,101.91a19.67,19.67,0,0,0,.76-5.39c0-15.76-19-28.54-42.4-28.54s-42.4,12.78-42.4,28.54a19.66,19.66,0,0,0,.77,5.39h83.27Z"/><path class="cls-3" d="M157.83,110.3H88.56a4.19,4.19,0,0,1-4.19-4.19h0a4.19,4.19,0,0,1,4.19-4.19h69.28A4.19,4.19,0,0,1,162,106.1h0A4.19,4.19,0,0,1,157.83,110.3Z"/><path class="cls-3" d="M121,78.2a3.31,3.31,0,0,1,4,3.06A3.31,3.31,0,0,1,121,78.2Z"/><path class="cls-3" d="M133,69.15a3.31,3.31,0,0,1-1.53,4.77A3.31,3.31,0,0,1,133,69.15Z"/><path class="cls-3" d="M102.8,72.77a3.31,3.31,0,0,1-3.6,3.48A3.31,3.31,0,0,1,102.8,72.77Z"/><path class="cls-3" d="M142.75,77.25a3.31,3.31,0,0,1-.72,5A3.31,3.31,0,0,1,142.75,77.25Z"/><path class="cls-3" d="M113.42,70.3a3.31,3.31,0,0,1,4.91-1A3.31,3.31,0,0,1,113.42,70.3Z"/><path class="cls-3" d="M108.78,87.33a3.31,3.31,0,0,1-1.55-4.76A3.31,3.31,0,0,1,108.78,87.33Z"/><path class="cls-3" d="M90.77,82.61a3.31,3.31,0,0,1-4.56,2.07A3.31,3.31,0,0,1,90.77,82.61Z"/><path class="cls-3" d="M157.81,85.68a3.31,3.31,0,0,1-2.93-4.06A3.31,3.31,0,0,1,157.81,85.68Z"/><polyline class="cls-3" points="111.55 64.56 111.55 38.43 27.55 38.43 27.55 87.46 71.33 87.46"/><line class="cls-3" x1="69.55" y1="132.84" y2="132.84"/><rect class="cls-5" x="132.29" y="40.81" width="81.9" height="7.13"/><rect class="cls-5" x="132.29" y="53.89" width="81.9" height="7.13"/><polygon class="cls-5" points="214.18 76.12 161.68 76.12 152.77 68.99 214.18 68.99 214.18 76.12"/></svg>