<svg id="Layer_1" data-name="Layer 1" xmlns="http://www.w3.org/2000/svg" viewBox="0 0 36 40">
	<defs>
<style>
.cls-1{fill:#95bf47;}.cls-2{fill:#fff;}
</style>
</defs>
<title>shopify</title>
<path fill="#adc941" d="M684.66,9371.53l-3.2-.24-2.36-2.34a0.58,0.58,0,0,0-.33-0.15l-1.72,35.11,12.3-2.66S685,9372,685,9371.85a0.38,0.38,0,0,0-.35-0.32" transform="translate(-653.35 -9364.1)"/>
<path class="cls-1" d="M687.82,9397.66l0.25,1.67Z" transform="translate(-653.35 -9364.1)"/>
<path class="cls-1" d="M687.52,9395.61l0.3,2.05Z" transform="translate(-653.35 -9364.1)"/>
<path class="cls-1" d="M684,9371.85h0l2.59,17.5Z" transform="translate(-653.35 -9364.1)"/>
<path fill="#adc941" d="M676.05,9403.9l1.72-35.1a1.36,1.36,0,0,0-.54,0l-1.19.37c-0.71-2-2-3.92-4.17-3.92h-0.19a2.68,2.68,0,0,0-2.07-1.19c-5.13,0-7.59,6.42-8.35,9.68l-3.59,1.11c-1.11.35-1.15,0.38-1.29,1.43-0.11.79-3,23.32-3,23.32l22.7,4.25,12.3-2.66Zm-13.21-30.61c0.87-3,2.94-7.81,6.63-7.81h0a1.16,1.16,0,0,1,.66.22c-1.65.77-3.41,2.72-4.15,6.62Zm8.68-2.69-4,1.23c0.76-2.95,2.2-4.37,3.45-4.91a9.52,9.52,0,0,1,.52,3.46C671.52,9370.46,671.52,9370.53,671.52,9370.6Zm1.35-.42c0-.14,0-0.27,0-0.41a9.42,9.42,0,0,0-.46-3.1c1.14,0.14,1.89,1.43,2.38,2.92Z" transform="translate(-653.35 -9364.1)"/>
<path class="cls-1" d="M686.59,9389.35L687,9392Z" transform="translate(-653.35 -9364.1)"/>
<path class="cls-1" d="M677.84,9368.81l0.07,0Z" transform="translate(-653.35 -9364.1)"/>
<path class="cls-2" d="M671.87,9378.32l-1.52,4.51a7,7,0,0,0-3-.71c-2.39,0-2.51,1.5-2.51,1.88,0,2.06,5.37,2.85,5.37,7.68,0,3.8-2.41,6.24-5.66,6.24a7.87,7.87,0,0,1-5.89-2.43l1-3.45s2,1.76,3.78,1.76a1.52,1.52,0,0,0,1.59-1.54c0-2.69-4.41-2.81-4.41-7.22,0-3.72,2.67-7.31,8.05-7.31a6.63,6.63,0,0,1,3.1.59" transform="translate(-653.35 -9364.1)"/>
</svg>
