<svg width="62" height="64" viewBox="0 0 62 64" fill="none" xmlns="http://www.w3.org/2000/svg">
<path d="M39.4955 28.8165C42.7874 33.1233 44.3277 38.5162 43.807 43.9119C43.2863 49.3076 40.7432 54.3065 36.6885 57.9043C32.6337 61.5021 27.3678 63.4324 21.9485 63.3074C16.5291 63.1824 11.3578 61.0114 7.47327 57.2305C3.58875 53.4495 1.27879 48.3388 1.0074 42.9248C0.736018 37.5108 2.52331 32.1946 6.01025 28.0442C9.4972 23.8937 14.4255 21.2165 19.8052 20.5501C25.1849 19.8838 30.6174 21.2778 35.0116 24.4522" stroke="black" stroke-width="2" stroke-miterlimit="10" stroke-linecap="round"/>
<path d="M3.35547 25.5058C3.6793 25.1222 4.01311 24.751 4.35687 24.3923" stroke="black" stroke-miterlimit="10" stroke-linecap="round"/>
<path d="M7.20312 21.844C11.8028 18.3075 17.4861 16.4747 23.2853 16.6576" stroke="black" stroke-miterlimit="10" stroke-linecap="round" stroke-dasharray="3.42 5.12"/>
<path d="M25.1914 16.7921C25.6896 16.8469 26.1878 16.9167 26.686 17.0014" stroke="black" stroke-miterlimit="10" stroke-linecap="round"/>
<path d="M33.0069 33.6291C35.038 36.3152 35.9838 39.6672 35.6564 43.0188C35.329 46.3703 33.7522 49.4759 31.2397 51.7181C28.7272 53.9603 25.4629 55.1748 22.0958 55.1203C18.7288 55.0657 15.5055 53.746 13.067 51.4236C10.6285 49.1012 9.15321 45.9461 8.93456 42.5857C8.71591 39.2253 9.76987 35.9057 11.8869 33.2869C14.0039 30.668 17.0289 28.9418 20.3606 28.4513C23.6922 27.9609 27.0863 28.7422 29.8682 30.6399" stroke="black" stroke-width="2" stroke-miterlimit="10" stroke-linecap="round"/>
<path d="M19.8948 59.3293C17.2469 58.9539 14.7193 57.9802 12.5039 56.4821" stroke="black" stroke-width="2" stroke-miterlimit="10" stroke-linecap="round"/>
<path d="M27.1808 39.361C27.7561 40.4873 27.9145 41.7807 27.628 43.0125C27.3415 44.2442 26.6285 45.335 25.6152 46.0917C24.602 46.8484 23.3537 47.2224 22.0913 47.1474C20.8288 47.0724 19.6336 46.5533 18.7171 45.6819C17.8005 44.8105 17.2217 43.643 17.0831 42.386C16.9444 41.1289 17.2549 39.8634 17.9595 38.8132C18.6641 37.763 19.7174 36.9959 20.9332 36.6476C22.1489 36.2992 23.4487 36.3921 24.6025 36.9099" stroke="black" stroke-width="2" stroke-miterlimit="10" stroke-linecap="round"/>
<path d="M59.74 11.5684L48.3957 22.9126L40.25 23.9514L41.2813 15.8057L52.6255 4.46143L51.5942 12.5997L59.74 11.5684Z" stroke="black" stroke-width="2" stroke-miterlimit="10" stroke-linecap="round"/>
<path d="M60.7209 5.22375L57.5 8.44468" stroke="black" stroke-miterlimit="10" stroke-linecap="round"/>
<path d="M55.3537 19.7141L52.1328 22.9276" stroke="black" stroke-miterlimit="10" stroke-linecap="round"/>
<path d="M60.9498 0.373657L59.5 1.82345" stroke="black" stroke-miterlimit="10" stroke-linecap="round"/>
<path d="M51.4391 12.3755L22.2266 41.588" stroke="black" stroke-width="2" stroke-miterlimit="10" stroke-linecap="round"/>
</svg>
