<svg width="25" height="32" viewBox="0 0 25 32" fill="none" xmlns="http://www.w3.org/2000/svg">
<path d="M17.94 1.08002H1V30.34H24V7L17.94 1.08002Z" stroke="black" stroke-width="2" stroke-miterlimit="10"/>
<path d="M17.1914 1L17.8114 7.48001L24.1914 7.75" stroke="black" stroke-width="2" stroke-miterlimit="10"/>
<path d="M12.4997 9.34003C14.3297 9.34003 15.8197 10.83 15.8197 12.66V15.34H9.17969V12.66C9.17969 10.83 10.6697 9.34003 12.4997 9.34003Z" stroke="black" stroke-width="2" stroke-miterlimit="10"/>
<path d="M17.9591 15.34H7.03906V26.26H17.9591V15.34Z" stroke="black" stroke-width="2" stroke-miterlimit="10"/>
<path d="M12.4986 21.76C13.57 21.76 14.4386 20.8914 14.4386 19.82C14.4386 18.7486 13.57 17.88 12.4986 17.88C11.4272 17.88 10.5586 18.7486 10.5586 19.82C10.5586 20.8914 11.4272 21.76 12.4986 21.76Z" fill="black"/>
<path d="M12.5 19.82V23.75" stroke="black" stroke-width="2" stroke-miterlimit="10"/>
</svg>
