<svg id="Layer_3" data-name="Layer 3" xmlns="http://www.w3.org/2000/svg" viewBox="0 0 34 40"><defs><style>.cls-1{fill:none;stroke:#433f22;stroke-miterlimit:10;stroke-width:1.2px;}.cls-2{fill:#433f22;}</style></defs><title>small_icons_1</title><path class="cls-1" d="M22.23,35.91h7.65a1.68,1.68,0,0,0,1.68-1.68V3.13a1.68,1.68,0,0,0-1.68-1.68H3.32A1.68,1.68,0,0,0,1.64,3.13V9.18H31.56"/><path class="cls-2" d="M8.52,33.53L4.4,21.28l1.25-.12a0.48,0.48,0,0,0,.47-0.5,0.47,0.47,0,0,0-.56-0.43l-3.4.12H1.86a11.16,11.16,0,0,1,7.46-4.92A11.25,11.25,0,0,1,19,18.17c-0.22,0-.37,0-0.53.07a2,2,0,0,0-1.41,2.63,11.46,11.46,0,0,0,.73,1.55,21,21,0,0,1,1,2,4.94,4.94,0,0,1,0,3.14c-0.57,2-1.15,3.9-1.79,5.86l-4.07-12.1,1.22-.12a0.48,0.48,0,0,0,.49-0.51,0.47,0.47,0,0,0-.58-0.43c-1.37,0-2.75.09-4.12,0.1-0.58,0-1.17-.07-1.75-0.09a0.59,0.59,0,0,0-.43.14,0.58,0.58,0,0,0-.1.48,0.57,0.57,0,0,0,.38.3c0.39,0.08.79,0.1,1.2,0.14l1.28,3.51c0.14,0.38.28,0.76,0.42,1.15a0.51,0.51,0,0,1,0,.3q-1.18,3.58-2.38,7.16Z"/><path class="cls-2" d="M15.1,37.31a11.43,11.43,0,0,1-7,.18l3.38-9.81h0.06Z"/><path class="cls-2" d="M6.38,36.79A11.31,11.31,0,0,1,1,22Z"/><path class="cls-2" d="M17.09,36.36l0.64-1.85c0.93-2.68,1.84-5.37,2.79-8.05a12.52,12.52,0,0,0,.8-2.94c0.06-.66,0-1.32.05-2,0-.08,0-0.17,0-0.28A11.3,11.3,0,0,1,17.09,36.36Z"/><circle class="cls-1" cx="27.99" cy="5.46" r="1.1"/><circle class="cls-1" cx="23.46" cy="5.46" r="1.1"/><circle class="cls-1" cx="18.6" cy="5.46" r="1.1"/><line class="cls-1" x1="1.64" y1="5.25" x2="1.64" y2="11.5"/></svg>
