<svg id="Layer_3" data-name="Layer 3" xmlns="http://www.w3.org/2000/svg" viewBox="0 0 32 33"><defs><style>.cls-1{fill:none;stroke:#433f22;stroke-miterlimit:10;stroke-width:1.2px;}</style></defs><title>small_icons_5</title><path class="cls-1" d="M19,3.12a14.59,14.59,0,0,1,8.16,23.1"/><path class="cls-1" d="M2.45,23.54A14.59,14.59,0,0,1,15.64,2.72"/><path class="cls-1" d="M25.58,28A14.59,14.59,0,0,1,3.89,26"/><polyline class="cls-1" points="14.05 0.5 16.28 2.73 14.05 4.95"/><path class="cls-1" d="M13.19,22.6L9.09,18a1.39,1.39,0,0,1,0-1.85l4.1-4.58"/><path class="cls-1" d="M17.36,11.59l4.1,4.58a1.39,1.39,0,0,1,0,1.85l-4.1,4.58"/><polyline class="cls-1" points="30.08 25.91 27 26.61 26.31 23.54"/><polyline class="cls-1" points="2.97 28.43 3.5 25.33 6.61 25.87"/></svg>
