<svg xmlns="http://www.w3.org/2000/svg" width="18" height="18" viewBox="0 0 18 18">
  <metadata><?xpacket begin="﻿" id="W5M0MpCehiHzreSzNTczkc9d"?>
<x:xmpmeta xmlns:x="adobe:ns:meta/" x:xmptk="Adobe XMP Core 5.6-c138 79.159824, 2016/09/14-01:09:01        ">
   <rdf:RDF xmlns:rdf="http://www.w3.org/1999/02/22-rdf-syntax-ns#">
      <rdf:Description rdf:about=""/>
   </rdf:RDF>
</x:xmpmeta>





















<?xpacket end="w"?></metadata>
<defs>
    <style>
      .cls-1 {
        fill: #fff;
        fill-rule: evenodd;
      }
    </style>
  </defs>
  <path id="fa-wordpress" class="cls-1" d="M366.745,1399.58a8.482,8.482,0,0,0,3.516,3.13l-4.1-11.21a8.456,8.456,0,0,0-.748,3.49A8.351,8.351,0,0,0,366.745,1399.58Zm12.344-7.39c-0.022-.04-0.074-0.12-0.156-0.26s-0.136-.22-0.162-0.26-0.072-.13-0.139-0.24a1.625,1.625,0,0,1-.134-0.25c-0.023-.06-0.056-0.13-0.1-0.23a1.712,1.712,0,0,1-.089-0.26q-0.022-.105-0.045-0.24a1.639,1.639,0,0,1-.022-0.27,1.512,1.512,0,0,1,.413-1.06,1.312,1.312,0,0,1,1.027-.46h0.111a8.61,8.61,0,0,0-2.662-1.66,8.6,8.6,0,0,0-7.232.45,8.583,8.583,0,0,0-3.063,2.83c0.074,0,.171,0,0.29.01h0.257l2.288-.11a0.324,0.324,0,0,1,.318.15,0.359,0.359,0,0,1,.028.35,0.321,0.321,0,0,1-.291.2c-0.312.04-.64,0.07-0.982,0.09l3.125,9.29,1.875-5.63-1.339-3.66-0.893-.09a0.319,0.319,0,0,1-.218-0.08,0.36,0.36,0,0,1-.1-0.19,0.443,0.443,0,0,1,.017-0.21,0.322,0.322,0,0,1,.128-0.16,0.3,0.3,0,0,1,.229-0.06c0.945,0.07,1.7.11,2.254,0.11l2.288-.11a0.322,0.322,0,0,1,.318.15,0.356,0.356,0,0,1,.028.35,0.32,0.32,0,0,1-.29.2c-0.312.04-.64,0.07-0.982,0.09l3.1,9.22,0.848-2.85c0.029-.1.095-0.32,0.195-0.65s0.166-.56.195-0.66,0.073-.27.129-0.49a4.838,4.838,0,0,0,.111-0.55,3.383,3.383,0,0,0,.028-0.43,4.662,4.662,0,0,0-.7-2.37h0Zm-7.511,11.03a8.531,8.531,0,0,0,5.268-.14,0.238,0.238,0,0,1-.056-0.12l-2.645-7.22Zm10.011-11.47a9.768,9.768,0,0,1-.658,3.08l-2.623,7.57a8.536,8.536,0,0,0,3.114-3.11,8.292,8.292,0,0,0,1.161-4.3,8.491,8.491,0,0,0-1.061-4.12,5.513,5.513,0,0,1,.067.88h0Z" transform="translate(-365.406 -1386.41)"/>
</svg>
