<svg id="icon" xmlns="http://www.w3.org/2000/svg" viewBox="0 0 59.18 65.31"><title>1</title><path d="M53.74,32.92A26.63,26.63,0,1,0,27.63,54.26c5.93,0,13.64-1.63,18.16-6.82" style="fill:none;stroke:#353535;stroke-miterlimit:10;stroke-width:2px"/><path d="M56.37,44.52q-1.82-1.57-6.08-1.57H47.36q-3.22,0-3.22-1.91V39.32a1.68,1.68,0,0,1,1.09-1.65,11,11,0,0,1,4-.49q2.1,0,7.79.67V33.51c-1.64-.17-3.1-0.29-4.39-0.37V27.7H47.06v5.4a14.42,14.42,0,0,0-6.12,1.44A5,5,0,0,0,38.3,39.2V41q0,6.36,8,6.36h2.84a3.47,3.47,0,0,1,2.55.69,2.53,2.53,0,0,1,.63,1.78v1.57q0,2.51-4.87,2.51a65.67,65.67,0,0,1-8.68-1V57.4a69.8,69.8,0,0,0,8.27.67v6.24h5.53V57.54a11.87,11.87,0,0,0,2.48-.87,5.17,5.17,0,0,0,2.32-2.25,7.71,7.71,0,0,0,.79-3.65V49.16A5.8,5.8,0,0,0,56.37,44.52Z" style="fill:none;stroke:#353535;stroke-miterlimit:10;stroke-width:2px"/><line x1="6.23" y1="27.63" x2="9.67" y2="27.63" style="fill:none;stroke:#353535;stroke-miterlimit:10;stroke-width:2px"/><line x1="27.63" y1="6.23" x2="27.63" y2="9.67" style="fill:none;stroke:#353535;stroke-miterlimit:10;stroke-width:2px"/><line x1="27.63" y1="45.59" x2="27.63" y2="49.03" style="fill:none;stroke:#353535;stroke-miterlimit:10;stroke-width:2px"/><line x1="33.75" y1="7.39" x2="27.78" y2="28.64" style="fill:none;stroke:#009fd1;stroke-miterlimit:10;stroke-width:3px"/><line x1="40.98" y1="27.31" x2="27.35" y2="27.31" style="fill:none;stroke:#d63227;stroke-miterlimit:10;stroke-width:3px"/></svg>