<svg id="Layer_1" data-name="Layer 1" xmlns="http://www.w3.org/2000/svg" xmlns:xlink="http://www.w3.org/1999/xlink" viewBox="0 0 80 64"><defs><style>.cls-1,.cls-3,.cls-4,.cls-5,.cls-6,.cls-7,.cls-8{fill:none;}.cls-2{clip-path:url(#clip-path);}.cls-3,.cls-7{stroke:#d73227;}.cls-3,.cls-4,.cls-5,.cls-6,.cls-7,.cls-8{stroke-miterlimit:10;}.cls-3,.cls-4,.cls-5{stroke-width:2px;}.cls-4,.cls-8{stroke:#00a0d2;}.cls-5,.cls-6{stroke:#000;}</style><clipPath id="clip-path" transform="translate(0)"><rect class="cls-1" width="80" height="64"/></clipPath></defs><title>psd-to-wp-5</title><g class="cls-2"><path class="cls-3" d="M1,19.94V58.06A4.94,4.94,0,0,0,5.94,63H9" transform="translate(0)"/><path class="cls-4" d="M21,63H74a5,5,0,0,0,5-5V16a5,5,0,0,0-5-5H49" transform="translate(0)"/><line class="cls-5" x1="37.31" y1="11" x2="37" y2="11"/><path class="cls-5" d="M80,1H6A5,5,0,1,0,6,11H42.69" transform="translate(0)"/><line class="cls-5" x1="12" y1="63" x2="18" y2="63"/><line class="cls-3" x1="7" y1="21" x2="15" y2="21"/><line class="cls-3" x1="7" y1="52" x2="15" y2="52"/><line class="cls-6" x1="66" y1="16.5" x2="74" y2="16.5"/><line class="cls-7" x1="66" y1="18.5" x2="70" y2="18.5"/><line class="cls-6" x1="66" y1="20.5" x2="72" y2="20.5"/><line class="cls-8" x1="66" y1="22.5" x2="68" y2="22.5"/><line class="cls-8" x1="66" y1="32.5" x2="74" y2="32.5"/><line class="cls-6" x1="66" y1="34.5" x2="70" y2="34.5"/><line class="cls-7" x1="66" y1="36.5" x2="72" y2="36.5"/><line class="cls-6" x1="66" y1="38.5" x2="68" y2="38.5"/><line class="cls-6" x1="66" y1="24.5" x2="71" y2="24.5"/><line class="cls-7" x1="66" y1="26.5" x2="72" y2="26.5"/><line class="cls-6" x1="66" y1="28.5" x2="74" y2="28.5"/><line class="cls-6" x1="66" y1="30.5" x2="70" y2="30.5"/><line class="cls-5" x1="15" y1="31" x2="32" y2="31"/><line class="cls-5" x1="15" y1="41" x2="38" y2="41"/><line class="cls-5" x1="15" y1="36" x2="43" y2="36"/><line class="cls-4" x1="11" y1="46" x2="16" y2="46"/><line class="cls-4" x1="11" y1="26" x2="16" y2="26"/><line class="cls-3" x1="73" y1="6" x2="77" y2="6"/><line class="cls-4" x1="66" y1="6" x2="70" y2="6"/><line x1="59" y1="6" x2="63" y2="6"/><line class="cls-5" x1="59" y1="6" x2="63" y2="6"/></g></svg>