<svg width="28" height="28" viewBox="0 0 28 28" fill="none" xmlns="http://www.w3.org/2000/svg">
<path d="M13.9974 0.666656C6.65073 0.666656 0.664062 6.65332 0.664062 14C0.664062 21.3467 6.65073 27.3333 13.9974 27.3333C21.3441 27.3333 27.3307 21.3467 27.3307 14C27.3307 6.65332 21.3441 0.666656 13.9974 0.666656ZM2.01073 14C2.01073 12.2667 2.38406 10.6133 3.05073 9.11999L8.77073 24.7867C4.77073 22.84 2.01073 18.7467 2.01073 14ZM13.9974 25.9867C12.8241 25.9867 11.6907 25.8133 10.6107 25.4933L14.2107 15.04L17.8907 25.1333C17.9174 25.1867 17.9441 25.2533 17.9707 25.2933C16.7307 25.7467 15.3974 25.9867 13.9974 25.9867ZM15.6507 8.37332C16.3707 8.33332 17.0241 8.25332 17.0241 8.25332C17.6641 8.17332 17.5974 7.22666 16.9441 7.26666C16.9441 7.26666 14.9974 7.41332 13.7441 7.41332C12.5707 7.41332 10.5841 7.26666 10.5841 7.26666C9.94406 7.23999 9.86406 8.22666 10.5174 8.26666C10.5174 8.26666 11.1307 8.34666 11.7707 8.38666L13.6374 13.5067L11.0107 21.3733L6.65073 8.37332C7.37073 8.34666 8.02406 8.26666 8.02406 8.26666C8.66406 8.18666 8.5974 7.23999 7.94406 7.27999C7.94406 7.27999 5.9974 7.42666 4.74406 7.42666C4.5174 7.42666 4.25073 7.42666 3.97073 7.41332C6.13073 4.15999 9.81073 2.01332 13.9974 2.01332C17.1174 2.01332 19.9574 3.19999 22.0907 5.15999C22.0374 5.15999 21.9841 5.14666 21.9307 5.14666C20.7574 5.14666 19.9174 6.17332 19.9174 7.27999C19.9174 8.26666 20.4907 9.10666 21.0907 10.0933C21.5441 10.8933 22.0774 11.92 22.0774 13.4C22.0774 14.4267 21.6774 15.6133 21.1707 17.28L19.9707 21.28L15.6507 8.37332ZM24.5174 8.25332C26.015 10.9942 26.3834 14.2114 25.5441 17.2198C24.7049 20.2283 22.7242 22.7902 20.0241 24.36L23.6907 13.7733C24.3707 12.0667 24.5974 10.6933 24.5974 9.47999C24.5974 9.03999 24.5707 8.62666 24.5174 8.25332Z" fill="black"/>
</svg>
