<svg id="Layer_3" data-name="Layer 3" xmlns="http://www.w3.org/2000/svg" viewBox="0 0 35 38"><defs><style>.cls-1{fill:none;stroke:#433f22;stroke-miterlimit:10;stroke-width:1.2px;}</style></defs><title>small_icons_4</title><rect class="cls-1" x="1.29" y="16.8" width="7.15" height="7.15"/><rect class="cls-1" x="26.44" y="16.8" width="7.15" height="7.15"/><rect class="cls-1" x="13.86" y="16.8" width="7.15" height="7.15"/><rect class="cls-1" x="1.29" y="29.38" width="7.15" height="7.15"/><rect class="cls-1" x="26.44" y="29.38" width="7.15" height="7.15"/><rect class="cls-1" x="13.86" y="29.38" width="7.15" height="7.15"/><rect class="cls-1" x="13.86" y="1.2" width="7.15" height="7.15"/><line class="cls-1" x1="17.44" y1="8.36" x2="17.44" y2="16.8"/><path class="cls-1" d="M17.44,13.06H29A1.06,1.06,0,0,1,30,14.12V16.8"/><path class="cls-1" d="M17.3,13.06H5.78a1.06,1.06,0,0,0-1.06,1.06V16.8"/><line class="cls-1" x1="4.73" y1="23.95" x2="4.73" y2="29.38"/><line class="cls-1" x1="17.44" y1="23.95" x2="17.44" y2="29.38"/><line class="cls-1" x1="30.02" y1="23.95" x2="30.02" y2="29.38"/><line class="cls-1" x1="21.02" y1="32.96" x2="26.44" y2="32.96"/><line class="cls-1" x1="8.3" y1="32.96" x2="13.73" y2="32.96"/></svg>
