<svg xmlns="http://www.w3.org/2000/svg" viewBox="0 0 294 201"><defs><style>.cls-1{fill:#75c8dc;}.cls-2{fill:#349dcc;}</style></defs><title>Asset 1</title><g id="Layer_2" data-name="Layer 2"><g id="Layer_1-2" data-name="Layer 1"><path class="cls-1" d="M12.94,200.07H282.67A11.1,11.1,0,0,0,293.77,189V13.5a11.11,11.11,0,0,0-17.48-8.92L3.85,195.34a11.06,11.06,0,0,0,9.09,4.73"/><path class="cls-2" d="M11.65,200a11.23,11.23,0,0,0,1.29.08h0A11.2,11.2,0,0,1,11.65,200Z"/><path class="cls-2" d="M138.08,86.69,17.51,2A11.11,11.11,0,0,0,0,10.93V186.4H0a11,11,0,0,0,2.8,7.35,11.1,11.1,0,0,1-.78-1"/><path class="cls-2" d="M6.59,198.08a11.13,11.13,0,0,1-1-.75A11.14,11.14,0,0,0,6.59,198.08Z"/><path class="cls-2" d="M4.71,196.42a11.14,11.14,0,0,0,.8.79A11.12,11.12,0,0,1,4.71,196.42Z"/><path class="cls-2" d="M7.72,198.77a11.06,11.06,0,0,1-1.11-.68A11.07,11.07,0,0,0,7.72,198.77Z"/><path class="cls-2" d="M11.29,199.94c-.3,0-.61-.1-.9-.17C10.69,199.84,11,199.89,11.29,199.94Z"/><path class="cls-2" d="M282.67,200.07h0A11.1,11.1,0,0,0,293.77,189,11.1,11.1,0,0,1,282.67,200.07Z"/><path class="cls-2" d="M10,199.67q-.44-.12-.86-.27Q9.57,199.55,10,199.67Z"/><path class="cls-2" d="M8.83,199.28a11,11,0,0,1-1.05-.48A11,11,0,0,0,8.83,199.28Z"/></g></g></svg>
