<svg xmlns="http://www.w3.org/2000/svg" viewBox="0 0 37.16 41.42"><g id="Layer_1" data-name="Layer 1"><path d="M18.54,7.94a4,4,0,1,1,4-4A4,4,0,0,1,18.54,7.94Zm0-6.94a3,3,0,1,0,3,3A3,3,0,0,0,18.54,1Z" style="fill:#443f23"/><path d="M33.19,16.4a4,4,0,1,1,4-4A4,4,0,0,1,33.19,16.4Zm0-6.94a3,3,0,1,0,3,3A3,3,0,0,0,33.19,9.46Z" style="fill:#443f23"/><path d="M4,16.4a4,4,0,1,1,4-4A4,4,0,0,1,4,16.4ZM4,9.46a3,3,0,1,0,3,3A3,3,0,0,0,4,9.46Z" style="fill:#443f23"/><path d="M33.19,33.19a4,4,0,1,1,4-4A4,4,0,0,1,33.19,33.19Zm0-6.94a3,3,0,1,0,3,3A3,3,0,0,0,33.19,26.25Z" style="fill:#443f23"/><path d="M4,33.19a4,4,0,1,1,4-4A4,4,0,0,1,4,33.19Zm0-6.94a3,3,0,1,0,3,3A3,3,0,0,0,4,26.25Z" style="fill:#443f23"/><path d="M18.54,41.42a4,4,0,1,1,4-4A4,4,0,0,1,18.54,41.42Zm0-6.94a3,3,0,1,0,3,3A3,3,0,0,0,18.54,34.48Z" style="fill:#443f23"/><rect x="3.54" y="15.9" width="1" height="9.85" style="fill:#443f23"/><rect x="6.18" y="7.72" width="10.25" height="1" transform="translate(-2.62 6.99) rotate(-30.97)" style="fill:#443f23"/><rect x="10.76" y="28.34" width="1" height="10.07" transform="translate(-23.24 26.24) rotate(-59.67)" style="fill:#443f23"/><rect x="32.69" y="15.9" width="1" height="9.85" style="fill:#443f23"/><rect x="25.43" y="3.1" width="1" height="10.25" transform="translate(5.54 26.23) rotate(-59.04)" style="fill:#443f23"/><rect x="20.94" y="32.88" width="10.07" height="1" transform="translate(-13.3 17.68) rotate(-30.32)" style="fill:#443f23"/><rect x="0.23" y="16.06" width="22.02" height="1" transform="translate(-8.72 17.99) rotate(-59.93)" style="fill:#443f23"/><rect x="25.33" y="5.48" width="1" height="22.05" transform="translate(-4.8 15.24) rotate(-30.22)" style="fill:#443f23"/><rect x="7.39" y="28.49" width="22.34" height="1" style="fill:#443f23"/></g></svg>