<svg id="Layer_1" data-name="Layer 1" xmlns="http://www.w3.org/2000/svg" viewBox="0 0 77 84"><defs><style>.cls-1,.cls-2,.cls-3{fill:none;stroke-miterlimit:10;}.cls-1{stroke:#353535;stroke-width:2px;}.cls-2{stroke:#009fd1;}.cls-2,.cls-3{stroke-width:3px;}.cls-3{stroke:#d63227;}</style></defs><title>burger_icon_svg</title><line class="cls-1" x1="30.66" y1="27.99" x2="38.96" y2="38.27"/><path class="cls-1" d="M64,61.61a5.76,5.76,0,0,1-5.09.76c-4.54-1.51-6.45-8-6.45-8s5.44-4.08,10-2.57a5.62,5.62,0,0,1,3.39,3.11l3.59,5.23,4.72,2.58-5.57-13A19.8,19.8,0,1,0,33,66.1l0,9.59s12.92-3.53,14.73-1.89c3.83,3.46,11.85,8.86,24.69,8.86Z"/><path class="cls-2" d="M59.16,2.62a51.73,51.73,0,0,0-22.26.19C16.21,7.75,1.5,25.32,1.5,46.59"/><path class="cls-3" d="M1.69,50.44c6.38-.26,13.7-0.15,18.75,0a20,20,0,0,1-.37-3.85c0-10.76,11.57-27.41,32.52-21.31C56.43,17.35,61,8.8,63.71,3.8"/></svg>
