<svg width="28" height="31" viewBox="0 0 28 31" fill="none" xmlns="http://www.w3.org/2000/svg">
<path d="M13.8516 19.53V23.54C13.8516 27.12 16.7516 30.02 20.3316 30.02C23.9116 30.02 26.8116 27.12 26.8116 23.54V5.58997C26.8116 3.37997 25.0216 1.59998 22.8216 1.59998C20.6116 1.59998 18.8316 3.38997 18.8316 5.58997V25.51" stroke="black" stroke-width="2" stroke-miterlimit="10"/>
<path d="M5.32812 10.97L11.8281 17.47" stroke="black" stroke-width="2" stroke-miterlimit="10"/>
<path d="M11.8281 10.97L5.32812 17.47" stroke="black" stroke-width="2" stroke-miterlimit="10"/>
<path d="M8.58 21.8C12.7663 21.8 16.16 18.4063 16.16 14.22C16.16 10.0337 12.7663 6.64001 8.58 6.64001C4.39368 6.64001 1 10.0337 1 14.22C1 18.4063 4.39368 21.8 8.58 21.8Z" stroke="black" stroke-width="2" stroke-miterlimit="10"/>
<path d="M13.7812 8.75V0" stroke="black" stroke-width="2" stroke-miterlimit="10"/>
</svg>
