<svg width="25" height="36" viewBox="0 0 25 36" fill="none" xmlns="http://www.w3.org/2000/svg">
<path d="M23.2612 14.415L14.6012 7.21497L5.60125 14.355L5.53125 34.345L23.1912 34.405L23.2612 14.415Z" stroke="black" stroke-width="2" stroke-miterlimit="10"/>
<path d="M14.43 14.615C15.634 14.615 16.61 13.639 16.61 12.435C16.61 11.231 15.634 10.255 14.43 10.255C13.226 10.255 12.25 11.231 12.25 12.435C12.25 13.639 13.226 14.615 14.43 14.615Z" fill="black"/>
<path d="M14.6899 12.775C14.6899 12.775 4.94993 -2.22503 1.43993 1.63497C-1.38007 4.74497 10.2799 10.485 10.2799 10.485" stroke="black" stroke-width="2" stroke-miterlimit="10"/>
<path d="M19.0094 26.375C19.0294 27.375 18.7294 28.195 18.1094 28.855C17.4894 29.515 16.6394 29.915 15.5794 30.075L15.5994 31.035L14.4394 31.065L14.4194 30.125C13.4394 30.075 12.5994 29.825 11.8994 29.365C11.1894 28.905 10.6794 28.275 10.3594 27.465L12.3994 26.215C12.7894 27.145 13.4494 27.655 14.3694 27.755L14.2994 24.745H14.2794L14.2394 24.725C13.5294 24.485 12.8894 24.195 12.3194 23.865C11.3694 23.295 10.8394 22.365 10.7394 21.085C10.7194 20.055 11.0294 19.225 11.6694 18.615C12.3494 17.975 13.1694 17.605 14.1094 17.495L14.0894 16.495L15.2494 16.465L15.2694 17.505C16.8494 17.665 17.9794 18.455 18.6594 19.875L16.6694 21.105C16.3794 20.415 15.9194 20.005 15.3194 19.865L15.3894 22.765C16.5194 23.195 17.2594 23.515 17.5894 23.745C18.4994 24.375 18.9594 25.245 18.9894 26.375H19.0094ZM13.1294 21.045C13.1294 21.295 13.2194 21.525 13.3894 21.705C13.5594 21.885 13.8394 22.085 14.2394 22.265L14.1794 19.835C13.4594 19.995 13.1094 20.395 13.1294 21.045ZM15.4694 25.185L15.5294 27.685C16.2694 27.515 16.6294 27.105 16.6094 26.445C16.5994 25.925 16.2194 25.505 15.4694 25.185Z" fill="black"/>
</svg>
