<svg id="icon" xmlns="http://www.w3.org/2000/svg" viewBox="0 0 69.33 69.2"><title>1</title><path d="M34.68,55.66a1.34,1.34,0,0,1,2.06-1.12,7.75,7.75,0,0,0,3.86,1.2,4.77,4.77,0,0,0,0-9.55,7.75,7.75,0,0,0-3.86,1.2,1.34,1.34,0,0,1-2.06-1.12V34.57H22.93a1.34,1.34,0,0,0-1.12,2.07A7.82,7.82,0,0,1,23,40.54a4.77,4.77,0,0,1-9.55,0,7.82,7.82,0,0,1,1.2-3.88,1.34,1.34,0,0,0-1.12-2.07H1.5V67.7H34.68v-12Z" style="fill:none;stroke:#353535;stroke-miterlimit:10;stroke-width:2px"/><path d="M34.64,13.54a1.34,1.34,0,0,1-2.06,1.12,7.75,7.75,0,0,0-3.86-1.2,4.77,4.77,0,0,0,0,9.55,7.75,7.75,0,0,0,3.86-1.2,1.34,1.34,0,0,1,2.06,1.12v11.7H46.4a1.34,1.34,0,0,0,1.12-2.07,7.82,7.82,0,0,1-1.2-3.88,4.77,4.77,0,1,1,9.55,0,7.82,7.82,0,0,1-1.2,3.88,1.34,1.34,0,0,0,1.12,2.07h12V1.5H34.64v12Z" style="fill:none;stroke:#353535;stroke-miterlimit:10;stroke-width:2px"/><path d="M13.54,34.68a1.34,1.34,0,0,1,1.12,2.06,7.75,7.75,0,0,0-1.2,3.86,4.77,4.77,0,0,0,9.55,0,7.75,7.75,0,0,0-1.2-3.86,1.34,1.34,0,0,1,1.12-2.06h11.7V34.63h0V22.93a1.34,1.34,0,0,0-2.07-1.12A7.82,7.82,0,0,1,28.66,23a4.77,4.77,0,0,1,0-9.55,7.82,7.82,0,0,1,3.88,1.2,1.34,1.34,0,0,0,2.07-1.12V1.5H1.5V34.68h12Z" style="fill:none;stroke:#009fd1;stroke-miterlimit:10;stroke-width:3px"/><path d="M55.79,34.52a1.34,1.34,0,0,1-1.12-2.06,7.75,7.75,0,0,0,1.2-3.86,4.77,4.77,0,0,0-9.55,0,7.75,7.75,0,0,0,1.2,3.86,1.34,1.34,0,0,1-1.12,2.06H34.7v0.05h0v11.7a1.34,1.34,0,0,0,2.07,1.12,7.82,7.82,0,0,1,3.88-1.2,4.77,4.77,0,0,1,0,9.55,7.82,7.82,0,0,1-3.88-1.2,1.34,1.34,0,0,0-2.07,1.12v12H67.83V34.52h-12Z" style="fill:none;stroke:#d63227;stroke-miterlimit:10;stroke-width:3px"/></svg>