<svg width="32" height="35" viewBox="0 0 32 35" fill="none" xmlns="http://www.w3.org/2000/svg">
<path d="M21.5967 4.08432C21.5967 4.08432 21.2078 4.20098 20.5467 4.41487C20.43 4.06488 20.2745 3.61767 20.0412 3.1899C19.3023 1.77049 18.2134 1.03162 16.8912 1.01218C16.794 1.01218 16.7162 1.01218 16.619 1.03162C16.5801 0.992735 16.5412 0.934403 16.5024 0.895515C15.9385 0.273309 15.1996 -0.01835 14.3246 0.00109395C12.633 0.0594258 10.9414 1.28439 9.56087 3.46212C8.58868 4.99819 7.86925 6.92314 7.65537 8.40088C5.71098 9.00364 4.3499 9.4314 4.31101 9.4314C3.31937 9.74251 3.29993 9.78139 3.16382 10.6953C3.0666 11.3952 0.5 31.3058 0.5 31.3058L21.8494 35.0002V4.04543C21.7522 4.04543 21.655 4.06488 21.5967 4.08432ZM16.6579 5.62039C15.5302 5.97038 14.2858 6.35926 13.0608 6.7287C13.4108 5.38706 14.0719 4.06488 14.8885 3.1899C15.1996 2.85935 15.6079 2.50936 16.1135 2.29548C16.5801 3.28712 16.6774 4.66764 16.6579 5.62039ZM14.3441 1.12884C14.733 1.12884 15.083 1.20662 15.3746 1.40106C14.908 1.63438 14.4802 1.98438 14.0524 2.43159C12.983 3.57878 12.1469 5.38706 11.8164 7.11757C10.7858 7.42868 9.7942 7.73978 8.86089 8.03144C9.44421 5.28984 11.7386 1.20662 14.3441 1.12884ZM11.0386 16.6645C11.1553 18.4728 15.9385 18.8812 16.2107 23.1394C16.4246 26.4837 14.4413 28.7781 11.5636 28.9531C8.14147 29.167 6.23596 27.1448 6.23596 27.1448L6.95539 24.0532C6.95539 24.0532 8.86089 25.4921 10.3775 25.3949C11.3692 25.3365 11.7192 24.5199 11.6997 23.956C11.5442 21.5839 7.65537 21.72 7.42204 17.8312C7.20816 14.5452 9.36644 11.2397 14.1108 10.9286C15.9579 10.8119 16.8912 11.2786 16.8912 11.2786L15.8024 15.3424C15.8024 15.3424 14.5969 14.7979 13.158 14.8757C11.0581 15.0118 11.0192 16.334 11.0386 16.6645ZM17.7857 5.2704C17.7662 4.41487 17.669 3.20934 17.2607 2.17881C18.544 2.43159 19.1856 3.87044 19.4578 4.74541C18.9717 4.90097 18.4079 5.07596 17.7857 5.2704ZM22.5494 34.9224L31.4159 32.7252C31.4159 32.7252 27.6048 6.94258 27.5854 6.76758C27.566 6.59259 27.4104 6.49537 27.2743 6.47592C27.1382 6.45648 24.6494 6.41759 24.6494 6.41759C24.6494 6.41759 23.1327 4.93985 22.5494 4.37598V34.9224Z" fill="white"/>
</svg>
