<svg id="Layer_1" data-name="Layer 1" xmlns="http://www.w3.org/2000/svg" viewBox="0 0 45 27">
	<title>woocommerce</title>
	<path fill="#353535" d="M687,9223.74a1.94,1.94,0,0,0-1.91,1.14,6,6,0,0,0-1,2.19,6.4,6.4,0,0,0-.13,1.34,4.67,4.67,0,0,0,.33,1.67,1.67,1.67,0,0,0,1.09,1.2,1.77,1.77,0,0,0,1.49-.59,4.87,4.87,0,0,0,1.4-2.72,8,8,0,0,0,.13-1.36,4.67,4.67,0,0,0-.33-1.67A1.67,1.67,0,0,0,687,9223.74Z" transform="translate(-648.85 -9216.18)"/>
	<path fill="#353535" d="M675.51,9223.74a1.94,1.94,0,0,0-1.91,1.14,6,6,0,0,0-1,2.19,6.4,6.4,0,0,0-.13,1.34,4.67,4.67,0,0,0,.33,1.67,1.67,1.67,0,0,0,1.09,1.2,1.77,1.77,0,0,0,1.49-.59,4.87,4.87,0,0,0,1.4-2.72,6.45,6.45,0,0,0,.13-1.36,4.67,4.67,0,0,0-.33-1.67A1.67,1.67,0,0,0,675.51,9223.74Z" transform="translate(-648.85 -9216.18)"/>
	<path fill="#353535" d="M689.66,9216.18H653a4.18,4.18,0,0,0-4.18,4.19v14a4.19,4.19,0,0,0,4.19,4.19h17.35l7.93,4.42-1.8-4.42h13.14a4.19,4.19,0,0,0,4.19-4.19v-14A4.19,4.19,0,0,0,689.66,9216.18Zm-22.39,18.42a2.18,2.18,0,0,1-.22,1.21,1.19,1.19,0,0,1-1,.66,1.85,1.85,0,0,1-1.45-.68,18.21,18.21,0,0,1-4.07-7.84q-1.79,3.53-2.65,5.3c-1.09,2.08-2,3.15-2.78,3.2-0.5,0-.92-0.39-1.29-1.27q-1.41-3.62-3-14a1.64,1.64,0,0,1,.29-1.23,1.48,1.48,0,0,1,1.16-.57,1.34,1.34,0,0,1,1.6,1.32q0.86,5.77,1.86,9.77l4-7.67a1.75,1.75,0,0,1,1.38-1.1c0.81-.06,1.31.46,1.51,1.55a34.37,34.37,0,0,0,1.75,6.29q0.72-7,2.43-10.12a1.41,1.41,0,0,1,1.21-.81,1.6,1.6,0,0,1,1.16.37,1.44,1.44,0,0,1,.57,1,1.6,1.6,0,0,1-.18.88,22.27,22.27,0,0,0-1.78,6.64A34.26,34.26,0,0,0,667.27,9234.59Zm11.3-2.89a4.92,4.92,0,0,1-4.32,2.76,4.83,4.83,0,0,1-1-.11,4.24,4.24,0,0,1-2.94-2.13,7.12,7.12,0,0,1-.88-3.64,9.75,9.75,0,0,1,1.44-5.19,5,5,0,0,1,4.32-2.76,4.83,4.83,0,0,1,1,.11,4.27,4.27,0,0,1,2.94,2.13,7,7,0,0,1,.88,3.62A9.86,9.86,0,0,1,678.56,9231.71Zm11.54,0a4.92,4.92,0,0,1-4.32,2.76,4.83,4.83,0,0,1-1-.11,4.24,4.24,0,0,1-2.94-2.13,7.12,7.12,0,0,1-.88-3.64,9.75,9.75,0,0,1,1.43-5.19,5,5,0,0,1,4.32-2.76,4.83,4.83,0,0,1,1,.11,4.24,4.24,0,0,1,2.94,2.13,7,7,0,0,1,.88,3.62A9.86,9.86,0,0,1,690.1,9231.71Z" transform="translate(-648.85 -9216.18)"/>
</svg>
