<svg id="Layer_1" data-name="Layer 1" xmlns="http://www.w3.org/2000/svg" viewBox="0 0 66 69"><defs><style>.cls-1,.cls-2,.cls-3{fill:none;stroke-miterlimit:10;}.cls-1{stroke:#009fd1;}.cls-1,.cls-3{stroke-width:1px;}.cls-2{stroke:#353535;stroke-width:1px;}.cls-3{stroke:#d63227;}</style></defs><title>burger_icon_svg</title><line class="cls-1" x1="54.61" y1="7.57" x2="54.61" y2="1.5"/><path class="cls-2" d="M30.6,10.67H42.33a2.24,2.24,0,0,1,2.24,2.24V65.64a2.24,2.24,0,0,1-2.24,2.24H3.24A2.24,2.24,0,0,1,1,65.64V12.91a2.24,2.24,0,0,1,2.24-2.24H14.76"/><polygon class="cls-3" points="29.88 7.15 26.82 7.15 26.82 1.5 18.75 1.5 18.75 7.15 15.68 7.15 13.06 16.21 32.5 16.21 29.88 7.15"/><path class="cls-2" d="M57.57,48.67l-2.5,9.28a0.37,0.37,0,0,1-.72,0l-2.16-9.26V7.57h5.38V48.67Z"/><path class="cls-2" d="M59.68,10.67h2.71a1.89,1.89,0,0,1,1.89,1.89V29.85"/></svg>
