<svg xmlns="http://www.w3.org/2000/svg" width="18" height="28" viewBox="0 0 18 28">
  <metadata><?xpacket begin="﻿" id="W5M0MpCehiHzreSzNTczkc9d"?>
<x:xmpmeta xmlns:x="adobe:ns:meta/" x:xmptk="Adobe XMP Core 5.6-c138 79.159824, 2016/09/14-01:09:01        ">
   <rdf:RDF xmlns:rdf="http://www.w3.org/1999/02/22-rdf-syntax-ns#">
      <rdf:Description rdf:about=""/>
   </rdf:RDF>
</x:xmpmeta>





















<?xpacket end="w"?></metadata>
<defs>
    <style>
      .cls-1 {
        fill: #353535;
        fill-rule: evenodd;
        opacity: 0.8;
      }
    </style>
  </defs>
  <path id="_" data-name="" class="cls-1" d="M826.75,722.98a3.575,3.575,0,0,0-2.666,1.114A3.65,3.65,0,0,0,823,726.73v20.04a3.648,3.648,0,0,0,1.084,2.636,3.575,3.575,0,0,0,2.666,1.114h10.02a3.8,3.8,0,0,0,3.75-3.75V726.73a3.8,3.8,0,0,0-3.75-3.75H826.75ZM829.27,748v-1.23h4.98V748h-4.98Zm-4.1-3.75V726.73h13.125v17.52H825.168Z" transform="translate(-823 -722.969)"/>
</svg>
