<?xml version="1.0" encoding="utf-8"?>
<!-- Generator: Adobe Illustrator 24.3.0, SVG Export Plug-In . SVG Version: 6.00 Build 0)  -->
<svg version="1.0" id="Layer_1" xmlns="http://www.w3.org/2000/svg" xmlns:xlink="http://www.w3.org/1999/xlink" x="0px" y="0px"
	 viewBox="0 0 61.6 61.8" style="enable-background:new 0 0 61.6 61.8;" xml:space="preserve">
<style type="text/css">
	.st0{fill:#FEE78B;}
	.st1{clip-path:url(#SVGID_2_);}
	.st2{fill:none;stroke:#4B4B4B;stroke-width:3;stroke-linecap:round;}
	.st3{clip-path:url(#SVGID_4_);}
	.st4{fill:#4B4B4B;}
	.st5{fill:none;stroke:#353635;stroke-width:2;stroke-miterlimit:10;}
	.st6{fill:none;stroke:#009FD1;stroke-width:3;stroke-miterlimit:10;}
	.st7{fill:#009FD1;}
	.st8{fill:none;stroke:#D63427;stroke-width:3;stroke-miterlimit:10;}
	.st9{fill:#353635;}
	.st10{fill:#D63427;}
	.st11{clip-path:url(#SVGID_6_);}
	.st12{clip-path:url(#SVGID_8_);}
</style>
<g>
	<g>
		<rect x="25.9" y="24.6" transform="matrix(0.9416 -0.3369 0.3369 0.9416 -6.5616 13.3584)" class="st9" width="18.7" height="2"/>
	</g>
	<g>
		<g>
			<g>
				<path class="st9" d="M26.9,53.8C12.1,53.8,0,41.7,0,26.9C0,12.1,12.1,0,26.9,0c14.8,0,26.9,12.1,26.9,26.9h-2
					C51.8,13.2,40.6,2,26.9,2S2,13.2,2,26.9s11.2,24.9,24.9,24.9V53.8z"/>
			</g>
			<g>
				<g>
					<rect x="10.6" y="9.8" transform="matrix(0.707 -0.7072 0.7072 0.707 -4.5243 11.521)" class="st9" width="2" height="2.8"/>
				</g>
				<g>
					
						<rect x="40.5" y="10.2" transform="matrix(0.7071 -0.7071 0.7071 0.7071 4.3482 32.9394)" class="st9" width="2.8" height="2"/>
				</g>
				<g>
					
						<rect x="10.2" y="40.5" transform="matrix(0.7071 -0.7071 0.7071 0.7071 -25.9446 20.3916)" class="st9" width="2.8" height="2"/>
				</g>
			</g>
			<g>
				<g>
					<rect x="3.9" y="25.4" class="st9" width="2.8" height="2"/>
				</g>
				<g>
					<rect x="25.8" y="3.5" class="st9" width="2" height="2.8"/>
				</g>
				<g>
					<rect x="25.8" y="46.4" class="st9" width="2" height="2.8"/>
				</g>
			</g>
			<g>
				
					<rect x="21.4" y="17.9" transform="matrix(0.3949 -0.9187 0.9187 0.3949 0.5873 39.7433)" class="st7" width="18.1" height="3"/>
			</g>
			<g>
				<circle class="st7" cx="26.8" cy="28.2" r="2.9"/>
			</g>
		</g>
		<g>
			<g>
				<path class="st10" d="M46.9,40.3c-7.1,0-14.7-1.8-14.7-5.7c0-3.9,7.6-5.7,14.7-5.7c7.1,0,14.7,1.8,14.7,5.7
					C61.6,38.6,54,40.3,46.9,40.3z M46.9,31.9c-7.6,0-11.5,2-11.7,2.7c0.2,0.7,4.2,2.7,11.7,2.7c7.5,0,11.4-1.9,11.7-2.7
					C58.3,33.9,54.4,31.9,46.9,31.9z"/>
			</g>
			<g>
				<path class="st10" d="M46.9,46.5c-2.5,0-14.7-0.2-14.7-4.7v-7.3h3v7.1c0.8,0.7,4.9,1.9,11.7,1.9c7.1,0,11.3-1.3,11.8-2
					c0,0-0.1,0.2-0.1,0.3h3C61.6,46.3,49.3,46.5,46.9,46.5z"/>
			</g>
			<g>
				<rect x="58.6" y="34.6" class="st10" width="3" height="7.2"/>
			</g>
			<g>
				<path class="st10" d="M46.9,53.7c-2.5,0-14.7-0.2-14.7-4.7v-7.3h3v7.1c0.8,0.7,4.9,1.9,11.7,1.9c7.1,0,11.3-1.3,11.8-2
					c0,0-0.1,0.2-0.1,0.3h3C61.6,53.5,49.3,53.7,46.9,53.7z"/>
			</g>
			<g>
				<rect x="58.6" y="41.8" class="st10" width="3" height="7.2"/>
			</g>
			<g>
				<path class="st10" d="M46.9,61.8c-2.5,0-14.7-0.2-14.7-4.7V49h3v7.8c0.8,0.7,4.9,1.9,11.7,1.9c7.1,0,11.3-1.3,11.8-2
					c0,0-0.1,0.2-0.1,0.3h3C61.6,61.6,49.3,61.8,46.9,61.8z"/>
			</g>
			<g>
				<rect x="58.6" y="47.2" class="st10" width="3" height="9.9"/>
			</g>
		</g>
	</g>
</g>
</svg>
