<svg id="icon" xmlns="http://www.w3.org/2000/svg" viewBox="0 0 73.05 71.13"><title>1</title><path d="M32.56,11.65s-9,9.1-8.26,30" style="fill:none;stroke:#009fd1;stroke-miterlimit:10;stroke-width:3px"/><path d="M39.39,11s10.25,9.49,9.48,31.06" style="fill:none;stroke:#d63227;stroke-miterlimit:10;stroke-width:3px"/><path d="M11.7,38.36c5.45,0,10.08,1.47,11.77,3.51a0.84,0.84,0,0,0,1.31,0c1.69-2,6.32-3.51,11.77-3.51s10.07,1.47,11.76,3.51a0.82,0.82,0,0,0,1.27,0c1.69-2,6.32-3.51,11.76-3.51,4.52,0,8.46,1,10.65,2.52a35.48,35.48,0,0,0-70.93,0C3.24,39.37,7.18,38.36,11.7,38.36Z" style="fill:none;stroke:#353535;stroke-miterlimit:10;stroke-width:2px"/><line x1="36.52" y1="6.4" x2="36.52" style="fill:none;stroke:#353535;stroke-miterlimit:10;stroke-width:2px"/><path d="M35.85,38.5V66.67a3.47,3.47,0,0,0,3.47,3.47h0a3.47,3.47,0,0,0,3.47-3.47V61.26" style="fill:none;stroke:#353535;stroke-miterlimit:10;stroke-width:2px"/></svg>