<svg id="Layer_1" data-name="Layer 1" xmlns="http://www.w3.org/2000/svg" xmlns:xlink="http://www.w3.org/1999/xlink" viewBox="0 0 35 35"><defs><style>.cls-1,.cls-3{fill:none;}.cls-2{clip-path:url(#clip-path);}.cls-3{stroke:#d4583e;stroke-miterlimit:10;stroke-width:1.67px;}</style><clipPath id="clip-path" transform="translate(-653.85 -9543.35)"><rect class="cls-1" x="653.85" y="9543.35" width="35" height="35"/></clipPath></defs><title>single-page-apps</title><g class="cls-2"><polygon class="cls-3" points="17.5 0.83 14.27 0.83 14.27 5.67 11.05 6.75 7.82 3.52 3.52 7.82 6.75 11.05 5.67 14.27 0.83 14.27 0.83 20.73 5.67 20.73 6.75 23.95 3.52 27.18 7.82 31.48 11.05 28.25 14.27 29.33 14.27 34.17 17.5 34.17 20.73 34.17 20.73 29.33 23.95 28.25 27.18 31.48 31.48 27.18 28.25 23.95 29.33 20.73 34.17 20.73 34.17 14.27 29.33 14.27 28.25 11.05 31.48 7.82 27.18 3.52 23.95 6.75 20.73 5.67 20.73 0.83 17.5 0.83"/><circle class="cls-3" cx="17.5" cy="17.5" r="3.23"/></g></svg>
