<svg id="Layer_1" data-name="Layer 1" xmlns="http://www.w3.org/2000/svg" xmlns:xlink="http://www.w3.org/1999/xlink" viewBox="0 0 77 68"><defs><style>.cls-1,.cls-4,.cls-5,.cls-6,.cls-7{fill:none;}.cls-2{clip-path:url(#clip-path);}.cls-3{fill:#fff;}.cls-4{stroke:#000;}.cls-4,.cls-5,.cls-6{stroke-miterlimit:10;stroke-width:2px;}.cls-5,.cls-7{stroke:#00a0d2;}.cls-6{stroke:#d73227;}.cls-7{stroke-linejoin:round;stroke-width:1.5px;}</style><clipPath id="clip-path"><rect class="cls-1" width="77" height="68"/></clipPath></defs><title>psd-to-wp-6</title><g class="cls-2"><path class="cls-3" d="M67.28,6.82A4.8,4.8,0,0,1,72,11.68V36"/><path class="cls-4" d="M67.28,6.82A4.8,4.8,0,0,1,72,11.68V36"/><line class="cls-5" x1="6" y1="25" x2="6" y2="6"/><path class="cls-3" d="M26,1H61.28A4.8,4.8,0,0,1,66,5.85V36"/><path class="cls-4" d="M26,1H61.28A4.8,4.8,0,0,1,66,5.85V36"/><path class="cls-5" d="M5.72,5.85A4.8,4.8,0,0,1,10.44,1H24"/><path class="cls-6" d="M44,36H71.29A4.79,4.79,0,0,1,76,40.84V62.16A4.79,4.79,0,0,1,71.29,67H64"/><path class="cls-4" d="M54,67H5.72A4.8,4.8,0,0,1,1,62.15V28.62A4.57,4.57,0,0,1,5.49,24H20.76l4.18,12H43"/><line class="cls-3" x1="61" y1="67" x2="57" y2="67"/><line class="cls-4" x1="61" y1="67" x2="57" y2="67"/><path class="cls-4" d="M22,26H58.12A1.88,1.88,0,0,0,60,24.13V13.87A1.88,1.88,0,0,0,58.12,12H13.88A1.88,1.88,0,0,0,12,13.87V24"/><line x1="44" y1="7" x2="48" y2="7"/><line class="cls-4" x1="44" y1="7" x2="48" y2="7"/><line x1="38" y1="7" x2="41" y2="7"/><line class="cls-4" x1="38" y1="7" x2="41" y2="7"/><line x1="12" y1="6" x2="15" y2="6"/><line class="cls-4" x1="12" y1="6" x2="15" y2="6"/><line x1="57" y1="7" x2="61" y2="7"/><line class="cls-4" x1="57" y1="7" x2="61" y2="7"/><line x1="51" y1="7" x2="55" y2="7"/><line class="cls-4" x1="51" y1="7" x2="55" y2="7"/><line x1="30" y1="31" x2="61" y2="31"/><line class="cls-4" x1="30" y1="31" x2="61" y2="31"/><polyline class="cls-7" points="28.27 47 22.66 51.19 24.8 57.97 19.19 53.78 13.58 57.97 15.72 51.19 10.12 47 17.05 47 19.19 40.22 21.33 47"/></g></svg>