<svg id="Layer_1" data-name="Layer 1" xmlns="http://www.w3.org/2000/svg" xmlns:xlink="http://www.w3.org/1999/xlink" viewBox="0 0 82 62"><defs><style>.cls-1,.cls-3,.cls-4,.cls-5{fill:none;}.cls-2{clip-path:url(#clip-path);}.cls-3{stroke:#231f20;}.cls-3,.cls-4,.cls-5{stroke-linecap:round;stroke-miterlimit:10;stroke-width:2px;}.cls-4{stroke:#00a0d2;}.cls-5{stroke:#d73227;}</style><clipPath id="clip-path" transform="translate(0 0)"><rect class="cls-1" width="82" height="61.58"/></clipPath></defs><title>psd-to-email-3</title><g class="cls-2"><path class="cls-3" d="M77.28,21.27V47.2a4.71,4.71,0,0,1-4.69,4.69H17.7" transform="translate(0 0)"/><line class="cls-3" x1="77.28" y1="11.83" x2="77.28" y2="15.96"/><path class="cls-3" d="M8.59,23.76v-16a4.7,4.7,0,0,1,4.69-4.69H69" transform="translate(0 0)"/><path class="cls-4" d="M1,37.68L7.48,31.2a2,2,0,0,1,2.76,0l6.48,6.48" transform="translate(0 0)"/><path class="cls-5" d="M16.87,14L38.19,35.37a6.43,6.43,0,0,0,9.07,0L81,1" transform="translate(0 0)"/><line class="cls-4" x1="9.01" y1="31.62" x2="9.01" y2="60.58"/></g></svg>
