<svg xmlns="http://www.w3.org/2000/svg" width="13" height="13" viewBox="0 0 13 13">
  <metadata><?xpacket begin="﻿" id="W5M0MpCehiHzreSzNTczkc9d"?>
<x:xmpmeta xmlns:x="adobe:ns:meta/" x:xmptk="Adobe XMP Core 5.6-c138 79.159824, 2016/09/14-01:09:01        ">
   <rdf:RDF xmlns:rdf="http://www.w3.org/1999/02/22-rdf-syntax-ns#">
      <rdf:Description rdf:about=""/>
   </rdf:RDF>
</x:xmpmeta>





















<?xpacket end="w"?></metadata>
<defs>
    <style>
      .cls-1 {
        fill-rule: evenodd;
      }
    </style>
  </defs>
  <path id="fa-github" class="cls-1" d="M1286.21,918.021a6.415,6.415,0,0,0-5.57-3.2,6.265,6.265,0,0,0-3.22.862,6.335,6.335,0,0,0-2.34,2.339,6.432,6.432,0,0,0,3.53,9.329,0.362,0.362,0,0,0,.33-0.058,0.306,0.306,0,0,0,.11-0.251v-0.452c0-.285-0.01-0.533-0.01-0.745l-0.19.033a2.439,2.439,0,0,1-.46.03,3.566,3.566,0,0,1-.58-0.059,1.324,1.324,0,0,1-.57-0.251,1.049,1.049,0,0,1-.36-0.515l-0.09-.192a1.815,1.815,0,0,0-.26-0.427,1.01,1.01,0,0,0-.36-0.318l-0.06-.042a0.5,0.5,0,0,1-.11-0.1,0.407,0.407,0,0,1-.08-0.117,0.08,0.08,0,0,1,.04-0.1,0.589,0.589,0,0,1,.25-0.038l0.16,0.025a1.239,1.239,0,0,1,.42.2,1.327,1.327,0,0,1,.4.435,1.518,1.518,0,0,0,.47.524,0.974,0.974,0,0,0,.55.18,2.288,2.288,0,0,0,.47-0.042,1.631,1.631,0,0,0,.38-0.126,1.37,1.37,0,0,1,.41-0.862,5.922,5.922,0,0,1-.86-0.151,3.465,3.465,0,0,1-.78-0.326,2.316,2.316,0,0,1-.68-0.561,2.775,2.775,0,0,1-.44-0.879,4.325,4.325,0,0,1-.17-1.255,2.445,2.445,0,0,1,.66-1.725,2.307,2.307,0,0,1,.06-1.707,1.167,1.167,0,0,1,.72.113,5.029,5.029,0,0,1,.7.322c0.15,0.089.27,0.165,0.36,0.226a6.017,6.017,0,0,1,3.21,0l0.32-.2a4.392,4.392,0,0,1,.77-0.368,1.088,1.088,0,0,1,.68-0.092,2.213,2.213,0,0,1,.06,1.707,2.445,2.445,0,0,1,.66,1.725,4.043,4.043,0,0,1-.17,1.259,2.527,2.527,0,0,1-.44.879,2.336,2.336,0,0,1-.68.557,3.349,3.349,0,0,1-.79.326,5.775,5.775,0,0,1-.85.151,1.489,1.489,0,0,1,.43,1.189v1.766a0.338,0.338,0,0,0,.11.251,0.362,0.362,0,0,0,.33.058A6.449,6.449,0,0,0,1286.21,918.021Z" transform="translate(-1274.22 -914.813)"/>
</svg>
