<svg id="Layer_3" data-name="Layer 3" xmlns="http://www.w3.org/2000/svg" viewBox="0 0 32 37"><defs><style>.cls-1{fill:none;stroke:#433f22;stroke-miterlimit:10;stroke-width:1.2px;}</style></defs><title>small_icons_1</title><path class="cls-1" d="M6.89,3.51H29.42A1.48,1.48,0,0,1,30.91,5V8.5H13.78"/><path class="cls-1" d="M30.91,12.1V32.41a1.48,1.48,0,0,1-1.48,1.48H6.89"/><polygon class="cls-1" points="3.28 34.97 4.39 34.97 5.04 13.48 2.63 13.48 3.28 34.97"/><path class="cls-1" d="M4.83,11.27S8,9.36,5.71,5.6C5,4.44,3.85,3.5,3.83,1.68c0,0-4.88,5.42-1.5,9.58"/><polyline class="cls-1" points="9.46 15.38 14.66 28.06 17.45 19.79"/><polyline class="cls-1" points="16.38 16.04 19.95 27.58 24.59 15.38"/></svg>
