<svg xmlns="http://www.w3.org/2000/svg" viewBox="0 0 38.38 43.73"><g id="Layer_1" data-name="Layer 1"><path d="M7.78,3.83H35.93a1.85,1.85,0,0,1,1.85,1.85v4.37H16.38" style="fill:none;stroke:#444023;stroke-miterlimit:10;stroke-width:1.20000004768372px"/><path d="M37.78,14.56V39.93a1.85,1.85,0,0,1-1.85,1.85H7.78" style="fill:none;stroke:#444023;stroke-miterlimit:10;stroke-width:1.20000004768372px"/><polygon points="3.27 43.13 4.66 43.13 5.47 16.28 2.45 16.28 3.27 43.13" style="fill:none;stroke:#444023;stroke-miterlimit:10;stroke-width:1.20000004768372px"/><path d="M5.21,13.52S9.13,11.14,6.3,6.44C5.43,5,4,3.81,4,1.55c0,0-6.09,6.76-1.87,12" style="fill:none;stroke:#444023;stroke-miterlimit:10;stroke-width:1.20000004768372px"/><path d="M27.66,22.36V19.21a2.33,2.33,0,1,0-2-.06v3.21A6.13,6.13,0,0,0,23,23.49l-8.21-6.31a2.44,2.44,0,1,0-1.27,1.61l8,6.18a6.21,6.21,0,0,0,0,7L19,34.48A2.07,2.07,0,1,0,20,38a2.08,2.08,0,0,0,.52-2.06l2.42-2.41a6.16,6.16,0,0,0,3.7,1.23,6.22,6.22,0,0,0,1-12.35Zm-1,9.74a3.61,3.61,0,1,1,3.61-3.61A3.61,3.61,0,0,1,26.63,32.1Z" style="fill:none;stroke:#444023;stroke-miterlimit:10;stroke-width:1.20000004768372px"/></g></svg>