<svg id="Layer_3" data-name="Layer 3" xmlns="http://www.w3.org/2000/svg" viewBox="0 0 36 39"><defs><style>.cls-1{fill:none;stroke:#433f22;stroke-miterlimit:10;stroke-width:1.2px;}</style></defs><title>small_icons_4</title><path class="cls-1" d="M28.78,21.56V18.94l-3.1-.17a7.74,7.74,0,0,0-1.19-2.87l2.07-2.31L24.7,11.72l-2.31,2.07a7.74,7.74,0,0,0-2.87-1.19L19.34,9.5H16.72l-0.17,3.1a7.74,7.74,0,0,0-2.87,1.19l-2.31-2.07L9.51,13.58l2.07,2.31a7.75,7.75,0,0,0-1.19,2.87l-3.1.17v2.63l3.1,0.17a7.75,7.75,0,0,0,1.19,2.87L9.51,26.92l1.86,1.86,2.31-2.07a7.75,7.75,0,0,0,2.87,1.19L16.72,31h2.63l0.17-3.1a7.75,7.75,0,0,0,2.87-1.19l2.31,2.07,1.86-1.86-2.07-2.31a7.74,7.74,0,0,0,1.19-2.87Z"/><path class="cls-1" d="M22,3.86a16.86,16.86,0,0,1,9.42,26.69"/><path class="cls-1" d="M2.79,27.45A16.86,16.86,0,0,1,18,3.4"/><path class="cls-1" d="M29.52,32.58A16.85,16.85,0,0,1,4.46,30.24"/><polyline class="cls-1" points="16.19 0.82 18.77 3.4 16.19 5.97"/><polyline class="cls-1" points="34.7 30.19 31.16 30.99 30.35 27.45"/><polyline class="cls-1" points="3.38 33.1 4 29.51 7.59 30.13"/></svg>
