<svg id="Layer_3" data-name="Layer 3" xmlns="http://www.w3.org/2000/svg" viewBox="0 0 35 35"><defs><style>.cls-1{fill:none;stroke:#433f22;stroke-miterlimit:10;stroke-width:1.2px;}</style></defs><title>small_icons_2</title><path class="cls-1" d="M32.2,33.62h-30a1.4,1.4,0,0,1-1.4-1.4V13.62L15.56,23.76a2.87,2.87,0,0,0,3.24,0L33.6,13.62V32.22A1.4,1.4,0,0,1,32.2,33.62Z"/><polyline class="cls-1" points="8.68 19.05 14.49 2.55 25.45 11.35 18.8 23.76"/><polyline class="cls-1" points="19.65 6.7 21.91 1.24 30.86 9.32 24.21 20.05"/><line class="cls-1" x1="0.75" y1="13.62" x2="12.7" y2="7.63"/><line class="cls-1" x1="29.8" y1="11.58" x2="33.6" y2="13.62"/><path class="cls-1" d="M11,20.39a5.55,5.55,0,0,1,.3-2.17c0.74-2.18,2.57-3.52,4.09-3s2.16,2.7,1.42,4.88a4.88,4.88,0,0,1-2.26,2.82"/><line class="cls-1" x1="21.38" y1="27.2" x2="27.21" y2="30.04"/><line class="cls-1" x1="12.67" y1="27.09" x2="6.84" y2="29.93"/></svg>
