<svg width="29" height="30" viewBox="0 0 29 30" fill="none" xmlns="http://www.w3.org/2000/svg">
<path d="M12.1162 6.00001H5.4V15.9788L0.01125 11.9906C0.10125 10.9725 0.624375 10.0275 1.45687 9.41438L2.7 8.49188V6.00001C2.7 4.50938 3.90937 3.30001 5.4 3.30001H9.70875L12.5156 1.22438C13.0612 0.819381 13.7194 0.600006 14.4 0.600006C15.0806 0.600006 15.7387 0.819381 16.2844 1.21876L19.0912 3.30001H23.4C24.8906 3.30001 26.1 4.50938 26.1 6.00001V8.49188L27.3431 9.41438C28.1756 10.0275 28.6987 10.9725 28.7887 11.9906L23.4 15.9788V6.00001H12.1162ZM0 25.8V14.2181L12.24 23.2856C12.8644 23.7469 13.6237 24 14.4 24C15.1762 24 15.9356 23.7525 16.56 23.2856L28.8 14.2181V25.8C28.8 27.7856 27.1856 29.4 25.2 29.4H3.6C1.61437 29.4 0 27.7856 0 25.8ZM9.9 9.60001H18.9C19.395 9.60001 19.8 10.005 19.8 10.5C19.8 10.995 19.395 11.4 18.9 11.4H9.9C9.405 11.4 9 10.995 9 10.5C9 10.005 9.405 9.60001 9.9 9.60001ZM9.9 13.2H18.9C19.395 13.2 19.8 13.605 19.8 14.1C19.8 14.595 19.395 15 18.9 15H9.9C9.405 15 9 14.595 9 14.1C9 13.605 9.405 13.2 9.9 13.2Z" fill="black"/>
</svg>
