<svg id="Layer_3" data-name="Layer 3" xmlns="http://www.w3.org/2000/svg" viewBox="0 0 44 28"><defs><style>.cls-1{fill:none;stroke:#433f22;stroke-miterlimit:10;stroke-width:1.2px;}</style></defs><title>small_icons_3</title><path class="cls-1" d="M1.53,18.57s6-5.88,12.48.83c0,0,4.66-7.69,13.32-2.7"/><path class="cls-1" d="M10.59,7.19A4.11,4.11,0,0,1,15.87,8,3.73,3.73,0,0,1,21.16,7"/><path class="cls-1" d="M25.55,10.67a4.48,4.48,0,0,1,5.75.91,4.06,4.06,0,0,1,5.75-1.17"/><path class="cls-1" d="M19,22.9s7-5,12.28,2.92a7.64,7.64,0,0,1,10.87-2.5"/><path class="cls-1" d="M25.55,1.56a2.56,2.56,0,0,1,3.29.52,2.32,2.32,0,0,1,3.29-.67"/></svg>
