<svg xmlns="http://www.w3.org/2000/svg" viewBox="0 0 82.46 85.64"><defs><style>.cls-1,.cls-2,.cls-3{fill:none;stroke:#000;stroke-linecap:round;stroke-miterlimit:10;}.cls-1{stroke-width:2px;}.cls-3{stroke-dasharray:3.42 5.12;}</style></defs><title>Asset 1</title><g id="Layer_2" data-name="Layer 2"><g id="Layer_1-2" data-name="Layer 1"><path class="cls-1" d="M52.6,38.56a28.72,28.72,0,1,1-6-5.84"/><path class="cls-2" d="M4.24,34.13q.65-.77,1.34-1.49"/><path class="cls-3" d="M9.39,29.23a33.57,33.57,0,0,1,21.52-6.94"/><path class="cls-2" d="M33.46,22.47q1,.11,2,.28"/><path class="cls-1" d="M58.18,59.83"/><path class="cls-1" d="M58.42,54.75"/><path class="cls-1" d="M43.92,45A17.94,17.94,0,1,1,39.72,41"/><path class="cls-1" d="M26.37,79.39a23.56,23.56,0,0,1-9.89-3.81"/><path class="cls-1" d="M36.12,52.67a7.17,7.17,0,1,1-3.45-3.28"/><polygon class="cls-1" points="79.69 15.48 64.51 30.66 53.61 32.05 54.99 21.15 70.17 5.97 68.79 16.86 79.69 15.48"/><line class="cls-2" x1="81" y1="6.99" x2="76.69" y2="11.3"/><line class="cls-2" x1="73.82" y1="26.38" x2="69.51" y2="30.68"/><line class="cls-2" x1="81.31" y1="0.5" x2="79.37" y2="2.44"/><line class="cls-1" x1="68.58" y1="16.56" x2="29.49" y2="55.65"/></g></g></svg>