<?xml version="1.0" encoding="utf-8"?>
<!-- Generator: Adobe Illustrator 19.2.0, SVG Export Plug-In . SVG Version: 6.00 Build 0)  -->
<svg version="1.1" xmlns="http://www.w3.org/2000/svg" xmlns:xlink="http://www.w3.org/1999/xlink" x="0px" y="0px"
	 viewBox="0 0 42 73" style="enable-background:new 0 0 41.8 72.1;" xml:space="preserve">
<style type="text/css">
	.st0{fill:none;stroke:#353535;stroke-width:2;stroke-miterlimit:10;}
	.st1{fill:#CCECF6;}
	.st2{fill:#F7D4D1;}
	.st3{fill:#FAEB8B;}
	.st4{fill:none;stroke:#353535;stroke-width:2;stroke-miterlimit:10;}
	.st5{fill:none;stroke:#0C9FD2;stroke-width:2;stroke-miterlimit:10;}
	.st6{fill:#FFE36C;}
	.st7{opacity:0.3;fill:#009FD1;}
	.st8{opacity:0.3;}
	.st9{fill:#D63227;}
	.st10{fill:#EEEDED;}
	.st11{fill:#009FD1;}
	.st12{opacity:0.7;fill:#D63227;}
	.st13{fill:none;stroke:#FFFFFF;stroke-width:2;stroke-miterlimit:10;}
	.st14{opacity:0.3;fill:#D63227;}
	.st15{opacity:0.3;fill:#B2D235;}
	.st16{fill:#FFFFFF;stroke:#353535;stroke-width:2;stroke-miterlimit:10;}
</style>
<g id="Layer_1">
	<path class="st0" d="M17.5,29.1l-7.2-4.9L2.9,3.7C2.6,2.6,3.4,1.5,4.5,1.5h33.6c1.1,0,1.9,1.1,1.5,2.2l-7.3,20.6l-11.1,4.9V36
		c10.2,0,18.3,8.8,17.2,19.2c-0.9,7.9-7.3,14.3-15.2,15.2C12.9,71.6,4,63.5,4,53.3c0-8.7,6.4-15.8,14.7-17.1"/>
	<line class="st0" x1="12.6" y1="1.5" x2="12.6" y2="24.8"/>
	<line class="st0" x1="29.9" y1="1.5" x2="29.9" y2="24.8"/>
	<line class="st0" x1="21.3" y1="1.5" x2="21.3" y2="24.8"/>
	<path class="st0" d="M21.8,43.6l1.9,5.8c0.1,0.2,0.2,0.3,0.4,0.3h6.1c0.4,0,0.6,0.5,0.3,0.8l-4.9,3.6c-0.2,0.1-0.2,0.3-0.2,0.5
		l1.9,5.8c0.1,0.4-0.3,0.7-0.7,0.5l-4.9-3.6c-0.2-0.1-0.4-0.1-0.5,0l-4.9,3.6c-0.3,0.2-0.8-0.1-0.7-0.5l1.9-5.8
		c0.1-0.2,0-0.4-0.2-0.5l-4.9-3.6c-0.3-0.2-0.2-0.8,0.3-0.8h6.1c0.2,0,0.4-0.1,0.4-0.3l1.9-5.8C21.1,43.2,21.6,43.2,21.8,43.6z"/>
</g>
<g id="Layer_2">
</g>
</svg>
