<svg id="Layer_3" data-name="Layer 3" xmlns="http://www.w3.org/2000/svg" viewBox="0 0 35 35"><defs><style>.cls-1{fill:none;stroke:#433f22;stroke-miterlimit:10;stroke-width:1.2px;}</style></defs><title>small_icons_4</title><path class="cls-1" d="M33.73,19.43v-4L29,15.14a11.89,11.89,0,0,0-1.82-4.41l3.18-3.55L27.48,4.33,23.93,7.51a11.88,11.88,0,0,0-4.41-1.82L19.25,0.93h-4L15,5.69a11.88,11.88,0,0,0-4.41,1.82L7,4.33,4.16,7.18l3.18,3.55a11.89,11.89,0,0,0-1.82,4.41l-4.76.26v4l4.76,0.26a11.89,11.89,0,0,0,1.82,4.41L4.16,27.65,7,30.5l3.55-3.18A11.89,11.89,0,0,0,15,29.15l0.26,4.76h4l0.26-4.76a11.89,11.89,0,0,0,4.41-1.82l3.55,3.18,2.85-2.85-3.18-3.55A11.89,11.89,0,0,0,29,19.69Z"/><polyline class="cls-1" points="14.99 22.32 10.09 17.42 14.99 12.52"/><polyline class="cls-1" points="19.81 12.52 24.7 17.42 19.81 22.32"/></svg>
