<svg width="48" height="42" viewBox="0 0 48 42" fill="none" xmlns="http://www.w3.org/2000/svg">
<path d="M31.5195 9.87988H9.76953L13.5595 32.7699C13.8195 34.3699 15.3295 35.6599 16.9295 35.6599H38.4395" stroke="black" stroke-width="2" stroke-miterlimit="10"/>
<path d="M15.8203 28.9899H39.9903C41.2703 28.9899 42.3003 28.2299 42.6203 27.0599L46.0803 14.3999C46.6603 12.2699 44.7103 9.87988 42.3803 9.87988H40.0103" stroke="black" stroke-width="2" stroke-miterlimit="10"/>
<path d="M9.77048 9.87994C8.78048 3.87994 7.15047 1.43994 0.480469 1.43994" stroke="black" stroke-width="2" stroke-miterlimit="10"/>
<path d="M18.1992 40.8799C19.5799 40.8799 20.6992 39.7606 20.6992 38.3799C20.6992 36.9992 19.5799 35.8799 18.1992 35.8799C16.8185 35.8799 15.6992 36.9992 15.6992 38.3799C15.6992 39.7606 16.8185 40.8799 18.1992 40.8799Z" stroke="black" stroke-width="2" stroke-miterlimit="10"/>
<path d="M36.6523 40.8799C38.0331 40.8799 39.1523 39.7606 39.1523 38.3799C39.1523 36.9992 38.0331 35.8799 36.6523 35.8799C35.2716 35.8799 34.1523 36.9992 34.1523 38.3799C34.1523 39.7606 35.2716 40.8799 36.6523 40.8799Z" stroke="black" stroke-width="2" stroke-miterlimit="10"/>
<path d="M20.2109 14.7101L27.851 22.9401L39.9909 3.6001" stroke="black" stroke-width="2" stroke-miterlimit="10"/>
</svg>
