<svg width="29" height="28" viewBox="0 0 29 28" fill="none" xmlns="http://www.w3.org/2000/svg">
<path d="M9.01892 22.0833L14.2689 18.9167L19.5189 22.125L18.1439 16.125L22.7689 12.125L16.6856 11.5833L14.2689 5.91667L11.8523 11.5417L5.76892 12.0833L10.3939 16.125L9.01892 22.0833ZM14.2689 22.8333L7.35225 27C7.04669 27.1944 6.72725 27.2778 6.39392 27.25C6.06058 27.2222 5.76892 27.1111 5.51892 26.9167C5.26892 26.7222 5.07447 26.4794 4.93558 26.1883C4.79669 25.8961 4.76892 25.5694 4.85225 25.2083L6.68558 17.3333L0.560583 12.0417C0.282805 11.7917 0.109472 11.5067 0.0405829 11.1867C-0.0294171 10.8678 -0.0088617 10.5556 0.102249 10.25C0.213361 9.94445 0.380027 9.69444 0.602249 9.5C0.824472 9.30556 1.13003 9.18056 1.51892 9.125L9.60225 8.41667L12.7272 1C12.8661 0.666667 13.0817 0.416667 13.3739 0.25C13.665 0.0833335 13.9634 0 14.2689 0C14.5745 0 14.8734 0.0833335 15.1656 0.25C15.4567 0.416667 15.6717 0.666667 15.8106 1L18.9356 8.41667L27.0189 9.125C27.4078 9.18056 27.7134 9.30556 27.9356 9.5C28.1578 9.69444 28.3245 9.94445 28.4356 10.25C28.5467 10.5556 28.5678 10.8678 28.4989 11.1867C28.4289 11.5067 28.255 11.7917 27.9772 12.0417L21.8522 17.3333L23.6856 25.2083C23.7689 25.5694 23.7411 25.8961 23.6022 26.1883C23.4634 26.4794 23.2689 26.7222 23.0189 26.9167C22.7689 27.1111 22.4772 27.2222 22.1439 27.25C21.8106 27.2778 21.4911 27.1944 21.1856 27L14.2689 22.8333Z" fill="#000"/>
</svg>
