<?xml version="1.0" encoding="utf-8"?>
<!-- Generator: Adobe Illustrator 19.2.0, SVG Export Plug-In . SVG Version: 6.00 Build 0)  -->
<svg version="1.1" xmlns="http://www.w3.org/2000/svg" xmlns:xlink="http://www.w3.org/1999/xlink" x="0px" y="0px"
	 viewBox="0 0 64 61" style="enable-background:new 0 0 63.3 60.6;" xml:space="preserve">
<style type="text/css">
	.st0{fill:none;stroke:#353535;stroke-width:2;stroke-miterlimit:10;}
	.st1{fill:#CCECF6;}
	.st2{fill:#F7D4D1;}
	.st3{fill:#FAEB8B;}
	.st4{fill:none;stroke:#353535;stroke-width:2;stroke-miterlimit:10;}
	.st5{fill:none;stroke:#0C9FD2;stroke-width:2;stroke-miterlimit:10;}
	.st6{fill:#FFE36C;}
	.st7{opacity:0.3;fill:#009FD1;}
	.st8{opacity:0.3;}
	.st9{fill:#D63227;}
	.st10{fill:#EEEDED;}
	.st11{fill:#009FD1;}
	.st12{opacity:0.7;fill:#D63227;}
	.st13{fill:none;stroke:#FFFFFF;stroke-width:2;stroke-miterlimit:10;}
	.st14{opacity:0.3;fill:#D63227;}
	.st15{opacity:0.3;fill:#B2D235;}
	.st16{fill:#FFFFFF;stroke:#353535;stroke-width:2;stroke-miterlimit:10;}
</style>
<g id="Layer_1">
	<path class="st0" d="M43.5,22.2h16.7c1.6,0,2.3,2,1,3L45.4,36.6c-0.6,0.4-0.8,1.2-0.6,1.8l6,18.4c0.5,1.5-1.2,2.8-2.5,1.8
		L32.6,47.3c-0.6-0.4-1.4-0.4-1.9,0L15,58.7c-1.3,0.9-3-0.3-2.5-1.8c0,0,5.6-31,44.9-43.1"/>
	<path class="st0" d="M17.9,36.6L2.2,25.2c-1.3-0.9-0.6-3,1-3h19.4c0.7,0,1.3-0.5,1.6-1.1l6-18.4c0.5-1.5,2.6-1.5,3.1,0l5.1,15.6"/>
</g>
<g id="Layer_2">
</g>
</svg>
