<svg width="22" height="29" viewBox="0 0 22 29" fill="none" xmlns="http://www.w3.org/2000/svg">
<path d="M10.9987 7.33328C13.8277 7.33328 16.5408 8.45709 18.5412 10.4575C20.5416 12.4579 21.6654 15.171 21.6654 18C21.6654 20.8289 20.5416 23.542 18.5412 25.5424C16.5408 27.5428 13.8277 28.6666 10.9987 28.6666C8.16972 28.6666 5.45661 27.5428 3.45623 25.5424C1.45584 23.542 0.332031 20.8289 0.332031 18C0.332031 15.171 1.45584 12.4579 3.45623 10.4575C5.45661 8.45709 8.16972 7.33328 10.9987 7.33328ZM10.9987 9.99995C8.87697 9.99995 6.84213 10.8428 5.34184 12.3431C3.84155 13.8434 2.9987 15.8782 2.9987 18C2.9987 20.1217 3.84155 22.1565 5.34184 23.6568C6.84213 25.1571 8.87697 26 10.9987 26C13.1204 26 15.1553 25.1571 16.6556 23.6568C18.1558 22.1565 18.9987 20.1217 18.9987 18C18.9987 15.8782 18.1558 13.8434 16.6556 12.3431C15.1553 10.8428 13.1204 9.99995 10.9987 9.99995ZM10.9987 12L12.7627 15.5733L16.7054 16.1466L13.852 18.9266L14.5254 22.8546L10.9987 21L7.47203 22.8533L8.14536 18.9266L5.29203 16.1453L9.2347 15.572L10.9987 12ZM18.9987 0.666617V4.66662L17.1814 6.18395C15.6733 5.39273 14.0268 4.89973 12.332 4.73195V0.666617H18.9987ZM9.66537 0.665283V4.73195C7.97116 4.89948 6.32513 5.39202 4.81736 6.18262L2.9987 4.66662V0.666617L9.66537 0.665283Z" fill="black"/>
</svg>
